M48
METRIC,LZ,000.000
;FILE_FORMAT=3:3
;TYPE=PLATED
;Layer: PTH_Through
;EasyEDA v6.5.37, 2023-10-28 10:51:11
;4880e8b44b5e4911aa04234489c2fc7f,3a0c9916c2a341a084dc3cb5dc78798d,10
;Gerber Generator version 0.2
;Holesize 1 = 0.400 mm
T01C0.400
;Holesize 2 = 0.901 mm
T02C0.901
;Holesize 3 = 1.000 mm
T03C1.000
;Holesize 4 = 1.301 mm
T04C1.301
;Holesize 5 = 1.400 mm
T05C1.400
%
G05
G90
T01
X037181Y152050
X123556Y200150
X110262Y157973
X092577Y158306
X104074Y153607
X023259Y156783
X052277Y167640
X052277Y153807
X071130Y153825
X088718Y154390
X102631Y177929
X120447Y172200
X045439Y153632
X059437Y159511
T02
X017230Y165315G85X019330Y165315
X014780Y171065G85X014780Y168865
X020780Y168865G85X020780Y171065
X068580Y196850
X068580Y194310
X076200Y196850
X076200Y194310
T03
X120650Y132080
X123190Y132080
X120650Y134620
X123190Y134620
X085090Y168910G85X085090Y168910
X087630Y168910G85X087630Y168910
X085090Y171450G85X085090Y171450
X087630Y171450G85X087630Y171450
X085090Y173990G85X085090Y173990
X087630Y173990G85X087630Y173990
X085090Y176530G85X085090Y176530
X087630Y176530G85X087630Y176530
X085090Y179070G85X085090Y179070
X087630Y179070G85X087630Y179070
X085090Y181610G85X085090Y181610
X087630Y181610G85X087630Y181610
X085090Y184150G85X085090Y184150
X087630Y184150G85X087630Y184150
X085090Y186690G85X085090Y186690
X087630Y186690G85X087630Y186690
X085090Y189230G85X085090Y189230
X087630Y189230G85X087630Y189230
X085090Y191770G85X085090Y191770
X087630Y191770G85X087630Y191770
X113030Y168910G85X113030Y168910
X110490Y168910G85X110490Y168910
X110490Y171450G85X110490Y171450
X110490Y173990G85X110490Y173990
X110490Y176530G85X110490Y176530
X110490Y179070G85X110490Y179070
X110490Y181610G85X110490Y181610
X110490Y184150G85X110490Y184150
X110490Y186690G85X110490Y186690
X110490Y189230G85X110490Y189230
X110490Y191770G85X110490Y191770
X113030Y191770G85X113030Y191770
X113030Y189230G85X113030Y189230
X113030Y186690G85X113030Y186690
X113030Y184150G85X113030Y184150
X113030Y181610G85X113030Y181610
X113030Y179070G85X113030Y179070
X113030Y176530G85X113030Y176530
X113030Y173990G85X113030Y173990
X113030Y171450G85X113030Y171450
X010160Y120650
X010160Y123190
X027940Y120650
X027940Y123190
X045720Y120650
X045720Y123190
X063500Y120650
X063500Y123190
X081280Y120650
X081280Y123190
X099060Y120650
X099060Y123190
X125730Y190500
X123190Y190500
X125730Y193040
X123190Y193040
X124457Y180340G85X124462Y180340
X124457Y177800G85X124462Y177800
X124457Y175260G85X124462Y175260
X124457Y172720G85X124462Y172720
X124457Y170180G85X124462Y170180
X124457Y167640G85X124462Y167640
T04
X011780Y142260
X017780Y144260
X023780Y142260
X023780Y130060
X011780Y130060
X029560Y142260
X035560Y144260
X041560Y142260
X041560Y130060
X029560Y130060
X047340Y142260
X053340Y144260
X059340Y142260
X059340Y130060
X047340Y130060
X065120Y142260
X071120Y144260
X077120Y142260
X077120Y130060
X065120Y130060
X082900Y142260
X088900Y144260
X094900Y142260
X094900Y130060
X082900Y130060
X100680Y142260
X106680Y144260
X112680Y142260
X112680Y130060
X100680Y130060
T05
X124460Y119380
X120960Y119380
X117460Y119380
X012700Y195580
X012700Y192080
X012700Y188580
X022860Y119380
X019360Y119380
X015860Y119380
X040640Y119380
X037140Y119380
X033640Y119380
X058420Y119380
X054920Y119380
X051420Y119380
X076200Y119380
X072700Y119380
X069200Y119380
X093980Y119380
X090480Y119380
X086980Y119380
X111760Y119380
X108260Y119380
X104760Y119380
M30
