G04 Layer: BottomSolderMaskLayer*
G04 EasyEDA v6.5.37, 2023-10-28 10:51:11*
G04 4880e8b44b5e4911aa04234489c2fc7f,3a0c9916c2a341a084dc3cb5dc78798d,10*
G04 Gerber Generator version 0.2*
G04 Scale: 100 percent, Rotated: No, Reflected: No *
G04 Dimensions in millimeters *
G04 leading zeros omitted , absolute positions ,4 integer and 5 decimal *
%FSLAX45Y45*%
%MOMM*%

%AMMACRO1*1,1,$1,$2,$3*1,1,$1,$4,$5*1,1,$1,0-$2,0-$3*1,1,$1,0-$4,0-$5*20,1,$1,$2,$3,$4,$5,0*20,1,$1,$4,$5,0-$2,0-$3,0*20,1,$1,0-$2,0-$3,0-$4,0-$5,0*20,1,$1,0-$4,0-$5,$2,$3,0*4,1,4,$2,$3,$4,$5,0-$2,0-$3,0-$4,0-$5,$2,$3,0*%
%ADD10O,3.8015926X1.6015970000000002*%
%ADD11O,1.6015970000000002X3.9015924*%
%ADD12C,1.5016*%
%ADD13MACRO1,0.1016X1.2065X-1.75X-1.2065X-1.75*%
%ADD14O,2.6162X3.703193*%
%ADD15MACRO1,0.1016X1.75X1.2065X1.75X-1.2065*%
%ADD16O,3.703193X2.6162*%
%ADD17C,1.9016*%
%ADD18MACRO1,0.1016X0.9X-0.9X-0.9X-0.9*%
%ADD19C,1.7112*%
%ADD20MACRO1,0.1016X0.9X0.9X0.9X-0.9*%
%ADD21MACRO1,0.1016X-0.9X0.9X0.9X0.9*%
%ADD22MACRO1,0.2032X-0.85X0.85X0.85X0.85*%
%ADD23C,1.9032*%
%ADD24C,2.0000*%

%LPD*%
D10*
G01*
X1828037Y16531437D03*
D11*
G01*
X1478026Y16996511D03*
G01*
X2077974Y16996511D03*
D12*
G01*
X6858000Y19685000D03*
G01*
X6858000Y19431000D03*
G01*
X7620000Y19685000D03*
G01*
X7620000Y19431000D03*
D13*
G01*
X12445974Y11937977D03*
D14*
G01*
X12095962Y11937974D03*
G01*
X11745975Y11937974D03*
D15*
G01*
X1269997Y19557961D03*
D16*
G01*
X1270000Y19207937D03*
G01*
X1270000Y18857950D03*
D17*
G01*
X12064974Y13207974D03*
D18*
G01*
X12318974Y13207974D03*
D17*
G01*
X12064974Y13461974D03*
D18*
G01*
X12318974Y13461974D03*
D13*
G01*
X2285994Y11937977D03*
D14*
G01*
X1935988Y11937974D03*
G01*
X1586001Y11937974D03*
D13*
G01*
X4063992Y11937977D03*
D14*
G01*
X3713988Y11937974D03*
G01*
X3364001Y11937974D03*
D13*
G01*
X5841987Y11937977D03*
D14*
G01*
X5491988Y11937974D03*
G01*
X5142001Y11937974D03*
D13*
G01*
X7619984Y11937977D03*
D14*
G01*
X7269962Y11937974D03*
G01*
X6919975Y11937974D03*
D13*
G01*
X9397982Y11937977D03*
D14*
G01*
X9047962Y11937974D03*
G01*
X8697975Y11937974D03*
D13*
G01*
X11175977Y11937977D03*
D14*
G01*
X10825962Y11937974D03*
G01*
X10475975Y11937974D03*
D19*
G01*
X8508974Y16890974D03*
G01*
X8762974Y16890974D03*
G01*
X8508974Y17144974D03*
G01*
X8762974Y17144974D03*
G01*
X8508974Y17398974D03*
G01*
X8762974Y17398974D03*
G01*
X8508974Y17652974D03*
G01*
X8762974Y17652974D03*
G01*
X8508974Y17906974D03*
G01*
X8762974Y17906974D03*
G01*
X8508974Y18160974D03*
G01*
X8762974Y18160974D03*
G01*
X8508974Y18414974D03*
G01*
X8762974Y18414974D03*
G01*
X8508974Y18668974D03*
G01*
X8762974Y18668974D03*
G01*
X8508974Y18922974D03*
G01*
X8762974Y18922974D03*
G01*
X8508974Y19176974D03*
G01*
X8762974Y19176974D03*
G01*
X11302974Y16890974D03*
G01*
X11048974Y16890974D03*
G01*
X11048974Y17144974D03*
G01*
X11048974Y17398974D03*
G01*
X11048974Y17652974D03*
G01*
X11048974Y17906974D03*
G01*
X11048974Y18160974D03*
G01*
X11048974Y18414974D03*
G01*
X11048974Y18668974D03*
G01*
X11048974Y18922974D03*
G01*
X11048974Y19176974D03*
G01*
X11302974Y19176974D03*
G01*
X11302974Y18922974D03*
G01*
X11302974Y18668974D03*
G01*
X11302974Y18414974D03*
G01*
X11302974Y18160974D03*
G01*
X11302974Y17906974D03*
G01*
X11302974Y17652974D03*
G01*
X11302974Y17398974D03*
G01*
X11302974Y17144974D03*
D17*
G01*
X1016000Y12064974D03*
D20*
G01*
X1015997Y12318974D03*
D17*
G01*
X2794000Y12064974D03*
D20*
G01*
X2793994Y12318974D03*
D17*
G01*
X4572000Y12064974D03*
D20*
G01*
X4571989Y12318974D03*
D17*
G01*
X6350000Y12064974D03*
D20*
G01*
X6349987Y12318974D03*
D17*
G01*
X8127974Y12064974D03*
D20*
G01*
X8127984Y12318974D03*
D17*
G01*
X9905974Y12064974D03*
D20*
G01*
X9905979Y12318974D03*
D17*
G01*
X12572974Y19049949D03*
D21*
G01*
X12318974Y19049961D03*
D17*
G01*
X12572974Y19303949D03*
D21*
G01*
X12318974Y19303961D03*
D22*
G01*
X12445975Y18033963D03*
D23*
G01*
X12445974Y17779974D03*
G01*
X12445974Y17525974D03*
G01*
X12445974Y17271974D03*
G01*
X12445974Y17017974D03*
G01*
X12445974Y16763974D03*
D24*
G01*
X1178001Y14225981D03*
G01*
X1778000Y14425980D03*
G01*
X2377998Y14225981D03*
G01*
X2377998Y13005968D03*
G01*
X1178001Y13005968D03*
G01*
X2956001Y14225981D03*
G01*
X3556000Y14425980D03*
G01*
X4155998Y14225981D03*
G01*
X4155998Y13005968D03*
G01*
X2956001Y13005968D03*
G01*
X4734001Y14225981D03*
G01*
X5334000Y14425980D03*
G01*
X5933998Y14225981D03*
G01*
X5933998Y13005968D03*
G01*
X4734001Y13005968D03*
G01*
X6511975Y14225981D03*
G01*
X7111974Y14425980D03*
G01*
X7711973Y14225981D03*
G01*
X7711973Y13005968D03*
G01*
X6511975Y13005968D03*
G01*
X8289975Y14225981D03*
G01*
X8889974Y14425980D03*
G01*
X9489973Y14225981D03*
G01*
X9489973Y13005968D03*
G01*
X8289975Y13005968D03*
G01*
X10067975Y14225981D03*
G01*
X10667974Y14425980D03*
G01*
X11267973Y14225981D03*
G01*
X11267973Y13005968D03*
G01*
X10067975Y13005968D03*
M02*
