G04 Layer: BottomLayer*
G04 EasyEDA v6.5.37, 2023-10-28 10:51:11*
G04 4880e8b44b5e4911aa04234489c2fc7f,3a0c9916c2a341a084dc3cb5dc78798d,10*
G04 Gerber Generator version 0.2*
G04 Scale: 100 percent, Rotated: No, Reflected: No *
G04 Dimensions in millimeters *
G04 leading zeros omitted , absolute positions ,4 integer and 5 decimal *
%FSLAX45Y45*%
%MOMM*%

%ADD10C,0.3000*%
%ADD11C,1.0000*%
%ADD12C,0.5000*%
%ADD13O,3.6999926000000003X1.499997*%
%ADD14O,1.499997X3.7999924*%
%ADD15C,1.4000*%
%ADD16R,2.4130X3.5000*%
%ADD17O,2.4130000000000003X3.4999930000000004*%
%ADD18R,3.5000X2.4130*%
%ADD19O,3.4999930000000004X2.4130000000000003*%
%ADD20C,1.8000*%
%ADD21R,1.8000X1.8000*%
%ADD22C,1.5080*%
%ADD23R,1.7000X1.7000*%
%ADD24C,1.7000*%
%ADD25C,1.9000*%
%ADD26C,0.8000*%
%ADD27C,0.0154*%

%LPD*%
G36*
X798068Y11201857D02*
G01*
X794156Y11202670D01*
X790905Y11204854D01*
X788670Y11208156D01*
X787908Y11212017D01*
X787908Y20283881D01*
X788670Y20287792D01*
X790905Y20291094D01*
X794156Y20293279D01*
X798068Y20294041D01*
X13171932Y20294041D01*
X13175792Y20293279D01*
X13179094Y20291094D01*
X13181279Y20287792D01*
X13182092Y20283881D01*
X13182092Y11212068D01*
X13181279Y11208156D01*
X13179094Y11204854D01*
X13175792Y11202670D01*
X13171932Y11201908D01*
G37*

%LPC*%
G36*
X1020165Y11277955D02*
G01*
X1036878Y11279327D01*
X1053338Y11282527D01*
X1069340Y11287556D01*
X1084681Y11294262D01*
X1099210Y11302644D01*
X1112672Y11312550D01*
X1125016Y11323929D01*
X1136040Y11336578D01*
X1145590Y11350345D01*
X1153566Y11365077D01*
X1159865Y11380571D01*
X1164386Y11396726D01*
X1167180Y11413236D01*
X1168095Y11429949D01*
X1167180Y11446713D01*
X1164386Y11463223D01*
X1159865Y11479377D01*
X1153566Y11494871D01*
X1145590Y11509603D01*
X1136040Y11523370D01*
X1125016Y11536019D01*
X1112672Y11547398D01*
X1099210Y11557304D01*
X1084681Y11565686D01*
X1069340Y11572392D01*
X1053338Y11577421D01*
X1036878Y11580622D01*
X1020165Y11581993D01*
X1003452Y11581536D01*
X986840Y11579250D01*
X970584Y11575135D01*
X954887Y11569242D01*
X939952Y11561673D01*
X925931Y11552529D01*
X912977Y11541861D01*
X901293Y11529872D01*
X891032Y11516614D01*
X882243Y11502339D01*
X875080Y11487200D01*
X869645Y11471351D01*
X865987Y11454993D01*
X864158Y11438331D01*
X864158Y11421618D01*
X865987Y11404955D01*
X869645Y11388598D01*
X875080Y11372748D01*
X882243Y11357610D01*
X891032Y11343335D01*
X901293Y11330076D01*
X912977Y11318087D01*
X925931Y11307419D01*
X939952Y11298275D01*
X954887Y11290706D01*
X970584Y11284813D01*
X986840Y11280698D01*
X1003452Y11278412D01*
G37*
G36*
X12958165Y11277955D02*
G01*
X12974878Y11279327D01*
X12991287Y11282527D01*
X13007289Y11287556D01*
X13022630Y11294262D01*
X13037159Y11302644D01*
X13050672Y11312550D01*
X13063016Y11323929D01*
X13073989Y11336578D01*
X13083540Y11350345D01*
X13091515Y11365077D01*
X13097814Y11380571D01*
X13102386Y11396726D01*
X13105130Y11413236D01*
X13106044Y11429949D01*
X13105130Y11446713D01*
X13102386Y11463223D01*
X13097814Y11479377D01*
X13091515Y11494871D01*
X13083540Y11509603D01*
X13073989Y11523370D01*
X13063016Y11536019D01*
X13050672Y11547398D01*
X13037159Y11557304D01*
X13022630Y11565686D01*
X13007289Y11572392D01*
X12991287Y11577421D01*
X12974878Y11580622D01*
X12958165Y11581993D01*
X12941401Y11581536D01*
X12924840Y11579250D01*
X12908584Y11575135D01*
X12892887Y11569242D01*
X12877952Y11561673D01*
X12863880Y11552529D01*
X12850977Y11541861D01*
X12839293Y11529872D01*
X12828981Y11516614D01*
X12820192Y11502339D01*
X12813080Y11487200D01*
X12807645Y11471351D01*
X12803936Y11454993D01*
X12802108Y11438331D01*
X12802108Y11421618D01*
X12803936Y11404955D01*
X12807645Y11388598D01*
X12813080Y11372748D01*
X12820192Y11357610D01*
X12828981Y11343335D01*
X12839293Y11330076D01*
X12850977Y11318087D01*
X12863880Y11307419D01*
X12877952Y11298275D01*
X12892887Y11290706D01*
X12908584Y11284813D01*
X12924840Y11280698D01*
X12941401Y11278412D01*
G37*
G36*
X6832549Y11550650D02*
G01*
X7011517Y11550650D01*
X7024979Y11551513D01*
X7037882Y11554053D01*
X7050328Y11558320D01*
X7062114Y11564112D01*
X7073036Y11571427D01*
X7083196Y11580317D01*
X7218172Y11715292D01*
X7221067Y11717324D01*
X7224471Y11718239D01*
X7227976Y11717934D01*
X7234428Y11716207D01*
X7252106Y11713413D01*
X7269988Y11712498D01*
X7287869Y11713413D01*
X7305548Y11716207D01*
X7322870Y11720880D01*
X7339584Y11727281D01*
X7355535Y11735409D01*
X7370572Y11745163D01*
X7384491Y11756440D01*
X7397191Y11769090D01*
X7408468Y11783009D01*
X7418222Y11798046D01*
X7426350Y11813997D01*
X7429195Y11821414D01*
X7431328Y11824817D01*
X7434580Y11827103D01*
X7438491Y11827967D01*
X7442453Y11827205D01*
X7445806Y11825020D01*
X7448042Y11821718D01*
X7448803Y11817807D01*
X7448803Y11763400D01*
X7449616Y11754205D01*
X7451902Y11745722D01*
X7455611Y11737746D01*
X7460691Y11730532D01*
X7466888Y11724335D01*
X7474102Y11719255D01*
X7482078Y11715546D01*
X7490561Y11713260D01*
X7499756Y11712448D01*
X7740192Y11712448D01*
X7749387Y11713260D01*
X7757871Y11715546D01*
X7765846Y11719255D01*
X7773060Y11724335D01*
X7779308Y11730532D01*
X7784338Y11737746D01*
X7788046Y11745722D01*
X7790332Y11754205D01*
X7791145Y11763400D01*
X7791145Y12112548D01*
X7790332Y12121743D01*
X7788046Y12130227D01*
X7784338Y12138202D01*
X7779308Y12145416D01*
X7773060Y12151614D01*
X7765846Y12156694D01*
X7757871Y12160402D01*
X7749387Y12162688D01*
X7740192Y12163501D01*
X7730642Y12163501D01*
X7726730Y12164263D01*
X7723479Y12166447D01*
X7721244Y12169749D01*
X7720482Y12173661D01*
X7720482Y12851688D01*
X7721142Y12855295D01*
X7723073Y12858445D01*
X7725968Y12860680D01*
X7729474Y12861798D01*
X7736789Y12862610D01*
X7752994Y12866370D01*
X7768640Y12871958D01*
X7783525Y12879273D01*
X7797495Y12888264D01*
X7810347Y12898780D01*
X7821930Y12910718D01*
X7832090Y12923875D01*
X7840675Y12938099D01*
X7847584Y12953187D01*
X7852714Y12968986D01*
X7855966Y12985292D01*
X7857388Y13001802D01*
X7856931Y13018414D01*
X7854594Y13034873D01*
X7850327Y13050926D01*
X7844332Y13066420D01*
X7836560Y13081101D01*
X7827213Y13094817D01*
X7816342Y13107365D01*
X7804099Y13118592D01*
X7790637Y13128345D01*
X7776159Y13136524D01*
X7760868Y13143026D01*
X7744917Y13147700D01*
X7728559Y13150494D01*
X7711998Y13151459D01*
X7695387Y13150494D01*
X7679029Y13147700D01*
X7663078Y13143026D01*
X7647787Y13136524D01*
X7633309Y13128345D01*
X7619898Y13118592D01*
X7607655Y13107365D01*
X7596784Y13094817D01*
X7587386Y13081101D01*
X7579614Y13066420D01*
X7573619Y13050926D01*
X7569403Y13034873D01*
X7567015Y13018414D01*
X7566710Y13006730D01*
X7565847Y13003022D01*
X7563713Y12999872D01*
X7549134Y12985292D01*
X7540244Y12975132D01*
X7532928Y12964210D01*
X7527137Y12952425D01*
X7522921Y12939979D01*
X7520330Y12927076D01*
X7519466Y12913664D01*
X7519466Y12173661D01*
X7518704Y12169749D01*
X7516469Y12166447D01*
X7513218Y12164263D01*
X7509306Y12163501D01*
X7499756Y12163501D01*
X7490561Y12162688D01*
X7482078Y12160402D01*
X7474102Y12156694D01*
X7466888Y12151614D01*
X7460691Y12145416D01*
X7455611Y12138202D01*
X7451902Y12130227D01*
X7449616Y12121743D01*
X7448803Y12112548D01*
X7448803Y12058142D01*
X7448042Y12054230D01*
X7445806Y12050928D01*
X7442453Y12048744D01*
X7438491Y12047982D01*
X7434580Y12048845D01*
X7431328Y12051131D01*
X7429195Y12054535D01*
X7426350Y12061952D01*
X7418222Y12077903D01*
X7408468Y12092940D01*
X7397191Y12106859D01*
X7384491Y12119508D01*
X7374229Y12127839D01*
X7371435Y12131344D01*
X7370470Y12135713D01*
X7370470Y14267688D01*
X7369606Y14281099D01*
X7367016Y14294002D01*
X7362799Y14306448D01*
X7357008Y14318234D01*
X7349693Y14329156D01*
X7340803Y14339316D01*
X7260234Y14419834D01*
X7258100Y14423034D01*
X7257288Y14426742D01*
X7256932Y14438426D01*
X7254595Y14454886D01*
X7250328Y14470938D01*
X7244334Y14486432D01*
X7236561Y14501113D01*
X7227214Y14514830D01*
X7216343Y14527377D01*
X7204100Y14538604D01*
X7190638Y14548357D01*
X7176160Y14556536D01*
X7160869Y14562988D01*
X7144918Y14567662D01*
X7128560Y14570506D01*
X7112000Y14571472D01*
X7095388Y14570506D01*
X7079030Y14567662D01*
X7063079Y14562988D01*
X7047788Y14556536D01*
X7033310Y14548357D01*
X7019899Y14538604D01*
X7007656Y14527377D01*
X6996785Y14514830D01*
X6987387Y14501113D01*
X6979615Y14486432D01*
X6973620Y14470938D01*
X6969404Y14454886D01*
X6967016Y14438426D01*
X6966559Y14421815D01*
X6967981Y14405254D01*
X6971284Y14388998D01*
X6976414Y14373199D01*
X6983323Y14358061D01*
X6991908Y14343837D01*
X7002018Y14330680D01*
X7013600Y14318792D01*
X7026452Y14308277D01*
X7040422Y14299285D01*
X7055358Y14291970D01*
X7071004Y14286382D01*
X7087158Y14282623D01*
X7103668Y14280743D01*
X7110882Y14280743D01*
X7114794Y14279930D01*
X7118096Y14277746D01*
X7166457Y14229334D01*
X7168692Y14226032D01*
X7169454Y14222171D01*
X7169454Y12135662D01*
X7168489Y12131294D01*
X7165695Y12127788D01*
X7155484Y12119508D01*
X7142784Y12106859D01*
X7131507Y12092940D01*
X7121753Y12077903D01*
X7113625Y12061952D01*
X7107224Y12045188D01*
X7104786Y12036196D01*
X7102754Y12032284D01*
X7099300Y12029592D01*
X7094981Y12028678D01*
X7090714Y12029592D01*
X7087209Y12032284D01*
X7085177Y12036196D01*
X7082739Y12045188D01*
X7076338Y12061952D01*
X7068210Y12077903D01*
X7058456Y12092940D01*
X7047179Y12106859D01*
X7034530Y12119508D01*
X7024268Y12127839D01*
X7021474Y12131344D01*
X7020509Y12135713D01*
X7020509Y12597638D01*
X7019594Y12611100D01*
X7017054Y12624003D01*
X7012838Y12636449D01*
X7006996Y12648234D01*
X6999681Y12659156D01*
X6990791Y12669266D01*
X6660235Y12999872D01*
X6658102Y13003022D01*
X6657289Y13006730D01*
X6656933Y13018414D01*
X6654596Y13034873D01*
X6650329Y13050926D01*
X6644335Y13066420D01*
X6636562Y13081101D01*
X6627215Y13094817D01*
X6616293Y13107365D01*
X6604101Y13118592D01*
X6590639Y13128345D01*
X6576161Y13136524D01*
X6560870Y13143026D01*
X6544919Y13147700D01*
X6528562Y13150494D01*
X6512001Y13151459D01*
X6495389Y13150494D01*
X6479032Y13147700D01*
X6463080Y13143026D01*
X6447790Y13136524D01*
X6433312Y13128345D01*
X6419900Y13118592D01*
X6407658Y13107365D01*
X6396786Y13094817D01*
X6387388Y13081101D01*
X6379616Y13066420D01*
X6373622Y13050926D01*
X6369405Y13034873D01*
X6367018Y13018414D01*
X6366560Y13001802D01*
X6367983Y12985292D01*
X6371285Y12968986D01*
X6376416Y12953187D01*
X6383324Y12938099D01*
X6391859Y12923875D01*
X6402019Y12910718D01*
X6413601Y12898780D01*
X6426454Y12888264D01*
X6440424Y12879273D01*
X6455359Y12871958D01*
X6471005Y12866370D01*
X6487160Y12862610D01*
X6503670Y12860731D01*
X6510883Y12860731D01*
X6514795Y12859969D01*
X6518046Y12857734D01*
X6816496Y12559334D01*
X6818680Y12556032D01*
X6819493Y12552121D01*
X6819493Y12135713D01*
X6818477Y12131294D01*
X6815683Y12127788D01*
X6805472Y12119508D01*
X6792823Y12106859D01*
X6781546Y12092940D01*
X6771792Y12077903D01*
X6763664Y12061952D01*
X6757212Y12045188D01*
X6752590Y12027916D01*
X6749796Y12010237D01*
X6748830Y11992051D01*
X6748830Y11901220D01*
X6748068Y11897309D01*
X6745833Y11894007D01*
X6742582Y11891822D01*
X6738670Y11891060D01*
X6734759Y11891822D01*
X6731508Y11894007D01*
X6643573Y11981942D01*
X6641338Y11985244D01*
X6640575Y11989155D01*
X6640575Y12318644D01*
X6639712Y12332106D01*
X6637121Y12345009D01*
X6632905Y12357455D01*
X6627114Y12369241D01*
X6619798Y12380163D01*
X6611112Y12390018D01*
X6601256Y12398705D01*
X6590334Y12406020D01*
X6578498Y12411811D01*
X6566052Y12416028D01*
X6553200Y12418618D01*
X6539738Y12419482D01*
X6497015Y12419482D01*
X6493256Y12420193D01*
X6490055Y12422276D01*
X6487820Y12425375D01*
X6483705Y12434214D01*
X6478625Y12441428D01*
X6472428Y12447625D01*
X6465214Y12452705D01*
X6457238Y12456414D01*
X6448755Y12458700D01*
X6439560Y12459462D01*
X6260439Y12459462D01*
X6251244Y12458700D01*
X6242710Y12456414D01*
X6234734Y12452705D01*
X6227572Y12447625D01*
X6221323Y12441428D01*
X6216294Y12434214D01*
X6212586Y12426238D01*
X6210300Y12417755D01*
X6209487Y12408509D01*
X6209487Y12229439D01*
X6210300Y12220194D01*
X6212586Y12211710D01*
X6216294Y12203734D01*
X6221323Y12196521D01*
X6227572Y12190323D01*
X6234734Y12185243D01*
X6242710Y12181535D01*
X6245809Y12180722D01*
X6249568Y12178842D01*
X6252210Y12175591D01*
X6253327Y12171527D01*
X6252718Y12167362D01*
X6250482Y12163806D01*
X6243828Y12156998D01*
X6234023Y12144298D01*
X6225743Y12130532D01*
X6219088Y12115952D01*
X6214110Y12100712D01*
X6210909Y12084964D01*
X6209538Y12068962D01*
X6209995Y12052960D01*
X6212281Y12037060D01*
X6216396Y12021566D01*
X6222187Y12006630D01*
X6229654Y11992406D01*
X6238748Y11979198D01*
X6249212Y11967057D01*
X6261049Y11956237D01*
X6274054Y11946788D01*
X6288024Y11938914D01*
X6302756Y11932666D01*
X6318148Y11928144D01*
X6333998Y11925401D01*
X6350000Y11924487D01*
X6366002Y11925401D01*
X6381800Y11928144D01*
X6397193Y11932666D01*
X6411976Y11938914D01*
X6424777Y11946128D01*
X6428689Y11947398D01*
X6432753Y11947042D01*
X6436309Y11945061D01*
X6438849Y11941911D01*
X6439916Y11937949D01*
X6440424Y11930176D01*
X6443014Y11917273D01*
X6447231Y11904827D01*
X6453022Y11893042D01*
X6460337Y11882120D01*
X6469227Y11872010D01*
X6760921Y11580317D01*
X6771030Y11571427D01*
X6781952Y11564112D01*
X6793788Y11558320D01*
X6806234Y11554053D01*
X6819087Y11551513D01*
G37*
G36*
X8610549Y11550650D02*
G01*
X8789517Y11550650D01*
X8802979Y11551513D01*
X8815882Y11554053D01*
X8828328Y11558320D01*
X8840114Y11564112D01*
X8851036Y11571427D01*
X8861196Y11580317D01*
X8996172Y11715292D01*
X8999067Y11717324D01*
X9002471Y11718239D01*
X9005976Y11717934D01*
X9012428Y11716207D01*
X9030106Y11713413D01*
X9047988Y11712498D01*
X9065869Y11713413D01*
X9083548Y11716207D01*
X9100870Y11720880D01*
X9117584Y11727281D01*
X9133535Y11735409D01*
X9148572Y11745163D01*
X9162491Y11756440D01*
X9175191Y11769090D01*
X9186468Y11783009D01*
X9196222Y11798046D01*
X9204350Y11813997D01*
X9207195Y11821414D01*
X9209328Y11824817D01*
X9212580Y11827103D01*
X9216491Y11827967D01*
X9220454Y11827205D01*
X9223806Y11825020D01*
X9226042Y11821718D01*
X9226804Y11817807D01*
X9226804Y11763400D01*
X9227616Y11754205D01*
X9229902Y11745722D01*
X9233611Y11737746D01*
X9238691Y11730532D01*
X9244888Y11724335D01*
X9252102Y11719255D01*
X9260078Y11715546D01*
X9268561Y11713260D01*
X9277756Y11712448D01*
X9518192Y11712448D01*
X9527387Y11713260D01*
X9535871Y11715546D01*
X9543846Y11719255D01*
X9551060Y11724335D01*
X9557308Y11730532D01*
X9562338Y11737746D01*
X9566046Y11745722D01*
X9568332Y11754205D01*
X9569145Y11763400D01*
X9569145Y12112548D01*
X9568332Y12121743D01*
X9566046Y12130227D01*
X9562338Y12138202D01*
X9557308Y12145416D01*
X9551060Y12151614D01*
X9543846Y12156694D01*
X9535871Y12160402D01*
X9527387Y12162688D01*
X9518192Y12163501D01*
X9508642Y12163501D01*
X9504730Y12164263D01*
X9501479Y12166447D01*
X9499244Y12169749D01*
X9498482Y12173661D01*
X9498482Y12851688D01*
X9499142Y12855295D01*
X9501073Y12858445D01*
X9503968Y12860680D01*
X9507474Y12861798D01*
X9514789Y12862610D01*
X9530943Y12866370D01*
X9546590Y12871958D01*
X9561525Y12879273D01*
X9575495Y12888264D01*
X9588347Y12898780D01*
X9599930Y12910718D01*
X9610090Y12923875D01*
X9618675Y12938099D01*
X9625533Y12953187D01*
X9630714Y12968986D01*
X9633966Y12985292D01*
X9635388Y13001802D01*
X9634931Y13018414D01*
X9632594Y13034873D01*
X9628327Y13050926D01*
X9622332Y13066420D01*
X9614560Y13081101D01*
X9605213Y13094817D01*
X9594291Y13107365D01*
X9582099Y13118592D01*
X9568637Y13128345D01*
X9554159Y13136524D01*
X9538868Y13143026D01*
X9522917Y13147700D01*
X9506559Y13150494D01*
X9489998Y13151459D01*
X9473387Y13150494D01*
X9457029Y13147700D01*
X9441078Y13143026D01*
X9425787Y13136524D01*
X9411309Y13128345D01*
X9397898Y13118592D01*
X9385655Y13107365D01*
X9374784Y13094817D01*
X9365386Y13081101D01*
X9357614Y13066420D01*
X9351619Y13050926D01*
X9347403Y13034873D01*
X9345015Y13018414D01*
X9344710Y13006730D01*
X9343847Y13003022D01*
X9341713Y12999872D01*
X9327134Y12985292D01*
X9318244Y12975132D01*
X9310928Y12964210D01*
X9305137Y12952425D01*
X9300921Y12939979D01*
X9298330Y12927076D01*
X9297466Y12913664D01*
X9297466Y12173661D01*
X9296704Y12169749D01*
X9294469Y12166447D01*
X9291218Y12164263D01*
X9287306Y12163501D01*
X9277756Y12163501D01*
X9268561Y12162688D01*
X9260078Y12160402D01*
X9252102Y12156694D01*
X9244888Y12151614D01*
X9238691Y12145416D01*
X9233611Y12138202D01*
X9229902Y12130227D01*
X9227616Y12121743D01*
X9226804Y12112548D01*
X9226804Y12058142D01*
X9226042Y12054230D01*
X9223806Y12050928D01*
X9220454Y12048744D01*
X9216491Y12047982D01*
X9212580Y12048845D01*
X9209328Y12051131D01*
X9207195Y12054535D01*
X9204350Y12061952D01*
X9196222Y12077903D01*
X9186468Y12092940D01*
X9175191Y12106859D01*
X9162491Y12119508D01*
X9152229Y12127839D01*
X9149435Y12131344D01*
X9148470Y12135713D01*
X9148470Y14267688D01*
X9147606Y14281099D01*
X9145016Y14294002D01*
X9140799Y14306448D01*
X9135008Y14318234D01*
X9127693Y14329156D01*
X9118803Y14339316D01*
X9038234Y14419884D01*
X9036100Y14423034D01*
X9035288Y14426742D01*
X9034932Y14438426D01*
X9032595Y14454886D01*
X9028328Y14470938D01*
X9022334Y14486432D01*
X9014561Y14501113D01*
X9005214Y14514830D01*
X8994292Y14527377D01*
X8982100Y14538604D01*
X8968638Y14548357D01*
X8954160Y14556536D01*
X8938869Y14562988D01*
X8922918Y14567662D01*
X8906560Y14570506D01*
X8890000Y14571472D01*
X8873388Y14570506D01*
X8857030Y14567662D01*
X8841079Y14562988D01*
X8825788Y14556536D01*
X8811310Y14548357D01*
X8797899Y14538604D01*
X8785656Y14527377D01*
X8774785Y14514830D01*
X8765387Y14501113D01*
X8757615Y14486432D01*
X8751620Y14470938D01*
X8747404Y14454886D01*
X8745016Y14438426D01*
X8744559Y14421815D01*
X8745982Y14405254D01*
X8749284Y14388998D01*
X8754414Y14373199D01*
X8761323Y14358061D01*
X8769858Y14343837D01*
X8780018Y14330680D01*
X8791600Y14318792D01*
X8804452Y14308277D01*
X8818422Y14299285D01*
X8833358Y14291970D01*
X8849004Y14286382D01*
X8865158Y14282623D01*
X8881668Y14280743D01*
X8888882Y14280743D01*
X8892794Y14279930D01*
X8896096Y14277746D01*
X8944457Y14229334D01*
X8946692Y14226032D01*
X8947454Y14222171D01*
X8947454Y12135662D01*
X8946489Y12131294D01*
X8943695Y12127788D01*
X8933484Y12119508D01*
X8920784Y12106859D01*
X8909507Y12092940D01*
X8899753Y12077903D01*
X8891625Y12061952D01*
X8885224Y12045188D01*
X8882786Y12036196D01*
X8880754Y12032284D01*
X8877300Y12029592D01*
X8872982Y12028678D01*
X8868714Y12029592D01*
X8865209Y12032284D01*
X8863177Y12036196D01*
X8860739Y12045188D01*
X8854338Y12061952D01*
X8846210Y12077903D01*
X8836456Y12092940D01*
X8825179Y12106859D01*
X8812479Y12119508D01*
X8802268Y12127839D01*
X8799474Y12131344D01*
X8798509Y12135713D01*
X8798509Y12597638D01*
X8797594Y12611100D01*
X8795054Y12624003D01*
X8790838Y12636449D01*
X8784996Y12648234D01*
X8777681Y12659156D01*
X8768791Y12669266D01*
X8438235Y12999872D01*
X8436102Y13003022D01*
X8435289Y13006730D01*
X8434933Y13018414D01*
X8432596Y13034873D01*
X8428329Y13050926D01*
X8422335Y13066420D01*
X8414562Y13081101D01*
X8405215Y13094817D01*
X8394293Y13107365D01*
X8382050Y13118592D01*
X8368639Y13128345D01*
X8354161Y13136524D01*
X8338870Y13143026D01*
X8322919Y13147700D01*
X8306562Y13150494D01*
X8290001Y13151459D01*
X8273389Y13150494D01*
X8257031Y13147700D01*
X8241080Y13143026D01*
X8225790Y13136524D01*
X8211312Y13128345D01*
X8197900Y13118592D01*
X8185658Y13107365D01*
X8174786Y13094817D01*
X8165388Y13081101D01*
X8157616Y13066420D01*
X8151622Y13050926D01*
X8147405Y13034873D01*
X8145018Y13018414D01*
X8144560Y13001802D01*
X8145983Y12985292D01*
X8149285Y12968986D01*
X8154416Y12953187D01*
X8161324Y12938099D01*
X8169859Y12923875D01*
X8180019Y12910718D01*
X8191601Y12898780D01*
X8204453Y12888264D01*
X8218424Y12879273D01*
X8233359Y12871958D01*
X8249005Y12866370D01*
X8265159Y12862610D01*
X8281670Y12860731D01*
X8288883Y12860731D01*
X8292795Y12859969D01*
X8296046Y12857734D01*
X8594496Y12559334D01*
X8596680Y12556032D01*
X8597493Y12552121D01*
X8597493Y12135713D01*
X8596477Y12131344D01*
X8593683Y12127788D01*
X8583472Y12119508D01*
X8570823Y12106859D01*
X8559546Y12092940D01*
X8549792Y12077903D01*
X8541613Y12061952D01*
X8535212Y12045188D01*
X8530590Y12027916D01*
X8527796Y12010237D01*
X8526830Y11992051D01*
X8526830Y11901220D01*
X8526068Y11897309D01*
X8523833Y11894007D01*
X8520531Y11891822D01*
X8516670Y11891060D01*
X8512759Y11891822D01*
X8509508Y11894007D01*
X8421573Y11981942D01*
X8419338Y11985244D01*
X8418576Y11989155D01*
X8418576Y12318644D01*
X8417712Y12332106D01*
X8415121Y12345009D01*
X8410905Y12357455D01*
X8405114Y12369241D01*
X8397798Y12380163D01*
X8389112Y12390018D01*
X8379256Y12398705D01*
X8368334Y12406020D01*
X8356498Y12411811D01*
X8344052Y12416028D01*
X8331200Y12418618D01*
X8317738Y12419482D01*
X8275015Y12419482D01*
X8271256Y12420193D01*
X8268055Y12422276D01*
X8265820Y12425375D01*
X8261705Y12434214D01*
X8256625Y12441428D01*
X8250428Y12447625D01*
X8243214Y12452705D01*
X8235238Y12456414D01*
X8226755Y12458700D01*
X8217560Y12459462D01*
X8038439Y12459462D01*
X8029244Y12458700D01*
X8020710Y12456414D01*
X8012734Y12452705D01*
X8005521Y12447625D01*
X7999323Y12441428D01*
X7994294Y12434214D01*
X7990535Y12426238D01*
X7988300Y12417755D01*
X7987487Y12408509D01*
X7987487Y12229439D01*
X7988300Y12220194D01*
X7990535Y12211710D01*
X7994294Y12203734D01*
X7999323Y12196521D01*
X8005521Y12190323D01*
X8012734Y12185243D01*
X8020710Y12181535D01*
X8023809Y12180722D01*
X8027568Y12178842D01*
X8030209Y12175591D01*
X8031327Y12171527D01*
X8030718Y12167362D01*
X8028482Y12163806D01*
X8021828Y12156998D01*
X8012023Y12144298D01*
X8003743Y12130532D01*
X7997088Y12115952D01*
X7992109Y12100712D01*
X7988909Y12084964D01*
X7987538Y12068962D01*
X7987995Y12052960D01*
X7990281Y12037060D01*
X7994345Y12021566D01*
X8000187Y12006630D01*
X8007654Y11992406D01*
X8016748Y11979198D01*
X8027212Y11967057D01*
X8039049Y11956237D01*
X8052053Y11946788D01*
X8065973Y11938914D01*
X8080756Y11932666D01*
X8096148Y11928144D01*
X8111947Y11925401D01*
X8128000Y11924487D01*
X8144002Y11925401D01*
X8159800Y11928144D01*
X8175193Y11932666D01*
X8189975Y11938914D01*
X8202777Y11946128D01*
X8206689Y11947398D01*
X8210753Y11947042D01*
X8214309Y11945061D01*
X8216849Y11941911D01*
X8217916Y11937949D01*
X8218424Y11930176D01*
X8221014Y11917273D01*
X8225231Y11904827D01*
X8231022Y11893042D01*
X8238337Y11882120D01*
X8247227Y11872010D01*
X8538921Y11580317D01*
X8549030Y11571427D01*
X8559952Y11564112D01*
X8571788Y11558320D01*
X8584234Y11554053D01*
X8597087Y11551513D01*
G37*
G36*
X3276600Y11550650D02*
G01*
X3455568Y11550650D01*
X3469030Y11551513D01*
X3481882Y11554053D01*
X3494328Y11558320D01*
X3506165Y11564112D01*
X3517087Y11571427D01*
X3527196Y11580317D01*
X3662222Y11715292D01*
X3665118Y11717324D01*
X3668522Y11718239D01*
X3672027Y11717934D01*
X3678428Y11716207D01*
X3696106Y11713413D01*
X3713987Y11712498D01*
X3731869Y11713413D01*
X3749598Y11716207D01*
X3766870Y11720880D01*
X3783584Y11727281D01*
X3799586Y11735409D01*
X3814572Y11745163D01*
X3828491Y11756440D01*
X3841191Y11769090D01*
X3852468Y11783009D01*
X3862222Y11798046D01*
X3870350Y11813997D01*
X3873195Y11821414D01*
X3875328Y11824817D01*
X3878630Y11827103D01*
X3882542Y11827967D01*
X3886454Y11827205D01*
X3889806Y11825020D01*
X3892042Y11821718D01*
X3892854Y11817807D01*
X3892854Y11763400D01*
X3893616Y11754205D01*
X3895902Y11745722D01*
X3899611Y11737746D01*
X3904691Y11730532D01*
X3910888Y11724335D01*
X3918102Y11719255D01*
X3926078Y11715546D01*
X3934561Y11713260D01*
X3943807Y11712448D01*
X4184192Y11712448D01*
X4193387Y11713260D01*
X4201922Y11715546D01*
X4209897Y11719255D01*
X4217060Y11724335D01*
X4223308Y11730532D01*
X4228338Y11737746D01*
X4232046Y11745722D01*
X4234332Y11754205D01*
X4235145Y11763400D01*
X4235145Y12112548D01*
X4234332Y12121743D01*
X4232046Y12130227D01*
X4228338Y12138202D01*
X4223308Y12145416D01*
X4217060Y12151614D01*
X4209897Y12156694D01*
X4201922Y12160402D01*
X4193387Y12162688D01*
X4184192Y12163501D01*
X4174693Y12163501D01*
X4170781Y12164263D01*
X4167479Y12166447D01*
X4165295Y12169749D01*
X4164533Y12173661D01*
X4164533Y12851688D01*
X4165193Y12855295D01*
X4167073Y12858445D01*
X4169968Y12860680D01*
X4173524Y12861798D01*
X4180789Y12862610D01*
X4196994Y12866370D01*
X4212640Y12871958D01*
X4227525Y12879273D01*
X4241495Y12888264D01*
X4254347Y12898780D01*
X4265930Y12910718D01*
X4276090Y12923875D01*
X4284675Y12938099D01*
X4291584Y12953187D01*
X4296714Y12968986D01*
X4300016Y12985292D01*
X4301439Y13001802D01*
X4300931Y13018414D01*
X4298594Y13034873D01*
X4294378Y13050926D01*
X4288332Y13066420D01*
X4280560Y13081101D01*
X4271213Y13094817D01*
X4260342Y13107365D01*
X4248099Y13118592D01*
X4234637Y13128345D01*
X4220159Y13136524D01*
X4204868Y13143026D01*
X4188917Y13147700D01*
X4172559Y13150494D01*
X4155998Y13151459D01*
X4139387Y13150494D01*
X4123029Y13147700D01*
X4107078Y13143026D01*
X4091787Y13136524D01*
X4077309Y13128345D01*
X4063898Y13118592D01*
X4051655Y13107365D01*
X4040784Y13094817D01*
X4031386Y13081101D01*
X4023664Y13066420D01*
X4017619Y13050926D01*
X4013403Y13034873D01*
X4011015Y13018414D01*
X4010710Y13006730D01*
X4009847Y13003022D01*
X4007713Y12999821D01*
X3993184Y12985292D01*
X3984294Y12975132D01*
X3976979Y12964210D01*
X3971188Y12952425D01*
X3966921Y12939979D01*
X3964381Y12927076D01*
X3963466Y12913664D01*
X3963466Y12173661D01*
X3962704Y12169749D01*
X3960520Y12166447D01*
X3957218Y12164263D01*
X3953357Y12163501D01*
X3943807Y12163501D01*
X3934561Y12162688D01*
X3926078Y12160402D01*
X3918102Y12156694D01*
X3910888Y12151614D01*
X3904691Y12145416D01*
X3899611Y12138202D01*
X3895902Y12130227D01*
X3893616Y12121743D01*
X3892854Y12112548D01*
X3892854Y12058142D01*
X3892042Y12054230D01*
X3889806Y12050928D01*
X3886454Y12048744D01*
X3882542Y12047982D01*
X3878630Y12048845D01*
X3875328Y12051131D01*
X3873195Y12054535D01*
X3870350Y12061952D01*
X3862222Y12077903D01*
X3852468Y12092940D01*
X3841191Y12106859D01*
X3828491Y12119508D01*
X3818280Y12127788D01*
X3815486Y12131344D01*
X3814470Y12135713D01*
X3814470Y14267688D01*
X3813606Y14281099D01*
X3811066Y14294002D01*
X3806850Y14306448D01*
X3801008Y14318234D01*
X3793693Y14329156D01*
X3784803Y14339316D01*
X3704234Y14419884D01*
X3702100Y14423034D01*
X3701287Y14426793D01*
X3700932Y14438426D01*
X3698595Y14454886D01*
X3694379Y14470938D01*
X3688334Y14486432D01*
X3680561Y14501113D01*
X3671214Y14514830D01*
X3660343Y14527377D01*
X3648100Y14538604D01*
X3634638Y14548357D01*
X3620160Y14556536D01*
X3604869Y14562988D01*
X3588918Y14567662D01*
X3572560Y14570506D01*
X3556000Y14571472D01*
X3539388Y14570506D01*
X3523030Y14567662D01*
X3507079Y14562988D01*
X3491788Y14556536D01*
X3477310Y14548357D01*
X3463899Y14538604D01*
X3451656Y14527377D01*
X3440785Y14514830D01*
X3431387Y14501113D01*
X3423665Y14486432D01*
X3417620Y14470938D01*
X3413404Y14454886D01*
X3411016Y14438426D01*
X3410559Y14421815D01*
X3411982Y14405254D01*
X3415284Y14388998D01*
X3420414Y14373199D01*
X3427323Y14358061D01*
X3435908Y14343837D01*
X3446018Y14330680D01*
X3457600Y14318792D01*
X3470452Y14308277D01*
X3484422Y14299285D01*
X3499358Y14291970D01*
X3515004Y14286382D01*
X3531158Y14282623D01*
X3547668Y14280743D01*
X3554933Y14280743D01*
X3558794Y14279930D01*
X3562096Y14277746D01*
X3610508Y14229334D01*
X3612692Y14226032D01*
X3613505Y14222171D01*
X3613505Y12135713D01*
X3612489Y12131344D01*
X3609695Y12127788D01*
X3599484Y12119508D01*
X3586835Y12106859D01*
X3575558Y12092940D01*
X3565804Y12077903D01*
X3557625Y12061952D01*
X3551224Y12045188D01*
X3548786Y12036196D01*
X3546754Y12032284D01*
X3543300Y12029592D01*
X3538982Y12028678D01*
X3534714Y12029592D01*
X3531209Y12032284D01*
X3529177Y12036196D01*
X3526739Y12045188D01*
X3520338Y12061952D01*
X3512210Y12077903D01*
X3502456Y12092940D01*
X3491179Y12106859D01*
X3478529Y12119508D01*
X3468268Y12127788D01*
X3465474Y12131344D01*
X3464509Y12135713D01*
X3464509Y12597638D01*
X3463645Y12611100D01*
X3461054Y12624003D01*
X3456838Y12636449D01*
X3451047Y12648234D01*
X3443732Y12659156D01*
X3434842Y12669266D01*
X3104235Y12999872D01*
X3102102Y13003022D01*
X3101289Y13006781D01*
X3100933Y13018414D01*
X3098596Y13034873D01*
X3094380Y13050926D01*
X3088335Y13066420D01*
X3080562Y13081101D01*
X3071215Y13094817D01*
X3060344Y13107365D01*
X3048101Y13118592D01*
X3034639Y13128345D01*
X3020161Y13136524D01*
X3004870Y13143026D01*
X2988919Y13147700D01*
X2972562Y13150494D01*
X2956001Y13151459D01*
X2939389Y13150494D01*
X2923032Y13147700D01*
X2907080Y13143026D01*
X2891790Y13136524D01*
X2877312Y13128345D01*
X2863900Y13118592D01*
X2851658Y13107365D01*
X2840786Y13094817D01*
X2831388Y13081101D01*
X2823667Y13066420D01*
X2817622Y13050926D01*
X2813405Y13034873D01*
X2811018Y13018414D01*
X2810560Y13001802D01*
X2811983Y12985292D01*
X2815285Y12968986D01*
X2820416Y12953187D01*
X2827324Y12938099D01*
X2835910Y12923875D01*
X2846019Y12910718D01*
X2857601Y12898780D01*
X2870454Y12888264D01*
X2884424Y12879273D01*
X2899359Y12871958D01*
X2915005Y12866370D01*
X2931160Y12862610D01*
X2947670Y12860731D01*
X2954883Y12860731D01*
X2958795Y12859969D01*
X2962097Y12857734D01*
X3260496Y12559334D01*
X3262731Y12556032D01*
X3263493Y12552121D01*
X3263493Y12135713D01*
X3262528Y12131344D01*
X3259734Y12127788D01*
X3249472Y12119508D01*
X3236823Y12106859D01*
X3225546Y12092940D01*
X3215792Y12077903D01*
X3207664Y12061952D01*
X3201212Y12045188D01*
X3196590Y12027916D01*
X3193796Y12010237D01*
X3192830Y11992051D01*
X3192830Y11901220D01*
X3192068Y11897309D01*
X3189884Y11894007D01*
X3186582Y11891822D01*
X3182670Y11891060D01*
X3178810Y11891822D01*
X3175508Y11894007D01*
X3087573Y11981992D01*
X3085338Y11985244D01*
X3084576Y11989155D01*
X3084576Y12318644D01*
X3083712Y12332106D01*
X3081121Y12345009D01*
X3076905Y12357455D01*
X3071114Y12369241D01*
X3063798Y12380163D01*
X3055112Y12390018D01*
X3045256Y12398705D01*
X3034334Y12406020D01*
X3022498Y12411811D01*
X3010052Y12416028D01*
X2997200Y12418618D01*
X2983738Y12419482D01*
X2941015Y12419482D01*
X2937256Y12420193D01*
X2934055Y12422276D01*
X2931820Y12425375D01*
X2927705Y12434214D01*
X2922676Y12441428D01*
X2916428Y12447625D01*
X2909214Y12452705D01*
X2901238Y12456414D01*
X2892755Y12458700D01*
X2883560Y12459462D01*
X2704439Y12459462D01*
X2695244Y12458700D01*
X2686710Y12456414D01*
X2678785Y12452705D01*
X2671572Y12447625D01*
X2665323Y12441428D01*
X2660294Y12434214D01*
X2656586Y12426238D01*
X2654300Y12417755D01*
X2653487Y12408509D01*
X2653487Y12229439D01*
X2654300Y12220194D01*
X2656586Y12211710D01*
X2660294Y12203734D01*
X2665323Y12196521D01*
X2671572Y12190323D01*
X2678785Y12185243D01*
X2686710Y12181535D01*
X2689809Y12180722D01*
X2693568Y12178842D01*
X2696210Y12175591D01*
X2697327Y12171527D01*
X2696718Y12167362D01*
X2694482Y12163806D01*
X2687828Y12156998D01*
X2678023Y12144298D01*
X2669743Y12130532D01*
X2663088Y12115952D01*
X2658110Y12100712D01*
X2654909Y12084964D01*
X2653538Y12068962D01*
X2653995Y12052960D01*
X2656281Y12037060D01*
X2660396Y12021566D01*
X2666187Y12006630D01*
X2673705Y11992406D01*
X2682748Y11979198D01*
X2693263Y11967057D01*
X2705049Y11956237D01*
X2718054Y11946788D01*
X2732024Y11938914D01*
X2746806Y11932666D01*
X2762199Y11928144D01*
X2777998Y11925401D01*
X2794000Y11924487D01*
X2810002Y11925401D01*
X2825800Y11928144D01*
X2841193Y11932666D01*
X2855976Y11938914D01*
X2868777Y11946128D01*
X2872689Y11947398D01*
X2876753Y11946991D01*
X2880309Y11945061D01*
X2882849Y11941860D01*
X2883916Y11937949D01*
X2884424Y11930176D01*
X2887014Y11917324D01*
X2891231Y11904878D01*
X2897022Y11893092D01*
X2904337Y11882120D01*
X2913227Y11872010D01*
X3204921Y11580317D01*
X3215081Y11571427D01*
X3226003Y11564112D01*
X3237788Y11558320D01*
X3250234Y11554053D01*
X3263138Y11551513D01*
G37*
G36*
X5054600Y11550650D02*
G01*
X5233568Y11550650D01*
X5247030Y11551513D01*
X5259882Y11554053D01*
X5272328Y11558320D01*
X5284165Y11564112D01*
X5295087Y11571427D01*
X5305196Y11580317D01*
X5440222Y11715292D01*
X5443118Y11717324D01*
X5446522Y11718239D01*
X5450027Y11717934D01*
X5456428Y11716207D01*
X5474106Y11713413D01*
X5491988Y11712498D01*
X5509869Y11713413D01*
X5527598Y11716207D01*
X5544870Y11720880D01*
X5561584Y11727281D01*
X5577586Y11735409D01*
X5592572Y11745163D01*
X5606491Y11756440D01*
X5619191Y11769090D01*
X5630468Y11783009D01*
X5640222Y11798046D01*
X5648350Y11813997D01*
X5651195Y11821414D01*
X5653328Y11824817D01*
X5656630Y11827103D01*
X5660542Y11827967D01*
X5664454Y11827205D01*
X5667806Y11825020D01*
X5670042Y11821718D01*
X5670854Y11817807D01*
X5670854Y11763400D01*
X5671616Y11754205D01*
X5673902Y11745722D01*
X5677611Y11737746D01*
X5682691Y11730532D01*
X5688888Y11724335D01*
X5696102Y11719255D01*
X5704078Y11715546D01*
X5712561Y11713260D01*
X5721756Y11712448D01*
X5962192Y11712448D01*
X5971387Y11713260D01*
X5979922Y11715546D01*
X5987846Y11719255D01*
X5995060Y11724335D01*
X6001308Y11730532D01*
X6006338Y11737746D01*
X6010046Y11745722D01*
X6012332Y11754205D01*
X6013145Y11763400D01*
X6013145Y12112548D01*
X6012332Y12121743D01*
X6010046Y12130227D01*
X6006338Y12138202D01*
X6001308Y12145416D01*
X5995060Y12151614D01*
X5987846Y12156694D01*
X5979922Y12160402D01*
X5971387Y12162688D01*
X5962192Y12163501D01*
X5952693Y12163501D01*
X5948781Y12164263D01*
X5945479Y12166447D01*
X5943295Y12169749D01*
X5942533Y12173661D01*
X5942533Y12851688D01*
X5943193Y12855295D01*
X5945073Y12858445D01*
X5947968Y12860680D01*
X5951524Y12861798D01*
X5958789Y12862610D01*
X5974994Y12866370D01*
X5990640Y12871958D01*
X6005525Y12879273D01*
X6019495Y12888264D01*
X6032347Y12898780D01*
X6043930Y12910718D01*
X6054090Y12923875D01*
X6062675Y12938099D01*
X6069584Y12953187D01*
X6074714Y12968986D01*
X6078016Y12985292D01*
X6079439Y13001802D01*
X6078931Y13018414D01*
X6076594Y13034873D01*
X6072378Y13050926D01*
X6066332Y13066420D01*
X6058560Y13081101D01*
X6049213Y13094817D01*
X6038342Y13107365D01*
X6026099Y13118592D01*
X6012637Y13128345D01*
X5998159Y13136524D01*
X5982868Y13143026D01*
X5966917Y13147700D01*
X5950559Y13150494D01*
X5933998Y13151459D01*
X5917387Y13150494D01*
X5901029Y13147700D01*
X5885078Y13143026D01*
X5869787Y13136524D01*
X5855309Y13128345D01*
X5841898Y13118592D01*
X5829655Y13107365D01*
X5818784Y13094817D01*
X5809386Y13081101D01*
X5801664Y13066420D01*
X5795619Y13050926D01*
X5791403Y13034873D01*
X5789015Y13018414D01*
X5788710Y13006730D01*
X5787847Y13003022D01*
X5785713Y12999821D01*
X5771184Y12985292D01*
X5762294Y12975132D01*
X5754979Y12964210D01*
X5749188Y12952425D01*
X5744921Y12939979D01*
X5742381Y12927076D01*
X5741517Y12913664D01*
X5741517Y12173661D01*
X5740704Y12169749D01*
X5738520Y12166447D01*
X5735218Y12164263D01*
X5731357Y12163501D01*
X5721756Y12163501D01*
X5712561Y12162688D01*
X5704078Y12160402D01*
X5696102Y12156694D01*
X5688888Y12151614D01*
X5682691Y12145416D01*
X5677611Y12138202D01*
X5673902Y12130227D01*
X5671616Y12121743D01*
X5670854Y12112548D01*
X5670854Y12058142D01*
X5670042Y12054230D01*
X5667806Y12050928D01*
X5664454Y12048744D01*
X5660542Y12047982D01*
X5656630Y12048845D01*
X5653328Y12051131D01*
X5651195Y12054535D01*
X5648350Y12061952D01*
X5640222Y12077903D01*
X5630468Y12092940D01*
X5619191Y12106859D01*
X5606491Y12119508D01*
X5596280Y12127788D01*
X5593486Y12131344D01*
X5592521Y12135713D01*
X5592521Y14267688D01*
X5591606Y14281099D01*
X5589066Y14294002D01*
X5584850Y14306448D01*
X5579008Y14318234D01*
X5571693Y14329156D01*
X5562803Y14339316D01*
X5482234Y14419884D01*
X5480100Y14423034D01*
X5479288Y14426793D01*
X5478932Y14438426D01*
X5476595Y14454886D01*
X5472379Y14470938D01*
X5466334Y14486432D01*
X5458561Y14501113D01*
X5456123Y14504669D01*
X5454497Y14508734D01*
X5454751Y14513102D01*
X5456783Y14516963D01*
X5460238Y14519605D01*
X5464556Y14520570D01*
X5528411Y14520570D01*
X5532323Y14519808D01*
X5535625Y14517573D01*
X5788710Y14264487D01*
X5790539Y14261947D01*
X5791555Y14258950D01*
X5791606Y14255851D01*
X5789015Y14238427D01*
X5788558Y14221815D01*
X5789980Y14205254D01*
X5793282Y14188998D01*
X5798413Y14173200D01*
X5805322Y14158061D01*
X5813907Y14143837D01*
X5824016Y14130680D01*
X5835599Y14118793D01*
X5848451Y14108277D01*
X5862421Y14099286D01*
X5877356Y14091970D01*
X5893003Y14086382D01*
X5909157Y14082623D01*
X5925667Y14080744D01*
X5942279Y14080744D01*
X5958789Y14082623D01*
X5974994Y14086382D01*
X5990640Y14091970D01*
X6005525Y14099286D01*
X6019495Y14108277D01*
X6032347Y14118793D01*
X6043930Y14130680D01*
X6054090Y14143837D01*
X6062675Y14158061D01*
X6069584Y14173200D01*
X6074714Y14188998D01*
X6078016Y14205254D01*
X6079439Y14221815D01*
X6078931Y14238427D01*
X6076594Y14254886D01*
X6072378Y14270939D01*
X6066332Y14286433D01*
X6058560Y14301114D01*
X6049213Y14314830D01*
X6038342Y14327378D01*
X6026099Y14338604D01*
X6012637Y14348358D01*
X5998159Y14356537D01*
X5982868Y14362988D01*
X5966917Y14367662D01*
X5950559Y14370507D01*
X5933998Y14371472D01*
X5917387Y14370507D01*
X5904585Y14368272D01*
X5901334Y14368272D01*
X5898286Y14369237D01*
X5895644Y14371116D01*
X5615432Y14651278D01*
X5608624Y14656917D01*
X5606592Y14658340D01*
X5599023Y14662912D01*
X5596839Y14664029D01*
X5588660Y14667382D01*
X5586374Y14668144D01*
X5577789Y14670278D01*
X5575350Y14670684D01*
X5566562Y14671548D01*
X4629556Y14671598D01*
X4625644Y14672360D01*
X4622342Y14674545D01*
X4620158Y14677847D01*
X4619396Y14681758D01*
X4619396Y15310459D01*
X4619701Y15312898D01*
X4620564Y15315234D01*
X4626559Y15326461D01*
X4629861Y15335504D01*
X4631944Y15338958D01*
X4635246Y15341346D01*
X4639208Y15342209D01*
X4643221Y15341498D01*
X4646574Y15339263D01*
X4826000Y15159786D01*
X4836160Y15150896D01*
X4847082Y15143632D01*
X4858867Y15137790D01*
X4871313Y15133574D01*
X4884216Y15130983D01*
X4897678Y15130119D01*
X10111333Y15130119D01*
X10115194Y15129357D01*
X10118496Y15127173D01*
X10657840Y14587829D01*
X10660176Y14584121D01*
X10660735Y14579752D01*
X10659414Y14575536D01*
X10656417Y14572284D01*
X10652353Y14570659D01*
X10635030Y14567662D01*
X10619079Y14562988D01*
X10603788Y14556536D01*
X10589310Y14548357D01*
X10575899Y14538604D01*
X10563656Y14527377D01*
X10552785Y14514830D01*
X10543387Y14501113D01*
X10535615Y14486432D01*
X10529620Y14470938D01*
X10525404Y14454886D01*
X10523016Y14438426D01*
X10522559Y14421815D01*
X10523982Y14405254D01*
X10527284Y14388998D01*
X10532414Y14373199D01*
X10539323Y14358061D01*
X10547858Y14343837D01*
X10558018Y14330680D01*
X10569600Y14318792D01*
X10582452Y14308277D01*
X10596422Y14299285D01*
X10611358Y14291970D01*
X10627004Y14286382D01*
X10643158Y14282623D01*
X10659668Y14280743D01*
X10666882Y14280743D01*
X10670794Y14279930D01*
X10674096Y14277746D01*
X10722457Y14229334D01*
X10724692Y14226032D01*
X10725454Y14222171D01*
X10725454Y12135662D01*
X10724489Y12131294D01*
X10721695Y12127788D01*
X10711484Y12119508D01*
X10698784Y12106859D01*
X10687507Y12092940D01*
X10677753Y12077903D01*
X10669625Y12061952D01*
X10663224Y12045188D01*
X10660786Y12036196D01*
X10658754Y12032284D01*
X10655300Y12029592D01*
X10650982Y12028678D01*
X10646664Y12029592D01*
X10643209Y12032284D01*
X10641177Y12036196D01*
X10638739Y12045188D01*
X10632338Y12061952D01*
X10624210Y12077903D01*
X10614456Y12092940D01*
X10603179Y12106859D01*
X10590479Y12119508D01*
X10580268Y12127788D01*
X10577474Y12131344D01*
X10576509Y12135713D01*
X10576509Y12597638D01*
X10575594Y12611100D01*
X10573054Y12624003D01*
X10568838Y12636449D01*
X10562996Y12648234D01*
X10555681Y12659156D01*
X10546791Y12669266D01*
X10216235Y12999872D01*
X10214102Y13003022D01*
X10213289Y13006730D01*
X10212933Y13018414D01*
X10210546Y13034873D01*
X10206329Y13050926D01*
X10200335Y13066420D01*
X10192562Y13081101D01*
X10183215Y13094817D01*
X10172293Y13107365D01*
X10160050Y13118592D01*
X10146639Y13128345D01*
X10132161Y13136524D01*
X10116870Y13143026D01*
X10100919Y13147700D01*
X10084562Y13150494D01*
X10068001Y13151459D01*
X10051389Y13150494D01*
X10035032Y13147700D01*
X10019080Y13143026D01*
X10003790Y13136524D01*
X9989312Y13128345D01*
X9975900Y13118592D01*
X9963658Y13107365D01*
X9952736Y13094817D01*
X9943388Y13081101D01*
X9935616Y13066420D01*
X9929622Y13050926D01*
X9925405Y13034873D01*
X9923018Y13018414D01*
X9922560Y13001802D01*
X9923983Y12985292D01*
X9927285Y12968986D01*
X9932416Y12953187D01*
X9939274Y12938099D01*
X9947859Y12923875D01*
X9958019Y12910718D01*
X9969601Y12898780D01*
X9982454Y12888264D01*
X9996424Y12879273D01*
X10011359Y12871958D01*
X10027005Y12866370D01*
X10043160Y12862610D01*
X10059670Y12860731D01*
X10066883Y12860731D01*
X10070795Y12859969D01*
X10074046Y12857734D01*
X10372496Y12559334D01*
X10374680Y12556032D01*
X10375493Y12552121D01*
X10375493Y12135713D01*
X10374477Y12131344D01*
X10371683Y12127788D01*
X10361472Y12119508D01*
X10348772Y12106859D01*
X10337546Y12092940D01*
X10327741Y12077903D01*
X10319613Y12061952D01*
X10313212Y12045188D01*
X10308590Y12027916D01*
X10305796Y12010237D01*
X10304830Y11992051D01*
X10304830Y11883898D01*
X10305796Y11865762D01*
X10308590Y11848033D01*
X10313212Y11830761D01*
X10319613Y11813997D01*
X10327741Y11798046D01*
X10337546Y11783009D01*
X10348772Y11769090D01*
X10361472Y11756440D01*
X10375392Y11745163D01*
X10390428Y11735409D01*
X10406380Y11727281D01*
X10423093Y11720880D01*
X10440416Y11716207D01*
X10458094Y11713413D01*
X10475976Y11712498D01*
X10493857Y11713413D01*
X10511586Y11716207D01*
X10528858Y11720880D01*
X10545572Y11727281D01*
X10561574Y11735409D01*
X10576560Y11745163D01*
X10590479Y11756440D01*
X10603179Y11769090D01*
X10614456Y11783009D01*
X10624210Y11798046D01*
X10632338Y11813997D01*
X10638739Y11830761D01*
X10641177Y11839752D01*
X10643209Y11843664D01*
X10646664Y11846356D01*
X10650982Y11847271D01*
X10655300Y11846356D01*
X10658754Y11843664D01*
X10660786Y11839752D01*
X10663224Y11830761D01*
X10669625Y11813997D01*
X10677753Y11798046D01*
X10687507Y11783009D01*
X10698784Y11769090D01*
X10711484Y11756440D01*
X10725404Y11745163D01*
X10740390Y11735409D01*
X10756392Y11727281D01*
X10773105Y11720880D01*
X10790377Y11716207D01*
X10808106Y11713413D01*
X10825988Y11712498D01*
X10843869Y11713413D01*
X10861548Y11716207D01*
X10878870Y11720880D01*
X10895584Y11727281D01*
X10911535Y11735409D01*
X10926572Y11745163D01*
X10940491Y11756440D01*
X10953140Y11769090D01*
X10964418Y11783009D01*
X10974171Y11798046D01*
X10982350Y11813997D01*
X10985195Y11821414D01*
X10987328Y11824817D01*
X10990580Y11827103D01*
X10994491Y11827967D01*
X10998454Y11827205D01*
X11001806Y11825020D01*
X11004042Y11821718D01*
X11004804Y11817807D01*
X11004804Y11763400D01*
X11005616Y11754205D01*
X11007902Y11745722D01*
X11011611Y11737746D01*
X11016640Y11730532D01*
X11022888Y11724335D01*
X11030102Y11719255D01*
X11038078Y11715546D01*
X11046561Y11713260D01*
X11055756Y11712448D01*
X11296192Y11712448D01*
X11305387Y11713260D01*
X11313871Y11715546D01*
X11321846Y11719255D01*
X11329060Y11724335D01*
X11335308Y11730532D01*
X11340338Y11737746D01*
X11344046Y11745722D01*
X11346332Y11754205D01*
X11347145Y11763400D01*
X11347145Y12112548D01*
X11346332Y12121743D01*
X11344046Y12130227D01*
X11340338Y12138202D01*
X11335308Y12145416D01*
X11329060Y12151614D01*
X11321846Y12156694D01*
X11313871Y12160402D01*
X11305387Y12162688D01*
X11296192Y12163501D01*
X11286693Y12163501D01*
X11282781Y12164263D01*
X11279479Y12166447D01*
X11277295Y12169749D01*
X11276533Y12173661D01*
X11276533Y12851688D01*
X11277193Y12855295D01*
X11279073Y12858445D01*
X11281968Y12860731D01*
X11285524Y12861798D01*
X11292789Y12862610D01*
X11308943Y12866370D01*
X11324590Y12871958D01*
X11339525Y12879273D01*
X11353495Y12888264D01*
X11366347Y12898780D01*
X11377930Y12910718D01*
X11388090Y12923875D01*
X11396675Y12938099D01*
X11403533Y12953187D01*
X11408664Y12968986D01*
X11411966Y12985292D01*
X11413388Y13001802D01*
X11412931Y13018414D01*
X11410594Y13034873D01*
X11406327Y13050926D01*
X11400332Y13066420D01*
X11392560Y13081101D01*
X11383213Y13094817D01*
X11372291Y13107365D01*
X11360048Y13118592D01*
X11346637Y13128345D01*
X11332159Y13136524D01*
X11316868Y13143026D01*
X11300917Y13147700D01*
X11284559Y13150494D01*
X11267998Y13151459D01*
X11251387Y13150494D01*
X11235029Y13147700D01*
X11219078Y13143026D01*
X11203787Y13136524D01*
X11189309Y13128345D01*
X11175898Y13118592D01*
X11163655Y13107365D01*
X11152784Y13094817D01*
X11143386Y13081101D01*
X11135614Y13066420D01*
X11129619Y13050926D01*
X11125403Y13034873D01*
X11123015Y13018414D01*
X11122660Y13006628D01*
X11121847Y13002920D01*
X11119713Y12999770D01*
X11105083Y12985089D01*
X11096294Y12975031D01*
X11088979Y12964109D01*
X11083188Y12952323D01*
X11078921Y12939877D01*
X11076381Y12926974D01*
X11075517Y12913512D01*
X11075517Y12173661D01*
X11074704Y12169749D01*
X11072520Y12166447D01*
X11069218Y12164263D01*
X11065357Y12163501D01*
X11055756Y12163501D01*
X11046561Y12162688D01*
X11038078Y12160402D01*
X11030102Y12156694D01*
X11022888Y12151614D01*
X11016640Y12145416D01*
X11011611Y12138202D01*
X11007902Y12130227D01*
X11005616Y12121743D01*
X11004804Y12112548D01*
X11004804Y12058142D01*
X11004042Y12054230D01*
X11001806Y12050928D01*
X10998454Y12048744D01*
X10994491Y12047982D01*
X10990580Y12048845D01*
X10987328Y12051131D01*
X10985195Y12054535D01*
X10982350Y12061952D01*
X10974171Y12077903D01*
X10964418Y12092940D01*
X10953140Y12106859D01*
X10940491Y12119508D01*
X10930229Y12127839D01*
X10927435Y12131344D01*
X10926470Y12135713D01*
X10926470Y14121942D01*
X10927232Y14125854D01*
X10929467Y14129156D01*
X10932718Y14131340D01*
X10936630Y14132102D01*
X10940542Y14131340D01*
X10943793Y14129156D01*
X11491722Y13581227D01*
X11501882Y13572337D01*
X11512804Y13565022D01*
X11524589Y13559231D01*
X11537035Y13554963D01*
X11549938Y13552424D01*
X11563400Y13551560D01*
X11937085Y13551560D01*
X11941200Y13550696D01*
X11944604Y13548207D01*
X11946737Y13544600D01*
X11947194Y13540384D01*
X11945924Y13536371D01*
X11938914Y13523976D01*
X11932666Y13509193D01*
X11928144Y13493800D01*
X11925401Y13478001D01*
X11924487Y13461949D01*
X11925401Y13445947D01*
X11928144Y13430148D01*
X11932666Y13414756D01*
X11938914Y13399973D01*
X11946788Y13386003D01*
X11956237Y13373049D01*
X11961774Y13366953D01*
X11963755Y13363803D01*
X11964466Y13360095D01*
X11964466Y13309854D01*
X11963755Y13306145D01*
X11961774Y13302996D01*
X11956237Y13296900D01*
X11946788Y13283946D01*
X11938914Y13269976D01*
X11932666Y13255193D01*
X11928144Y13239800D01*
X11925401Y13224001D01*
X11924792Y13213588D01*
X11923928Y13210032D01*
X11921845Y13206984D01*
X11675160Y12960299D01*
X11666270Y12950139D01*
X11658955Y12939217D01*
X11653164Y12927431D01*
X11648897Y12914985D01*
X11646357Y12902082D01*
X11645493Y12888671D01*
X11645493Y12135713D01*
X11644477Y12131344D01*
X11641683Y12127788D01*
X11631472Y12119508D01*
X11618772Y12106859D01*
X11607495Y12092940D01*
X11597741Y12077903D01*
X11589613Y12061952D01*
X11583212Y12045188D01*
X11578590Y12027916D01*
X11575796Y12010237D01*
X11574830Y11992051D01*
X11574830Y11883898D01*
X11575796Y11865762D01*
X11578590Y11848033D01*
X11583212Y11830761D01*
X11589613Y11813997D01*
X11597741Y11798046D01*
X11607495Y11783009D01*
X11618772Y11769090D01*
X11631472Y11756440D01*
X11645392Y11745163D01*
X11660428Y11735409D01*
X11676380Y11727281D01*
X11693093Y11720880D01*
X11710416Y11716207D01*
X11728094Y11713413D01*
X11745976Y11712498D01*
X11763857Y11713413D01*
X11781586Y11716207D01*
X11798858Y11720880D01*
X11815572Y11727281D01*
X11831574Y11735409D01*
X11846560Y11745163D01*
X11860479Y11756440D01*
X11873179Y11769090D01*
X11884456Y11783009D01*
X11894210Y11798046D01*
X11902338Y11813997D01*
X11908739Y11830761D01*
X11911177Y11839752D01*
X11913209Y11843664D01*
X11916664Y11846356D01*
X11920982Y11847271D01*
X11925249Y11846356D01*
X11928754Y11843664D01*
X11930786Y11839752D01*
X11933224Y11830761D01*
X11939625Y11813997D01*
X11947753Y11798046D01*
X11957507Y11783009D01*
X11968784Y11769090D01*
X11981484Y11756440D01*
X11995404Y11745163D01*
X12010390Y11735409D01*
X12026392Y11727281D01*
X12043105Y11720880D01*
X12060377Y11716207D01*
X12078106Y11713413D01*
X12095988Y11712498D01*
X12113869Y11713413D01*
X12131548Y11716207D01*
X12148870Y11720880D01*
X12165584Y11727281D01*
X12181535Y11735409D01*
X12196572Y11745163D01*
X12210491Y11756440D01*
X12223140Y11769090D01*
X12234418Y11783009D01*
X12244171Y11798046D01*
X12252350Y11813997D01*
X12255195Y11821414D01*
X12257328Y11824817D01*
X12260580Y11827103D01*
X12264491Y11827967D01*
X12268454Y11827205D01*
X12271806Y11825020D01*
X12274042Y11821718D01*
X12274804Y11817807D01*
X12274804Y11763400D01*
X12275616Y11754205D01*
X12277902Y11745722D01*
X12281611Y11737746D01*
X12286640Y11730532D01*
X12292888Y11724335D01*
X12300102Y11719255D01*
X12308078Y11715546D01*
X12316561Y11713260D01*
X12325756Y11712448D01*
X12566192Y11712448D01*
X12575387Y11713260D01*
X12583871Y11715546D01*
X12591846Y11719255D01*
X12599060Y11724335D01*
X12605308Y11730532D01*
X12610338Y11737746D01*
X12614046Y11745722D01*
X12616332Y11754205D01*
X12617145Y11763400D01*
X12617145Y11827306D01*
X12617907Y11831218D01*
X12620091Y11834520D01*
X12623393Y11836704D01*
X12627305Y11837466D01*
X12666370Y11837466D01*
X12679832Y11838330D01*
X12692684Y11840921D01*
X12705130Y11845137D01*
X12716967Y11850979D01*
X12727889Y11858244D01*
X12737998Y11867134D01*
X12842036Y11971172D01*
X12850926Y11981281D01*
X12858242Y11992254D01*
X12864033Y12004040D01*
X12868249Y12016486D01*
X12870840Y12029338D01*
X12871704Y12042800D01*
X12871704Y19599046D01*
X12870840Y19612457D01*
X12868249Y19625360D01*
X12864033Y19637806D01*
X12858242Y19649592D01*
X12850926Y19660514D01*
X12842036Y19670674D01*
X12425680Y20087031D01*
X12415164Y20095870D01*
X12403836Y20103134D01*
X12391898Y20108672D01*
X12381382Y20112126D01*
X12368530Y20114666D01*
X12365786Y20114971D01*
X12355423Y20115479D01*
X12352375Y20115428D01*
X12342317Y20114615D01*
X12339015Y20114107D01*
X12329414Y20112024D01*
X12325908Y20111008D01*
X12317018Y20107757D01*
X12313361Y20106182D01*
X12305233Y20101966D01*
X12301575Y20099731D01*
X12294311Y20094651D01*
X12290755Y20091806D01*
X12284456Y20085964D01*
X12281103Y20082459D01*
X12275820Y20076109D01*
X12272772Y20071892D01*
X12268504Y20065187D01*
X12265914Y20060361D01*
X12262713Y20053401D01*
X12260630Y20047966D01*
X12258497Y20040955D01*
X12257074Y20035012D01*
X12255957Y20028103D01*
X12255296Y20021702D01*
X12255093Y20014996D01*
X12255296Y20008240D01*
X12255957Y20001890D01*
X12257074Y19994930D01*
X12258497Y19988987D01*
X12260630Y19981976D01*
X12262713Y19976541D01*
X12265914Y19969632D01*
X12268504Y19964755D01*
X12272772Y19958050D01*
X12275820Y19953833D01*
X12281103Y19947483D01*
X12667691Y19560692D01*
X12669926Y19557390D01*
X12670688Y19553529D01*
X12670688Y19426326D01*
X12669723Y19422059D01*
X12667081Y19418554D01*
X12663220Y19416522D01*
X12658852Y19416318D01*
X12654788Y19417944D01*
X12645542Y19424294D01*
X12631318Y19431762D01*
X12616383Y19437553D01*
X12600889Y19441668D01*
X12584988Y19443954D01*
X12568986Y19444411D01*
X12552984Y19443039D01*
X12537236Y19439839D01*
X12521996Y19434860D01*
X12507417Y19428206D01*
X12493650Y19419925D01*
X12480950Y19410121D01*
X12474143Y19403466D01*
X12470587Y19401231D01*
X12466421Y19400621D01*
X12462357Y19401739D01*
X12459106Y19404380D01*
X12457226Y19408140D01*
X12456414Y19411238D01*
X12452705Y19419214D01*
X12447625Y19426377D01*
X12441428Y19432625D01*
X12434214Y19437654D01*
X12426238Y19441363D01*
X12417755Y19443649D01*
X12408509Y19444462D01*
X12229439Y19444462D01*
X12220194Y19443649D01*
X12211710Y19441363D01*
X12203734Y19437654D01*
X12196521Y19432625D01*
X12190323Y19426377D01*
X12185243Y19419214D01*
X12181535Y19411238D01*
X12179249Y19402704D01*
X12178487Y19393509D01*
X12178487Y19214388D01*
X12179249Y19205194D01*
X12181535Y19196710D01*
X12185243Y19188734D01*
X12189409Y19182791D01*
X12191034Y19179032D01*
X12191034Y19174917D01*
X12189409Y19171158D01*
X12185243Y19165214D01*
X12181535Y19157238D01*
X12179249Y19148704D01*
X12178487Y19139509D01*
X12178487Y18960388D01*
X12179249Y18951194D01*
X12181535Y18942710D01*
X12185243Y18934734D01*
X12190323Y18927521D01*
X12196521Y18921323D01*
X12203734Y18916243D01*
X12211710Y18912535D01*
X12220194Y18910249D01*
X12229439Y18909436D01*
X12408509Y18909436D01*
X12417755Y18910249D01*
X12426238Y18912535D01*
X12434214Y18916243D01*
X12441428Y18921323D01*
X12447625Y18927521D01*
X12452705Y18934734D01*
X12456414Y18942710D01*
X12457226Y18945809D01*
X12459106Y18949517D01*
X12462357Y18952159D01*
X12466421Y18953276D01*
X12470587Y18952667D01*
X12474143Y18950432D01*
X12480950Y18943777D01*
X12493650Y18933972D01*
X12507417Y18925692D01*
X12521996Y18919037D01*
X12537236Y18914110D01*
X12552984Y18910909D01*
X12568986Y18909538D01*
X12584988Y18909995D01*
X12600889Y18912281D01*
X12616383Y18916345D01*
X12631318Y18922187D01*
X12645542Y18929654D01*
X12654788Y18936004D01*
X12658852Y18937630D01*
X12663220Y18937376D01*
X12667081Y18935344D01*
X12669723Y18931890D01*
X12670688Y18927622D01*
X12670688Y17178578D01*
X12669926Y17174718D01*
X12667691Y17171416D01*
X12664440Y17169180D01*
X12660528Y17168418D01*
X12656616Y17169180D01*
X12653365Y17171416D01*
X12582499Y17242282D01*
X12580569Y17244872D01*
X12579604Y17247971D01*
X12579654Y17251222D01*
X12580569Y17256252D01*
X12581483Y17271949D01*
X12580569Y17287697D01*
X12577826Y17303191D01*
X12573304Y17318329D01*
X12567056Y17332756D01*
X12559182Y17346422D01*
X12549784Y17359071D01*
X12538964Y17370501D01*
X12523622Y17383455D01*
X12522047Y17386401D01*
X12521488Y17389652D01*
X12521488Y17408245D01*
X12522047Y17411547D01*
X12523622Y17414494D01*
X12538964Y17427397D01*
X12549784Y17438878D01*
X12559182Y17451527D01*
X12567056Y17465141D01*
X12573304Y17479619D01*
X12577826Y17494707D01*
X12580569Y17510252D01*
X12581483Y17525949D01*
X12580569Y17541697D01*
X12577826Y17557191D01*
X12573304Y17572329D01*
X12567056Y17586756D01*
X12559182Y17600422D01*
X12549784Y17613071D01*
X12538964Y17624501D01*
X12526873Y17634661D01*
X12513716Y17643297D01*
X12509093Y17646700D01*
X12507214Y17650714D01*
X12507214Y17655184D01*
X12509093Y17659197D01*
X12513716Y17662601D01*
X12526873Y17671288D01*
X12538964Y17681397D01*
X12549784Y17692878D01*
X12559182Y17705527D01*
X12567056Y17719141D01*
X12573304Y17733619D01*
X12577826Y17748707D01*
X12580569Y17764252D01*
X12581483Y17779949D01*
X12580569Y17795697D01*
X12577826Y17811191D01*
X12573304Y17826329D01*
X12567056Y17840756D01*
X12559182Y17854422D01*
X12549784Y17867071D01*
X12538964Y17878501D01*
X12535357Y17881549D01*
X12532664Y17885003D01*
X12531750Y17889321D01*
X12532664Y17893588D01*
X12535357Y17897094D01*
X12539268Y17899126D01*
X12548260Y17901564D01*
X12556185Y17905272D01*
X12563398Y17910302D01*
X12569647Y17916499D01*
X12574676Y17923713D01*
X12578384Y17931688D01*
X12580670Y17940223D01*
X12581483Y17949418D01*
X12581483Y18118531D01*
X12580670Y18127726D01*
X12578384Y18136209D01*
X12574676Y18144185D01*
X12569647Y18151398D01*
X12563398Y18157647D01*
X12556185Y18162676D01*
X12548260Y18166384D01*
X12539726Y18168670D01*
X12530531Y18169483D01*
X12361418Y18169483D01*
X12352223Y18168670D01*
X12343688Y18166384D01*
X12335764Y18162676D01*
X12328550Y18157647D01*
X12322302Y18151398D01*
X12317272Y18144185D01*
X12313564Y18136209D01*
X12311278Y18127726D01*
X12310465Y18118531D01*
X12310465Y17949418D01*
X12311278Y17940223D01*
X12313564Y17931688D01*
X12317272Y17923713D01*
X12322302Y17916499D01*
X12328550Y17910302D01*
X12335764Y17905272D01*
X12343688Y17901564D01*
X12352680Y17899126D01*
X12356592Y17897094D01*
X12359284Y17893588D01*
X12360198Y17889321D01*
X12359284Y17885003D01*
X12356592Y17881549D01*
X12352985Y17878501D01*
X12342164Y17867071D01*
X12332766Y17854422D01*
X12324892Y17840756D01*
X12318644Y17826329D01*
X12314123Y17811191D01*
X12311380Y17795697D01*
X12310465Y17779949D01*
X12311380Y17764252D01*
X12314123Y17748707D01*
X12318644Y17733619D01*
X12324892Y17719141D01*
X12332766Y17705527D01*
X12342164Y17692878D01*
X12352985Y17681397D01*
X12365075Y17671288D01*
X12378232Y17662601D01*
X12382855Y17659197D01*
X12384735Y17655184D01*
X12384735Y17650714D01*
X12382855Y17646700D01*
X12378232Y17643297D01*
X12365075Y17634661D01*
X12352985Y17624501D01*
X12342164Y17613071D01*
X12332766Y17600422D01*
X12324892Y17586756D01*
X12318644Y17572329D01*
X12314123Y17557191D01*
X12311380Y17541697D01*
X12310465Y17525949D01*
X12311380Y17510252D01*
X12314123Y17494707D01*
X12318644Y17479619D01*
X12324892Y17465141D01*
X12332766Y17451527D01*
X12342164Y17438878D01*
X12352985Y17427397D01*
X12368326Y17414494D01*
X12369901Y17411547D01*
X12370460Y17408245D01*
X12370460Y17389652D01*
X12369901Y17386401D01*
X12368326Y17383455D01*
X12352985Y17370501D01*
X12342164Y17359071D01*
X12332766Y17346422D01*
X12324892Y17332756D01*
X12318644Y17318329D01*
X12314123Y17303191D01*
X12311380Y17287697D01*
X12310465Y17271949D01*
X12311380Y17256252D01*
X12314123Y17240707D01*
X12318644Y17225619D01*
X12324892Y17211141D01*
X12332766Y17197527D01*
X12342164Y17184878D01*
X12352985Y17173397D01*
X12365075Y17163288D01*
X12378232Y17154601D01*
X12382855Y17151197D01*
X12384735Y17147184D01*
X12384735Y17142714D01*
X12382855Y17138700D01*
X12378232Y17135297D01*
X12365075Y17126661D01*
X12352985Y17116501D01*
X12342164Y17105071D01*
X12332766Y17092422D01*
X12324892Y17078756D01*
X12319762Y17066818D01*
X12397130Y17066818D01*
X12397130Y17131690D01*
X12397790Y17135246D01*
X12399670Y17138396D01*
X12402515Y17140631D01*
X12405969Y17141748D01*
X12409627Y17141545D01*
X12422428Y17138548D01*
X12438075Y17136719D01*
X12453874Y17136719D01*
X12467437Y17138294D01*
X12470485Y17138192D01*
X12473330Y17137176D01*
X12475768Y17135398D01*
X12491872Y17119346D01*
X12494056Y17116044D01*
X12494818Y17112132D01*
X12494818Y17066818D01*
X12530937Y17066818D01*
X12534849Y17066056D01*
X12538151Y17063821D01*
X12540335Y17060519D01*
X12541097Y17056658D01*
X12541097Y16979290D01*
X12540335Y16975378D01*
X12538151Y16972076D01*
X12534849Y16969892D01*
X12530937Y16969130D01*
X12494818Y16969130D01*
X12494818Y16812818D01*
X12530937Y16812818D01*
X12534849Y16812056D01*
X12538151Y16809821D01*
X12540335Y16806519D01*
X12541097Y16802658D01*
X12541097Y16725290D01*
X12540335Y16721378D01*
X12538151Y16718076D01*
X12534849Y16715892D01*
X12530937Y16715130D01*
X12494818Y16715130D01*
X12494818Y16637812D01*
X12499644Y16639540D01*
X12513716Y16646601D01*
X12525349Y16654272D01*
X12529413Y16655846D01*
X12533731Y16655542D01*
X12537541Y16653510D01*
X12540183Y16650055D01*
X12541097Y16645788D01*
X12541097Y15610128D01*
X12540335Y15606217D01*
X12538151Y15602915D01*
X11306302Y14371116D01*
X11303711Y14369237D01*
X11300612Y14368272D01*
X11297412Y14368272D01*
X11284559Y14370507D01*
X11267998Y14371472D01*
X11251387Y14370507D01*
X11235029Y14367662D01*
X11219078Y14362988D01*
X11203787Y14356537D01*
X11189309Y14348358D01*
X11175898Y14338604D01*
X11163655Y14327378D01*
X11152784Y14314830D01*
X11143386Y14301114D01*
X11135614Y14286433D01*
X11129619Y14270939D01*
X11125149Y14253718D01*
X11123269Y14249958D01*
X11119967Y14247266D01*
X11115903Y14246148D01*
X11111687Y14246809D01*
X11108131Y14249095D01*
X11081715Y14275511D01*
X11079530Y14278813D01*
X11078768Y14282724D01*
X11078768Y14409216D01*
X11077854Y14422678D01*
X11075314Y14435582D01*
X11071098Y14448028D01*
X11065256Y14459813D01*
X11057940Y14470735D01*
X11049050Y14480844D01*
X10228478Y15301468D01*
X10218318Y15310357D01*
X10207396Y15317673D01*
X10195610Y15323464D01*
X10183164Y15327680D01*
X10170261Y15330271D01*
X10156799Y15331135D01*
X4943144Y15331135D01*
X4939284Y15331897D01*
X4935982Y15334132D01*
X1485646Y18784468D01*
X1483461Y18787668D01*
X1482699Y18791478D01*
X1483360Y18795288D01*
X1487119Y18805093D01*
X1491742Y18822365D01*
X1494536Y18840094D01*
X1495501Y18857976D01*
X1494536Y18875857D01*
X1491742Y18893536D01*
X1487119Y18910858D01*
X1480718Y18927572D01*
X1472539Y18943523D01*
X1462786Y18958560D01*
X1451508Y18972479D01*
X1438859Y18985128D01*
X1424940Y18996406D01*
X1409903Y19006159D01*
X1393952Y19014338D01*
X1377238Y19020739D01*
X1368196Y19023126D01*
X1364284Y19025158D01*
X1361643Y19028664D01*
X1360678Y19032982D01*
X1361643Y19037249D01*
X1364284Y19040754D01*
X1368196Y19042786D01*
X1377238Y19045174D01*
X1393952Y19051625D01*
X1409903Y19059753D01*
X1424940Y19069507D01*
X1438859Y19080784D01*
X1451508Y19093434D01*
X1462786Y19107353D01*
X1472539Y19122390D01*
X1480718Y19138341D01*
X1487119Y19155054D01*
X1491742Y19172377D01*
X1494536Y19190055D01*
X1495501Y19207988D01*
X1494536Y19225869D01*
X1491742Y19243548D01*
X1487119Y19260870D01*
X1480718Y19277584D01*
X1472539Y19293535D01*
X1462786Y19308572D01*
X1451508Y19322491D01*
X1438859Y19335140D01*
X1424940Y19346418D01*
X1409903Y19356171D01*
X1393952Y19364299D01*
X1386535Y19367144D01*
X1383182Y19369278D01*
X1380896Y19372580D01*
X1380032Y19376491D01*
X1380744Y19380403D01*
X1382928Y19383756D01*
X1386281Y19385991D01*
X1390192Y19386804D01*
X1444548Y19386804D01*
X1453743Y19387616D01*
X1462278Y19389902D01*
X1470253Y19393611D01*
X1477416Y19398640D01*
X1483664Y19404888D01*
X1488694Y19412102D01*
X1492402Y19420027D01*
X1494688Y19428561D01*
X1495501Y19437756D01*
X1495501Y19678192D01*
X1494688Y19687387D01*
X1492402Y19695871D01*
X1488694Y19703846D01*
X1483664Y19711060D01*
X1477416Y19717258D01*
X1470253Y19722338D01*
X1462278Y19726046D01*
X1453743Y19728332D01*
X1444548Y19729094D01*
X1095451Y19729094D01*
X1086256Y19728332D01*
X1077722Y19726046D01*
X1069746Y19722338D01*
X1062532Y19717258D01*
X1056335Y19711060D01*
X1051306Y19703846D01*
X1047597Y19695871D01*
X1045311Y19687387D01*
X1044498Y19678192D01*
X1044498Y19437756D01*
X1045311Y19428561D01*
X1047597Y19420027D01*
X1051306Y19412102D01*
X1056335Y19404888D01*
X1062532Y19398640D01*
X1069746Y19393611D01*
X1077722Y19389902D01*
X1086256Y19387616D01*
X1095451Y19386804D01*
X1149807Y19386804D01*
X1153718Y19385991D01*
X1157071Y19383756D01*
X1159256Y19380403D01*
X1159967Y19376491D01*
X1159103Y19372580D01*
X1156817Y19369278D01*
X1153464Y19367144D01*
X1146048Y19364299D01*
X1130096Y19356171D01*
X1115060Y19346418D01*
X1101140Y19335140D01*
X1088440Y19322491D01*
X1077214Y19308572D01*
X1067409Y19293535D01*
X1059281Y19277584D01*
X1052880Y19260870D01*
X1048258Y19243548D01*
X1045464Y19225869D01*
X1044498Y19207988D01*
X1045464Y19190055D01*
X1048258Y19172377D01*
X1052880Y19155054D01*
X1059281Y19138341D01*
X1067409Y19122390D01*
X1077214Y19107353D01*
X1088440Y19093434D01*
X1101140Y19080784D01*
X1115060Y19069507D01*
X1130096Y19059753D01*
X1146048Y19051625D01*
X1162761Y19045174D01*
X1171803Y19042786D01*
X1175664Y19040754D01*
X1178356Y19037249D01*
X1179322Y19032982D01*
X1178356Y19028664D01*
X1175664Y19025158D01*
X1171803Y19023126D01*
X1162761Y19020739D01*
X1146048Y19014338D01*
X1130096Y19006159D01*
X1115060Y18996406D01*
X1101140Y18985128D01*
X1088440Y18972479D01*
X1077214Y18958560D01*
X1067409Y18943523D01*
X1059281Y18927572D01*
X1052880Y18910858D01*
X1048258Y18893536D01*
X1045464Y18875857D01*
X1044498Y18857976D01*
X1045464Y18840094D01*
X1048258Y18822365D01*
X1052880Y18805093D01*
X1059281Y18788380D01*
X1067409Y18772378D01*
X1077214Y18757392D01*
X1088440Y18743472D01*
X1101140Y18730772D01*
X1115060Y18719495D01*
X1130096Y18709741D01*
X1146048Y18701613D01*
X1162761Y18695212D01*
X1180084Y18690539D01*
X1197762Y18687745D01*
X1215898Y18686830D01*
X1294790Y18686830D01*
X1298702Y18686018D01*
X1302004Y18683833D01*
X4519930Y15465907D01*
X4522165Y15462453D01*
X4522876Y15458389D01*
X4521911Y15454376D01*
X4519472Y15451074D01*
X4515866Y15449042D01*
X4509973Y15447162D01*
X4498644Y15441625D01*
X4488180Y15434563D01*
X4478782Y15426080D01*
X4470704Y15416428D01*
X4463999Y15405709D01*
X4458868Y15394178D01*
X4455363Y15382036D01*
X4453636Y15369540D01*
X4453636Y15356941D01*
X4455363Y15344444D01*
X4458868Y15332303D01*
X4463999Y15320772D01*
X4466844Y15316200D01*
X4467961Y15313660D01*
X4468368Y15310815D01*
X4468368Y14649348D01*
X4467606Y14645487D01*
X4465421Y14642185D01*
X4194352Y14371116D01*
X4191711Y14369237D01*
X4188663Y14368272D01*
X4185412Y14368272D01*
X4172559Y14370507D01*
X4155998Y14371472D01*
X4139387Y14370507D01*
X4123029Y14367662D01*
X4107078Y14362988D01*
X4091787Y14356537D01*
X4077309Y14348358D01*
X4063898Y14338604D01*
X4051655Y14327378D01*
X4040784Y14314830D01*
X4031386Y14301114D01*
X4023664Y14286433D01*
X4017619Y14270939D01*
X4013403Y14254886D01*
X4011015Y14238427D01*
X4010558Y14221815D01*
X4011980Y14205254D01*
X4015282Y14188998D01*
X4020413Y14173200D01*
X4027322Y14158061D01*
X4035907Y14143837D01*
X4046016Y14130680D01*
X4057599Y14118793D01*
X4070451Y14108277D01*
X4084421Y14099286D01*
X4099356Y14091970D01*
X4115003Y14086382D01*
X4131157Y14082623D01*
X4147667Y14080744D01*
X4164279Y14080744D01*
X4180789Y14082623D01*
X4196994Y14086382D01*
X4212640Y14091970D01*
X4227525Y14099286D01*
X4241495Y14108277D01*
X4254347Y14118793D01*
X4265930Y14130680D01*
X4276090Y14143837D01*
X4284675Y14158061D01*
X4291584Y14173200D01*
X4296714Y14188998D01*
X4300016Y14205254D01*
X4301439Y14221815D01*
X4300931Y14238427D01*
X4298391Y14255800D01*
X4298442Y14258950D01*
X4299407Y14261947D01*
X4301286Y14264487D01*
X4554372Y14517573D01*
X4557674Y14519808D01*
X4561586Y14520570D01*
X5203444Y14520570D01*
X5207711Y14519605D01*
X5211216Y14516963D01*
X5213248Y14513102D01*
X5213451Y14508734D01*
X5211826Y14504669D01*
X5209387Y14501113D01*
X5201666Y14486432D01*
X5195620Y14470938D01*
X5191404Y14454886D01*
X5189016Y14438426D01*
X5188559Y14421815D01*
X5189982Y14405254D01*
X5193284Y14388998D01*
X5198414Y14373199D01*
X5205323Y14358061D01*
X5213908Y14343837D01*
X5224018Y14330680D01*
X5235600Y14318792D01*
X5248452Y14308277D01*
X5262422Y14299285D01*
X5277358Y14291970D01*
X5293004Y14286382D01*
X5309158Y14282623D01*
X5325668Y14280743D01*
X5332933Y14280743D01*
X5336794Y14279930D01*
X5340096Y14277746D01*
X5388508Y14229334D01*
X5390692Y14226032D01*
X5391505Y14222171D01*
X5391505Y12135713D01*
X5390489Y12131344D01*
X5387695Y12127788D01*
X5377484Y12119508D01*
X5364784Y12106859D01*
X5353507Y12092940D01*
X5343753Y12077903D01*
X5335625Y12061952D01*
X5329224Y12045188D01*
X5326786Y12036196D01*
X5324754Y12032284D01*
X5321300Y12029592D01*
X5316982Y12028678D01*
X5312714Y12029592D01*
X5309209Y12032284D01*
X5307177Y12036196D01*
X5304739Y12045188D01*
X5298338Y12061952D01*
X5290210Y12077903D01*
X5280456Y12092940D01*
X5269179Y12106859D01*
X5256530Y12119508D01*
X5246268Y12127788D01*
X5243474Y12131344D01*
X5242509Y12135713D01*
X5242509Y12597638D01*
X5241645Y12611100D01*
X5239054Y12624003D01*
X5234838Y12636449D01*
X5229047Y12648234D01*
X5221732Y12659156D01*
X5212842Y12669266D01*
X4882235Y12999872D01*
X4880102Y13003022D01*
X4879289Y13006781D01*
X4878933Y13018414D01*
X4876596Y13034873D01*
X4872380Y13050926D01*
X4866335Y13066420D01*
X4858562Y13081101D01*
X4849215Y13094817D01*
X4838344Y13107365D01*
X4826101Y13118592D01*
X4812639Y13128345D01*
X4798161Y13136524D01*
X4782870Y13143026D01*
X4766919Y13147700D01*
X4750562Y13150494D01*
X4734001Y13151459D01*
X4717389Y13150494D01*
X4701032Y13147700D01*
X4685080Y13143026D01*
X4669790Y13136524D01*
X4655312Y13128345D01*
X4641900Y13118592D01*
X4629658Y13107365D01*
X4618786Y13094817D01*
X4609388Y13081101D01*
X4601667Y13066420D01*
X4595622Y13050926D01*
X4591405Y13034873D01*
X4589018Y13018414D01*
X4588560Y13001802D01*
X4589983Y12985292D01*
X4593285Y12968986D01*
X4598416Y12953187D01*
X4605324Y12938099D01*
X4613910Y12923875D01*
X4624019Y12910718D01*
X4635601Y12898780D01*
X4648454Y12888264D01*
X4662424Y12879273D01*
X4677359Y12871958D01*
X4693005Y12866370D01*
X4709160Y12862610D01*
X4725670Y12860731D01*
X4732883Y12860731D01*
X4736795Y12859969D01*
X4740097Y12857734D01*
X5038496Y12559334D01*
X5040731Y12556032D01*
X5041493Y12552121D01*
X5041493Y12135713D01*
X5040528Y12131344D01*
X5037734Y12127839D01*
X5027472Y12119508D01*
X5014823Y12106859D01*
X5003546Y12092940D01*
X4993792Y12077903D01*
X4985664Y12061952D01*
X4979212Y12045188D01*
X4974590Y12027916D01*
X4971796Y12010237D01*
X4970830Y11992051D01*
X4970830Y11901220D01*
X4970068Y11897309D01*
X4967833Y11894058D01*
X4964582Y11891822D01*
X4960670Y11891060D01*
X4956810Y11891822D01*
X4953508Y11894058D01*
X4865573Y11981992D01*
X4863338Y11985244D01*
X4862576Y11989155D01*
X4862576Y12318644D01*
X4861712Y12332106D01*
X4859121Y12345009D01*
X4854905Y12357455D01*
X4849114Y12369241D01*
X4841798Y12380163D01*
X4833112Y12390018D01*
X4823256Y12398705D01*
X4812334Y12406020D01*
X4800498Y12411811D01*
X4788052Y12416028D01*
X4775200Y12418618D01*
X4761738Y12419482D01*
X4719015Y12419482D01*
X4715256Y12420193D01*
X4712055Y12422276D01*
X4709820Y12425375D01*
X4705705Y12434214D01*
X4700676Y12441428D01*
X4694428Y12447625D01*
X4687214Y12452705D01*
X4679238Y12456414D01*
X4670755Y12458700D01*
X4661560Y12459462D01*
X4482439Y12459462D01*
X4473244Y12458700D01*
X4464710Y12456414D01*
X4456734Y12452705D01*
X4449572Y12447625D01*
X4443323Y12441428D01*
X4438294Y12434214D01*
X4434586Y12426238D01*
X4432300Y12417755D01*
X4431487Y12408509D01*
X4431487Y12229439D01*
X4432300Y12220194D01*
X4434586Y12211710D01*
X4438294Y12203734D01*
X4443323Y12196521D01*
X4449572Y12190323D01*
X4456734Y12185243D01*
X4464710Y12181535D01*
X4467809Y12180722D01*
X4471568Y12178842D01*
X4474210Y12175591D01*
X4475327Y12171527D01*
X4474718Y12167362D01*
X4472482Y12163806D01*
X4465828Y12156998D01*
X4456023Y12144298D01*
X4447743Y12130532D01*
X4441088Y12115952D01*
X4436110Y12100712D01*
X4432909Y12084964D01*
X4431538Y12068962D01*
X4431995Y12052960D01*
X4434281Y12037060D01*
X4438396Y12021566D01*
X4444187Y12006630D01*
X4451705Y11992406D01*
X4460748Y11979198D01*
X4471263Y11967057D01*
X4483049Y11956237D01*
X4496054Y11946788D01*
X4510024Y11938914D01*
X4524756Y11932666D01*
X4540148Y11928144D01*
X4555998Y11925401D01*
X4572000Y11924487D01*
X4588002Y11925401D01*
X4603800Y11928144D01*
X4619193Y11932666D01*
X4633976Y11938914D01*
X4646777Y11946128D01*
X4650689Y11947398D01*
X4654753Y11946991D01*
X4658309Y11945061D01*
X4660849Y11941911D01*
X4661916Y11937949D01*
X4662424Y11930176D01*
X4665014Y11917324D01*
X4669231Y11904878D01*
X4675022Y11893092D01*
X4682337Y11882120D01*
X4691227Y11872010D01*
X4982921Y11580317D01*
X4993081Y11571427D01*
X5004003Y11564112D01*
X5015788Y11558320D01*
X5028234Y11554053D01*
X5041138Y11551513D01*
G37*
G36*
X1480413Y11554968D02*
G01*
X1677924Y11554968D01*
X1691386Y11555831D01*
X1704289Y11558422D01*
X1716735Y11562638D01*
X1728520Y11568480D01*
X1739442Y11575745D01*
X1749602Y11584635D01*
X1881073Y11716156D01*
X1883968Y11718188D01*
X1887372Y11719102D01*
X1890877Y11718798D01*
X1900428Y11716207D01*
X1918106Y11713413D01*
X1935988Y11712498D01*
X1953869Y11713413D01*
X1971598Y11716207D01*
X1988870Y11720880D01*
X2005584Y11727281D01*
X2021586Y11735409D01*
X2036572Y11745163D01*
X2050491Y11756440D01*
X2063191Y11769090D01*
X2074468Y11783009D01*
X2084222Y11798046D01*
X2092350Y11813997D01*
X2095195Y11821414D01*
X2097328Y11824817D01*
X2100630Y11827103D01*
X2104542Y11827967D01*
X2108454Y11827205D01*
X2111806Y11825020D01*
X2114042Y11821718D01*
X2114854Y11817807D01*
X2114854Y11763400D01*
X2115667Y11754205D01*
X2117902Y11745722D01*
X2121662Y11737746D01*
X2126691Y11730532D01*
X2132888Y11724335D01*
X2140102Y11719255D01*
X2148078Y11715546D01*
X2156561Y11713260D01*
X2165807Y11712448D01*
X2406192Y11712448D01*
X2415387Y11713260D01*
X2423922Y11715546D01*
X2431897Y11719255D01*
X2439111Y11724335D01*
X2445308Y11730532D01*
X2450338Y11737746D01*
X2454046Y11745722D01*
X2456332Y11754205D01*
X2457145Y11763400D01*
X2457145Y12112548D01*
X2456332Y12121743D01*
X2454046Y12130227D01*
X2450338Y12138202D01*
X2445308Y12145416D01*
X2439111Y12151614D01*
X2431897Y12156694D01*
X2423922Y12160402D01*
X2415387Y12162688D01*
X2406192Y12163501D01*
X2396693Y12163501D01*
X2392781Y12164263D01*
X2389479Y12166447D01*
X2387295Y12169749D01*
X2386533Y12173661D01*
X2386533Y12851688D01*
X2387193Y12855295D01*
X2389073Y12858445D01*
X2391968Y12860680D01*
X2395524Y12861798D01*
X2402789Y12862610D01*
X2418994Y12866370D01*
X2434640Y12871958D01*
X2449525Y12879273D01*
X2463495Y12888264D01*
X2476347Y12898780D01*
X2487930Y12910718D01*
X2498090Y12923875D01*
X2506675Y12938099D01*
X2513584Y12953187D01*
X2518714Y12968986D01*
X2522016Y12985292D01*
X2523439Y13001802D01*
X2522931Y13018414D01*
X2520594Y13034873D01*
X2516378Y13050926D01*
X2510332Y13066420D01*
X2502560Y13081101D01*
X2493213Y13094817D01*
X2482342Y13107365D01*
X2470099Y13118592D01*
X2456637Y13128345D01*
X2442210Y13136524D01*
X2426868Y13143026D01*
X2410968Y13147700D01*
X2394559Y13150494D01*
X2377998Y13151459D01*
X2361387Y13150494D01*
X2345029Y13147700D01*
X2329078Y13143026D01*
X2313787Y13136524D01*
X2299360Y13128345D01*
X2285898Y13118592D01*
X2273655Y13107365D01*
X2262784Y13094817D01*
X2253386Y13081101D01*
X2245664Y13066420D01*
X2239619Y13050926D01*
X2235403Y13034873D01*
X2233015Y13018414D01*
X2232710Y13006730D01*
X2231898Y13003022D01*
X2229713Y12999872D01*
X2215184Y12985292D01*
X2206294Y12975132D01*
X2198979Y12964210D01*
X2193188Y12952425D01*
X2188921Y12939979D01*
X2186381Y12927076D01*
X2185466Y12913664D01*
X2185466Y12173661D01*
X2184704Y12169749D01*
X2182520Y12166447D01*
X2179218Y12164263D01*
X2175357Y12163501D01*
X2165807Y12163501D01*
X2156561Y12162688D01*
X2148078Y12160402D01*
X2140102Y12156694D01*
X2132888Y12151614D01*
X2126691Y12145416D01*
X2121662Y12138202D01*
X2117902Y12130227D01*
X2115667Y12121743D01*
X2114854Y12112548D01*
X2114854Y12058142D01*
X2114042Y12054230D01*
X2111806Y12050928D01*
X2108454Y12048744D01*
X2104542Y12047982D01*
X2100630Y12048845D01*
X2097328Y12051131D01*
X2095195Y12054535D01*
X2092350Y12061952D01*
X2084222Y12077903D01*
X2074468Y12092940D01*
X2063191Y12106859D01*
X2050491Y12119508D01*
X2040280Y12127839D01*
X2037486Y12131344D01*
X2036470Y12135713D01*
X2036470Y14267688D01*
X2035606Y14281099D01*
X2033066Y14294002D01*
X2028850Y14306448D01*
X2023008Y14318234D01*
X2015693Y14329156D01*
X2006803Y14339316D01*
X1926234Y14419884D01*
X1924100Y14423034D01*
X1923288Y14426742D01*
X1922932Y14438426D01*
X1920595Y14454886D01*
X1916379Y14470938D01*
X1910334Y14486432D01*
X1902561Y14501113D01*
X1893214Y14514830D01*
X1882343Y14527377D01*
X1870100Y14538604D01*
X1856638Y14548357D01*
X1842211Y14556536D01*
X1826869Y14562988D01*
X1810969Y14567662D01*
X1794560Y14570506D01*
X1778000Y14571472D01*
X1761388Y14570506D01*
X1745030Y14567662D01*
X1729079Y14562988D01*
X1713788Y14556536D01*
X1699361Y14548357D01*
X1685899Y14538604D01*
X1673656Y14527377D01*
X1662785Y14514830D01*
X1653387Y14501113D01*
X1645666Y14486432D01*
X1639620Y14470938D01*
X1635404Y14454886D01*
X1633016Y14438426D01*
X1632559Y14421815D01*
X1633982Y14405254D01*
X1637283Y14388998D01*
X1642414Y14373199D01*
X1649323Y14358061D01*
X1657908Y14343837D01*
X1668018Y14330680D01*
X1679600Y14318792D01*
X1692452Y14308277D01*
X1706473Y14299285D01*
X1721357Y14291970D01*
X1737004Y14286382D01*
X1753209Y14282623D01*
X1769668Y14280743D01*
X1776933Y14280743D01*
X1780793Y14279930D01*
X1784096Y14277746D01*
X1832508Y14229334D01*
X1834692Y14226032D01*
X1835505Y14222171D01*
X1835505Y12135713D01*
X1834489Y12131344D01*
X1831695Y12127788D01*
X1821484Y12119508D01*
X1808835Y12106859D01*
X1797557Y12092940D01*
X1787804Y12077903D01*
X1779625Y12061952D01*
X1773224Y12045188D01*
X1770837Y12036196D01*
X1768805Y12032284D01*
X1765300Y12029592D01*
X1760982Y12028678D01*
X1756714Y12029592D01*
X1753209Y12032284D01*
X1751177Y12036196D01*
X1748789Y12045188D01*
X1742338Y12061952D01*
X1734210Y12077903D01*
X1724456Y12092940D01*
X1713179Y12106859D01*
X1700530Y12119508D01*
X1690268Y12127788D01*
X1687474Y12131344D01*
X1686509Y12135713D01*
X1686509Y12597638D01*
X1685645Y12611100D01*
X1683054Y12624003D01*
X1678838Y12636449D01*
X1673047Y12648234D01*
X1665732Y12659156D01*
X1656842Y12669266D01*
X1326235Y12999872D01*
X1324102Y13003022D01*
X1323289Y13006730D01*
X1322933Y13018414D01*
X1320596Y13034873D01*
X1316380Y13050926D01*
X1310335Y13066420D01*
X1302562Y13081101D01*
X1293215Y13094817D01*
X1282344Y13107365D01*
X1270101Y13118592D01*
X1256639Y13128345D01*
X1242212Y13136524D01*
X1226870Y13143026D01*
X1210970Y13147700D01*
X1194562Y13150494D01*
X1178001Y13151459D01*
X1161389Y13150494D01*
X1145032Y13147700D01*
X1129080Y13143026D01*
X1113790Y13136524D01*
X1099312Y13128345D01*
X1085900Y13118592D01*
X1073658Y13107365D01*
X1062786Y13094817D01*
X1053388Y13081101D01*
X1045667Y13066420D01*
X1039621Y13050926D01*
X1035405Y13034873D01*
X1033018Y13018414D01*
X1032560Y13001802D01*
X1033983Y12985292D01*
X1037285Y12968986D01*
X1042416Y12953187D01*
X1049324Y12938099D01*
X1057910Y12923875D01*
X1068019Y12910718D01*
X1079601Y12898780D01*
X1092454Y12888264D01*
X1106474Y12879273D01*
X1121359Y12871958D01*
X1137005Y12866370D01*
X1153160Y12862610D01*
X1169670Y12860731D01*
X1176883Y12860731D01*
X1180795Y12859969D01*
X1184097Y12857734D01*
X1482496Y12559334D01*
X1484731Y12556032D01*
X1485493Y12552121D01*
X1485493Y12135713D01*
X1484528Y12131344D01*
X1481734Y12127788D01*
X1471472Y12119508D01*
X1458823Y12106859D01*
X1447546Y12092940D01*
X1437792Y12077903D01*
X1429664Y12061952D01*
X1423212Y12045188D01*
X1418590Y12027916D01*
X1415796Y12010237D01*
X1414830Y11992051D01*
X1414830Y11887352D01*
X1414068Y11883491D01*
X1411884Y11880189D01*
X1408582Y11878005D01*
X1404670Y11877192D01*
X1400810Y11878005D01*
X1397508Y11880189D01*
X1309573Y11968124D01*
X1307338Y11971426D01*
X1306576Y11975338D01*
X1306576Y12318644D01*
X1305712Y12332106D01*
X1303121Y12345009D01*
X1298905Y12357455D01*
X1293114Y12369241D01*
X1285798Y12380163D01*
X1277112Y12390018D01*
X1267256Y12398705D01*
X1256334Y12406020D01*
X1244498Y12411811D01*
X1232052Y12416028D01*
X1219200Y12418618D01*
X1205738Y12419482D01*
X1163015Y12419482D01*
X1159256Y12420193D01*
X1156055Y12422276D01*
X1153820Y12425375D01*
X1149705Y12434214D01*
X1144676Y12441428D01*
X1138428Y12447625D01*
X1131214Y12452705D01*
X1123238Y12456414D01*
X1114755Y12458700D01*
X1105560Y12459462D01*
X926439Y12459462D01*
X917244Y12458700D01*
X908761Y12456414D01*
X900785Y12452705D01*
X893571Y12447625D01*
X887323Y12441428D01*
X882294Y12434214D01*
X878586Y12426238D01*
X876300Y12417755D01*
X875487Y12408509D01*
X875487Y12229439D01*
X876300Y12220194D01*
X878586Y12211710D01*
X882294Y12203734D01*
X887323Y12196521D01*
X893571Y12190323D01*
X900785Y12185243D01*
X908761Y12181535D01*
X911809Y12180722D01*
X915568Y12178842D01*
X918210Y12175591D01*
X919327Y12171527D01*
X918718Y12167362D01*
X916482Y12163806D01*
X909828Y12156998D01*
X900023Y12144298D01*
X891743Y12130532D01*
X885088Y12115952D01*
X880110Y12100712D01*
X876960Y12084964D01*
X875588Y12068962D01*
X876046Y12052960D01*
X878281Y12037060D01*
X882396Y12021566D01*
X888187Y12006630D01*
X895705Y11992406D01*
X904748Y11979198D01*
X915263Y11967057D01*
X927049Y11956237D01*
X940053Y11946788D01*
X954024Y11938914D01*
X968806Y11932666D01*
X984199Y11928144D01*
X999998Y11925401D01*
X1016000Y11924487D01*
X1032002Y11925401D01*
X1047800Y11928144D01*
X1063193Y11932666D01*
X1077976Y11938914D01*
X1090422Y11945924D01*
X1094435Y11947194D01*
X1098600Y11946686D01*
X1102207Y11944604D01*
X1104696Y11941200D01*
X1105560Y11937085D01*
X1105560Y11929821D01*
X1106424Y11916359D01*
X1109014Y11903456D01*
X1113231Y11891010D01*
X1119022Y11879224D01*
X1126337Y11868302D01*
X1135227Y11858193D01*
X1408734Y11584635D01*
X1418894Y11575745D01*
X1429816Y11568480D01*
X1441602Y11562638D01*
X1454048Y11558422D01*
X1466951Y11555831D01*
G37*
G36*
X9906000Y11924487D02*
G01*
X9922002Y11925401D01*
X9937800Y11928144D01*
X9953193Y11932666D01*
X9967976Y11938914D01*
X9981946Y11946788D01*
X9994900Y11956237D01*
X10006736Y11967057D01*
X10017252Y11979198D01*
X10026294Y11992406D01*
X10033762Y12006630D01*
X10039604Y12021566D01*
X10043668Y12037060D01*
X10045954Y12052960D01*
X10046411Y12068962D01*
X10045039Y12084964D01*
X10041839Y12100712D01*
X10036911Y12115952D01*
X10030256Y12130532D01*
X10021976Y12144298D01*
X10012172Y12156998D01*
X10005517Y12163806D01*
X10003282Y12167362D01*
X10002621Y12171527D01*
X10003739Y12175591D01*
X10006431Y12178842D01*
X10010140Y12180722D01*
X10013238Y12181535D01*
X10021214Y12185243D01*
X10028428Y12190323D01*
X10034625Y12196521D01*
X10039705Y12203734D01*
X10043414Y12211710D01*
X10045700Y12220194D01*
X10046512Y12229439D01*
X10046512Y12408509D01*
X10045700Y12417755D01*
X10043414Y12426238D01*
X10039705Y12434214D01*
X10034625Y12441428D01*
X10028428Y12447625D01*
X10021214Y12452705D01*
X10013238Y12456414D01*
X10004755Y12458700D01*
X9995560Y12459462D01*
X9816439Y12459462D01*
X9807194Y12458700D01*
X9798710Y12456414D01*
X9790734Y12452705D01*
X9783521Y12447625D01*
X9777323Y12441428D01*
X9772294Y12434214D01*
X9768535Y12426238D01*
X9766300Y12417755D01*
X9765487Y12408509D01*
X9765487Y12229439D01*
X9766300Y12220194D01*
X9768535Y12211710D01*
X9772294Y12203734D01*
X9777323Y12196521D01*
X9783521Y12190323D01*
X9790734Y12185243D01*
X9798710Y12181535D01*
X9801809Y12180722D01*
X9805568Y12178842D01*
X9808210Y12175591D01*
X9809327Y12171527D01*
X9808718Y12167362D01*
X9806482Y12163806D01*
X9799828Y12156998D01*
X9790023Y12144298D01*
X9781743Y12130532D01*
X9775037Y12115952D01*
X9770110Y12100712D01*
X9766909Y12084964D01*
X9765538Y12068962D01*
X9765995Y12052960D01*
X9768281Y12037060D01*
X9772345Y12021566D01*
X9778187Y12006630D01*
X9785654Y11992406D01*
X9794748Y11979198D01*
X9805212Y11967057D01*
X9817049Y11956237D01*
X9830003Y11946788D01*
X9843973Y11938914D01*
X9858756Y11932666D01*
X9874148Y11928144D01*
X9889947Y11925401D01*
G37*
G36*
X1169670Y14080744D02*
G01*
X1186281Y14080744D01*
X1202791Y14082623D01*
X1218996Y14086382D01*
X1234643Y14091970D01*
X1249527Y14099286D01*
X1263497Y14108277D01*
X1276350Y14118793D01*
X1287932Y14130680D01*
X1298092Y14143837D01*
X1306677Y14158061D01*
X1313586Y14173200D01*
X1318717Y14188998D01*
X1322019Y14205254D01*
X1323441Y14221815D01*
X1322933Y14238427D01*
X1320596Y14254886D01*
X1316380Y14270939D01*
X1310335Y14286433D01*
X1302562Y14301114D01*
X1293215Y14314830D01*
X1282344Y14327378D01*
X1270101Y14338604D01*
X1256639Y14348358D01*
X1242212Y14356537D01*
X1226870Y14362988D01*
X1210970Y14367662D01*
X1194562Y14370507D01*
X1178001Y14371472D01*
X1161389Y14370507D01*
X1145032Y14367662D01*
X1129080Y14362988D01*
X1113790Y14356537D01*
X1099312Y14348358D01*
X1085900Y14338604D01*
X1073658Y14327378D01*
X1062786Y14314830D01*
X1053388Y14301114D01*
X1045667Y14286433D01*
X1039621Y14270939D01*
X1035405Y14254886D01*
X1033018Y14238427D01*
X1032560Y14221815D01*
X1033983Y14205254D01*
X1037285Y14188998D01*
X1042416Y14173200D01*
X1049324Y14158061D01*
X1057910Y14143837D01*
X1068019Y14130680D01*
X1079601Y14118793D01*
X1092454Y14108277D01*
X1106474Y14099286D01*
X1121359Y14091970D01*
X1137005Y14086382D01*
X1153160Y14082623D01*
G37*
G36*
X9481667Y14080744D02*
G01*
X9498279Y14080744D01*
X9514789Y14082623D01*
X9530943Y14086382D01*
X9546590Y14091970D01*
X9561525Y14099286D01*
X9575495Y14108277D01*
X9588347Y14118793D01*
X9599930Y14130680D01*
X9610090Y14143837D01*
X9618675Y14158061D01*
X9625533Y14173200D01*
X9630714Y14188998D01*
X9633966Y14205254D01*
X9635388Y14221815D01*
X9634931Y14238427D01*
X9632594Y14254886D01*
X9628327Y14270939D01*
X9622332Y14286433D01*
X9614560Y14301114D01*
X9605213Y14314830D01*
X9594291Y14327378D01*
X9582099Y14338604D01*
X9568637Y14348358D01*
X9554159Y14356537D01*
X9538868Y14362988D01*
X9522917Y14367662D01*
X9506559Y14370507D01*
X9489998Y14371472D01*
X9473387Y14370507D01*
X9457029Y14367662D01*
X9441078Y14362988D01*
X9425787Y14356537D01*
X9411309Y14348358D01*
X9397898Y14338604D01*
X9385655Y14327378D01*
X9374784Y14314830D01*
X9365386Y14301114D01*
X9357614Y14286433D01*
X9351619Y14270939D01*
X9347403Y14254886D01*
X9345015Y14238427D01*
X9344558Y14221815D01*
X9345980Y14205254D01*
X9349282Y14188998D01*
X9354413Y14173200D01*
X9361322Y14158061D01*
X9369856Y14143837D01*
X9380016Y14130680D01*
X9391599Y14118793D01*
X9404451Y14108277D01*
X9418421Y14099286D01*
X9433356Y14091970D01*
X9449003Y14086382D01*
X9465157Y14082623D01*
G37*
G36*
X6503670Y14080744D02*
G01*
X6520281Y14080744D01*
X6536791Y14082623D01*
X6552946Y14086382D01*
X6568592Y14091970D01*
X6583527Y14099286D01*
X6597497Y14108277D01*
X6610350Y14118793D01*
X6621932Y14130680D01*
X6632092Y14143837D01*
X6640677Y14158061D01*
X6647535Y14173200D01*
X6652717Y14188998D01*
X6655968Y14205254D01*
X6657390Y14221815D01*
X6656933Y14238427D01*
X6654596Y14254886D01*
X6650329Y14270939D01*
X6644335Y14286433D01*
X6636562Y14301114D01*
X6627215Y14314830D01*
X6616293Y14327378D01*
X6604101Y14338604D01*
X6590639Y14348358D01*
X6576161Y14356537D01*
X6560870Y14362988D01*
X6544919Y14367662D01*
X6528562Y14370507D01*
X6512001Y14371472D01*
X6495389Y14370507D01*
X6479032Y14367662D01*
X6463080Y14362988D01*
X6447790Y14356537D01*
X6433312Y14348358D01*
X6419900Y14338604D01*
X6407658Y14327378D01*
X6396786Y14314830D01*
X6387388Y14301114D01*
X6379616Y14286433D01*
X6373622Y14270939D01*
X6369405Y14254886D01*
X6367018Y14238427D01*
X6366560Y14221815D01*
X6367983Y14205254D01*
X6371285Y14188998D01*
X6376416Y14173200D01*
X6383324Y14158061D01*
X6391859Y14143837D01*
X6402019Y14130680D01*
X6413601Y14118793D01*
X6426454Y14108277D01*
X6440424Y14099286D01*
X6455359Y14091970D01*
X6471005Y14086382D01*
X6487160Y14082623D01*
G37*
G36*
X4725670Y14080744D02*
G01*
X4742281Y14080744D01*
X4758791Y14082623D01*
X4774996Y14086382D01*
X4790643Y14091970D01*
X4805527Y14099286D01*
X4819497Y14108277D01*
X4832350Y14118793D01*
X4843932Y14130680D01*
X4854092Y14143837D01*
X4862677Y14158061D01*
X4869586Y14173200D01*
X4874717Y14188998D01*
X4878019Y14205254D01*
X4879441Y14221815D01*
X4878933Y14238427D01*
X4876596Y14254886D01*
X4872380Y14270939D01*
X4866335Y14286433D01*
X4858562Y14301114D01*
X4849215Y14314830D01*
X4838344Y14327378D01*
X4826101Y14338604D01*
X4812639Y14348358D01*
X4798161Y14356537D01*
X4782870Y14362988D01*
X4766919Y14367662D01*
X4750562Y14370507D01*
X4734001Y14371472D01*
X4717389Y14370507D01*
X4701032Y14367662D01*
X4685080Y14362988D01*
X4669790Y14356537D01*
X4655312Y14348358D01*
X4641900Y14338604D01*
X4629658Y14327378D01*
X4618786Y14314830D01*
X4609388Y14301114D01*
X4601667Y14286433D01*
X4595622Y14270939D01*
X4591405Y14254886D01*
X4589018Y14238427D01*
X4588560Y14221815D01*
X4589983Y14205254D01*
X4593285Y14188998D01*
X4598416Y14173200D01*
X4605324Y14158061D01*
X4613910Y14143837D01*
X4624019Y14130680D01*
X4635601Y14118793D01*
X4648454Y14108277D01*
X4662424Y14099286D01*
X4677359Y14091970D01*
X4693005Y14086382D01*
X4709160Y14082623D01*
G37*
G36*
X10059670Y14080744D02*
G01*
X10076281Y14080744D01*
X10092791Y14082623D01*
X10108946Y14086382D01*
X10124592Y14091970D01*
X10139527Y14099286D01*
X10153497Y14108277D01*
X10166350Y14118793D01*
X10177932Y14130680D01*
X10188092Y14143837D01*
X10196677Y14158061D01*
X10203535Y14173200D01*
X10208666Y14188998D01*
X10211968Y14205254D01*
X10213390Y14221815D01*
X10212933Y14238427D01*
X10210546Y14254886D01*
X10206329Y14270939D01*
X10200335Y14286433D01*
X10192562Y14301114D01*
X10183215Y14314830D01*
X10172293Y14327378D01*
X10160050Y14338604D01*
X10146639Y14348358D01*
X10132161Y14356537D01*
X10116870Y14362988D01*
X10100919Y14367662D01*
X10084562Y14370507D01*
X10068001Y14371472D01*
X10051389Y14370507D01*
X10035032Y14367662D01*
X10019080Y14362988D01*
X10003790Y14356537D01*
X9989312Y14348358D01*
X9975900Y14338604D01*
X9963658Y14327378D01*
X9952736Y14314830D01*
X9943388Y14301114D01*
X9935616Y14286433D01*
X9929622Y14270939D01*
X9925405Y14254886D01*
X9923018Y14238427D01*
X9922560Y14221815D01*
X9923983Y14205254D01*
X9927285Y14188998D01*
X9932416Y14173200D01*
X9939274Y14158061D01*
X9947859Y14143837D01*
X9958019Y14130680D01*
X9969601Y14118793D01*
X9982454Y14108277D01*
X9996424Y14099286D01*
X10011359Y14091970D01*
X10027005Y14086382D01*
X10043160Y14082623D01*
G37*
G36*
X8281670Y14080744D02*
G01*
X8298281Y14080744D01*
X8314791Y14082623D01*
X8330946Y14086382D01*
X8346592Y14091970D01*
X8361527Y14099286D01*
X8375497Y14108277D01*
X8388350Y14118793D01*
X8399932Y14130680D01*
X8410092Y14143837D01*
X8418677Y14158061D01*
X8425535Y14173200D01*
X8430666Y14188998D01*
X8433968Y14205254D01*
X8435390Y14221815D01*
X8434933Y14238427D01*
X8432596Y14254886D01*
X8428329Y14270939D01*
X8422335Y14286433D01*
X8414562Y14301114D01*
X8405215Y14314830D01*
X8394293Y14327378D01*
X8382050Y14338604D01*
X8368639Y14348358D01*
X8354161Y14356537D01*
X8338870Y14362988D01*
X8322919Y14367662D01*
X8306562Y14370507D01*
X8290001Y14371472D01*
X8273389Y14370507D01*
X8257031Y14367662D01*
X8241080Y14362988D01*
X8225790Y14356537D01*
X8211312Y14348358D01*
X8197900Y14338604D01*
X8185658Y14327378D01*
X8174786Y14314830D01*
X8165388Y14301114D01*
X8157616Y14286433D01*
X8151622Y14270939D01*
X8147405Y14254886D01*
X8145018Y14238427D01*
X8144560Y14221815D01*
X8145983Y14205254D01*
X8149285Y14188998D01*
X8154416Y14173200D01*
X8161324Y14158061D01*
X8169859Y14143837D01*
X8180019Y14130680D01*
X8191601Y14118793D01*
X8204453Y14108277D01*
X8218424Y14099286D01*
X8233359Y14091970D01*
X8249005Y14086382D01*
X8265159Y14082623D01*
G37*
G36*
X7703667Y14080744D02*
G01*
X7720279Y14080744D01*
X7736789Y14082623D01*
X7752994Y14086382D01*
X7768640Y14091970D01*
X7783525Y14099286D01*
X7797495Y14108277D01*
X7810347Y14118793D01*
X7821930Y14130680D01*
X7832090Y14143837D01*
X7840675Y14158061D01*
X7847584Y14173200D01*
X7852714Y14188998D01*
X7855966Y14205254D01*
X7857388Y14221815D01*
X7856931Y14238427D01*
X7854594Y14254886D01*
X7850327Y14270939D01*
X7844332Y14286433D01*
X7836560Y14301114D01*
X7827213Y14314830D01*
X7816342Y14327378D01*
X7804099Y14338604D01*
X7790637Y14348358D01*
X7776159Y14356537D01*
X7760868Y14362988D01*
X7744917Y14367662D01*
X7728559Y14370507D01*
X7711998Y14371472D01*
X7695387Y14370507D01*
X7679029Y14367662D01*
X7663078Y14362988D01*
X7647787Y14356537D01*
X7633309Y14348358D01*
X7619898Y14338604D01*
X7607655Y14327378D01*
X7596784Y14314830D01*
X7587386Y14301114D01*
X7579614Y14286433D01*
X7573619Y14270939D01*
X7569403Y14254886D01*
X7567015Y14238427D01*
X7566558Y14221815D01*
X7567980Y14205254D01*
X7571282Y14188998D01*
X7576413Y14173200D01*
X7583322Y14158061D01*
X7591907Y14143837D01*
X7602016Y14130680D01*
X7613599Y14118793D01*
X7626451Y14108277D01*
X7640421Y14099286D01*
X7655356Y14091970D01*
X7671003Y14086382D01*
X7687157Y14082623D01*
G37*
G36*
X2947670Y14080744D02*
G01*
X2964281Y14080744D01*
X2980791Y14082623D01*
X2996996Y14086382D01*
X3012643Y14091970D01*
X3027527Y14099286D01*
X3041497Y14108277D01*
X3054350Y14118793D01*
X3065932Y14130680D01*
X3076092Y14143837D01*
X3084677Y14158061D01*
X3091586Y14173200D01*
X3096717Y14188998D01*
X3100019Y14205254D01*
X3101441Y14221815D01*
X3100933Y14238427D01*
X3098596Y14254886D01*
X3095701Y14265910D01*
X3095396Y14269415D01*
X3096310Y14272768D01*
X3098342Y14275663D01*
X3764076Y14941448D01*
X3771036Y14949576D01*
X3776370Y14958313D01*
X3780332Y14967813D01*
X3782720Y14977821D01*
X3783584Y14988438D01*
X3783584Y15138806D01*
X3784295Y15142616D01*
X3794810Y15157094D01*
X3800703Y15168219D01*
X3805021Y15180106D01*
X3807663Y15192451D01*
X3808526Y15205049D01*
X3807663Y15217648D01*
X3805021Y15229992D01*
X3800703Y15241828D01*
X3794810Y15253004D01*
X3787343Y15263215D01*
X3778605Y15272257D01*
X3768648Y15280030D01*
X3757726Y15286380D01*
X3745992Y15291104D01*
X3733749Y15294152D01*
X3721201Y15295473D01*
X3708603Y15295016D01*
X3696157Y15292832D01*
X3684168Y15288920D01*
X3672789Y15283383D01*
X3662324Y15276322D01*
X3652977Y15267889D01*
X3644849Y15258237D01*
X3638143Y15247518D01*
X3633012Y15235986D01*
X3629558Y15223845D01*
X3627780Y15211348D01*
X3627780Y15198699D01*
X3629558Y15186202D01*
X3633012Y15174061D01*
X3638143Y15162530D01*
X3644849Y15151862D01*
X3650183Y15145512D01*
X3651910Y15142463D01*
X3652520Y15138958D01*
X3652520Y15019375D01*
X3651758Y15015514D01*
X3649573Y15012212D01*
X3005683Y14368272D01*
X3002686Y14366240D01*
X2999181Y14365325D01*
X2995625Y14365732D01*
X2988919Y14367662D01*
X2972562Y14370507D01*
X2956001Y14371472D01*
X2939389Y14370507D01*
X2923032Y14367662D01*
X2907080Y14362988D01*
X2891790Y14356537D01*
X2877312Y14348358D01*
X2863900Y14338604D01*
X2851658Y14327378D01*
X2840786Y14314830D01*
X2831388Y14301114D01*
X2823667Y14286433D01*
X2817622Y14270939D01*
X2813405Y14254886D01*
X2811018Y14238427D01*
X2810560Y14221815D01*
X2811983Y14205254D01*
X2815285Y14188998D01*
X2820416Y14173200D01*
X2827324Y14158061D01*
X2835910Y14143837D01*
X2846019Y14130680D01*
X2857601Y14118793D01*
X2870454Y14108277D01*
X2884424Y14099286D01*
X2899359Y14091970D01*
X2915005Y14086382D01*
X2931160Y14082623D01*
G37*
G36*
X2369667Y14080744D02*
G01*
X2386279Y14080744D01*
X2402789Y14082623D01*
X2418994Y14086382D01*
X2434640Y14091970D01*
X2449525Y14099286D01*
X2463495Y14108277D01*
X2476347Y14118793D01*
X2487930Y14130680D01*
X2498090Y14143837D01*
X2506675Y14158061D01*
X2513584Y14173200D01*
X2518714Y14188998D01*
X2522016Y14205254D01*
X2523439Y14221815D01*
X2523337Y14224762D01*
X2524048Y14228826D01*
X2526334Y14232280D01*
X2610815Y14316760D01*
X2619705Y14326920D01*
X2627020Y14337842D01*
X2632811Y14349628D01*
X2637078Y14362074D01*
X2639618Y14374977D01*
X2640533Y14388439D01*
X2640533Y16534028D01*
X2639618Y16547490D01*
X2637078Y16560393D01*
X2632811Y16572839D01*
X2627020Y16584625D01*
X2619705Y16595547D01*
X2610815Y16605707D01*
X2206548Y17009973D01*
X2204313Y17013275D01*
X2203551Y17017187D01*
X2203551Y17111218D01*
X2202637Y17126610D01*
X2199894Y17141545D01*
X2195372Y17156023D01*
X2189175Y17169841D01*
X2181301Y17182795D01*
X2171954Y17194733D01*
X2161286Y17205452D01*
X2149348Y17214799D01*
X2136343Y17222622D01*
X2122525Y17228820D01*
X2108098Y17233341D01*
X2093163Y17236084D01*
X2078024Y17236998D01*
X2062937Y17236084D01*
X2048002Y17233341D01*
X2033524Y17228820D01*
X2019706Y17222622D01*
X2006752Y17214799D01*
X1994814Y17205452D01*
X1984095Y17194733D01*
X1974748Y17182795D01*
X1966925Y17169841D01*
X1960727Y17156023D01*
X1956206Y17141545D01*
X1953463Y17126610D01*
X1952548Y17111218D01*
X1952548Y16881805D01*
X1953463Y16866362D01*
X1956206Y16851477D01*
X1960727Y16836999D01*
X1966925Y16823182D01*
X1974748Y16810228D01*
X1984095Y16798290D01*
X1994814Y16787571D01*
X2006752Y16778224D01*
X2019706Y16770400D01*
X2033524Y16764152D01*
X2048002Y16759682D01*
X2062937Y16756938D01*
X2078024Y16756024D01*
X2093163Y16756938D01*
X2108098Y16759682D01*
X2122525Y16764152D01*
X2136343Y16770400D01*
X2145436Y16775887D01*
X2149652Y16777309D01*
X2154123Y16776750D01*
X2157882Y16774363D01*
X2436520Y16495725D01*
X2438704Y16492423D01*
X2439466Y16488562D01*
X2439466Y14433905D01*
X2438704Y14430044D01*
X2436520Y14426742D01*
X2384196Y14374418D01*
X2381148Y14372336D01*
X2377592Y14371421D01*
X2361387Y14370507D01*
X2345029Y14367662D01*
X2329078Y14362988D01*
X2313787Y14356537D01*
X2299360Y14348358D01*
X2285898Y14338604D01*
X2273655Y14327378D01*
X2262784Y14314830D01*
X2253386Y14301114D01*
X2245664Y14286433D01*
X2239619Y14270939D01*
X2235403Y14254886D01*
X2233015Y14238427D01*
X2232558Y14221815D01*
X2233980Y14205254D01*
X2237282Y14188998D01*
X2242413Y14173200D01*
X2249322Y14158061D01*
X2257907Y14143837D01*
X2268016Y14130680D01*
X2279599Y14118793D01*
X2292451Y14108277D01*
X2306472Y14099286D01*
X2321356Y14091970D01*
X2337003Y14086382D01*
X2353208Y14082623D01*
G37*
G36*
X9240926Y15595396D02*
G01*
X11081766Y15595447D01*
X11090605Y15596311D01*
X11092992Y15596717D01*
X11101578Y15598851D01*
X11103914Y15599613D01*
X11112093Y15602966D01*
X11114278Y15604083D01*
X11121847Y15608655D01*
X11123828Y15610078D01*
X11130635Y15615716D01*
X12099848Y16584930D01*
X12105538Y16591737D01*
X12111482Y16601287D01*
X12112599Y16603472D01*
X12116003Y16611650D01*
X12116765Y16613987D01*
X12118898Y16622572D01*
X12119305Y16624960D01*
X12120118Y16633799D01*
X12120168Y17167250D01*
X12120473Y17169688D01*
X12121337Y17172025D01*
X12127331Y17183252D01*
X12131649Y17195088D01*
X12134240Y17207433D01*
X12135154Y17220031D01*
X12134240Y17232630D01*
X12131649Y17244974D01*
X12127331Y17256861D01*
X12121388Y17267986D01*
X12113971Y17278197D01*
X12105182Y17287290D01*
X12095276Y17295063D01*
X12084304Y17301362D01*
X12072620Y17306086D01*
X12060377Y17309134D01*
X12047829Y17310455D01*
X12035180Y17310049D01*
X12022785Y17307814D01*
X12010745Y17303953D01*
X11999417Y17298416D01*
X11988952Y17291354D01*
X11979554Y17282871D01*
X11971477Y17273219D01*
X11964771Y17262500D01*
X11959640Y17250968D01*
X11956135Y17238827D01*
X11954408Y17226330D01*
X11954408Y17213732D01*
X11956135Y17201235D01*
X11959640Y17189094D01*
X11964771Y17177562D01*
X11967616Y17172990D01*
X11968734Y17170450D01*
X11969140Y17167606D01*
X11969140Y16671899D01*
X11968378Y16668038D01*
X11966194Y16664736D01*
X11127282Y15825825D01*
X11123879Y15823590D01*
X11119916Y15822828D01*
X11115954Y15823692D01*
X11112652Y15826079D01*
X11110518Y15829534D01*
X11108842Y15834156D01*
X11102949Y15845282D01*
X11095482Y15855492D01*
X11086744Y15864586D01*
X11076787Y15872358D01*
X11065865Y15878657D01*
X11054130Y15883382D01*
X11041888Y15886430D01*
X11031880Y15887496D01*
X11028578Y15888411D01*
X11025733Y15890392D01*
X10376865Y16539311D01*
X10374680Y16542613D01*
X10373918Y16546474D01*
X10373918Y17289272D01*
X10373055Y17299940D01*
X10370667Y17309896D01*
X10366705Y17319396D01*
X10361371Y17328184D01*
X10354411Y17336312D01*
X8860942Y18829782D01*
X8858859Y18832779D01*
X8857996Y18836335D01*
X8858453Y18839992D01*
X8860129Y18843193D01*
X8866581Y18851473D01*
X8874455Y18864478D01*
X8880703Y18878346D01*
X8885224Y18892824D01*
X8887968Y18907810D01*
X8888882Y18922949D01*
X8887968Y18938138D01*
X8885224Y18953073D01*
X8880703Y18967602D01*
X8874455Y18981470D01*
X8866581Y18994475D01*
X8857234Y19006464D01*
X8846464Y19017183D01*
X8834475Y19026581D01*
X8821470Y19034455D01*
X8807551Y19040703D01*
X8804402Y19042938D01*
X8802319Y19046190D01*
X8801557Y19049949D01*
X8802319Y19053759D01*
X8804402Y19057010D01*
X8807551Y19059245D01*
X8821470Y19065494D01*
X8834475Y19073368D01*
X8846464Y19082715D01*
X8857234Y19093484D01*
X8866581Y19105473D01*
X8874455Y19118478D01*
X8880703Y19132346D01*
X8885224Y19146824D01*
X8887968Y19161810D01*
X8888882Y19176949D01*
X8887968Y19192138D01*
X8885224Y19207073D01*
X8880703Y19221602D01*
X8874455Y19235470D01*
X8866581Y19248475D01*
X8857234Y19260464D01*
X8846464Y19271183D01*
X8834475Y19280581D01*
X8821470Y19288455D01*
X8807602Y19294652D01*
X8793124Y19299174D01*
X8778138Y19301917D01*
X8763000Y19302831D01*
X8747810Y19301917D01*
X8732875Y19299174D01*
X8718346Y19294652D01*
X8704478Y19288455D01*
X8691473Y19280581D01*
X8679484Y19271183D01*
X8668766Y19260464D01*
X8659368Y19248475D01*
X8651494Y19235470D01*
X8645245Y19221551D01*
X8643010Y19218402D01*
X8639708Y19216268D01*
X8640419Y19215252D01*
X8641435Y19211594D01*
X8638032Y19192138D01*
X8637066Y19176949D01*
X8638032Y19161810D01*
X8641435Y19142354D01*
X8640419Y19138696D01*
X8639759Y19137630D01*
X8643010Y19135547D01*
X8645245Y19132397D01*
X8651494Y19118478D01*
X8659368Y19105473D01*
X8668766Y19093484D01*
X8679484Y19082715D01*
X8691473Y19073368D01*
X8704478Y19065494D01*
X8718397Y19059245D01*
X8721547Y19057010D01*
X8723630Y19053759D01*
X8724392Y19049949D01*
X8723630Y19046190D01*
X8721547Y19042938D01*
X8718397Y19040703D01*
X8704478Y19034455D01*
X8691473Y19026581D01*
X8679484Y19017183D01*
X8668766Y19006464D01*
X8659368Y18994475D01*
X8651494Y18981470D01*
X8645245Y18967551D01*
X8643010Y18964402D01*
X8639759Y18962268D01*
X8636000Y18961557D01*
X8632190Y18962268D01*
X8628938Y18964402D01*
X8626703Y18967551D01*
X8620455Y18981470D01*
X8612581Y18994475D01*
X8603234Y19006464D01*
X8592464Y19017183D01*
X8580475Y19026581D01*
X8567470Y19034455D01*
X8553551Y19040703D01*
X8550402Y19042938D01*
X8548268Y19046240D01*
X8547252Y19045478D01*
X8543594Y19044513D01*
X8524138Y19047917D01*
X8509000Y19048831D01*
X8493810Y19047917D01*
X8478875Y19045174D01*
X8474354Y19044513D01*
X8470696Y19045478D01*
X8469630Y19046190D01*
X8467547Y19042938D01*
X8464397Y19040703D01*
X8450478Y19034455D01*
X8437473Y19026581D01*
X8425484Y19017183D01*
X8414766Y19006464D01*
X8405368Y18994475D01*
X8397494Y18981470D01*
X8391296Y18967602D01*
X8386724Y18953073D01*
X8384031Y18938138D01*
X8383066Y18922949D01*
X8384031Y18907810D01*
X8386724Y18892824D01*
X8391296Y18878346D01*
X8397494Y18864478D01*
X8405368Y18851473D01*
X8414766Y18839484D01*
X8425484Y18828715D01*
X8437473Y18819368D01*
X8450478Y18811494D01*
X8464397Y18805245D01*
X8467547Y18803010D01*
X8469630Y18799759D01*
X8470392Y18795949D01*
X8469630Y18792190D01*
X8467547Y18788938D01*
X8464397Y18786703D01*
X8450478Y18780455D01*
X8437473Y18772581D01*
X8425484Y18763183D01*
X8414766Y18752464D01*
X8405368Y18740475D01*
X8397494Y18727470D01*
X8391296Y18713602D01*
X8386724Y18699073D01*
X8384031Y18684138D01*
X8383066Y18668949D01*
X8384031Y18653810D01*
X8386724Y18638824D01*
X8391296Y18624346D01*
X8397494Y18610478D01*
X8405368Y18597473D01*
X8414766Y18585484D01*
X8425484Y18574715D01*
X8437473Y18565368D01*
X8450478Y18557494D01*
X8464397Y18551245D01*
X8467547Y18549010D01*
X8469630Y18545759D01*
X8470392Y18541949D01*
X8469630Y18538190D01*
X8467547Y18534938D01*
X8464397Y18532703D01*
X8450478Y18526455D01*
X8437473Y18518581D01*
X8425484Y18509183D01*
X8414766Y18498464D01*
X8405368Y18486475D01*
X8397494Y18473470D01*
X8391296Y18459602D01*
X8386724Y18445073D01*
X8384031Y18430138D01*
X8383066Y18414949D01*
X8384031Y18399810D01*
X8386724Y18384824D01*
X8391296Y18370346D01*
X8397494Y18356478D01*
X8405368Y18343473D01*
X8414766Y18331484D01*
X8425484Y18320715D01*
X8437473Y18311368D01*
X8450478Y18303494D01*
X8464397Y18297245D01*
X8467547Y18295010D01*
X8469630Y18291759D01*
X8470392Y18287949D01*
X8469630Y18284190D01*
X8467547Y18280938D01*
X8464397Y18278703D01*
X8450478Y18272455D01*
X8437473Y18264581D01*
X8425484Y18255183D01*
X8414766Y18244464D01*
X8405368Y18232475D01*
X8397494Y18219470D01*
X8391296Y18205602D01*
X8386724Y18191073D01*
X8384031Y18176138D01*
X8383066Y18160949D01*
X8384031Y18145810D01*
X8386724Y18130824D01*
X8391296Y18116346D01*
X8397494Y18102478D01*
X8405368Y18089473D01*
X8414766Y18077484D01*
X8425484Y18066715D01*
X8437473Y18057368D01*
X8450478Y18049494D01*
X8464397Y18043245D01*
X8467547Y18041010D01*
X8469630Y18037759D01*
X8470392Y18033949D01*
X8469630Y18030190D01*
X8467547Y18026938D01*
X8464397Y18024703D01*
X8450478Y18018455D01*
X8437473Y18010581D01*
X8425484Y18001183D01*
X8414766Y17990464D01*
X8405368Y17978475D01*
X8397494Y17965470D01*
X8391296Y17951602D01*
X8386724Y17937073D01*
X8384031Y17922138D01*
X8383066Y17906949D01*
X8384031Y17891810D01*
X8386724Y17876824D01*
X8391296Y17862346D01*
X8397494Y17848478D01*
X8405368Y17835473D01*
X8414766Y17823484D01*
X8425484Y17812715D01*
X8437473Y17803368D01*
X8450478Y17795494D01*
X8464397Y17789245D01*
X8467547Y17787010D01*
X8469630Y17783759D01*
X8470392Y17779949D01*
X8469630Y17776190D01*
X8467547Y17772938D01*
X8464397Y17770703D01*
X8450478Y17764455D01*
X8437473Y17756581D01*
X8425484Y17747183D01*
X8414766Y17736464D01*
X8405368Y17724475D01*
X8397494Y17711470D01*
X8391296Y17697602D01*
X8386724Y17683073D01*
X8384031Y17668138D01*
X8383066Y17652949D01*
X8384031Y17637810D01*
X8386724Y17622824D01*
X8391296Y17608346D01*
X8397494Y17594478D01*
X8405368Y17581473D01*
X8414766Y17569484D01*
X8425484Y17558715D01*
X8437473Y17549368D01*
X8450478Y17541494D01*
X8464397Y17535245D01*
X8467547Y17533010D01*
X8469630Y17529759D01*
X8470392Y17525949D01*
X8469630Y17522190D01*
X8467547Y17518938D01*
X8464397Y17516703D01*
X8450478Y17510455D01*
X8437473Y17502581D01*
X8425484Y17493183D01*
X8414766Y17482464D01*
X8405368Y17470475D01*
X8397494Y17457470D01*
X8391296Y17443602D01*
X8386724Y17429073D01*
X8384031Y17414138D01*
X8383066Y17398949D01*
X8384031Y17383810D01*
X8386724Y17368824D01*
X8391296Y17354346D01*
X8397494Y17340478D01*
X8405368Y17327473D01*
X8414766Y17315484D01*
X8425484Y17304715D01*
X8437473Y17295368D01*
X8450478Y17287494D01*
X8464397Y17281245D01*
X8467547Y17279010D01*
X8469630Y17275759D01*
X8470392Y17271949D01*
X8469630Y17268190D01*
X8467547Y17264938D01*
X8464397Y17262703D01*
X8450478Y17256455D01*
X8437473Y17248581D01*
X8425484Y17239183D01*
X8414766Y17228464D01*
X8405368Y17216475D01*
X8397494Y17203470D01*
X8391296Y17189602D01*
X8386724Y17175073D01*
X8384031Y17160138D01*
X8383066Y17144949D01*
X8384031Y17129810D01*
X8386724Y17114824D01*
X8391296Y17100346D01*
X8397494Y17086478D01*
X8405368Y17073473D01*
X8414766Y17061484D01*
X8425484Y17050715D01*
X8437473Y17041368D01*
X8450478Y17033494D01*
X8464397Y17027245D01*
X8467547Y17025010D01*
X8469630Y17021759D01*
X8470392Y17017949D01*
X8469630Y17014190D01*
X8467547Y17010938D01*
X8464397Y17008703D01*
X8450478Y17002455D01*
X8437473Y16994581D01*
X8425484Y16985183D01*
X8414766Y16974464D01*
X8405368Y16962475D01*
X8397494Y16949470D01*
X8391296Y16935602D01*
X8386724Y16921073D01*
X8384031Y16906138D01*
X8383066Y16890949D01*
X8384031Y16875810D01*
X8386724Y16860824D01*
X8391296Y16846346D01*
X8397494Y16832478D01*
X8405368Y16819473D01*
X8414766Y16807484D01*
X8425484Y16796715D01*
X8437473Y16787368D01*
X8450478Y16779494D01*
X8464346Y16773245D01*
X8478875Y16768724D01*
X8493810Y16765981D01*
X8509000Y16765066D01*
X8524138Y16765981D01*
X8539124Y16768724D01*
X8553602Y16773245D01*
X8567470Y16779494D01*
X8580475Y16787368D01*
X8592464Y16796715D01*
X8603234Y16807484D01*
X8612581Y16819473D01*
X8620455Y16832478D01*
X8626703Y16846397D01*
X8628938Y16849547D01*
X8632190Y16851630D01*
X8636000Y16852392D01*
X8639759Y16851630D01*
X8643010Y16849547D01*
X8645245Y16846397D01*
X8651494Y16832478D01*
X8659368Y16819473D01*
X8668766Y16807484D01*
X8679484Y16796715D01*
X8691473Y16787368D01*
X8704478Y16779494D01*
X8718346Y16773245D01*
X8732875Y16768724D01*
X8747810Y16765981D01*
X8763000Y16765066D01*
X8778138Y16765981D01*
X8793124Y16768724D01*
X8807602Y16773245D01*
X8821470Y16779494D01*
X8826601Y16781526D01*
X8830818Y16781119D01*
X8834526Y16779036D01*
X8837066Y16775633D01*
X8837980Y16771467D01*
X8838031Y15995650D01*
X8838844Y15986810D01*
X8839250Y15984423D01*
X8841384Y15975838D01*
X8842146Y15973501D01*
X8846616Y15963138D01*
X8851188Y15955568D01*
X8852611Y15953587D01*
X8858250Y15946780D01*
X9189313Y15615716D01*
X9196120Y15610078D01*
X9198152Y15608655D01*
X9205722Y15604083D01*
X9207906Y15602966D01*
X9216085Y15599613D01*
X9218371Y15598851D01*
X9226956Y15596717D01*
X9229394Y15596311D01*
X9238183Y15595447D01*
G37*
G36*
X5946851Y15860674D02*
G01*
X5959398Y15861995D01*
X5971641Y15865043D01*
X5983325Y15869767D01*
X5994298Y15876066D01*
X6004204Y15883839D01*
X6012992Y15892932D01*
X6020409Y15903143D01*
X6026353Y15914268D01*
X6030671Y15926155D01*
X6033262Y15938500D01*
X6034176Y15951098D01*
X6033262Y15963696D01*
X6030671Y15976041D01*
X6026353Y15987877D01*
X6020358Y15999104D01*
X6019495Y16001390D01*
X6019190Y16003879D01*
X6019190Y18735192D01*
X6019952Y18739104D01*
X6022136Y18742406D01*
X6720433Y19440652D01*
X6723735Y19442836D01*
X6727698Y19443598D01*
X6731609Y19442785D01*
X6734911Y19440499D01*
X6737096Y19437096D01*
X6737756Y19433133D01*
X6737553Y19427291D01*
X6738924Y19412508D01*
X6742125Y19398030D01*
X6747052Y19384010D01*
X6753656Y19370751D01*
X6761835Y19358406D01*
X6771487Y19347129D01*
X6782460Y19337121D01*
X6794550Y19328536D01*
X6807657Y19321526D01*
X6821474Y19316192D01*
X6835851Y19312585D01*
X6850583Y19310756D01*
X6865416Y19310756D01*
X6880148Y19312585D01*
X6894525Y19316192D01*
X6908342Y19321526D01*
X6921449Y19328536D01*
X6933539Y19337121D01*
X6944512Y19347129D01*
X6954164Y19358406D01*
X6962343Y19370751D01*
X6968947Y19384010D01*
X6973874Y19398030D01*
X6977075Y19412508D01*
X6978446Y19427291D01*
X6977989Y19442125D01*
X6975703Y19456755D01*
X6971639Y19471030D01*
X6965848Y19484695D01*
X6958431Y19497548D01*
X6949490Y19509384D01*
X6939178Y19520052D01*
X6927596Y19529348D01*
X6914997Y19537172D01*
X6901535Y19543369D01*
X6882536Y19549516D01*
X6879691Y19552208D01*
X6878116Y19555815D01*
X6878015Y19559727D01*
X6879336Y19563384D01*
X6881977Y19566280D01*
X6885533Y19567906D01*
X6894525Y19570192D01*
X6908342Y19575526D01*
X6921449Y19582536D01*
X6933539Y19591121D01*
X6944512Y19601129D01*
X6954164Y19612406D01*
X6962343Y19624751D01*
X6968947Y19638010D01*
X6973874Y19652030D01*
X6977075Y19666508D01*
X6978446Y19681291D01*
X6977989Y19696125D01*
X6975703Y19710755D01*
X6971639Y19725030D01*
X6965848Y19738695D01*
X6958431Y19751548D01*
X6949490Y19763384D01*
X6939178Y19774052D01*
X6927596Y19783348D01*
X6914997Y19791172D01*
X6901535Y19797369D01*
X6887413Y19801840D01*
X6872782Y19804583D01*
X6858000Y19805497D01*
X6843217Y19804583D01*
X6828586Y19801840D01*
X6814464Y19797369D01*
X6801002Y19791172D01*
X6788403Y19783348D01*
X6776821Y19774052D01*
X6766509Y19763384D01*
X6757568Y19751548D01*
X6750151Y19738695D01*
X6744360Y19725030D01*
X6740296Y19710755D01*
X6738010Y19696125D01*
X6737553Y19681291D01*
X6737959Y19676973D01*
X6737400Y19672554D01*
X6735013Y19668845D01*
X5888482Y18822162D01*
X5882792Y18815354D01*
X5876848Y18805804D01*
X5875731Y18803620D01*
X5872327Y18795441D01*
X5871565Y18793104D01*
X5869432Y18784519D01*
X5869025Y18782131D01*
X5868212Y18773292D01*
X5868162Y16003473D01*
X5867755Y16000679D01*
X5866638Y15998088D01*
X5863793Y15993567D01*
X5858662Y15982035D01*
X5855157Y15969894D01*
X5853430Y15957397D01*
X5853430Y15944748D01*
X5855157Y15932251D01*
X5858662Y15920110D01*
X5863793Y15908578D01*
X5870498Y15897910D01*
X5878576Y15888207D01*
X5887974Y15879775D01*
X5898438Y15872713D01*
X5909767Y15867176D01*
X5921806Y15863265D01*
X5934202Y15861080D01*
G37*
G36*
X1718360Y16406012D02*
G01*
X1729181Y16406012D01*
X1729181Y16487648D01*
X1600504Y16487648D01*
X1606905Y16473169D01*
X1614779Y16460216D01*
X1624126Y16448278D01*
X1634845Y16437559D01*
X1646732Y16428212D01*
X1659737Y16420388D01*
X1673555Y16414191D01*
X1687982Y16409669D01*
X1702917Y16406926D01*
G37*
G36*
X1926894Y16406012D02*
G01*
X1937715Y16406012D01*
X1953158Y16406926D01*
X1968042Y16409669D01*
X1982520Y16414191D01*
X1996338Y16420388D01*
X2009343Y16428212D01*
X2021230Y16437559D01*
X2031949Y16448278D01*
X2041296Y16460216D01*
X2049170Y16473169D01*
X2055571Y16487648D01*
X1926894Y16487648D01*
G37*
G36*
X1600504Y16575379D02*
G01*
X1729181Y16575379D01*
X1729181Y16657015D01*
X1718360Y16657015D01*
X1702917Y16656100D01*
X1687982Y16653357D01*
X1673555Y16648836D01*
X1659737Y16642638D01*
X1646732Y16634764D01*
X1634845Y16625417D01*
X1624126Y16614698D01*
X1614779Y16602811D01*
X1606905Y16589806D01*
G37*
G36*
X1926894Y16575379D02*
G01*
X2055571Y16575379D01*
X2049170Y16589806D01*
X2041296Y16602811D01*
X2031949Y16614698D01*
X2021230Y16625417D01*
X2009343Y16634764D01*
X1996338Y16642638D01*
X1982520Y16648836D01*
X1968042Y16653357D01*
X1953158Y16656100D01*
X1937715Y16657015D01*
X1926894Y16657015D01*
G37*
G36*
X12397130Y16637812D02*
G01*
X12397130Y16715130D01*
X12319762Y16715130D01*
X12324892Y16703141D01*
X12332766Y16689527D01*
X12342164Y16676878D01*
X12352985Y16665397D01*
X12365075Y16655288D01*
X12378232Y16646601D01*
X12392304Y16639540D01*
G37*
G36*
X1521917Y16763949D02*
G01*
X1536344Y16770400D01*
X1549349Y16778224D01*
X1561287Y16787571D01*
X1571955Y16798290D01*
X1581302Y16810228D01*
X1589176Y16823182D01*
X1595374Y16836999D01*
X1599895Y16851477D01*
X1602638Y16866362D01*
X1603552Y16881805D01*
X1603552Y16895165D01*
X1521917Y16895165D01*
G37*
G36*
X1434185Y16763949D02*
G01*
X1434185Y16895165D01*
X1352550Y16895165D01*
X1352550Y16881805D01*
X1353464Y16866362D01*
X1356207Y16851477D01*
X1360728Y16836999D01*
X1366926Y16823182D01*
X1374749Y16810228D01*
X1384096Y16798290D01*
X1394815Y16787571D01*
X1406753Y16778224D01*
X1419707Y16770400D01*
G37*
G36*
X11049000Y16765066D02*
G01*
X11064138Y16765981D01*
X11079124Y16768724D01*
X11093602Y16773245D01*
X11107470Y16779494D01*
X11120475Y16787368D01*
X11132464Y16796715D01*
X11143234Y16807484D01*
X11152581Y16819473D01*
X11160455Y16832478D01*
X11166703Y16846397D01*
X11168938Y16849547D01*
X11172190Y16851630D01*
X11176000Y16852392D01*
X11179759Y16851630D01*
X11183010Y16849547D01*
X11185245Y16846397D01*
X11191494Y16832478D01*
X11199368Y16819473D01*
X11208766Y16807484D01*
X11219484Y16796715D01*
X11231473Y16787368D01*
X11244478Y16779494D01*
X11258346Y16773245D01*
X11272875Y16768724D01*
X11287810Y16765981D01*
X11303000Y16765066D01*
X11318138Y16765981D01*
X11333124Y16768724D01*
X11347602Y16773245D01*
X11361470Y16779494D01*
X11374475Y16787368D01*
X11386464Y16796715D01*
X11397234Y16807484D01*
X11406581Y16819473D01*
X11414455Y16832478D01*
X11420703Y16846346D01*
X11425224Y16860824D01*
X11427968Y16875810D01*
X11428882Y16890949D01*
X11427968Y16906138D01*
X11425224Y16921073D01*
X11420703Y16935602D01*
X11414455Y16949470D01*
X11406581Y16962475D01*
X11397234Y16974464D01*
X11386464Y16985183D01*
X11374475Y16994581D01*
X11361470Y17002455D01*
X11347551Y17008703D01*
X11344402Y17010938D01*
X11342319Y17014190D01*
X11341557Y17017949D01*
X11342319Y17021759D01*
X11344402Y17025010D01*
X11347551Y17027245D01*
X11361470Y17033494D01*
X11374475Y17041368D01*
X11386464Y17050715D01*
X11397234Y17061484D01*
X11406581Y17073473D01*
X11414455Y17086478D01*
X11420703Y17100346D01*
X11425224Y17114824D01*
X11427968Y17129810D01*
X11428882Y17144949D01*
X11427968Y17160138D01*
X11425224Y17175073D01*
X11420703Y17189602D01*
X11414455Y17203470D01*
X11406581Y17216475D01*
X11397234Y17228464D01*
X11386464Y17239183D01*
X11374475Y17248581D01*
X11361470Y17256455D01*
X11347551Y17262703D01*
X11344402Y17264938D01*
X11342319Y17268190D01*
X11341557Y17271949D01*
X11342319Y17275759D01*
X11344402Y17279010D01*
X11347551Y17281245D01*
X11361470Y17287494D01*
X11374475Y17295368D01*
X11386464Y17304715D01*
X11397234Y17315484D01*
X11406581Y17327473D01*
X11414455Y17340478D01*
X11420703Y17354346D01*
X11425224Y17368824D01*
X11427968Y17383810D01*
X11428882Y17398949D01*
X11427968Y17414138D01*
X11425224Y17429073D01*
X11420703Y17443602D01*
X11414455Y17457470D01*
X11406581Y17470475D01*
X11397234Y17482464D01*
X11386464Y17493183D01*
X11374475Y17502581D01*
X11361470Y17510455D01*
X11347551Y17516703D01*
X11344402Y17518938D01*
X11342319Y17522190D01*
X11341557Y17525949D01*
X11342319Y17529759D01*
X11344402Y17533010D01*
X11347551Y17535245D01*
X11361470Y17541494D01*
X11374475Y17549368D01*
X11386464Y17558715D01*
X11397234Y17569484D01*
X11406581Y17581473D01*
X11414455Y17594478D01*
X11420703Y17608346D01*
X11425224Y17622824D01*
X11427968Y17637810D01*
X11428882Y17652949D01*
X11427968Y17668138D01*
X11425224Y17683073D01*
X11420703Y17697602D01*
X11414455Y17711470D01*
X11406581Y17724475D01*
X11397234Y17736464D01*
X11386464Y17747183D01*
X11374475Y17756581D01*
X11361470Y17764455D01*
X11347551Y17770703D01*
X11344402Y17772938D01*
X11342319Y17776190D01*
X11341557Y17779949D01*
X11342319Y17783759D01*
X11344402Y17787010D01*
X11347551Y17789245D01*
X11361470Y17795494D01*
X11374475Y17803368D01*
X11386464Y17812715D01*
X11397234Y17823484D01*
X11406581Y17835473D01*
X11414455Y17848478D01*
X11420703Y17862346D01*
X11425224Y17876824D01*
X11427968Y17891810D01*
X11428882Y17906949D01*
X11427968Y17922138D01*
X11425224Y17937073D01*
X11420703Y17951602D01*
X11414455Y17965470D01*
X11406581Y17978475D01*
X11397234Y17990464D01*
X11386464Y18001183D01*
X11374475Y18010581D01*
X11361470Y18018455D01*
X11347551Y18024703D01*
X11344402Y18026938D01*
X11342319Y18030190D01*
X11341557Y18033949D01*
X11342319Y18037759D01*
X11344402Y18041010D01*
X11347551Y18043245D01*
X11361470Y18049494D01*
X11374475Y18057368D01*
X11386464Y18066715D01*
X11397234Y18077484D01*
X11406581Y18089473D01*
X11414455Y18102478D01*
X11420703Y18116346D01*
X11425224Y18130824D01*
X11427968Y18145810D01*
X11428882Y18160949D01*
X11427968Y18176138D01*
X11425224Y18191073D01*
X11420703Y18205602D01*
X11414455Y18219470D01*
X11406581Y18232475D01*
X11397234Y18244464D01*
X11386464Y18255183D01*
X11374475Y18264581D01*
X11361470Y18272455D01*
X11347551Y18278703D01*
X11344402Y18280938D01*
X11342319Y18284190D01*
X11341557Y18287949D01*
X11342319Y18291759D01*
X11344402Y18295010D01*
X11347551Y18297245D01*
X11361470Y18303494D01*
X11374475Y18311368D01*
X11386464Y18320715D01*
X11397234Y18331484D01*
X11406581Y18343473D01*
X11414455Y18356478D01*
X11420703Y18370346D01*
X11425224Y18384824D01*
X11427968Y18399810D01*
X11428882Y18414949D01*
X11427968Y18430138D01*
X11425224Y18445073D01*
X11420703Y18459602D01*
X11414455Y18473470D01*
X11406581Y18486475D01*
X11397234Y18498464D01*
X11386464Y18509183D01*
X11374475Y18518581D01*
X11361470Y18526455D01*
X11347551Y18532703D01*
X11344402Y18534938D01*
X11342319Y18538190D01*
X11341557Y18541949D01*
X11342319Y18545759D01*
X11344402Y18549010D01*
X11347551Y18551245D01*
X11361470Y18557494D01*
X11374475Y18565368D01*
X11386464Y18574715D01*
X11397234Y18585484D01*
X11406581Y18597473D01*
X11414455Y18610478D01*
X11420703Y18624346D01*
X11425224Y18638824D01*
X11427968Y18653810D01*
X11428882Y18668949D01*
X11427968Y18684138D01*
X11425224Y18699073D01*
X11420703Y18713602D01*
X11414455Y18727470D01*
X11406581Y18740475D01*
X11397234Y18752464D01*
X11386464Y18763183D01*
X11374475Y18772581D01*
X11361470Y18780455D01*
X11347551Y18786703D01*
X11344402Y18788938D01*
X11342319Y18792190D01*
X11341557Y18795949D01*
X11342319Y18799759D01*
X11344402Y18803010D01*
X11347551Y18805245D01*
X11361470Y18811494D01*
X11374475Y18819368D01*
X11386464Y18828715D01*
X11397234Y18839484D01*
X11406581Y18851473D01*
X11414455Y18864478D01*
X11420703Y18878346D01*
X11425224Y18892824D01*
X11427968Y18907810D01*
X11428882Y18922949D01*
X11427968Y18938138D01*
X11425224Y18953073D01*
X11420703Y18967602D01*
X11414455Y18981470D01*
X11406581Y18994475D01*
X11397234Y19006464D01*
X11386464Y19017183D01*
X11374475Y19026581D01*
X11361470Y19034455D01*
X11347551Y19040703D01*
X11344402Y19042938D01*
X11342268Y19046240D01*
X11341252Y19045478D01*
X11337594Y19044513D01*
X11318138Y19047917D01*
X11303000Y19048831D01*
X11287810Y19047917D01*
X11272875Y19045174D01*
X11268354Y19044513D01*
X11264696Y19045478D01*
X11263630Y19046190D01*
X11261547Y19042938D01*
X11258397Y19040703D01*
X11244478Y19034455D01*
X11231473Y19026581D01*
X11219484Y19017183D01*
X11208766Y19006464D01*
X11199368Y18994475D01*
X11191494Y18981470D01*
X11185245Y18967551D01*
X11183010Y18964402D01*
X11179759Y18962268D01*
X11176000Y18961557D01*
X11172190Y18962268D01*
X11168938Y18964402D01*
X11166703Y18967551D01*
X11160455Y18981470D01*
X11152581Y18994475D01*
X11143234Y19006464D01*
X11132464Y19017183D01*
X11120475Y19026581D01*
X11107470Y19034455D01*
X11093551Y19040703D01*
X11090402Y19042938D01*
X11088319Y19046190D01*
X11087557Y19049949D01*
X11088319Y19053759D01*
X11090402Y19057010D01*
X11093551Y19059245D01*
X11107470Y19065494D01*
X11120475Y19073368D01*
X11132464Y19082715D01*
X11143234Y19093484D01*
X11152581Y19105473D01*
X11160455Y19118478D01*
X11166703Y19132397D01*
X11168938Y19135547D01*
X11172291Y19137630D01*
X11171529Y19138696D01*
X11170564Y19142354D01*
X11173968Y19161810D01*
X11174882Y19176949D01*
X11173968Y19192138D01*
X11171224Y19207073D01*
X11170564Y19211594D01*
X11171529Y19215252D01*
X11172190Y19216268D01*
X11168938Y19218402D01*
X11166703Y19221551D01*
X11160455Y19235470D01*
X11152581Y19248475D01*
X11143234Y19260464D01*
X11132464Y19271183D01*
X11120475Y19280581D01*
X11107470Y19288455D01*
X11093602Y19294652D01*
X11079124Y19299174D01*
X11064138Y19301917D01*
X11049000Y19302831D01*
X11033810Y19301917D01*
X11018875Y19299174D01*
X11004346Y19294652D01*
X10990478Y19288455D01*
X10977473Y19280581D01*
X10965484Y19271183D01*
X10954766Y19260464D01*
X10945368Y19248475D01*
X10937494Y19235470D01*
X10931296Y19221602D01*
X10926724Y19207073D01*
X10924032Y19192138D01*
X10923066Y19176949D01*
X10924032Y19161810D01*
X10926724Y19146824D01*
X10931296Y19132346D01*
X10937494Y19118478D01*
X10945368Y19105473D01*
X10954766Y19093484D01*
X10965484Y19082715D01*
X10977473Y19073368D01*
X10990478Y19065494D01*
X11004397Y19059245D01*
X11007547Y19057010D01*
X11009630Y19053759D01*
X11010392Y19049949D01*
X11009630Y19046190D01*
X11007547Y19042938D01*
X11004397Y19040703D01*
X10990478Y19034455D01*
X10977473Y19026581D01*
X10965484Y19017183D01*
X10954766Y19006464D01*
X10945368Y18994475D01*
X10937494Y18981470D01*
X10931296Y18967602D01*
X10926724Y18953073D01*
X10924032Y18938138D01*
X10923066Y18922949D01*
X10924032Y18907810D01*
X10926724Y18892824D01*
X10931296Y18878346D01*
X10937494Y18864478D01*
X10945368Y18851473D01*
X10954766Y18839484D01*
X10965484Y18828715D01*
X10977473Y18819368D01*
X10990478Y18811494D01*
X11004397Y18805245D01*
X11007547Y18803010D01*
X11009630Y18799759D01*
X11010392Y18795949D01*
X11009630Y18792190D01*
X11007547Y18788938D01*
X11004397Y18786703D01*
X10990478Y18780455D01*
X10977473Y18772581D01*
X10965484Y18763183D01*
X10954766Y18752464D01*
X10945368Y18740475D01*
X10937494Y18727470D01*
X10931296Y18713602D01*
X10926724Y18699073D01*
X10924032Y18684138D01*
X10923066Y18668949D01*
X10924032Y18653810D01*
X10926724Y18638824D01*
X10931296Y18624346D01*
X10937494Y18610478D01*
X10945368Y18597473D01*
X10952835Y18587923D01*
X10954562Y18584672D01*
X10954969Y18581065D01*
X10954105Y18577509D01*
X10952022Y18574461D01*
X10263530Y17885968D01*
X10260380Y17883835D01*
X10256672Y17883022D01*
X10253624Y17882920D01*
X10241229Y17880685D01*
X10229189Y17876824D01*
X10217861Y17871287D01*
X10207396Y17864226D01*
X10197998Y17855742D01*
X10189921Y17846090D01*
X10183215Y17835372D01*
X10178084Y17823840D01*
X10174579Y17811699D01*
X10172852Y17799202D01*
X10172852Y17786604D01*
X10174579Y17774107D01*
X10178084Y17761966D01*
X10183215Y17750434D01*
X10189921Y17739715D01*
X10197998Y17730063D01*
X10207396Y17721630D01*
X10217861Y17714569D01*
X10229189Y17709032D01*
X10241229Y17705120D01*
X10253624Y17702936D01*
X10266273Y17702479D01*
X10278821Y17703800D01*
X10291064Y17706848D01*
X10302748Y17711572D01*
X10313720Y17717871D01*
X10323626Y17725644D01*
X10332415Y17734737D01*
X10339832Y17744948D01*
X10345775Y17756124D01*
X10350093Y17767960D01*
X10352684Y17780304D01*
X10353141Y17786807D01*
X10354056Y17790312D01*
X10356088Y17793258D01*
X10921492Y18358662D01*
X10924489Y18360745D01*
X10928045Y18361609D01*
X10931702Y18361152D01*
X10934903Y18359475D01*
X10937341Y18356732D01*
X10945368Y18343473D01*
X10954766Y18331484D01*
X10965484Y18320715D01*
X10977473Y18311368D01*
X10990478Y18303494D01*
X11004397Y18297245D01*
X11007547Y18295010D01*
X11009630Y18291759D01*
X11010392Y18287949D01*
X11009630Y18284190D01*
X11007547Y18280938D01*
X11004397Y18278703D01*
X10990478Y18272455D01*
X10977473Y18264581D01*
X10965484Y18255183D01*
X10954766Y18244464D01*
X10945368Y18232475D01*
X10937494Y18219470D01*
X10931296Y18205602D01*
X10926724Y18191073D01*
X10924032Y18176138D01*
X10923066Y18160949D01*
X10924032Y18145810D01*
X10926724Y18130824D01*
X10931296Y18116346D01*
X10937494Y18102478D01*
X10945368Y18089473D01*
X10954766Y18077484D01*
X10965484Y18066715D01*
X10977473Y18057368D01*
X10990478Y18049494D01*
X11004397Y18043245D01*
X11007547Y18041010D01*
X11009630Y18037759D01*
X11010392Y18033949D01*
X11009630Y18030190D01*
X11007547Y18026938D01*
X11004397Y18024703D01*
X10990478Y18018455D01*
X10977473Y18010581D01*
X10965484Y18001183D01*
X10954766Y17990464D01*
X10945368Y17978475D01*
X10937494Y17965470D01*
X10931296Y17951602D01*
X10926724Y17937073D01*
X10924032Y17922138D01*
X10923066Y17906949D01*
X10924032Y17891810D01*
X10926724Y17876824D01*
X10931296Y17862346D01*
X10937494Y17848478D01*
X10945368Y17835473D01*
X10954766Y17823484D01*
X10965484Y17812715D01*
X10977473Y17803368D01*
X10990478Y17795494D01*
X11004397Y17789245D01*
X11007547Y17787010D01*
X11009680Y17783657D01*
X11010696Y17784419D01*
X11014354Y17785384D01*
X11018875Y17784724D01*
X11033810Y17781981D01*
X11049000Y17781066D01*
X11064138Y17781981D01*
X11083594Y17785384D01*
X11087252Y17784419D01*
X11088319Y17783759D01*
X11090402Y17787010D01*
X11093551Y17789245D01*
X11107470Y17795494D01*
X11120475Y17803368D01*
X11132464Y17812715D01*
X11143234Y17823484D01*
X11152581Y17835473D01*
X11160455Y17848478D01*
X11166703Y17862397D01*
X11168938Y17865547D01*
X11172190Y17867630D01*
X11176000Y17868392D01*
X11179759Y17867630D01*
X11183010Y17865547D01*
X11185245Y17862397D01*
X11191494Y17848478D01*
X11199368Y17835473D01*
X11208766Y17823484D01*
X11219484Y17812715D01*
X11231473Y17803368D01*
X11244478Y17795494D01*
X11258397Y17789245D01*
X11261547Y17787010D01*
X11263630Y17783759D01*
X11264392Y17779949D01*
X11263630Y17776190D01*
X11261547Y17772938D01*
X11258397Y17770703D01*
X11244478Y17764455D01*
X11231473Y17756581D01*
X11219484Y17747183D01*
X11208766Y17736464D01*
X11199368Y17724475D01*
X11191494Y17711470D01*
X11185245Y17697551D01*
X11183010Y17694402D01*
X11179708Y17692268D01*
X11180419Y17691252D01*
X11181435Y17687594D01*
X11178032Y17668138D01*
X11177066Y17652949D01*
X11178032Y17637810D01*
X11181435Y17618354D01*
X11180419Y17614696D01*
X11179759Y17613630D01*
X11183010Y17611547D01*
X11185245Y17608397D01*
X11191494Y17594478D01*
X11199368Y17581473D01*
X11208766Y17569484D01*
X11219484Y17558715D01*
X11231473Y17549368D01*
X11244478Y17541494D01*
X11258397Y17535245D01*
X11261547Y17533010D01*
X11263630Y17529759D01*
X11264392Y17525949D01*
X11263630Y17522190D01*
X11261547Y17518938D01*
X11258397Y17516703D01*
X11244478Y17510455D01*
X11231473Y17502581D01*
X11219484Y17493183D01*
X11208766Y17482464D01*
X11199368Y17470475D01*
X11191494Y17457470D01*
X11185245Y17443551D01*
X11183010Y17440402D01*
X11179759Y17438268D01*
X11176000Y17437557D01*
X11172190Y17438268D01*
X11168938Y17440402D01*
X11166703Y17443551D01*
X11160455Y17457470D01*
X11152581Y17470475D01*
X11143234Y17482464D01*
X11132464Y17493183D01*
X11120475Y17502581D01*
X11107470Y17510455D01*
X11093551Y17516703D01*
X11090402Y17518938D01*
X11088268Y17522240D01*
X11087252Y17521478D01*
X11083594Y17520513D01*
X11064138Y17523917D01*
X11049000Y17524831D01*
X11033810Y17523917D01*
X11018875Y17521174D01*
X11014354Y17520513D01*
X11010696Y17521478D01*
X11009630Y17522190D01*
X11007547Y17518938D01*
X11004397Y17516703D01*
X10990478Y17510455D01*
X10977473Y17502581D01*
X10965484Y17493183D01*
X10954766Y17482464D01*
X10945368Y17470475D01*
X10937494Y17457470D01*
X10931296Y17443602D01*
X10926724Y17429073D01*
X10924032Y17414138D01*
X10923066Y17398949D01*
X10924032Y17383810D01*
X10926724Y17368824D01*
X10931296Y17354346D01*
X10937494Y17340478D01*
X10945368Y17327473D01*
X10954766Y17315484D01*
X10965484Y17304715D01*
X10977473Y17295368D01*
X10990478Y17287494D01*
X11004397Y17281245D01*
X11007547Y17279010D01*
X11009630Y17275759D01*
X11010392Y17271949D01*
X11009630Y17268190D01*
X11007547Y17264938D01*
X11004397Y17262703D01*
X10990478Y17256455D01*
X10977473Y17248581D01*
X10965484Y17239183D01*
X10954766Y17228464D01*
X10945368Y17216475D01*
X10937494Y17203470D01*
X10931296Y17189602D01*
X10926724Y17175073D01*
X10924032Y17160138D01*
X10923066Y17144949D01*
X10924032Y17129810D01*
X10926724Y17114824D01*
X10931296Y17100346D01*
X10937494Y17086478D01*
X10945368Y17073473D01*
X10954766Y17061484D01*
X10965484Y17050715D01*
X10977473Y17041368D01*
X10990478Y17033494D01*
X11004397Y17027245D01*
X11007547Y17025010D01*
X11009630Y17021759D01*
X11010392Y17017949D01*
X11009630Y17014190D01*
X11007547Y17010938D01*
X11004397Y17008703D01*
X10990478Y17002455D01*
X10977473Y16994581D01*
X10965484Y16985183D01*
X10954766Y16974464D01*
X10945368Y16962475D01*
X10937494Y16949470D01*
X10931296Y16935602D01*
X10926724Y16921073D01*
X10924032Y16906138D01*
X10923066Y16890949D01*
X10924032Y16875810D01*
X10926724Y16860824D01*
X10931296Y16846346D01*
X10937494Y16832478D01*
X10945368Y16819473D01*
X10954766Y16807484D01*
X10965484Y16796715D01*
X10977473Y16787368D01*
X10990478Y16779494D01*
X11004346Y16773245D01*
X11018875Y16768724D01*
X11033810Y16765981D01*
G37*
G36*
X12319762Y16812818D02*
G01*
X12397130Y16812818D01*
X12397130Y16969130D01*
X12319762Y16969130D01*
X12324892Y16957141D01*
X12332766Y16943527D01*
X12342164Y16930878D01*
X12352985Y16919397D01*
X12365075Y16909288D01*
X12378232Y16900601D01*
X12382855Y16897197D01*
X12384735Y16893184D01*
X12384735Y16888714D01*
X12382855Y16884700D01*
X12378232Y16881297D01*
X12365075Y16872661D01*
X12352985Y16862501D01*
X12342164Y16851071D01*
X12332766Y16838422D01*
X12324892Y16824756D01*
G37*
G36*
X1521917Y17097857D02*
G01*
X1603552Y17097857D01*
X1603552Y17111218D01*
X1602638Y17126610D01*
X1599895Y17141545D01*
X1595374Y17156023D01*
X1589176Y17169841D01*
X1581302Y17182795D01*
X1571955Y17194733D01*
X1561287Y17205452D01*
X1549349Y17214799D01*
X1536344Y17222622D01*
X1521917Y17229023D01*
G37*
G36*
X1352550Y17097857D02*
G01*
X1434185Y17097857D01*
X1434185Y17229023D01*
X1419707Y17222622D01*
X1406753Y17214799D01*
X1394815Y17205452D01*
X1384096Y17194733D01*
X1374749Y17182795D01*
X1366926Y17169841D01*
X1360728Y17156023D01*
X1356207Y17141545D01*
X1353464Y17126610D01*
X1352550Y17111218D01*
G37*
G36*
X11004905Y17534839D02*
G01*
X11004905Y17608905D01*
X10931093Y17608905D01*
X10937494Y17594478D01*
X10945368Y17581473D01*
X10954766Y17569484D01*
X10965484Y17558715D01*
X10977473Y17549368D01*
X10990478Y17541494D01*
X11004397Y17535245D01*
G37*
G36*
X11093043Y17534839D02*
G01*
X11093551Y17535245D01*
X11107470Y17541494D01*
X11120475Y17549368D01*
X11132464Y17558715D01*
X11143234Y17569484D01*
X11152581Y17581473D01*
X11160455Y17594478D01*
X11166703Y17608397D01*
X11167110Y17608905D01*
X11093043Y17608905D01*
G37*
G36*
X10931093Y17696992D02*
G01*
X11004905Y17696992D01*
X11004905Y17771059D01*
X10990478Y17764455D01*
X10977473Y17756581D01*
X10965484Y17747183D01*
X10954766Y17736464D01*
X10945368Y17724475D01*
X10937494Y17711470D01*
G37*
G36*
X11093043Y17696992D02*
G01*
X11167110Y17696992D01*
X11166703Y17697551D01*
X11160455Y17711470D01*
X11152581Y17724475D01*
X11143234Y17736464D01*
X11132464Y17747183D01*
X11120475Y17756581D01*
X11107470Y17764455D01*
X11093043Y17771059D01*
G37*
G36*
X8464905Y19058839D02*
G01*
X8464905Y19132905D01*
X8391093Y19132905D01*
X8397494Y19118478D01*
X8405368Y19105473D01*
X8414766Y19093484D01*
X8425484Y19082715D01*
X8437473Y19073368D01*
X8450478Y19065494D01*
X8464397Y19059245D01*
G37*
G36*
X11347043Y19058839D02*
G01*
X11347551Y19059245D01*
X11361470Y19065494D01*
X11374475Y19073368D01*
X11386464Y19082715D01*
X11397234Y19093484D01*
X11406581Y19105473D01*
X11414455Y19118478D01*
X11420856Y19132905D01*
X11347043Y19132905D01*
G37*
G36*
X11258905Y19058839D02*
G01*
X11258905Y19132905D01*
X11184890Y19132905D01*
X11191494Y19118478D01*
X11199368Y19105473D01*
X11208766Y19093484D01*
X11219484Y19082715D01*
X11231473Y19073368D01*
X11244478Y19065494D01*
X11258397Y19059245D01*
G37*
G36*
X8553043Y19058839D02*
G01*
X8553551Y19059245D01*
X8567470Y19065494D01*
X8580475Y19073368D01*
X8592464Y19082715D01*
X8603234Y19093484D01*
X8612581Y19105473D01*
X8620455Y19118478D01*
X8626703Y19132397D01*
X8627110Y19132905D01*
X8553043Y19132905D01*
G37*
G36*
X11347043Y19220992D02*
G01*
X11420856Y19220992D01*
X11414455Y19235470D01*
X11406581Y19248475D01*
X11397234Y19260464D01*
X11386464Y19271183D01*
X11374475Y19280581D01*
X11361470Y19288455D01*
X11347043Y19294856D01*
G37*
G36*
X8391093Y19220992D02*
G01*
X8464905Y19220992D01*
X8464905Y19294856D01*
X8450478Y19288455D01*
X8437473Y19280581D01*
X8425484Y19271183D01*
X8414766Y19260464D01*
X8405368Y19248475D01*
X8397494Y19235470D01*
G37*
G36*
X8553043Y19220992D02*
G01*
X8627110Y19220992D01*
X8626703Y19221551D01*
X8620455Y19235470D01*
X8612581Y19248475D01*
X8603234Y19260464D01*
X8592464Y19271183D01*
X8580475Y19280581D01*
X8567470Y19288455D01*
X8553043Y19294856D01*
G37*
G36*
X11184890Y19220992D02*
G01*
X11258905Y19220992D01*
X11258905Y19294856D01*
X11244478Y19288455D01*
X11231473Y19280581D01*
X11219484Y19271183D01*
X11208766Y19260464D01*
X11199368Y19248475D01*
X11191494Y19235470D01*
G37*
G36*
X7612583Y19310756D02*
G01*
X7627416Y19310756D01*
X7642148Y19312585D01*
X7656525Y19316192D01*
X7670342Y19321526D01*
X7683449Y19328536D01*
X7695539Y19337121D01*
X7706512Y19347129D01*
X7716164Y19358406D01*
X7724343Y19370751D01*
X7730947Y19384010D01*
X7735874Y19398030D01*
X7739075Y19412508D01*
X7740446Y19427291D01*
X7739989Y19442125D01*
X7737703Y19456755D01*
X7733639Y19471030D01*
X7727848Y19484695D01*
X7720431Y19497548D01*
X7711490Y19509384D01*
X7701178Y19520052D01*
X7689596Y19529348D01*
X7676997Y19537172D01*
X7663535Y19543369D01*
X7644536Y19549516D01*
X7641691Y19552208D01*
X7640116Y19555815D01*
X7640015Y19559727D01*
X7641336Y19563384D01*
X7643977Y19566280D01*
X7647533Y19567906D01*
X7656525Y19570192D01*
X7670342Y19575526D01*
X7683449Y19582536D01*
X7695539Y19591121D01*
X7706512Y19601129D01*
X7716164Y19612406D01*
X7724343Y19624751D01*
X7730947Y19638010D01*
X7735874Y19652030D01*
X7739075Y19666508D01*
X7740446Y19681291D01*
X7739989Y19696125D01*
X7737703Y19710755D01*
X7733639Y19725030D01*
X7727848Y19738695D01*
X7720431Y19751548D01*
X7711490Y19763384D01*
X7701178Y19774052D01*
X7689596Y19783348D01*
X7676997Y19791172D01*
X7663535Y19797369D01*
X7649413Y19801840D01*
X7634782Y19804583D01*
X7620000Y19805497D01*
X7605217Y19804583D01*
X7590586Y19801840D01*
X7576464Y19797369D01*
X7563002Y19791172D01*
X7550403Y19783348D01*
X7538821Y19774052D01*
X7528509Y19763384D01*
X7519568Y19751548D01*
X7512151Y19738695D01*
X7506360Y19725030D01*
X7502296Y19710755D01*
X7500010Y19696125D01*
X7499553Y19681291D01*
X7500924Y19666508D01*
X7504125Y19652030D01*
X7509052Y19638010D01*
X7515656Y19624751D01*
X7523835Y19612406D01*
X7533487Y19601129D01*
X7544460Y19591121D01*
X7556550Y19582536D01*
X7569657Y19575526D01*
X7583474Y19570192D01*
X7592466Y19567906D01*
X7596022Y19566280D01*
X7598664Y19563384D01*
X7599984Y19559727D01*
X7599883Y19555815D01*
X7598308Y19552208D01*
X7595463Y19549516D01*
X7576464Y19543369D01*
X7563002Y19537172D01*
X7550403Y19529348D01*
X7538821Y19520052D01*
X7528509Y19509384D01*
X7519568Y19497548D01*
X7512151Y19484695D01*
X7506360Y19471030D01*
X7502296Y19456755D01*
X7500010Y19442125D01*
X7499553Y19427291D01*
X7500924Y19412508D01*
X7504125Y19398030D01*
X7509052Y19384010D01*
X7515656Y19370751D01*
X7523835Y19358406D01*
X7533487Y19347129D01*
X7544460Y19337121D01*
X7556550Y19328536D01*
X7569657Y19321526D01*
X7583474Y19316192D01*
X7597851Y19312585D01*
G37*
G36*
X1020165Y19913904D02*
G01*
X1036878Y19915276D01*
X1053338Y19918527D01*
X1069340Y19923506D01*
X1084681Y19930262D01*
X1099210Y19938644D01*
X1112672Y19948550D01*
X1125016Y19959878D01*
X1136040Y19972528D01*
X1145590Y19986294D01*
X1153566Y20001026D01*
X1159865Y20016571D01*
X1164386Y20032675D01*
X1167180Y20049236D01*
X1168095Y20065949D01*
X1167180Y20082662D01*
X1164386Y20099223D01*
X1159865Y20115326D01*
X1153566Y20130871D01*
X1145590Y20145603D01*
X1136040Y20159370D01*
X1125016Y20172019D01*
X1112672Y20183348D01*
X1099210Y20193254D01*
X1084681Y20201636D01*
X1069340Y20208392D01*
X1053338Y20213370D01*
X1036878Y20216622D01*
X1020165Y20217993D01*
X1003452Y20217536D01*
X986840Y20215199D01*
X970584Y20211084D01*
X954887Y20205242D01*
X939952Y20197673D01*
X925931Y20188478D01*
X912977Y20177861D01*
X901293Y20165822D01*
X891032Y20152614D01*
X882243Y20138339D01*
X875080Y20123200D01*
X869645Y20107351D01*
X865987Y20090993D01*
X864158Y20074331D01*
X864158Y20057567D01*
X865987Y20040904D01*
X869645Y20024547D01*
X875080Y20008697D01*
X882243Y19993559D01*
X891032Y19979284D01*
X901293Y19966076D01*
X912977Y19954036D01*
X925931Y19943419D01*
X939952Y19934224D01*
X954887Y19926655D01*
X970584Y19920813D01*
X986840Y19916698D01*
X1003452Y19914362D01*
G37*
G36*
X12958165Y19913904D02*
G01*
X12974878Y19915276D01*
X12991287Y19918527D01*
X13007289Y19923506D01*
X13022630Y19930262D01*
X13037159Y19938644D01*
X13050672Y19948550D01*
X13063016Y19959878D01*
X13073989Y19972528D01*
X13083540Y19986294D01*
X13091515Y20001026D01*
X13097814Y20016571D01*
X13102386Y20032675D01*
X13105130Y20049236D01*
X13106044Y20065949D01*
X13105130Y20082662D01*
X13102386Y20099223D01*
X13097814Y20115326D01*
X13091515Y20130871D01*
X13083540Y20145603D01*
X13073989Y20159370D01*
X13063016Y20172019D01*
X13050672Y20183348D01*
X13037159Y20193254D01*
X13022630Y20201636D01*
X13007289Y20208392D01*
X12991287Y20213370D01*
X12974878Y20216622D01*
X12958165Y20217993D01*
X12941401Y20217536D01*
X12924840Y20215199D01*
X12908584Y20211084D01*
X12892887Y20205242D01*
X12877952Y20197673D01*
X12863880Y20188478D01*
X12850977Y20177861D01*
X12839293Y20165822D01*
X12828981Y20152614D01*
X12820192Y20138339D01*
X12813080Y20123200D01*
X12807645Y20107351D01*
X12803936Y20090993D01*
X12802108Y20074331D01*
X12802108Y20057567D01*
X12803936Y20040904D01*
X12807645Y20024547D01*
X12813080Y20008697D01*
X12820192Y19993559D01*
X12828981Y19979284D01*
X12839293Y19966076D01*
X12850977Y19954036D01*
X12863880Y19943419D01*
X12877952Y19934224D01*
X12892887Y19926655D01*
X12908584Y19920813D01*
X12924840Y19916698D01*
X12941401Y19914362D01*
G37*

%LPD*%
D10*
X2956001Y14225988D02*
G01*
X3718052Y14988039D01*
X3718052Y15205031D01*
D11*
X12445974Y11937982D02*
G01*
X12666700Y11937982D01*
X12666700Y11937982D02*
G01*
X12771196Y12042477D01*
X12771196Y19599358D01*
X12355575Y20014979D01*
D10*
X8762974Y18414982D02*
G01*
X8652383Y18525573D01*
X8652383Y18728189D01*
X8720175Y18795982D01*
X8802090Y18795982D01*
X10308386Y17289686D01*
X10308386Y16515138D01*
X11026190Y15797334D01*
X8762974Y18668982D02*
G01*
X9257665Y18174291D01*
X9257665Y15830557D01*
D11*
X10407370Y15360708D02*
G01*
X10329087Y15438991D01*
X8871838Y15438991D01*
X1828037Y16531419D02*
G01*
X1828037Y16176124D01*
X2325852Y15678310D01*
X1478026Y16996493D02*
G01*
X1478026Y16881431D01*
X1828037Y16531419D01*
X11986640Y17360120D02*
G01*
X11904573Y17278052D01*
X11904573Y17240384D01*
X11369725Y16705536D01*
X10968100Y16705536D01*
X10860201Y16813436D01*
X10860201Y17464209D01*
X11048974Y17652982D01*
X12445974Y17017982D02*
G01*
X12414224Y17017982D01*
X12184735Y17247471D01*
X12184735Y17278078D01*
X12102693Y17360120D01*
X11986640Y17360120D01*
X11986640Y17360120D02*
G01*
X11986640Y18493315D01*
X11302974Y19176982D01*
X5229453Y15382527D02*
G01*
X7112990Y15382527D01*
X5227650Y15380723D02*
G01*
X5229453Y15382527D01*
X5229453Y15382527D02*
G01*
X5229453Y16762178D01*
X5227650Y16763982D01*
X8331403Y15979427D02*
G01*
X8331403Y18999410D01*
X8508974Y19176982D01*
X8871838Y15438991D02*
G01*
X8331403Y15979427D01*
X7112990Y15382527D02*
G01*
X7709890Y15979427D01*
X8331403Y15979427D01*
X12445974Y16763982D02*
G01*
X12445974Y17017982D01*
D10*
X10263098Y17792910D02*
G01*
X11048974Y18578786D01*
X11048974Y18668982D01*
D11*
X12064974Y13207982D02*
G01*
X11745975Y12888983D01*
X11745975Y11937982D01*
X12064974Y13461982D02*
G01*
X12064974Y13207982D01*
X10067975Y13005976D02*
G01*
X10475975Y12597975D01*
X10475975Y11937982D01*
X6511975Y13005976D02*
G01*
X6919975Y12597975D01*
X6919975Y11937982D01*
D12*
X12044654Y17220039D02*
G01*
X12044654Y16636423D01*
X11079149Y15670918D01*
X9240824Y15670918D01*
X8913469Y15998273D01*
X8913469Y17248487D01*
X8762974Y17398982D01*
X12445974Y17779982D02*
G01*
X12445974Y18033982D01*
D11*
X10667974Y14425988D02*
G01*
X10825962Y14268000D01*
X10825962Y11937982D01*
X8289975Y13005976D02*
G01*
X8697975Y12597975D01*
X8697975Y11937982D01*
X8127974Y12318982D02*
G01*
X8318068Y12318982D01*
X8318068Y12318982D02*
G01*
X8318068Y11943290D01*
X8610218Y11651140D01*
X8789873Y11651140D01*
X9047962Y11909229D01*
X9047962Y11937982D01*
X8889974Y14425988D02*
G01*
X9047962Y14268000D01*
X9047962Y11937982D01*
X9489973Y13005976D02*
G01*
X9397974Y12913977D01*
X9397974Y11937982D01*
X6350000Y12318982D02*
G01*
X6540068Y12318982D01*
X6540068Y12318982D02*
G01*
X6540068Y11943290D01*
X6832218Y11651140D01*
X7011873Y11651140D01*
X7269962Y11909229D01*
X7269962Y11937982D01*
X7111974Y14425988D02*
G01*
X7269962Y14268000D01*
X7269962Y11937982D01*
X7711973Y13005976D02*
G01*
X7619974Y12913977D01*
X7619974Y11937982D01*
X4734001Y13005976D02*
G01*
X5142001Y12597975D01*
X5142001Y11937982D01*
X4572000Y12318982D02*
G01*
X4762068Y12318982D01*
X4762068Y12318982D02*
G01*
X4762068Y11943316D01*
X5054244Y11651140D01*
X5233898Y11651140D01*
X5491988Y11909229D01*
X5491988Y11937982D01*
X5334000Y14425988D02*
G01*
X5491988Y14268000D01*
X5491988Y11937982D01*
X5933998Y13005976D02*
G01*
X5842000Y12913977D01*
X5842000Y11937982D01*
X2956001Y13005976D02*
G01*
X3364001Y12597975D01*
X3364001Y11937982D01*
X2794000Y12318982D02*
G01*
X2984068Y12318982D01*
X2984068Y12318982D02*
G01*
X2984068Y11943316D01*
X3276244Y11651140D01*
X3455898Y11651140D01*
X3713988Y11909229D01*
X3713988Y11937982D01*
X3556000Y14425988D02*
G01*
X3713988Y14268000D01*
X3713988Y11937982D01*
X4155998Y13005976D02*
G01*
X4064000Y12913977D01*
X4064000Y11937982D01*
X1016000Y12318982D02*
G01*
X1206068Y12318982D01*
X1206068Y12318982D02*
G01*
X1206068Y11929473D01*
X1480057Y11655483D01*
X1678279Y11655483D01*
X1935988Y11913191D01*
X1935988Y11937982D01*
X1778000Y14425988D02*
G01*
X1935988Y14268000D01*
X1935988Y11937982D01*
X1270000Y18857958D02*
G01*
X4897323Y15230635D01*
X10157155Y15230635D01*
X10978235Y14409554D01*
X10978235Y14236860D01*
X11563045Y13652050D01*
X12318974Y13652050D01*
X12318974Y13461982D02*
G01*
X12318974Y13652050D01*
X12318974Y13207982D02*
G01*
X12318974Y13017914D01*
X12318974Y13017914D02*
G01*
X12095962Y12794902D01*
X12095962Y11937982D01*
X12318974Y13461982D02*
G01*
X12318974Y13207982D01*
D12*
X4543882Y14596066D02*
G01*
X5563920Y14596066D01*
X5933998Y14225988D01*
X4155998Y14225988D02*
G01*
X4526076Y14596066D01*
X4543882Y14596066D01*
X4543882Y14596066D02*
G01*
X4543882Y15363248D01*
X6858000Y19685007D02*
G01*
X5943676Y18770683D01*
X5943676Y15951080D01*
X12445974Y17271982D02*
G01*
X12616611Y17101345D01*
X12616611Y15574627D01*
X11267973Y14225988D01*
X12445974Y17271982D02*
G01*
X12445974Y17525982D01*
D11*
X1178001Y13005976D02*
G01*
X1586001Y12597975D01*
X1586001Y11937982D01*
X2377998Y13005976D02*
G01*
X2286000Y12913977D01*
X2286000Y11937982D01*
X11267947Y13006070D02*
G01*
X11176000Y12913868D01*
X11176000Y12823697D01*
X11176000Y11938000D01*
X2377947Y14226031D02*
G01*
X2540000Y14388084D01*
X2540000Y16534384D01*
X2077974Y16996410D01*
D13*
G01*
X1828037Y16531437D03*
D14*
G01*
X1478026Y16996511D03*
G01*
X2077974Y16996511D03*
D15*
G01*
X6858000Y19685000D03*
G01*
X6858000Y19431000D03*
G01*
X7620000Y19685000D03*
G01*
X7620000Y19431000D03*
D16*
G01*
X12445974Y11937974D03*
D17*
G01*
X12095962Y11937974D03*
G01*
X11745975Y11937974D03*
D18*
G01*
X1270000Y19557949D03*
D19*
G01*
X1270000Y19207937D03*
G01*
X1270000Y18857950D03*
D20*
G01*
X12064974Y13207974D03*
D21*
G01*
X12318974Y13207974D03*
D20*
G01*
X12064974Y13461974D03*
D21*
G01*
X12318974Y13461974D03*
D16*
G01*
X2286000Y11937974D03*
D17*
G01*
X1935988Y11937974D03*
G01*
X1586001Y11937974D03*
D16*
G01*
X4064000Y11937974D03*
D17*
G01*
X3713988Y11937974D03*
G01*
X3364001Y11937974D03*
D16*
G01*
X5842000Y11937974D03*
D17*
G01*
X5491988Y11937974D03*
G01*
X5142001Y11937974D03*
D16*
G01*
X7619974Y11937974D03*
D17*
G01*
X7269962Y11937974D03*
G01*
X6919975Y11937974D03*
D16*
G01*
X9397974Y11937974D03*
D17*
G01*
X9047962Y11937974D03*
G01*
X8697975Y11937974D03*
D16*
G01*
X11175974Y11937974D03*
D17*
G01*
X10825962Y11937974D03*
G01*
X10475975Y11937974D03*
D22*
G01*
X8508974Y16890974D03*
G01*
X8762974Y16890974D03*
G01*
X8508974Y17144974D03*
G01*
X8762974Y17144974D03*
G01*
X8508974Y17398974D03*
G01*
X8762974Y17398974D03*
G01*
X8508974Y17652974D03*
G01*
X8762974Y17652974D03*
G01*
X8508974Y17906974D03*
G01*
X8762974Y17906974D03*
G01*
X8508974Y18160974D03*
G01*
X8762974Y18160974D03*
G01*
X8508974Y18414974D03*
G01*
X8762974Y18414974D03*
G01*
X8508974Y18668974D03*
G01*
X8762974Y18668974D03*
G01*
X8508974Y18922974D03*
G01*
X8762974Y18922974D03*
G01*
X8508974Y19176974D03*
G01*
X8762974Y19176974D03*
G01*
X11302974Y16890974D03*
G01*
X11048974Y16890974D03*
G01*
X11048974Y17144974D03*
G01*
X11048974Y17398974D03*
G01*
X11048974Y17652974D03*
G01*
X11048974Y17906974D03*
G01*
X11048974Y18160974D03*
G01*
X11048974Y18414974D03*
G01*
X11048974Y18668974D03*
G01*
X11048974Y18922974D03*
G01*
X11048974Y19176974D03*
G01*
X11302974Y19176974D03*
G01*
X11302974Y18922974D03*
G01*
X11302974Y18668974D03*
G01*
X11302974Y18414974D03*
G01*
X11302974Y18160974D03*
G01*
X11302974Y17906974D03*
G01*
X11302974Y17652974D03*
G01*
X11302974Y17398974D03*
G01*
X11302974Y17144974D03*
D20*
G01*
X1016000Y12064974D03*
D21*
G01*
X1016000Y12318974D03*
D20*
G01*
X2794000Y12064974D03*
D21*
G01*
X2794000Y12318974D03*
D20*
G01*
X4572000Y12064974D03*
D21*
G01*
X4572000Y12318974D03*
D20*
G01*
X6350000Y12064974D03*
D21*
G01*
X6350000Y12318974D03*
D20*
G01*
X8127974Y12064974D03*
D21*
G01*
X8127974Y12318974D03*
D20*
G01*
X9905974Y12064974D03*
D21*
G01*
X9905974Y12318974D03*
D20*
G01*
X12572974Y19049949D03*
D21*
G01*
X12318974Y19049949D03*
D20*
G01*
X12572974Y19303949D03*
D21*
G01*
X12318974Y19303949D03*
D23*
G01*
X12445974Y18033974D03*
D24*
G01*
X12445974Y17779974D03*
G01*
X12445974Y17525974D03*
G01*
X12445974Y17271974D03*
G01*
X12445974Y17017974D03*
G01*
X12445974Y16763974D03*
D25*
G01*
X1178001Y14225981D03*
G01*
X1778000Y14425980D03*
G01*
X2377998Y14225981D03*
G01*
X2377998Y13005968D03*
G01*
X1178001Y13005968D03*
G01*
X2956001Y14225981D03*
G01*
X3556000Y14425980D03*
G01*
X4155998Y14225981D03*
G01*
X4155998Y13005968D03*
G01*
X2956001Y13005968D03*
G01*
X4734001Y14225981D03*
G01*
X5334000Y14425980D03*
G01*
X5933998Y14225981D03*
G01*
X5933998Y13005968D03*
G01*
X4734001Y13005968D03*
G01*
X6511975Y14225981D03*
G01*
X7111974Y14425980D03*
G01*
X7711973Y14225981D03*
G01*
X7711973Y13005968D03*
G01*
X6511975Y13005968D03*
G01*
X8289975Y14225981D03*
G01*
X8889974Y14425980D03*
G01*
X9489973Y14225981D03*
G01*
X9489973Y13005968D03*
G01*
X8289975Y13005968D03*
G01*
X10067975Y14225981D03*
G01*
X10667974Y14425980D03*
G01*
X11267973Y14225981D03*
G01*
X11267973Y13005968D03*
G01*
X10067975Y13005968D03*
D26*
G01*
X3718052Y15205024D03*
D11*
G01*
X12355575Y20014971D03*
D26*
G01*
X11026190Y15797326D03*
G01*
X9257665Y15830550D03*
G01*
X10407370Y15360700D03*
G01*
X2325852Y15678302D03*
G01*
X5227650Y16763974D03*
G01*
X5227650Y15380716D03*
G01*
X7112990Y15382519D03*
G01*
X8871838Y15438983D03*
G01*
X10263098Y17792903D03*
G01*
X12044654Y17220031D03*
G01*
X4543882Y15363240D03*
G01*
X5943676Y15951072D03*
M02*
