G04 Layer: TopLayer*
G04 EasyEDA v6.5.37, 2023-10-28 10:51:11*
G04 4880e8b44b5e4911aa04234489c2fc7f,3a0c9916c2a341a084dc3cb5dc78798d,10*
G04 Gerber Generator version 0.2*
G04 Scale: 100 percent, Rotated: No, Reflected: No *
G04 Dimensions in millimeters *
G04 leading zeros omitted , absolute positions ,4 integer and 5 decimal *
%FSLAX45Y45*%
%MOMM*%

%AMMACRO1*21,1,$1,$2,0,0,$3*%
%AMMACRO2*4,1,8,-3.683,-4.064,-3.683,2.54,-5.461,2.54,-5.461,4.064,5.461,4.064,5.461,2.54,4.3175,2.54,4.3175,-4.064,-3.683,-4.064,0*%
%ADD10C,0.3000*%
%ADD11C,1.0000*%
%ADD12C,0.5000*%
%ADD13MACRO1,1X1.3995X0.0000*%
%ADD14R,1.0000X1.3995*%
%ADD15R,1.1500X3.2000*%
%ADD16MACRO2*%
%ADD17R,4.5000X1.6500*%
%ADD18R,2.9000X5.4000*%
%ADD19R,6.5000X2.3000*%
%ADD20MACRO1,0.864X0.8065X0.0000*%
%ADD21R,0.8640X0.8065*%
%ADD22R,2.0000X2.0000*%
%ADD23R,0.6000X1.0700*%
%ADD24MACRO1,0.864X0.8065X-90.0000*%
%ADD25O,3.6999926000000003X1.499997*%
%ADD26O,1.499997X3.7999924*%
%ADD27C,1.4000*%
%ADD28R,2.4130X3.5000*%
%ADD29O,2.4130000000000003X3.4999930000000004*%
%ADD30R,3.5000X2.4130*%
%ADD31O,3.4999930000000004X2.4130000000000003*%
%ADD32C,1.8000*%
%ADD33R,1.8000X1.8000*%
%ADD34C,1.5080*%
%ADD35R,1.7000X1.7000*%
%ADD36C,1.7000*%
%ADD37C,1.9000*%
%ADD38C,0.8000*%
%ADD39C,0.0162*%

%LPD*%
G36*
X798068Y11201857D02*
G01*
X794156Y11202670D01*
X790905Y11204854D01*
X788670Y11208156D01*
X787908Y11212017D01*
X787908Y20283881D01*
X788670Y20287792D01*
X790905Y20291094D01*
X794156Y20293279D01*
X798068Y20294041D01*
X13171932Y20294041D01*
X13175792Y20293279D01*
X13179094Y20291094D01*
X13181279Y20287792D01*
X13182092Y20283881D01*
X13182092Y11212068D01*
X13181279Y11208156D01*
X13179094Y11204854D01*
X13175792Y11202670D01*
X13171932Y11201908D01*
G37*

%LPC*%
G36*
X1020165Y11277955D02*
G01*
X1036878Y11279327D01*
X1053338Y11282527D01*
X1069340Y11287556D01*
X1084681Y11294262D01*
X1099210Y11302644D01*
X1112672Y11312550D01*
X1125016Y11323929D01*
X1136040Y11336578D01*
X1145590Y11350345D01*
X1153566Y11365077D01*
X1159865Y11380571D01*
X1164386Y11396726D01*
X1167180Y11413236D01*
X1168095Y11429949D01*
X1167180Y11446713D01*
X1164386Y11463223D01*
X1159865Y11479377D01*
X1153566Y11494871D01*
X1145590Y11509603D01*
X1136040Y11523370D01*
X1125016Y11536019D01*
X1112672Y11547398D01*
X1099210Y11557304D01*
X1084681Y11565686D01*
X1069340Y11572392D01*
X1053338Y11577421D01*
X1036878Y11580622D01*
X1020165Y11581993D01*
X1003452Y11581536D01*
X986840Y11579250D01*
X970584Y11575135D01*
X954887Y11569242D01*
X939952Y11561673D01*
X925931Y11552529D01*
X912977Y11541861D01*
X901293Y11529872D01*
X891032Y11516614D01*
X882243Y11502339D01*
X875080Y11487200D01*
X869645Y11471351D01*
X865987Y11454993D01*
X864158Y11438331D01*
X864158Y11421618D01*
X865987Y11404955D01*
X869645Y11388598D01*
X875080Y11372748D01*
X882243Y11357610D01*
X891032Y11343335D01*
X901293Y11330076D01*
X912977Y11318087D01*
X925931Y11307419D01*
X939952Y11298275D01*
X954887Y11290706D01*
X970584Y11284813D01*
X986840Y11280698D01*
X1003452Y11278412D01*
G37*
G36*
X12958165Y11277955D02*
G01*
X12974878Y11279327D01*
X12991287Y11282527D01*
X13007289Y11287556D01*
X13022630Y11294262D01*
X13037159Y11302644D01*
X13050672Y11312550D01*
X13063016Y11323929D01*
X13073989Y11336578D01*
X13083540Y11350345D01*
X13091515Y11365077D01*
X13097814Y11380571D01*
X13102386Y11396726D01*
X13105130Y11413236D01*
X13106044Y11429949D01*
X13105130Y11446713D01*
X13102386Y11463223D01*
X13097814Y11479377D01*
X13091515Y11494871D01*
X13083540Y11509603D01*
X13073989Y11523370D01*
X13063016Y11536019D01*
X13050672Y11547398D01*
X13037159Y11557304D01*
X13022630Y11565686D01*
X13007289Y11572392D01*
X12991287Y11577421D01*
X12974878Y11580622D01*
X12958165Y11581993D01*
X12941401Y11581536D01*
X12924840Y11579250D01*
X12908584Y11575135D01*
X12892887Y11569242D01*
X12877952Y11561673D01*
X12863880Y11552529D01*
X12850977Y11541861D01*
X12839293Y11529872D01*
X12828981Y11516614D01*
X12820192Y11502339D01*
X12813080Y11487200D01*
X12807645Y11471351D01*
X12803936Y11454993D01*
X12802108Y11438331D01*
X12802108Y11421618D01*
X12803936Y11404955D01*
X12807645Y11388598D01*
X12813080Y11372748D01*
X12820192Y11357610D01*
X12828981Y11343335D01*
X12839293Y11330076D01*
X12850977Y11318087D01*
X12863880Y11307419D01*
X12877952Y11298275D01*
X12892887Y11290706D01*
X12908584Y11284813D01*
X12924840Y11280698D01*
X12941401Y11278412D01*
G37*
G36*
X10308437Y11562384D02*
G01*
X11470538Y11562384D01*
X11484000Y11563248D01*
X11496852Y11565788D01*
X11509298Y11570055D01*
X11521135Y11575846D01*
X11532057Y11583162D01*
X11542166Y11592052D01*
X11672468Y11722303D01*
X11675668Y11724487D01*
X11679478Y11725300D01*
X11683288Y11724640D01*
X11693093Y11720880D01*
X11710416Y11716207D01*
X11728094Y11713413D01*
X11745976Y11712498D01*
X11763857Y11713413D01*
X11781586Y11716207D01*
X11798858Y11720880D01*
X11815572Y11727281D01*
X11831574Y11735409D01*
X11846560Y11745163D01*
X11860479Y11756440D01*
X11873179Y11769090D01*
X11884456Y11783009D01*
X11894210Y11798046D01*
X11902338Y11813997D01*
X11908739Y11830761D01*
X11911177Y11839752D01*
X11913209Y11843664D01*
X11916664Y11846356D01*
X11920982Y11847271D01*
X11925249Y11846356D01*
X11928754Y11843664D01*
X11930786Y11839752D01*
X11933224Y11830761D01*
X11939625Y11813997D01*
X11947753Y11798046D01*
X11957507Y11783009D01*
X11968784Y11769090D01*
X11981484Y11756440D01*
X11995404Y11745163D01*
X12010390Y11735409D01*
X12026392Y11727281D01*
X12043105Y11720880D01*
X12060377Y11716207D01*
X12078106Y11713413D01*
X12095988Y11712498D01*
X12113869Y11713413D01*
X12131548Y11716207D01*
X12148870Y11720880D01*
X12165584Y11727281D01*
X12181535Y11735409D01*
X12196572Y11745163D01*
X12210491Y11756440D01*
X12223140Y11769090D01*
X12234418Y11783009D01*
X12244171Y11798046D01*
X12252350Y11813997D01*
X12255195Y11821414D01*
X12257328Y11824817D01*
X12260580Y11827103D01*
X12264491Y11827967D01*
X12268454Y11827205D01*
X12271806Y11825020D01*
X12274042Y11821718D01*
X12274804Y11817807D01*
X12274804Y11763400D01*
X12275616Y11754205D01*
X12277902Y11745722D01*
X12281611Y11737746D01*
X12286640Y11730532D01*
X12292888Y11724335D01*
X12300102Y11719255D01*
X12308078Y11715546D01*
X12316561Y11713260D01*
X12325756Y11712448D01*
X12566192Y11712448D01*
X12575387Y11713260D01*
X12583871Y11715546D01*
X12591846Y11719255D01*
X12599060Y11724335D01*
X12605308Y11730532D01*
X12610338Y11737746D01*
X12614046Y11745722D01*
X12616332Y11754205D01*
X12617145Y11763400D01*
X12617145Y12112548D01*
X12616332Y12121743D01*
X12614046Y12130227D01*
X12610338Y12138202D01*
X12605308Y12145416D01*
X12599060Y12151614D01*
X12591846Y12156694D01*
X12583871Y12160402D01*
X12575387Y12162688D01*
X12566192Y12163501D01*
X12325756Y12163501D01*
X12316561Y12162688D01*
X12308078Y12160402D01*
X12300102Y12156694D01*
X12292888Y12151614D01*
X12286640Y12145416D01*
X12281611Y12138202D01*
X12277902Y12130227D01*
X12275616Y12121743D01*
X12274804Y12112548D01*
X12274804Y12058142D01*
X12274042Y12054230D01*
X12271806Y12050928D01*
X12268454Y12048744D01*
X12264491Y12047982D01*
X12260580Y12048845D01*
X12257328Y12051131D01*
X12255195Y12054535D01*
X12252350Y12061952D01*
X12244171Y12077903D01*
X12234418Y12092940D01*
X12223140Y12106859D01*
X12210491Y12119508D01*
X12196572Y12130786D01*
X12181535Y12140539D01*
X12165584Y12148667D01*
X12148870Y12155119D01*
X12131548Y12159742D01*
X12113869Y12162536D01*
X12095988Y12163450D01*
X12078106Y12162536D01*
X12060377Y12159742D01*
X12043105Y12155119D01*
X12026392Y12148667D01*
X12010390Y12140539D01*
X11995404Y12130786D01*
X11981484Y12119508D01*
X11968784Y12106859D01*
X11957507Y12092940D01*
X11947753Y12077903D01*
X11939625Y12061952D01*
X11933224Y12045188D01*
X11930786Y12036196D01*
X11928754Y12032284D01*
X11925249Y12029592D01*
X11920982Y12028678D01*
X11916664Y12029592D01*
X11913209Y12032284D01*
X11911177Y12036196D01*
X11908739Y12045188D01*
X11902338Y12061952D01*
X11894210Y12077903D01*
X11884456Y12092940D01*
X11873179Y12106859D01*
X11860479Y12119508D01*
X11846560Y12130786D01*
X11831574Y12140539D01*
X11815572Y12148667D01*
X11798858Y12155119D01*
X11781586Y12159742D01*
X11763857Y12162536D01*
X11745976Y12163450D01*
X11728094Y12162536D01*
X11710416Y12159742D01*
X11693093Y12155119D01*
X11676380Y12148667D01*
X11660428Y12140539D01*
X11645392Y12130786D01*
X11631472Y12119508D01*
X11618772Y12106859D01*
X11607495Y12092940D01*
X11597741Y12077903D01*
X11589613Y12061952D01*
X11583212Y12045188D01*
X11578590Y12027916D01*
X11575796Y12010237D01*
X11574830Y11992051D01*
X11574830Y11913158D01*
X11574068Y11909298D01*
X11571833Y11905996D01*
X11432235Y11766346D01*
X11428933Y11764162D01*
X11425021Y11763400D01*
X11357305Y11763400D01*
X11353393Y11764162D01*
X11350091Y11766346D01*
X11347907Y11769648D01*
X11347145Y11773560D01*
X11347145Y12112548D01*
X11346332Y12121743D01*
X11344046Y12130227D01*
X11340338Y12138202D01*
X11335308Y12145416D01*
X11329060Y12151614D01*
X11321846Y12156694D01*
X11313871Y12160402D01*
X11305387Y12162688D01*
X11296192Y12163501D01*
X11055756Y12163501D01*
X11046561Y12162688D01*
X11038078Y12160402D01*
X11030102Y12156694D01*
X11022888Y12151614D01*
X11016640Y12145416D01*
X11011611Y12138202D01*
X11007902Y12130227D01*
X11005616Y12121743D01*
X11004804Y12112548D01*
X11004804Y12058142D01*
X11004042Y12054230D01*
X11001806Y12050928D01*
X10998454Y12048744D01*
X10994491Y12047982D01*
X10990580Y12048845D01*
X10987328Y12051131D01*
X10985195Y12054535D01*
X10982350Y12061952D01*
X10974171Y12077903D01*
X10964418Y12092940D01*
X10953140Y12106859D01*
X10940491Y12119508D01*
X10926572Y12130786D01*
X10911535Y12140539D01*
X10895584Y12148667D01*
X10878870Y12155119D01*
X10861548Y12159742D01*
X10843869Y12162536D01*
X10825988Y12163450D01*
X10808106Y12162536D01*
X10790377Y12159742D01*
X10787532Y12158980D01*
X10784027Y12158675D01*
X10780623Y12159589D01*
X10777728Y12161621D01*
X10549534Y12389815D01*
X10539374Y12398705D01*
X10528452Y12406020D01*
X10516666Y12411811D01*
X10504220Y12416028D01*
X10491317Y12418618D01*
X10477855Y12419482D01*
X10053015Y12419482D01*
X10049256Y12420193D01*
X10046055Y12422276D01*
X10043820Y12425375D01*
X10039705Y12434214D01*
X10034625Y12441428D01*
X10028428Y12447625D01*
X10021214Y12452705D01*
X10013238Y12456414D01*
X10004755Y12458700D01*
X9995560Y12459462D01*
X9816439Y12459462D01*
X9807194Y12458700D01*
X9798710Y12456414D01*
X9790734Y12452705D01*
X9783521Y12447625D01*
X9777323Y12441428D01*
X9772294Y12434214D01*
X9768535Y12426238D01*
X9766300Y12417755D01*
X9765487Y12408509D01*
X9765487Y12245390D01*
X9764674Y12241530D01*
X9762490Y12238228D01*
X9759188Y12236043D01*
X9755327Y12235230D01*
X9751415Y12236043D01*
X9748113Y12238228D01*
X9689896Y12296495D01*
X9679736Y12305334D01*
X9668814Y12312650D01*
X9657029Y12318492D01*
X9644583Y12322708D01*
X9631680Y12325248D01*
X9618218Y12326162D01*
X8574328Y12326162D01*
X8560866Y12325248D01*
X8547963Y12322708D01*
X8535517Y12318492D01*
X8523732Y12312650D01*
X8512810Y12305334D01*
X8502650Y12296495D01*
X8374684Y12168479D01*
X8371382Y12166244D01*
X8367471Y12165482D01*
X8246618Y12165482D01*
X8242808Y12166244D01*
X8239556Y12168378D01*
X8237321Y12171578D01*
X8236458Y12175388D01*
X8237118Y12179249D01*
X8239201Y12182551D01*
X8250428Y12190323D01*
X8256625Y12196521D01*
X8261705Y12203734D01*
X8265414Y12211710D01*
X8267700Y12220194D01*
X8268512Y12229439D01*
X8268512Y12408509D01*
X8267700Y12417755D01*
X8265414Y12426238D01*
X8261705Y12434214D01*
X8256625Y12441428D01*
X8250428Y12447625D01*
X8243214Y12452705D01*
X8235238Y12456414D01*
X8226755Y12458700D01*
X8217560Y12459462D01*
X8038439Y12459462D01*
X8029244Y12458700D01*
X8020710Y12456414D01*
X8012734Y12452705D01*
X8005521Y12447625D01*
X7999323Y12441428D01*
X7994294Y12434214D01*
X7990535Y12426238D01*
X7988300Y12417755D01*
X7987487Y12408509D01*
X7987487Y12245390D01*
X7986725Y12241530D01*
X7984490Y12238228D01*
X7981188Y12235992D01*
X7977327Y12235230D01*
X7973415Y12235992D01*
X7970113Y12238228D01*
X7911896Y12296495D01*
X7901736Y12305334D01*
X7890814Y12312650D01*
X7879029Y12318492D01*
X7866583Y12322708D01*
X7853680Y12325248D01*
X7840218Y12326162D01*
X6796328Y12326162D01*
X6782866Y12325248D01*
X6769963Y12322708D01*
X6757517Y12318492D01*
X6745731Y12312650D01*
X6734809Y12305334D01*
X6724650Y12296495D01*
X6596684Y12168479D01*
X6593382Y12166244D01*
X6589471Y12165482D01*
X6468618Y12165482D01*
X6464808Y12166244D01*
X6461556Y12168378D01*
X6459321Y12171578D01*
X6458458Y12175388D01*
X6459118Y12179249D01*
X6461201Y12182551D01*
X6472428Y12190323D01*
X6478625Y12196521D01*
X6483705Y12203734D01*
X6487414Y12211710D01*
X6489700Y12220194D01*
X6490512Y12229439D01*
X6490512Y12408509D01*
X6489700Y12417755D01*
X6487414Y12426238D01*
X6483705Y12434214D01*
X6478625Y12441428D01*
X6472428Y12447625D01*
X6465214Y12452705D01*
X6457238Y12456414D01*
X6448755Y12458700D01*
X6439560Y12459462D01*
X6260439Y12459462D01*
X6251244Y12458700D01*
X6242710Y12456414D01*
X6234734Y12452705D01*
X6227572Y12447625D01*
X6221323Y12441428D01*
X6216294Y12434214D01*
X6212586Y12426238D01*
X6210300Y12417755D01*
X6209487Y12408509D01*
X6209487Y12245441D01*
X6208725Y12241530D01*
X6206490Y12238228D01*
X6203188Y12236043D01*
X6199327Y12235281D01*
X6195415Y12236043D01*
X6192113Y12238228D01*
X6133896Y12296495D01*
X6123787Y12305334D01*
X6112865Y12312650D01*
X6101029Y12318492D01*
X6088583Y12322708D01*
X6075730Y12325248D01*
X6062268Y12326162D01*
X5018328Y12326162D01*
X5004866Y12325248D01*
X4992014Y12322708D01*
X4979568Y12318492D01*
X4967732Y12312650D01*
X4956810Y12305334D01*
X4946700Y12296495D01*
X4818684Y12168479D01*
X4815382Y12166244D01*
X4811522Y12165482D01*
X4690618Y12165482D01*
X4686808Y12166244D01*
X4683556Y12168378D01*
X4681321Y12171578D01*
X4680508Y12175388D01*
X4681118Y12179249D01*
X4683201Y12182551D01*
X4694428Y12190323D01*
X4700676Y12196521D01*
X4705705Y12203734D01*
X4709414Y12211710D01*
X4711700Y12220194D01*
X4712512Y12229439D01*
X4712512Y12408509D01*
X4711700Y12417755D01*
X4709414Y12426238D01*
X4705705Y12434214D01*
X4700676Y12441428D01*
X4694428Y12447625D01*
X4687214Y12452705D01*
X4679238Y12456414D01*
X4670755Y12458700D01*
X4661560Y12459462D01*
X4482439Y12459462D01*
X4473244Y12458700D01*
X4464710Y12456414D01*
X4456734Y12452705D01*
X4449572Y12447625D01*
X4443323Y12441428D01*
X4438294Y12434214D01*
X4434586Y12426238D01*
X4432300Y12417755D01*
X4431487Y12408509D01*
X4431487Y12245441D01*
X4430725Y12241530D01*
X4428490Y12238228D01*
X4425188Y12236043D01*
X4421327Y12235281D01*
X4417415Y12236043D01*
X4414113Y12238228D01*
X4355896Y12296495D01*
X4345787Y12305334D01*
X4334865Y12312650D01*
X4323029Y12318492D01*
X4310583Y12322708D01*
X4297730Y12325248D01*
X4284268Y12326162D01*
X3240328Y12326162D01*
X3226866Y12325248D01*
X3214014Y12322708D01*
X3201568Y12318492D01*
X3189732Y12312650D01*
X3178810Y12305334D01*
X3168700Y12296495D01*
X3040684Y12168479D01*
X3037382Y12166244D01*
X3033522Y12165482D01*
X2912668Y12165482D01*
X2908808Y12166244D01*
X2905556Y12168378D01*
X2903321Y12171578D01*
X2902508Y12175388D01*
X2903118Y12179249D01*
X2905201Y12182551D01*
X2916428Y12190323D01*
X2922676Y12196521D01*
X2927705Y12203734D01*
X2931414Y12211710D01*
X2933700Y12220194D01*
X2934512Y12229439D01*
X2934512Y12408509D01*
X2933700Y12417755D01*
X2931414Y12426238D01*
X2927705Y12434214D01*
X2922676Y12441428D01*
X2916428Y12447625D01*
X2909214Y12452705D01*
X2901238Y12456414D01*
X2892755Y12458700D01*
X2883560Y12459462D01*
X2704439Y12459462D01*
X2695244Y12458700D01*
X2686710Y12456414D01*
X2678785Y12452705D01*
X2671572Y12447625D01*
X2665323Y12441428D01*
X2660294Y12434214D01*
X2656586Y12426238D01*
X2654300Y12417755D01*
X2653487Y12408509D01*
X2653487Y12245441D01*
X2652725Y12241530D01*
X2650490Y12238228D01*
X2647238Y12236043D01*
X2643327Y12235281D01*
X2639415Y12236043D01*
X2636164Y12238228D01*
X2577896Y12296495D01*
X2567787Y12305334D01*
X2556865Y12312650D01*
X2545029Y12318492D01*
X2532583Y12322708D01*
X2519730Y12325248D01*
X2506268Y12326162D01*
X1462328Y12326162D01*
X1448866Y12325248D01*
X1436014Y12322708D01*
X1423568Y12318492D01*
X1411732Y12312650D01*
X1400810Y12305334D01*
X1390700Y12296495D01*
X1262684Y12168479D01*
X1259382Y12166244D01*
X1255522Y12165482D01*
X1134668Y12165482D01*
X1130808Y12166244D01*
X1127556Y12168378D01*
X1125321Y12171578D01*
X1124508Y12175388D01*
X1125169Y12179249D01*
X1127201Y12182551D01*
X1138428Y12190323D01*
X1144676Y12196521D01*
X1149705Y12203734D01*
X1153414Y12211710D01*
X1155700Y12220194D01*
X1156512Y12229439D01*
X1156512Y12408509D01*
X1155700Y12417755D01*
X1153414Y12426238D01*
X1149705Y12434214D01*
X1144676Y12441428D01*
X1138428Y12447625D01*
X1131214Y12452705D01*
X1123238Y12456414D01*
X1114755Y12458700D01*
X1105560Y12459462D01*
X926439Y12459462D01*
X917244Y12458700D01*
X908761Y12456414D01*
X900785Y12452705D01*
X893571Y12447625D01*
X887323Y12441428D01*
X882294Y12434214D01*
X878586Y12426238D01*
X876300Y12417755D01*
X875487Y12408509D01*
X875487Y12229439D01*
X876300Y12220194D01*
X878586Y12211710D01*
X882294Y12203734D01*
X887323Y12196521D01*
X893571Y12190323D01*
X900785Y12185243D01*
X908761Y12181535D01*
X911809Y12180722D01*
X915568Y12178842D01*
X918210Y12175591D01*
X919327Y12171527D01*
X918718Y12167362D01*
X916482Y12163806D01*
X909828Y12156998D01*
X900023Y12144298D01*
X891743Y12130532D01*
X885088Y12115952D01*
X880110Y12100712D01*
X876960Y12084964D01*
X875588Y12068962D01*
X876046Y12052960D01*
X878281Y12037060D01*
X882396Y12021566D01*
X888187Y12006630D01*
X895705Y11992406D01*
X904748Y11979198D01*
X915263Y11967057D01*
X927049Y11956237D01*
X940053Y11946788D01*
X954024Y11938914D01*
X968806Y11932666D01*
X984199Y11928144D01*
X999998Y11925401D01*
X1016000Y11924487D01*
X1032002Y11925401D01*
X1047800Y11928144D01*
X1063193Y11932666D01*
X1077976Y11938914D01*
X1091946Y11946788D01*
X1104950Y11956237D01*
X1110996Y11961774D01*
X1114196Y11963806D01*
X1117904Y11964466D01*
X1300988Y11964466D01*
X1314450Y11965330D01*
X1327353Y11967921D01*
X1339799Y11972137D01*
X1351584Y11977979D01*
X1362506Y11985244D01*
X1372666Y11994134D01*
X1398778Y12020296D01*
X1402334Y12022582D01*
X1406499Y12023242D01*
X1410563Y12022124D01*
X1413865Y12019483D01*
X1415796Y12015724D01*
X1415796Y12010237D01*
X1414830Y11992051D01*
X1414830Y11883898D01*
X1415796Y11865762D01*
X1418590Y11848033D01*
X1423212Y11830761D01*
X1429664Y11813997D01*
X1437792Y11798046D01*
X1447546Y11783009D01*
X1458823Y11769090D01*
X1471472Y11756440D01*
X1485392Y11745163D01*
X1500428Y11735409D01*
X1516380Y11727281D01*
X1533093Y11720880D01*
X1550416Y11716207D01*
X1568094Y11713413D01*
X1585976Y11712498D01*
X1603908Y11713413D01*
X1621586Y11716207D01*
X1638909Y11720880D01*
X1655622Y11727281D01*
X1671574Y11735409D01*
X1686610Y11745163D01*
X1700530Y11756440D01*
X1713179Y11769090D01*
X1724456Y11783009D01*
X1734210Y11798046D01*
X1742338Y11813997D01*
X1748789Y11830761D01*
X1751177Y11839752D01*
X1753209Y11843664D01*
X1756714Y11846356D01*
X1760982Y11847271D01*
X1765300Y11846356D01*
X1768805Y11843664D01*
X1770837Y11839752D01*
X1773224Y11830761D01*
X1779625Y11813997D01*
X1787804Y11798046D01*
X1797557Y11783009D01*
X1808835Y11769090D01*
X1821484Y11756440D01*
X1835404Y11745163D01*
X1850440Y11735409D01*
X1866392Y11727281D01*
X1883105Y11720880D01*
X1900428Y11716207D01*
X1918106Y11713413D01*
X1935988Y11712498D01*
X1953869Y11713413D01*
X1971598Y11716207D01*
X1988870Y11720880D01*
X2005584Y11727281D01*
X2021586Y11735409D01*
X2036572Y11745163D01*
X2050491Y11756440D01*
X2063191Y11769090D01*
X2074468Y11783009D01*
X2084222Y11798046D01*
X2092350Y11813997D01*
X2095195Y11821414D01*
X2097328Y11824817D01*
X2100630Y11827103D01*
X2104542Y11827967D01*
X2108454Y11827205D01*
X2111806Y11825020D01*
X2114042Y11821718D01*
X2114854Y11817807D01*
X2114854Y11763400D01*
X2115667Y11754205D01*
X2117902Y11745722D01*
X2121662Y11737746D01*
X2126691Y11730532D01*
X2132888Y11724335D01*
X2140102Y11719255D01*
X2148078Y11715546D01*
X2156561Y11713260D01*
X2165807Y11712448D01*
X2406192Y11712448D01*
X2415387Y11713260D01*
X2423922Y11715546D01*
X2431897Y11719255D01*
X2439111Y11724335D01*
X2445308Y11730532D01*
X2450338Y11737746D01*
X2454046Y11745722D01*
X2456332Y11754205D01*
X2457145Y11763400D01*
X2457145Y12108434D01*
X2457907Y12112294D01*
X2460142Y12115596D01*
X2463444Y12117781D01*
X2467305Y12118594D01*
X2471216Y12117781D01*
X2474518Y12115596D01*
X2595930Y11994134D01*
X2606090Y11985244D01*
X2617012Y11977979D01*
X2628798Y11972137D01*
X2641244Y11967921D01*
X2654147Y11965330D01*
X2667609Y11964466D01*
X2692095Y11964466D01*
X2695803Y11963806D01*
X2698953Y11961774D01*
X2705049Y11956237D01*
X2718054Y11946788D01*
X2732024Y11938914D01*
X2746806Y11932666D01*
X2762199Y11928144D01*
X2777998Y11925401D01*
X2794000Y11924487D01*
X2810002Y11925401D01*
X2825800Y11928144D01*
X2841193Y11932666D01*
X2855976Y11938914D01*
X2869946Y11946788D01*
X2882950Y11956237D01*
X2888996Y11961774D01*
X2892196Y11963806D01*
X2895904Y11964466D01*
X3078988Y11964466D01*
X3092450Y11965330D01*
X3105353Y11967921D01*
X3117799Y11972137D01*
X3129584Y11977979D01*
X3140506Y11985244D01*
X3150666Y11994134D01*
X3176778Y12020296D01*
X3180334Y12022582D01*
X3184499Y12023242D01*
X3188563Y12022124D01*
X3191865Y12019483D01*
X3193796Y12015724D01*
X3193796Y12010237D01*
X3192830Y11992051D01*
X3192830Y11883898D01*
X3193796Y11865762D01*
X3196590Y11848033D01*
X3201212Y11830761D01*
X3207664Y11813997D01*
X3215792Y11798046D01*
X3225546Y11783009D01*
X3236823Y11769090D01*
X3249472Y11756440D01*
X3263392Y11745163D01*
X3278428Y11735409D01*
X3294379Y11727281D01*
X3311093Y11720880D01*
X3328415Y11716207D01*
X3346094Y11713413D01*
X3363976Y11712498D01*
X3381908Y11713413D01*
X3399586Y11716207D01*
X3416858Y11720880D01*
X3433622Y11727281D01*
X3449574Y11735409D01*
X3464610Y11745163D01*
X3478529Y11756440D01*
X3491179Y11769090D01*
X3502456Y11783009D01*
X3512210Y11798046D01*
X3520338Y11813997D01*
X3526739Y11830761D01*
X3529177Y11839752D01*
X3531209Y11843664D01*
X3534714Y11846356D01*
X3538982Y11847271D01*
X3543300Y11846356D01*
X3546754Y11843664D01*
X3548786Y11839752D01*
X3551224Y11830761D01*
X3557625Y11813997D01*
X3565804Y11798046D01*
X3575558Y11783009D01*
X3586835Y11769090D01*
X3599484Y11756440D01*
X3613404Y11745163D01*
X3628440Y11735409D01*
X3644392Y11727281D01*
X3661105Y11720880D01*
X3678428Y11716207D01*
X3696106Y11713413D01*
X3713987Y11712498D01*
X3731869Y11713413D01*
X3749598Y11716207D01*
X3766870Y11720880D01*
X3783584Y11727281D01*
X3799586Y11735409D01*
X3814572Y11745163D01*
X3828491Y11756440D01*
X3841191Y11769090D01*
X3852468Y11783009D01*
X3862222Y11798046D01*
X3870350Y11813997D01*
X3873195Y11821414D01*
X3875328Y11824817D01*
X3878630Y11827103D01*
X3882542Y11827967D01*
X3886454Y11827205D01*
X3889806Y11825020D01*
X3892042Y11821718D01*
X3892854Y11817807D01*
X3892854Y11763400D01*
X3893616Y11754205D01*
X3895902Y11745722D01*
X3899611Y11737746D01*
X3904691Y11730532D01*
X3910888Y11724335D01*
X3918102Y11719255D01*
X3926078Y11715546D01*
X3934561Y11713260D01*
X3943807Y11712448D01*
X4184192Y11712448D01*
X4193387Y11713260D01*
X4201922Y11715546D01*
X4209897Y11719255D01*
X4217060Y11724335D01*
X4223308Y11730532D01*
X4228338Y11737746D01*
X4232046Y11745722D01*
X4234332Y11754205D01*
X4235145Y11763400D01*
X4235145Y12108434D01*
X4235907Y12112294D01*
X4238142Y12115596D01*
X4241444Y12117781D01*
X4245305Y12118594D01*
X4249216Y12117781D01*
X4252518Y12115596D01*
X4373930Y11994134D01*
X4384090Y11985244D01*
X4395012Y11977979D01*
X4406798Y11972137D01*
X4419244Y11967921D01*
X4432147Y11965330D01*
X4445609Y11964466D01*
X4470095Y11964466D01*
X4473803Y11963806D01*
X4476953Y11961774D01*
X4483049Y11956237D01*
X4496054Y11946788D01*
X4510024Y11938914D01*
X4524756Y11932666D01*
X4540148Y11928144D01*
X4555998Y11925401D01*
X4572000Y11924487D01*
X4588002Y11925401D01*
X4603800Y11928144D01*
X4619193Y11932666D01*
X4633976Y11938914D01*
X4647946Y11946788D01*
X4660900Y11956237D01*
X4666996Y11961774D01*
X4670196Y11963806D01*
X4673854Y11964466D01*
X4856988Y11964466D01*
X4870450Y11965330D01*
X4883353Y11967921D01*
X4895799Y11972137D01*
X4907584Y11977979D01*
X4918506Y11985244D01*
X4928666Y11994134D01*
X4954778Y12020245D01*
X4958334Y12022582D01*
X4962499Y12023242D01*
X4966563Y12022124D01*
X4969865Y12019483D01*
X4971745Y12015724D01*
X4971796Y12010237D01*
X4970830Y11992051D01*
X4970830Y11883898D01*
X4971796Y11865762D01*
X4974590Y11848033D01*
X4979212Y11830761D01*
X4985664Y11813997D01*
X4993792Y11798046D01*
X5003546Y11783009D01*
X5014823Y11769090D01*
X5027472Y11756440D01*
X5041392Y11745163D01*
X5056428Y11735409D01*
X5072380Y11727281D01*
X5089093Y11720880D01*
X5106416Y11716207D01*
X5124094Y11713413D01*
X5141976Y11712498D01*
X5159857Y11713413D01*
X5177586Y11716207D01*
X5194858Y11720880D01*
X5211622Y11727281D01*
X5227574Y11735409D01*
X5242610Y11745163D01*
X5256530Y11756440D01*
X5269179Y11769090D01*
X5280456Y11783009D01*
X5290210Y11798046D01*
X5298338Y11813997D01*
X5304739Y11830761D01*
X5307177Y11839752D01*
X5309209Y11843664D01*
X5312714Y11846356D01*
X5316982Y11847271D01*
X5321300Y11846356D01*
X5324754Y11843664D01*
X5326786Y11839752D01*
X5329224Y11830761D01*
X5335625Y11813997D01*
X5343753Y11798046D01*
X5353507Y11783009D01*
X5364784Y11769090D01*
X5377484Y11756440D01*
X5391404Y11745163D01*
X5406440Y11735409D01*
X5422392Y11727281D01*
X5439105Y11720880D01*
X5456428Y11716207D01*
X5474106Y11713413D01*
X5491988Y11712498D01*
X5509869Y11713413D01*
X5527598Y11716207D01*
X5544870Y11720880D01*
X5561584Y11727281D01*
X5577586Y11735409D01*
X5592572Y11745163D01*
X5606491Y11756440D01*
X5619191Y11769090D01*
X5630468Y11783009D01*
X5640222Y11798046D01*
X5648350Y11813997D01*
X5651195Y11821414D01*
X5653328Y11824817D01*
X5656630Y11827103D01*
X5660542Y11827967D01*
X5664454Y11827205D01*
X5667806Y11825020D01*
X5670042Y11821718D01*
X5670854Y11817807D01*
X5670854Y11763400D01*
X5671616Y11754205D01*
X5673902Y11745722D01*
X5677611Y11737746D01*
X5682691Y11730532D01*
X5688888Y11724335D01*
X5696102Y11719255D01*
X5704078Y11715546D01*
X5712561Y11713260D01*
X5721756Y11712448D01*
X5962192Y11712448D01*
X5971387Y11713260D01*
X5979922Y11715546D01*
X5987846Y11719255D01*
X5995060Y11724335D01*
X6001308Y11730532D01*
X6006338Y11737746D01*
X6010046Y11745722D01*
X6012332Y11754205D01*
X6013145Y11763400D01*
X6013145Y12108434D01*
X6013907Y12112294D01*
X6016142Y12115596D01*
X6019393Y12117832D01*
X6023305Y12118594D01*
X6027216Y12117832D01*
X6030468Y12115596D01*
X6151930Y11994134D01*
X6162090Y11985244D01*
X6173012Y11977979D01*
X6184798Y11972137D01*
X6197244Y11967921D01*
X6210147Y11965330D01*
X6223609Y11964466D01*
X6248095Y11964466D01*
X6251803Y11963806D01*
X6254953Y11961774D01*
X6261049Y11956237D01*
X6274054Y11946788D01*
X6288024Y11938914D01*
X6302756Y11932666D01*
X6318148Y11928144D01*
X6333998Y11925401D01*
X6350000Y11924487D01*
X6366002Y11925401D01*
X6381800Y11928144D01*
X6397193Y11932666D01*
X6411976Y11938914D01*
X6425946Y11946788D01*
X6438900Y11956237D01*
X6444996Y11961774D01*
X6448196Y11963806D01*
X6451854Y11964466D01*
X6634988Y11964466D01*
X6648450Y11965330D01*
X6661302Y11967921D01*
X6673748Y11972137D01*
X6685584Y11977979D01*
X6696506Y11985244D01*
X6706616Y11994134D01*
X6732778Y12020296D01*
X6736334Y12022582D01*
X6740499Y12023242D01*
X6744563Y12022175D01*
X6747865Y12019483D01*
X6749745Y12015724D01*
X6749796Y12010237D01*
X6748830Y11992051D01*
X6748830Y11883898D01*
X6749796Y11865762D01*
X6752590Y11848033D01*
X6757212Y11830761D01*
X6763664Y11813997D01*
X6771792Y11798046D01*
X6781546Y11783009D01*
X6792823Y11769090D01*
X6805472Y11756440D01*
X6819392Y11745163D01*
X6834428Y11735409D01*
X6850380Y11727281D01*
X6867093Y11720880D01*
X6884416Y11716207D01*
X6902094Y11713413D01*
X6919975Y11712498D01*
X6937857Y11713413D01*
X6955586Y11716207D01*
X6972858Y11720880D01*
X6989622Y11727281D01*
X7005574Y11735409D01*
X7020559Y11745163D01*
X7034530Y11756440D01*
X7047179Y11769090D01*
X7058456Y11783009D01*
X7068210Y11798046D01*
X7076338Y11813997D01*
X7082739Y11830761D01*
X7085177Y11839752D01*
X7087209Y11843664D01*
X7090714Y11846356D01*
X7094981Y11847271D01*
X7099300Y11846356D01*
X7102754Y11843664D01*
X7104786Y11839752D01*
X7107224Y11830761D01*
X7113625Y11813997D01*
X7121753Y11798046D01*
X7131507Y11783009D01*
X7142784Y11769090D01*
X7155484Y11756440D01*
X7169403Y11745163D01*
X7184440Y11735409D01*
X7200392Y11727281D01*
X7217105Y11720880D01*
X7234428Y11716207D01*
X7252106Y11713413D01*
X7269988Y11712498D01*
X7287869Y11713413D01*
X7305548Y11716207D01*
X7322870Y11720880D01*
X7339584Y11727281D01*
X7355535Y11735409D01*
X7370572Y11745163D01*
X7384491Y11756440D01*
X7397191Y11769090D01*
X7408468Y11783009D01*
X7418222Y11798046D01*
X7426350Y11813997D01*
X7429195Y11821414D01*
X7431328Y11824817D01*
X7434580Y11827103D01*
X7438491Y11827967D01*
X7442453Y11827205D01*
X7445806Y11825020D01*
X7448042Y11821718D01*
X7448803Y11817807D01*
X7448803Y11763400D01*
X7449616Y11754205D01*
X7451902Y11745722D01*
X7455611Y11737746D01*
X7460691Y11730532D01*
X7466888Y11724335D01*
X7474102Y11719255D01*
X7482078Y11715546D01*
X7490561Y11713260D01*
X7499756Y11712448D01*
X7740192Y11712448D01*
X7749387Y11713260D01*
X7757871Y11715546D01*
X7765846Y11719255D01*
X7773060Y11724335D01*
X7779308Y11730532D01*
X7784338Y11737746D01*
X7788046Y11745722D01*
X7790332Y11754205D01*
X7791145Y11763400D01*
X7791145Y12108383D01*
X7791907Y12112294D01*
X7794142Y12115596D01*
X7797393Y12117781D01*
X7801305Y12118543D01*
X7805166Y12117781D01*
X7808468Y12115596D01*
X7929930Y11994134D01*
X7940040Y11985244D01*
X7950962Y11977979D01*
X7962798Y11972137D01*
X7975244Y11967921D01*
X7988096Y11965330D01*
X8001558Y11964466D01*
X8026095Y11964466D01*
X8029803Y11963806D01*
X8032953Y11961774D01*
X8039049Y11956237D01*
X8052053Y11946788D01*
X8065973Y11938914D01*
X8080756Y11932666D01*
X8096148Y11928144D01*
X8111947Y11925401D01*
X8128000Y11924487D01*
X8144002Y11925401D01*
X8159800Y11928144D01*
X8175193Y11932666D01*
X8189975Y11938914D01*
X8203946Y11946788D01*
X8216900Y11956237D01*
X8222996Y11961774D01*
X8226196Y11963806D01*
X8229853Y11964466D01*
X8412988Y11964466D01*
X8426450Y11965330D01*
X8439302Y11967921D01*
X8451748Y11972137D01*
X8463584Y11977979D01*
X8474506Y11985244D01*
X8484616Y11994134D01*
X8510778Y12020296D01*
X8514334Y12022582D01*
X8518499Y12023242D01*
X8522563Y12022175D01*
X8525865Y12019483D01*
X8527745Y12015724D01*
X8527796Y12010237D01*
X8526830Y11992051D01*
X8526830Y11883898D01*
X8527796Y11865762D01*
X8530590Y11848033D01*
X8535212Y11830761D01*
X8541613Y11813997D01*
X8549792Y11798046D01*
X8559546Y11783009D01*
X8570823Y11769090D01*
X8583472Y11756440D01*
X8597392Y11745163D01*
X8612428Y11735409D01*
X8628380Y11727281D01*
X8645093Y11720880D01*
X8662416Y11716207D01*
X8680094Y11713413D01*
X8697976Y11712498D01*
X8715857Y11713413D01*
X8733586Y11716207D01*
X8750858Y11720880D01*
X8767572Y11727281D01*
X8783574Y11735409D01*
X8798560Y11745163D01*
X8812479Y11756440D01*
X8825179Y11769090D01*
X8836456Y11783009D01*
X8846210Y11798046D01*
X8854338Y11813997D01*
X8860739Y11830761D01*
X8863177Y11839752D01*
X8865209Y11843664D01*
X8868714Y11846356D01*
X8872982Y11847271D01*
X8877300Y11846356D01*
X8880754Y11843664D01*
X8882786Y11839752D01*
X8885224Y11830761D01*
X8891625Y11813997D01*
X8899753Y11798046D01*
X8909507Y11783009D01*
X8920784Y11769090D01*
X8933484Y11756440D01*
X8947404Y11745163D01*
X8962390Y11735409D01*
X8978392Y11727281D01*
X8995105Y11720880D01*
X9012428Y11716207D01*
X9030106Y11713413D01*
X9047988Y11712498D01*
X9065869Y11713413D01*
X9083548Y11716207D01*
X9100870Y11720880D01*
X9117584Y11727281D01*
X9133535Y11735409D01*
X9148572Y11745163D01*
X9162491Y11756440D01*
X9175191Y11769090D01*
X9186468Y11783009D01*
X9196222Y11798046D01*
X9204350Y11813997D01*
X9207195Y11821414D01*
X9209328Y11824817D01*
X9212580Y11827103D01*
X9216491Y11827967D01*
X9220454Y11827205D01*
X9223806Y11825020D01*
X9226042Y11821718D01*
X9226804Y11817807D01*
X9226804Y11763400D01*
X9227616Y11754205D01*
X9229902Y11745722D01*
X9233611Y11737746D01*
X9238691Y11730532D01*
X9244888Y11724335D01*
X9252102Y11719255D01*
X9260078Y11715546D01*
X9268561Y11713260D01*
X9277756Y11712448D01*
X9518192Y11712448D01*
X9527387Y11713260D01*
X9535871Y11715546D01*
X9543846Y11719255D01*
X9551060Y11724335D01*
X9557308Y11730532D01*
X9562338Y11737746D01*
X9566046Y11745722D01*
X9568332Y11754205D01*
X9569145Y11763400D01*
X9569145Y12108383D01*
X9569907Y12112294D01*
X9572091Y12115596D01*
X9575393Y12117781D01*
X9579305Y12118543D01*
X9583166Y12117781D01*
X9586468Y12115596D01*
X9707930Y11994134D01*
X9718040Y11985244D01*
X9728962Y11977979D01*
X9740798Y11972137D01*
X9753244Y11967921D01*
X9766096Y11965330D01*
X9779558Y11964466D01*
X9804095Y11964466D01*
X9807752Y11963806D01*
X9810953Y11961774D01*
X9817049Y11956237D01*
X9830003Y11946788D01*
X9843973Y11938914D01*
X9858756Y11932666D01*
X9874148Y11928144D01*
X9889947Y11925401D01*
X9900361Y11924792D01*
X9903968Y11923928D01*
X9906965Y11921845D01*
X10236758Y11592052D01*
X10246918Y11583162D01*
X10257840Y11575846D01*
X10269626Y11570055D01*
X10282072Y11565788D01*
X10294975Y11563248D01*
G37*
G36*
X1169670Y12860731D02*
G01*
X1186281Y12860731D01*
X1202791Y12862610D01*
X1218996Y12866370D01*
X1234643Y12871958D01*
X1249527Y12879273D01*
X1263497Y12888264D01*
X1276350Y12898780D01*
X1287932Y12910718D01*
X1298092Y12923875D01*
X1306677Y12938099D01*
X1313586Y12953187D01*
X1318717Y12968986D01*
X1322019Y12985292D01*
X1323441Y13001802D01*
X1322933Y13018414D01*
X1320596Y13034873D01*
X1316380Y13050926D01*
X1310335Y13066420D01*
X1302562Y13081101D01*
X1293215Y13094817D01*
X1282344Y13107365D01*
X1270101Y13118592D01*
X1256639Y13128345D01*
X1242212Y13136524D01*
X1226870Y13143026D01*
X1210970Y13147700D01*
X1194562Y13150494D01*
X1178001Y13151459D01*
X1161389Y13150494D01*
X1145032Y13147700D01*
X1129080Y13143026D01*
X1113790Y13136524D01*
X1099312Y13128345D01*
X1085900Y13118592D01*
X1073658Y13107365D01*
X1062786Y13094817D01*
X1053388Y13081101D01*
X1045667Y13066420D01*
X1039621Y13050926D01*
X1035405Y13034873D01*
X1033018Y13018414D01*
X1032560Y13001802D01*
X1033983Y12985292D01*
X1037285Y12968986D01*
X1042416Y12953187D01*
X1049324Y12938099D01*
X1057910Y12923875D01*
X1068019Y12910718D01*
X1079601Y12898780D01*
X1092454Y12888264D01*
X1106474Y12879273D01*
X1121359Y12871958D01*
X1137005Y12866370D01*
X1153160Y12862610D01*
G37*
G36*
X2947670Y12860731D02*
G01*
X2964281Y12860731D01*
X2980791Y12862610D01*
X2996996Y12866370D01*
X3012643Y12871958D01*
X3027527Y12879273D01*
X3041497Y12888264D01*
X3054350Y12898780D01*
X3065932Y12910718D01*
X3076092Y12923875D01*
X3084677Y12938099D01*
X3091586Y12953187D01*
X3096717Y12968986D01*
X3100019Y12985292D01*
X3101441Y13001802D01*
X3100933Y13018414D01*
X3098596Y13034873D01*
X3094380Y13050926D01*
X3088335Y13066420D01*
X3080562Y13081101D01*
X3071215Y13094817D01*
X3060344Y13107365D01*
X3048101Y13118592D01*
X3034639Y13128345D01*
X3020161Y13136524D01*
X3004870Y13143026D01*
X2988919Y13147700D01*
X2972562Y13150494D01*
X2956001Y13151459D01*
X2939389Y13150494D01*
X2923032Y13147700D01*
X2907080Y13143026D01*
X2891790Y13136524D01*
X2877312Y13128345D01*
X2863900Y13118592D01*
X2851658Y13107365D01*
X2840786Y13094817D01*
X2831388Y13081101D01*
X2823667Y13066420D01*
X2817622Y13050926D01*
X2813405Y13034873D01*
X2811018Y13018414D01*
X2810560Y13001802D01*
X2811983Y12985292D01*
X2815285Y12968986D01*
X2820416Y12953187D01*
X2827324Y12938099D01*
X2835910Y12923875D01*
X2846019Y12910718D01*
X2857601Y12898780D01*
X2870454Y12888264D01*
X2884424Y12879273D01*
X2899359Y12871958D01*
X2915005Y12866370D01*
X2931160Y12862610D01*
G37*
G36*
X9481667Y12860731D02*
G01*
X9498279Y12860731D01*
X9514789Y12862610D01*
X9530943Y12866370D01*
X9546590Y12871958D01*
X9561525Y12879273D01*
X9575495Y12888264D01*
X9588347Y12898780D01*
X9599930Y12910718D01*
X9610090Y12923875D01*
X9618675Y12938099D01*
X9625533Y12953187D01*
X9630714Y12968986D01*
X9633966Y12985292D01*
X9635388Y13001802D01*
X9634931Y13018414D01*
X9632594Y13034873D01*
X9628327Y13050926D01*
X9622332Y13066420D01*
X9614560Y13081101D01*
X9605213Y13094817D01*
X9594291Y13107365D01*
X9582099Y13118592D01*
X9568637Y13128345D01*
X9554159Y13136524D01*
X9538868Y13143026D01*
X9522917Y13147700D01*
X9506559Y13150494D01*
X9489998Y13151459D01*
X9473387Y13150494D01*
X9457029Y13147700D01*
X9441078Y13143026D01*
X9425787Y13136524D01*
X9411309Y13128345D01*
X9397898Y13118592D01*
X9385655Y13107365D01*
X9374784Y13094817D01*
X9365386Y13081101D01*
X9357614Y13066420D01*
X9351619Y13050926D01*
X9347403Y13034873D01*
X9345015Y13018414D01*
X9344558Y13001802D01*
X9345980Y12985292D01*
X9349282Y12968986D01*
X9354413Y12953187D01*
X9361322Y12938099D01*
X9369856Y12923875D01*
X9380016Y12910718D01*
X9391599Y12898780D01*
X9404451Y12888264D01*
X9418421Y12879273D01*
X9433356Y12871958D01*
X9449003Y12866370D01*
X9465157Y12862610D01*
G37*
G36*
X4147667Y12860731D02*
G01*
X4164279Y12860731D01*
X4180789Y12862610D01*
X4196994Y12866370D01*
X4212640Y12871958D01*
X4227525Y12879273D01*
X4241495Y12888264D01*
X4254347Y12898780D01*
X4265930Y12910718D01*
X4276090Y12923875D01*
X4284675Y12938099D01*
X4291584Y12953187D01*
X4296714Y12968986D01*
X4300016Y12985292D01*
X4301439Y13001802D01*
X4300931Y13018414D01*
X4298594Y13034873D01*
X4294378Y13050926D01*
X4288332Y13066420D01*
X4280560Y13081101D01*
X4271213Y13094817D01*
X4260342Y13107365D01*
X4248099Y13118592D01*
X4234637Y13128345D01*
X4220159Y13136524D01*
X4204868Y13143026D01*
X4188917Y13147700D01*
X4172559Y13150494D01*
X4155998Y13151459D01*
X4139387Y13150494D01*
X4123029Y13147700D01*
X4107078Y13143026D01*
X4091787Y13136524D01*
X4077309Y13128345D01*
X4063898Y13118592D01*
X4051655Y13107365D01*
X4040784Y13094817D01*
X4031386Y13081101D01*
X4023664Y13066420D01*
X4017619Y13050926D01*
X4013403Y13034873D01*
X4011015Y13018414D01*
X4010558Y13001802D01*
X4011980Y12985292D01*
X4015282Y12968986D01*
X4020413Y12953187D01*
X4027322Y12938099D01*
X4035907Y12923875D01*
X4046016Y12910718D01*
X4057599Y12898780D01*
X4070451Y12888264D01*
X4084421Y12879273D01*
X4099356Y12871958D01*
X4115003Y12866370D01*
X4131157Y12862610D01*
G37*
G36*
X8281670Y12860731D02*
G01*
X8298281Y12860731D01*
X8314791Y12862610D01*
X8330946Y12866370D01*
X8346592Y12871958D01*
X8361527Y12879273D01*
X8375497Y12888264D01*
X8388350Y12898780D01*
X8399932Y12910718D01*
X8410092Y12923875D01*
X8418677Y12938099D01*
X8425535Y12953187D01*
X8430666Y12968986D01*
X8433968Y12985292D01*
X8435390Y13001802D01*
X8434933Y13018414D01*
X8432596Y13034873D01*
X8428329Y13050926D01*
X8422335Y13066420D01*
X8414562Y13081101D01*
X8405215Y13094817D01*
X8394293Y13107365D01*
X8382050Y13118592D01*
X8368639Y13128345D01*
X8354161Y13136524D01*
X8338870Y13143026D01*
X8322919Y13147700D01*
X8306562Y13150494D01*
X8290001Y13151459D01*
X8273389Y13150494D01*
X8257031Y13147700D01*
X8241080Y13143026D01*
X8225790Y13136524D01*
X8211312Y13128345D01*
X8197900Y13118592D01*
X8185658Y13107365D01*
X8174786Y13094817D01*
X8165388Y13081101D01*
X8157616Y13066420D01*
X8151622Y13050926D01*
X8147405Y13034873D01*
X8145018Y13018414D01*
X8144560Y13001802D01*
X8145983Y12985292D01*
X8149285Y12968986D01*
X8154416Y12953187D01*
X8161324Y12938099D01*
X8169859Y12923875D01*
X8180019Y12910718D01*
X8191601Y12898780D01*
X8204453Y12888264D01*
X8218424Y12879273D01*
X8233359Y12871958D01*
X8249005Y12866370D01*
X8265159Y12862610D01*
G37*
G36*
X4725670Y12860731D02*
G01*
X4742281Y12860731D01*
X4758791Y12862610D01*
X4774996Y12866370D01*
X4790643Y12871958D01*
X4805527Y12879273D01*
X4819497Y12888264D01*
X4832350Y12898780D01*
X4843932Y12910718D01*
X4854092Y12923875D01*
X4862677Y12938099D01*
X4869586Y12953187D01*
X4874717Y12968986D01*
X4878019Y12985292D01*
X4879441Y13001802D01*
X4878933Y13018414D01*
X4876596Y13034873D01*
X4872380Y13050926D01*
X4866335Y13066420D01*
X4858562Y13081101D01*
X4849215Y13094817D01*
X4838344Y13107365D01*
X4826101Y13118592D01*
X4812639Y13128345D01*
X4798161Y13136524D01*
X4782870Y13143026D01*
X4766919Y13147700D01*
X4750562Y13150494D01*
X4734001Y13151459D01*
X4717389Y13150494D01*
X4701032Y13147700D01*
X4685080Y13143026D01*
X4669790Y13136524D01*
X4655312Y13128345D01*
X4641900Y13118592D01*
X4629658Y13107365D01*
X4618786Y13094817D01*
X4609388Y13081101D01*
X4601667Y13066420D01*
X4595622Y13050926D01*
X4591405Y13034873D01*
X4589018Y13018414D01*
X4588560Y13001802D01*
X4589983Y12985292D01*
X4593285Y12968986D01*
X4598416Y12953187D01*
X4605324Y12938099D01*
X4613910Y12923875D01*
X4624019Y12910718D01*
X4635601Y12898780D01*
X4648454Y12888264D01*
X4662424Y12879273D01*
X4677359Y12871958D01*
X4693005Y12866370D01*
X4709160Y12862610D01*
G37*
G36*
X10059670Y12860731D02*
G01*
X10076281Y12860731D01*
X10092791Y12862610D01*
X10108946Y12866370D01*
X10124592Y12871958D01*
X10139527Y12879273D01*
X10153497Y12888264D01*
X10166350Y12898780D01*
X10177932Y12910718D01*
X10188092Y12923875D01*
X10196677Y12938099D01*
X10203535Y12953187D01*
X10208666Y12968986D01*
X10211968Y12985292D01*
X10213390Y13001802D01*
X10212933Y13018414D01*
X10210546Y13034873D01*
X10206329Y13050926D01*
X10200335Y13066420D01*
X10192562Y13081101D01*
X10183215Y13094817D01*
X10172293Y13107365D01*
X10160050Y13118592D01*
X10146639Y13128345D01*
X10132161Y13136524D01*
X10116870Y13143026D01*
X10100919Y13147700D01*
X10084562Y13150494D01*
X10068001Y13151459D01*
X10051389Y13150494D01*
X10035032Y13147700D01*
X10019080Y13143026D01*
X10003790Y13136524D01*
X9989312Y13128345D01*
X9975900Y13118592D01*
X9963658Y13107365D01*
X9952736Y13094817D01*
X9943388Y13081101D01*
X9935616Y13066420D01*
X9929622Y13050926D01*
X9925405Y13034873D01*
X9923018Y13018414D01*
X9922560Y13001802D01*
X9923983Y12985292D01*
X9927285Y12968986D01*
X9932416Y12953187D01*
X9939274Y12938099D01*
X9947859Y12923875D01*
X9958019Y12910718D01*
X9969601Y12898780D01*
X9982454Y12888264D01*
X9996424Y12879273D01*
X10011359Y12871958D01*
X10027005Y12866370D01*
X10043160Y12862610D01*
G37*
G36*
X7703667Y12860731D02*
G01*
X7720279Y12860731D01*
X7736789Y12862610D01*
X7752994Y12866370D01*
X7768640Y12871958D01*
X7783525Y12879273D01*
X7797495Y12888264D01*
X7810347Y12898780D01*
X7821930Y12910718D01*
X7832090Y12923875D01*
X7840675Y12938099D01*
X7847584Y12953187D01*
X7852714Y12968986D01*
X7855966Y12985292D01*
X7857388Y13001802D01*
X7856931Y13018414D01*
X7854594Y13034873D01*
X7850327Y13050926D01*
X7844332Y13066420D01*
X7836560Y13081101D01*
X7827213Y13094817D01*
X7816342Y13107365D01*
X7804099Y13118592D01*
X7790637Y13128345D01*
X7776159Y13136524D01*
X7760868Y13143026D01*
X7744917Y13147700D01*
X7728559Y13150494D01*
X7711998Y13151459D01*
X7695387Y13150494D01*
X7679029Y13147700D01*
X7663078Y13143026D01*
X7647787Y13136524D01*
X7633309Y13128345D01*
X7619898Y13118592D01*
X7607655Y13107365D01*
X7596784Y13094817D01*
X7587386Y13081101D01*
X7579614Y13066420D01*
X7573619Y13050926D01*
X7569403Y13034873D01*
X7567015Y13018414D01*
X7566558Y13001802D01*
X7567980Y12985292D01*
X7571282Y12968986D01*
X7576413Y12953187D01*
X7583322Y12938099D01*
X7591907Y12923875D01*
X7602016Y12910718D01*
X7613599Y12898780D01*
X7626451Y12888264D01*
X7640421Y12879273D01*
X7655356Y12871958D01*
X7671003Y12866370D01*
X7687157Y12862610D01*
G37*
G36*
X2369667Y12860731D02*
G01*
X2386279Y12860731D01*
X2402789Y12862610D01*
X2418994Y12866370D01*
X2434640Y12871958D01*
X2449525Y12879273D01*
X2463495Y12888264D01*
X2476347Y12898780D01*
X2487930Y12910718D01*
X2498090Y12923875D01*
X2506675Y12938099D01*
X2513584Y12953187D01*
X2518714Y12968986D01*
X2522016Y12985292D01*
X2523439Y13001802D01*
X2522931Y13018414D01*
X2520594Y13034873D01*
X2516378Y13050926D01*
X2510332Y13066420D01*
X2502560Y13081101D01*
X2493213Y13094817D01*
X2482342Y13107365D01*
X2470099Y13118592D01*
X2456637Y13128345D01*
X2442210Y13136524D01*
X2426868Y13143026D01*
X2410968Y13147700D01*
X2394559Y13150494D01*
X2377998Y13151459D01*
X2361387Y13150494D01*
X2345029Y13147700D01*
X2329078Y13143026D01*
X2313787Y13136524D01*
X2299360Y13128345D01*
X2285898Y13118592D01*
X2273655Y13107365D01*
X2262784Y13094817D01*
X2253386Y13081101D01*
X2245664Y13066420D01*
X2239619Y13050926D01*
X2235403Y13034873D01*
X2233015Y13018414D01*
X2232558Y13001802D01*
X2233980Y12985292D01*
X2237282Y12968986D01*
X2242413Y12953187D01*
X2249322Y12938099D01*
X2257907Y12923875D01*
X2268016Y12910718D01*
X2279599Y12898780D01*
X2292451Y12888264D01*
X2306472Y12879273D01*
X2321356Y12871958D01*
X2337003Y12866370D01*
X2353208Y12862610D01*
G37*
G36*
X5925667Y12860731D02*
G01*
X5942279Y12860731D01*
X5958789Y12862610D01*
X5974994Y12866370D01*
X5990640Y12871958D01*
X6005525Y12879273D01*
X6019495Y12888264D01*
X6032347Y12898780D01*
X6043930Y12910718D01*
X6054090Y12923875D01*
X6062675Y12938099D01*
X6069584Y12953187D01*
X6074714Y12968986D01*
X6078016Y12985292D01*
X6079439Y13001802D01*
X6078931Y13018414D01*
X6076594Y13034873D01*
X6072378Y13050926D01*
X6066332Y13066420D01*
X6058560Y13081101D01*
X6049213Y13094817D01*
X6038342Y13107365D01*
X6026099Y13118592D01*
X6012637Y13128345D01*
X5998159Y13136524D01*
X5982868Y13143026D01*
X5966917Y13147700D01*
X5950559Y13150494D01*
X5933998Y13151459D01*
X5917387Y13150494D01*
X5901029Y13147700D01*
X5885078Y13143026D01*
X5869787Y13136524D01*
X5855309Y13128345D01*
X5841898Y13118592D01*
X5829655Y13107365D01*
X5818784Y13094817D01*
X5809386Y13081101D01*
X5801664Y13066420D01*
X5795619Y13050926D01*
X5791403Y13034873D01*
X5789015Y13018414D01*
X5788558Y13001802D01*
X5789980Y12985292D01*
X5793282Y12968986D01*
X5798413Y12953187D01*
X5805322Y12938099D01*
X5813907Y12923875D01*
X5824016Y12910718D01*
X5835599Y12898780D01*
X5848451Y12888264D01*
X5862421Y12879273D01*
X5877356Y12871958D01*
X5893003Y12866370D01*
X5909157Y12862610D01*
G37*
G36*
X6503670Y12860731D02*
G01*
X6520281Y12860731D01*
X6536791Y12862610D01*
X6552946Y12866370D01*
X6568592Y12871958D01*
X6583527Y12879273D01*
X6597497Y12888264D01*
X6610350Y12898780D01*
X6621932Y12910718D01*
X6632092Y12923875D01*
X6640677Y12938099D01*
X6647535Y12953187D01*
X6652717Y12968986D01*
X6655968Y12985292D01*
X6657390Y13001802D01*
X6656933Y13018414D01*
X6654596Y13034873D01*
X6650329Y13050926D01*
X6644335Y13066420D01*
X6636562Y13081101D01*
X6627215Y13094817D01*
X6616293Y13107365D01*
X6604101Y13118592D01*
X6590639Y13128345D01*
X6576161Y13136524D01*
X6560870Y13143026D01*
X6544919Y13147700D01*
X6528562Y13150494D01*
X6512001Y13151459D01*
X6495389Y13150494D01*
X6479032Y13147700D01*
X6463080Y13143026D01*
X6447790Y13136524D01*
X6433312Y13128345D01*
X6419900Y13118592D01*
X6407658Y13107365D01*
X6396786Y13094817D01*
X6387388Y13081101D01*
X6379616Y13066420D01*
X6373622Y13050926D01*
X6369405Y13034873D01*
X6367018Y13018414D01*
X6366560Y13001802D01*
X6367983Y12985292D01*
X6371285Y12968986D01*
X6376416Y12953187D01*
X6383324Y12938099D01*
X6391859Y12923875D01*
X6402019Y12910718D01*
X6413601Y12898780D01*
X6426454Y12888264D01*
X6440424Y12879273D01*
X6455359Y12871958D01*
X6471005Y12866370D01*
X6487160Y12862610D01*
G37*
G36*
X11259667Y12860731D02*
G01*
X11276279Y12860731D01*
X11292789Y12862610D01*
X11308943Y12866370D01*
X11324590Y12871958D01*
X11339525Y12879273D01*
X11353495Y12888264D01*
X11366347Y12898780D01*
X11377930Y12910718D01*
X11388090Y12923875D01*
X11396675Y12938099D01*
X11403533Y12953187D01*
X11408664Y12968986D01*
X11411966Y12985292D01*
X11413388Y13001802D01*
X11412931Y13018414D01*
X11410594Y13034873D01*
X11406327Y13050926D01*
X11400332Y13066420D01*
X11392560Y13081101D01*
X11383213Y13094817D01*
X11372291Y13107365D01*
X11360048Y13118592D01*
X11346637Y13128345D01*
X11332159Y13136524D01*
X11316868Y13143026D01*
X11300917Y13147700D01*
X11284559Y13150494D01*
X11267998Y13151459D01*
X11251387Y13150494D01*
X11235029Y13147700D01*
X11219078Y13143026D01*
X11203787Y13136524D01*
X11189309Y13128345D01*
X11175898Y13118592D01*
X11163655Y13107365D01*
X11152784Y13094817D01*
X11143386Y13081101D01*
X11135614Y13066420D01*
X11129619Y13050926D01*
X11125403Y13034873D01*
X11123015Y13018414D01*
X11122558Y13001802D01*
X11123980Y12985292D01*
X11127282Y12968986D01*
X11132413Y12953187D01*
X11139322Y12938099D01*
X11147856Y12923875D01*
X11158016Y12910718D01*
X11169599Y12898780D01*
X11182451Y12888264D01*
X11196421Y12879273D01*
X11211356Y12871958D01*
X11227003Y12866370D01*
X11243157Y12862610D01*
G37*
G36*
X12229439Y13067487D02*
G01*
X12408509Y13067487D01*
X12417755Y13068249D01*
X12426238Y13070535D01*
X12434214Y13074243D01*
X12441428Y13079323D01*
X12447625Y13085521D01*
X12452705Y13092734D01*
X12456414Y13100710D01*
X12458700Y13109194D01*
X12459462Y13118439D01*
X12459462Y13297509D01*
X12458700Y13306755D01*
X12456414Y13315238D01*
X12452705Y13323214D01*
X12448540Y13329157D01*
X12446914Y13332917D01*
X12446914Y13337032D01*
X12448540Y13340791D01*
X12452705Y13346734D01*
X12456414Y13354710D01*
X12458700Y13363194D01*
X12459462Y13372439D01*
X12459462Y13551509D01*
X12458700Y13560755D01*
X12456414Y13569238D01*
X12452705Y13577214D01*
X12447625Y13584428D01*
X12441428Y13590625D01*
X12434214Y13595705D01*
X12426238Y13599413D01*
X12417755Y13601700D01*
X12408509Y13602462D01*
X12229439Y13602462D01*
X12220194Y13601700D01*
X12211710Y13599413D01*
X12203734Y13595705D01*
X12196521Y13590625D01*
X12190323Y13584428D01*
X12185243Y13577214D01*
X12181535Y13569238D01*
X12180722Y13566140D01*
X12178842Y13562431D01*
X12175591Y13559739D01*
X12171527Y13558621D01*
X12167362Y13559231D01*
X12163806Y13561517D01*
X12156998Y13568172D01*
X12144298Y13577925D01*
X12130532Y13586206D01*
X12115952Y13592911D01*
X12100712Y13597839D01*
X12084964Y13601039D01*
X12068962Y13602411D01*
X12052960Y13601954D01*
X12037060Y13599668D01*
X12021566Y13595604D01*
X12006630Y13589762D01*
X11992406Y13582294D01*
X11979198Y13573251D01*
X11967057Y13562736D01*
X11956237Y13550900D01*
X11946788Y13537946D01*
X11938914Y13523976D01*
X11932666Y13509193D01*
X11928144Y13493800D01*
X11925401Y13478001D01*
X11924487Y13461949D01*
X11925401Y13445947D01*
X11928144Y13430148D01*
X11932666Y13414756D01*
X11938914Y13399973D01*
X11946788Y13386003D01*
X11956237Y13373049D01*
X11967057Y13361212D01*
X11979198Y13350697D01*
X11989968Y13343382D01*
X11992711Y13340588D01*
X11994184Y13336930D01*
X11994184Y13333018D01*
X11992711Y13329361D01*
X11989968Y13326567D01*
X11979198Y13319251D01*
X11967057Y13308736D01*
X11956237Y13296900D01*
X11946788Y13283946D01*
X11938914Y13269976D01*
X11932666Y13255193D01*
X11928144Y13239800D01*
X11925401Y13224001D01*
X11924487Y13207949D01*
X11925401Y13191947D01*
X11928144Y13176148D01*
X11932666Y13160756D01*
X11938914Y13145973D01*
X11946788Y13132003D01*
X11956237Y13119049D01*
X11967057Y13107212D01*
X11979198Y13096697D01*
X11992406Y13087654D01*
X12006630Y13080187D01*
X12021566Y13074345D01*
X12037060Y13070281D01*
X12052960Y13067995D01*
X12068962Y13067538D01*
X12084964Y13068909D01*
X12100712Y13072110D01*
X12115952Y13077037D01*
X12130532Y13083743D01*
X12144298Y13092023D01*
X12156998Y13101777D01*
X12163806Y13108432D01*
X12167362Y13110718D01*
X12171527Y13111327D01*
X12175591Y13110210D01*
X12178842Y13107517D01*
X12180722Y13103809D01*
X12181535Y13100710D01*
X12185243Y13092734D01*
X12190323Y13085521D01*
X12196521Y13079323D01*
X12203734Y13074243D01*
X12211710Y13070535D01*
X12220194Y13068249D01*
G37*
G36*
X2558338Y13970254D02*
G01*
X3433826Y13970304D01*
X3442665Y13971117D01*
X3445052Y13971524D01*
X3453637Y13973657D01*
X3455974Y13974419D01*
X3466337Y13978890D01*
X3473907Y13983462D01*
X3475888Y13984884D01*
X3482695Y13990523D01*
X3818991Y14326768D01*
X3822293Y14328952D01*
X3826154Y14329714D01*
X3830065Y14328952D01*
X3833368Y14326768D01*
X3989374Y14170761D01*
X3996182Y14165122D01*
X3998214Y14163700D01*
X4005783Y14159128D01*
X4016146Y14154657D01*
X4018432Y14153896D01*
X4027424Y14151660D01*
X4030726Y14150136D01*
X4033316Y14147546D01*
X4035704Y14144091D01*
X4046016Y14130680D01*
X4057599Y14118793D01*
X4070451Y14108277D01*
X4084421Y14099286D01*
X4099356Y14091970D01*
X4115003Y14086382D01*
X4131157Y14082623D01*
X4147667Y14080744D01*
X4164279Y14080744D01*
X4180789Y14082623D01*
X4196994Y14086382D01*
X4212640Y14091970D01*
X4227525Y14099286D01*
X4241495Y14108277D01*
X4254347Y14118793D01*
X4265930Y14130680D01*
X4276090Y14143837D01*
X4284675Y14158061D01*
X4291584Y14173200D01*
X4296714Y14188998D01*
X4300016Y14205254D01*
X4301439Y14221815D01*
X4300931Y14238427D01*
X4298594Y14254886D01*
X4294378Y14270939D01*
X4288332Y14286433D01*
X4280560Y14301114D01*
X4271213Y14314830D01*
X4260342Y14327378D01*
X4248099Y14338604D01*
X4234637Y14348358D01*
X4220159Y14356537D01*
X4204868Y14362988D01*
X4188917Y14367662D01*
X4172559Y14370507D01*
X4155998Y14371472D01*
X4139387Y14370507D01*
X4123029Y14367662D01*
X4107078Y14362988D01*
X4091787Y14356537D01*
X4077309Y14348358D01*
X4063898Y14338604D01*
X4056024Y14331391D01*
X4052722Y14329359D01*
X4048963Y14328698D01*
X4045153Y14329511D01*
X4041952Y14331696D01*
X3531514Y14842134D01*
X3529329Y14845436D01*
X3528568Y14849297D01*
X3528568Y14985796D01*
X3528364Y14991638D01*
X3527704Y14997226D01*
X3526637Y15002763D01*
X3525215Y15008250D01*
X3523335Y15013584D01*
X3521100Y15018766D01*
X3518458Y15023744D01*
X3515410Y15028519D01*
X3512058Y15033040D01*
X3508400Y15037358D01*
X3504387Y15041321D01*
X3500120Y15045029D01*
X3495598Y15048382D01*
X3490823Y15051379D01*
X3485794Y15054021D01*
X3480612Y15056256D01*
X3475329Y15058136D01*
X3469843Y15059609D01*
X3464306Y15060625D01*
X3458718Y15061285D01*
X3452876Y15061488D01*
X3438651Y15061488D01*
X3434791Y15062250D01*
X3431489Y15064486D01*
X3429254Y15067737D01*
X3428492Y15071648D01*
X3428492Y15085517D01*
X3427679Y15094712D01*
X3425393Y15103246D01*
X3421684Y15111222D01*
X3416655Y15118384D01*
X3410458Y15124633D01*
X3403244Y15129662D01*
X3395268Y15133370D01*
X3386734Y15135656D01*
X3377539Y15136469D01*
X3363671Y15136469D01*
X3359759Y15137231D01*
X3356457Y15139466D01*
X3354273Y15142768D01*
X3353511Y15146629D01*
X3353511Y15160853D01*
X3353308Y15166695D01*
X3352647Y15172283D01*
X3351580Y15177820D01*
X3350158Y15183307D01*
X3348278Y15188641D01*
X3346043Y15193822D01*
X3343401Y15198801D01*
X3340354Y15203576D01*
X3337001Y15208097D01*
X3333343Y15212415D01*
X3329330Y15216378D01*
X3325063Y15220086D01*
X3320542Y15223439D01*
X3315766Y15226436D01*
X3310737Y15229078D01*
X3305556Y15231313D01*
X3300272Y15233192D01*
X3294786Y15234666D01*
X3289249Y15235682D01*
X3283661Y15236342D01*
X3277819Y15236545D01*
X3166364Y15236545D01*
X3162452Y15237307D01*
X3159201Y15239542D01*
X3026562Y15372130D01*
X3024378Y15375432D01*
X3023616Y15379293D01*
X3024378Y15383205D01*
X3026562Y15386507D01*
X3031642Y15391536D01*
X3036671Y15398750D01*
X3038805Y15403271D01*
X3041040Y15406369D01*
X3044240Y15408452D01*
X3048000Y15409163D01*
X3051759Y15408452D01*
X3054959Y15406369D01*
X3057194Y15403271D01*
X3059328Y15398750D01*
X3064357Y15391536D01*
X3070606Y15385338D01*
X3077768Y15380309D01*
X3085744Y15376550D01*
X3094278Y15374315D01*
X3103473Y15373502D01*
X3202584Y15373502D01*
X3211779Y15374315D01*
X3220262Y15376550D01*
X3228238Y15380309D01*
X3235452Y15385338D01*
X3237585Y15387472D01*
X3240887Y15389656D01*
X3244799Y15390418D01*
X3248660Y15389656D01*
X3251962Y15387472D01*
X3666286Y14973147D01*
X3674364Y14966238D01*
X3683152Y14960854D01*
X3692651Y14956942D01*
X3702608Y14954554D01*
X3713276Y14953691D01*
X4321505Y14953691D01*
X4332173Y14954554D01*
X4342130Y14956942D01*
X4351629Y14960854D01*
X4360418Y14966238D01*
X4368495Y14973147D01*
X4428134Y15032786D01*
X4431436Y15034971D01*
X4435297Y15035784D01*
X4439208Y15034971D01*
X4442510Y15032786D01*
X4444695Y15029484D01*
X4445457Y15025624D01*
X4445457Y14886432D01*
X4446270Y14877186D01*
X4448556Y14868702D01*
X4452264Y14860727D01*
X4457344Y14853513D01*
X4463542Y14847316D01*
X4470755Y14842286D01*
X4478731Y14838527D01*
X4487926Y14836089D01*
X4491837Y14834057D01*
X4494530Y14830551D01*
X4495495Y14826284D01*
X4495495Y14364360D01*
X4496358Y14350898D01*
X4498898Y14337995D01*
X4503166Y14325549D01*
X4508957Y14313763D01*
X4516272Y14302841D01*
X4525162Y14292732D01*
X4585665Y14232178D01*
X4587900Y14228775D01*
X4588611Y14224711D01*
X4588560Y14221815D01*
X4589983Y14205254D01*
X4593285Y14188998D01*
X4598416Y14173200D01*
X4605324Y14158061D01*
X4613910Y14143837D01*
X4624019Y14130680D01*
X4635601Y14118793D01*
X4648454Y14108277D01*
X4662424Y14099286D01*
X4677359Y14091970D01*
X4693005Y14086382D01*
X4709160Y14082623D01*
X4725670Y14080744D01*
X4742281Y14080744D01*
X4758791Y14082623D01*
X4774996Y14086382D01*
X4790643Y14091970D01*
X4805527Y14099286D01*
X4819497Y14108277D01*
X4832350Y14118793D01*
X4843932Y14130680D01*
X4854092Y14143837D01*
X4862677Y14158061D01*
X4869586Y14173200D01*
X4874717Y14188998D01*
X4878019Y14205254D01*
X4879441Y14221815D01*
X4878933Y14238427D01*
X4876596Y14254886D01*
X4872380Y14270939D01*
X4866335Y14286433D01*
X4858562Y14301114D01*
X4849215Y14314830D01*
X4838344Y14327378D01*
X4826101Y14338604D01*
X4812639Y14348358D01*
X4798161Y14356537D01*
X4782870Y14362988D01*
X4766919Y14367662D01*
X4750562Y14370507D01*
X4734306Y14371472D01*
X4730750Y14372336D01*
X4727702Y14374418D01*
X4699457Y14402663D01*
X4697272Y14405965D01*
X4696510Y14409877D01*
X4696510Y14826234D01*
X4697425Y14830551D01*
X4700117Y14834057D01*
X4704029Y14836089D01*
X4713224Y14838527D01*
X4721199Y14842286D01*
X4728413Y14847316D01*
X4734661Y14853513D01*
X4739690Y14860727D01*
X4743399Y14868702D01*
X4745888Y14877948D01*
X4747920Y14881860D01*
X4751425Y14884501D01*
X4755692Y14885466D01*
X4795723Y14885466D01*
X4809185Y14886330D01*
X4822037Y14888921D01*
X4834483Y14893137D01*
X4846320Y14898979D01*
X4857242Y14906244D01*
X4867097Y14914930D01*
X4875784Y14924786D01*
X4883099Y14935758D01*
X4886198Y14942108D01*
X4889042Y14945563D01*
X4893106Y14947493D01*
X4897628Y14947493D01*
X4901692Y14945512D01*
X4904486Y14942007D01*
X4905502Y14937587D01*
X4905502Y14886432D01*
X4906264Y14877186D01*
X4908550Y14868702D01*
X4912258Y14860727D01*
X4917338Y14853513D01*
X4923536Y14847316D01*
X4930749Y14842286D01*
X4938725Y14838527D01*
X4947208Y14836292D01*
X4956454Y14835479D01*
X5155539Y14835479D01*
X5164734Y14836292D01*
X5173268Y14838527D01*
X5181244Y14842286D01*
X5188407Y14847316D01*
X5189982Y14848840D01*
X5193284Y14851075D01*
X5197144Y14851837D01*
X5201056Y14851075D01*
X5204358Y14848840D01*
X5788710Y14264487D01*
X5790539Y14261947D01*
X5791555Y14258950D01*
X5791606Y14255851D01*
X5789015Y14238427D01*
X5788558Y14221815D01*
X5789980Y14205254D01*
X5793282Y14188998D01*
X5798413Y14173200D01*
X5805322Y14158061D01*
X5813907Y14143837D01*
X5824016Y14130680D01*
X5835599Y14118793D01*
X5848451Y14108277D01*
X5862421Y14099286D01*
X5877356Y14091970D01*
X5893003Y14086382D01*
X5909157Y14082623D01*
X5925667Y14080744D01*
X5942279Y14080744D01*
X5958789Y14082623D01*
X5962853Y14083538D01*
X5966256Y14083741D01*
X5969558Y14082826D01*
X5972352Y14080845D01*
X6059170Y13994130D01*
X6065977Y13988491D01*
X6067958Y13987068D01*
X6075527Y13982496D01*
X6077712Y13981379D01*
X6085890Y13978026D01*
X6088227Y13977264D01*
X6096812Y13975130D01*
X6099200Y13974724D01*
X6108039Y13973860D01*
X11093958Y13973860D01*
X11102746Y13974724D01*
X11105184Y13975130D01*
X11113770Y13977264D01*
X11116056Y13978026D01*
X11124234Y13981379D01*
X11126419Y13982496D01*
X11133988Y13987068D01*
X11136020Y13988491D01*
X11142827Y13994130D01*
X11229594Y14080845D01*
X11232388Y14082826D01*
X11235690Y14083741D01*
X11239093Y14083538D01*
X11243157Y14082623D01*
X11259667Y14080744D01*
X11276279Y14080744D01*
X11292789Y14082623D01*
X11308943Y14086382D01*
X11324590Y14091970D01*
X11339525Y14099286D01*
X11353495Y14108277D01*
X11366347Y14118793D01*
X11377930Y14130680D01*
X11388090Y14143837D01*
X11396675Y14158061D01*
X11403533Y14173200D01*
X11408664Y14188998D01*
X11411966Y14205254D01*
X11413388Y14221815D01*
X11412931Y14238427D01*
X11410594Y14254886D01*
X11406327Y14270939D01*
X11400332Y14286433D01*
X11392560Y14301114D01*
X11383213Y14314830D01*
X11372291Y14327378D01*
X11360048Y14338604D01*
X11346637Y14348358D01*
X11332159Y14356537D01*
X11316868Y14362988D01*
X11300917Y14367662D01*
X11284559Y14370507D01*
X11267998Y14371472D01*
X11251387Y14370507D01*
X11238534Y14368272D01*
X11235334Y14368272D01*
X11232235Y14369237D01*
X11229644Y14371116D01*
X10643514Y14957247D01*
X10641330Y14960549D01*
X10640517Y14964410D01*
X10640517Y14985796D01*
X10640314Y14991638D01*
X10639704Y14997226D01*
X10638637Y15002763D01*
X10637164Y15008250D01*
X10635284Y15013584D01*
X10633049Y15018766D01*
X10630408Y15023744D01*
X10627410Y15028519D01*
X10624058Y15033040D01*
X10620349Y15037358D01*
X10616387Y15041321D01*
X10612120Y15045029D01*
X10607548Y15048382D01*
X10602772Y15051379D01*
X10597794Y15054021D01*
X10592612Y15056256D01*
X10587278Y15058136D01*
X10581843Y15059609D01*
X10576306Y15060625D01*
X10570667Y15061285D01*
X10564825Y15061488D01*
X10550652Y15061488D01*
X10546740Y15062250D01*
X10543438Y15064486D01*
X10541254Y15067737D01*
X10540492Y15071648D01*
X10540492Y15081757D01*
X10541254Y15085618D01*
X10543438Y15088920D01*
X10546740Y15091105D01*
X10550652Y15091918D01*
X10800232Y15091918D01*
X10804093Y15091105D01*
X10807395Y15088920D01*
X10840415Y15055900D01*
X10842040Y15053818D01*
X10843056Y15051379D01*
X10844530Y15045690D01*
X10848289Y15037714D01*
X10853318Y15030500D01*
X10859516Y15024303D01*
X10866729Y15019274D01*
X10874705Y15015514D01*
X10883188Y15013279D01*
X10892434Y15012466D01*
X10951514Y15012466D01*
X10960760Y15013279D01*
X10969599Y15015616D01*
X10972241Y15015972D01*
X11238179Y15015972D01*
X11251641Y15016835D01*
X11264544Y15019426D01*
X11276990Y15023642D01*
X11288776Y15029484D01*
X11299698Y15036749D01*
X11309858Y15045639D01*
X11325352Y15061184D01*
X11328654Y15063368D01*
X11332565Y15064181D01*
X11429644Y15064181D01*
X11443106Y15065044D01*
X11456009Y15067584D01*
X11468455Y15071851D01*
X11470792Y15072969D01*
X11474399Y15073985D01*
X11481968Y15074646D01*
X11490452Y15076932D01*
X11498427Y15080640D01*
X11505641Y15085669D01*
X11511838Y15091918D01*
X11516918Y15099131D01*
X11520627Y15107107D01*
X11522913Y15115590D01*
X11524234Y15130373D01*
X11527078Y15138654D01*
X11529618Y15151557D01*
X11530482Y15164663D01*
X11529618Y15177769D01*
X11527078Y15190673D01*
X11524234Y15198953D01*
X11522913Y15213787D01*
X11520627Y15222270D01*
X11516918Y15230246D01*
X11514175Y15234157D01*
X11512499Y15237968D01*
X11512499Y15242032D01*
X11514175Y15245842D01*
X11516918Y15249753D01*
X11520627Y15257729D01*
X11522913Y15266212D01*
X11523726Y15275458D01*
X11523726Y15355214D01*
X11522913Y15364409D01*
X11520627Y15372892D01*
X11516918Y15380868D01*
X11511838Y15388082D01*
X11505641Y15394330D01*
X11498427Y15399359D01*
X11490452Y15403068D01*
X11481968Y15405354D01*
X11472773Y15406166D01*
X11387226Y15406166D01*
X11378031Y15405354D01*
X11369548Y15403068D01*
X11361572Y15399359D01*
X11354358Y15394330D01*
X11348161Y15388082D01*
X11346129Y15385186D01*
X11343843Y15382849D01*
X11340998Y15381376D01*
X11337798Y15380868D01*
X11143894Y15380868D01*
X11133226Y15380004D01*
X11123269Y15377617D01*
X11108944Y15371775D01*
X11104676Y15372130D01*
X11100917Y15374213D01*
X11098377Y15377668D01*
X11097463Y15381833D01*
X11097463Y15416530D01*
X11096701Y15425724D01*
X11094415Y15434208D01*
X11090706Y15442184D01*
X11083239Y15452902D01*
X11082477Y15456763D01*
X11082477Y15501874D01*
X11081664Y15512542D01*
X11079226Y15522498D01*
X11075314Y15531998D01*
X11069929Y15540786D01*
X11063020Y15548914D01*
X11012627Y15599257D01*
X11010341Y15602712D01*
X11009630Y15606776D01*
X11010595Y15610738D01*
X11012627Y15615056D01*
X11014862Y15623540D01*
X11015675Y15632785D01*
X11015675Y15696844D01*
X11016488Y15700857D01*
X11018774Y15704159D01*
X11022228Y15706344D01*
X11026190Y15707004D01*
X11029340Y15706902D01*
X11041888Y15708223D01*
X11054130Y15711271D01*
X11065865Y15715996D01*
X11076787Y15722295D01*
X11086744Y15730067D01*
X11095482Y15739160D01*
X11102949Y15749371D01*
X11108842Y15760547D01*
X11113160Y15772384D01*
X11115802Y15784728D01*
X11116665Y15797326D01*
X11115802Y15809925D01*
X11113160Y15822269D01*
X11108842Y15834156D01*
X11102949Y15845282D01*
X11095482Y15855492D01*
X11086744Y15864586D01*
X11076787Y15872358D01*
X11065865Y15878657D01*
X11054130Y15883382D01*
X11041888Y15886430D01*
X11029391Y15887750D01*
X11015726Y15887242D01*
X11012373Y15887649D01*
X11009325Y15889173D01*
X11006988Y15891560D01*
X11003838Y15896082D01*
X10997641Y15902279D01*
X10990427Y15907308D01*
X10982452Y15911017D01*
X10973917Y15913303D01*
X10964722Y15914116D01*
X10879226Y15914116D01*
X10870031Y15913303D01*
X10861497Y15911017D01*
X10853521Y15907308D01*
X10846358Y15902279D01*
X10840110Y15896082D01*
X10835081Y15888868D01*
X10831372Y15880892D01*
X10829086Y15872358D01*
X10828274Y15863163D01*
X10828274Y15783407D01*
X10829086Y15774212D01*
X10831372Y15765729D01*
X10835081Y15757753D01*
X10837824Y15753791D01*
X10839450Y15750032D01*
X10839450Y15745917D01*
X10837824Y15742157D01*
X10835081Y15738195D01*
X10831372Y15730219D01*
X10829086Y15721736D01*
X10828274Y15712541D01*
X10828274Y15632785D01*
X10829086Y15623540D01*
X10831372Y15615056D01*
X10835081Y15607080D01*
X10840110Y15599867D01*
X10846358Y15593669D01*
X10854283Y15588081D01*
X10856772Y15585592D01*
X10858246Y15582392D01*
X10859668Y15577159D01*
X10861141Y15573552D01*
X10861954Y15569641D01*
X10861141Y15565780D01*
X10858957Y15562478D01*
X10855655Y15560243D01*
X10851794Y15559481D01*
X10375188Y15559481D01*
X10371480Y15560192D01*
X10368330Y15562173D01*
X10366044Y15565170D01*
X10365079Y15568777D01*
X10364724Y15572689D01*
X10362438Y15581223D01*
X10358729Y15589199D01*
X10353649Y15596362D01*
X10347452Y15602610D01*
X10340238Y15607639D01*
X10332262Y15611348D01*
X10323779Y15613634D01*
X10314584Y15614446D01*
X10215473Y15614446D01*
X10206228Y15613634D01*
X10197744Y15611348D01*
X10189768Y15607639D01*
X10182555Y15602610D01*
X10176357Y15596362D01*
X10171277Y15589199D01*
X10169194Y15584627D01*
X10166959Y15581528D01*
X10163708Y15579496D01*
X10160000Y15578785D01*
X10156240Y15579496D01*
X10152989Y15581528D01*
X10150754Y15584627D01*
X10148671Y15589199D01*
X10143591Y15596362D01*
X10137394Y15602610D01*
X10134803Y15604439D01*
X10132466Y15606674D01*
X10130993Y15609569D01*
X10130434Y15612770D01*
X10130434Y15743986D01*
X10131247Y15747847D01*
X10133431Y15751149D01*
X11026902Y16644619D01*
X11030204Y16646855D01*
X11034115Y16647617D01*
X11899747Y16647668D01*
X11908536Y16648480D01*
X11910974Y16648887D01*
X11919559Y16651020D01*
X11921845Y16651782D01*
X11932208Y16656253D01*
X11939778Y16660825D01*
X11941810Y16662247D01*
X11948617Y16667886D01*
X12344603Y17063821D01*
X12347905Y17066056D01*
X12351816Y17066818D01*
X12397130Y17066818D01*
X12397130Y17112132D01*
X12397892Y17116044D01*
X12400076Y17119346D01*
X12416180Y17135398D01*
X12418618Y17137176D01*
X12421463Y17138192D01*
X12424511Y17138294D01*
X12438075Y17136719D01*
X12453874Y17136719D01*
X12469520Y17138548D01*
X12482322Y17141545D01*
X12485979Y17141748D01*
X12489434Y17140631D01*
X12492278Y17138396D01*
X12494158Y17135246D01*
X12494818Y17131690D01*
X12494818Y17066818D01*
X12572187Y17066818D01*
X12567056Y17078756D01*
X12559182Y17092422D01*
X12549784Y17105071D01*
X12538964Y17116501D01*
X12526873Y17126661D01*
X12513716Y17135297D01*
X12509093Y17138700D01*
X12507214Y17142714D01*
X12507214Y17147184D01*
X12509093Y17151197D01*
X12513716Y17154601D01*
X12526873Y17163288D01*
X12538964Y17173397D01*
X12549784Y17184878D01*
X12559182Y17197527D01*
X12567056Y17211141D01*
X12573304Y17225619D01*
X12577826Y17240707D01*
X12580569Y17256252D01*
X12581483Y17271949D01*
X12580569Y17287697D01*
X12577826Y17303191D01*
X12573304Y17318329D01*
X12567056Y17332756D01*
X12559182Y17346422D01*
X12549784Y17359071D01*
X12538964Y17370501D01*
X12526873Y17380661D01*
X12513716Y17389297D01*
X12509093Y17392700D01*
X12507214Y17396714D01*
X12507214Y17401184D01*
X12509093Y17405197D01*
X12513716Y17408601D01*
X12526873Y17417288D01*
X12538964Y17427397D01*
X12549784Y17438878D01*
X12559182Y17451527D01*
X12567056Y17465141D01*
X12573304Y17479619D01*
X12577826Y17494707D01*
X12580569Y17510252D01*
X12581483Y17525949D01*
X12580569Y17541697D01*
X12577826Y17557191D01*
X12573304Y17572329D01*
X12567056Y17586756D01*
X12559182Y17600422D01*
X12549784Y17613071D01*
X12538964Y17624501D01*
X12526873Y17634661D01*
X12513716Y17643297D01*
X12509093Y17646700D01*
X12507214Y17650714D01*
X12507214Y17655184D01*
X12509093Y17659197D01*
X12513716Y17662601D01*
X12526873Y17671288D01*
X12538964Y17681397D01*
X12549784Y17692878D01*
X12559182Y17705527D01*
X12567056Y17719141D01*
X12573304Y17733619D01*
X12577826Y17748707D01*
X12580569Y17764252D01*
X12581483Y17779949D01*
X12580569Y17795697D01*
X12577826Y17811191D01*
X12573304Y17826329D01*
X12567056Y17840756D01*
X12559182Y17854422D01*
X12549784Y17867071D01*
X12538964Y17878501D01*
X12535357Y17881549D01*
X12532664Y17885003D01*
X12531750Y17889321D01*
X12532664Y17893588D01*
X12535357Y17897094D01*
X12539268Y17899126D01*
X12548260Y17901564D01*
X12556185Y17905272D01*
X12563398Y17910302D01*
X12569647Y17916499D01*
X12574676Y17923713D01*
X12578384Y17931688D01*
X12580670Y17940223D01*
X12581483Y17949418D01*
X12581483Y18118531D01*
X12580670Y18127726D01*
X12578384Y18136209D01*
X12574676Y18144185D01*
X12569647Y18151398D01*
X12563398Y18157647D01*
X12556185Y18162676D01*
X12548260Y18166384D01*
X12539726Y18168670D01*
X12530531Y18169483D01*
X12361418Y18169483D01*
X12352223Y18168670D01*
X12343688Y18166384D01*
X12335764Y18162676D01*
X12328550Y18157647D01*
X12322302Y18151398D01*
X12317272Y18144185D01*
X12313564Y18136209D01*
X12311278Y18127726D01*
X12310465Y18118531D01*
X12310465Y17949418D01*
X12311278Y17940223D01*
X12313564Y17931688D01*
X12317272Y17923713D01*
X12322302Y17916499D01*
X12328550Y17910302D01*
X12335764Y17905272D01*
X12343688Y17901564D01*
X12352680Y17899126D01*
X12356592Y17897094D01*
X12359284Y17893588D01*
X12360198Y17889321D01*
X12359284Y17885003D01*
X12356592Y17881549D01*
X12352985Y17878501D01*
X12342164Y17867071D01*
X12332766Y17854422D01*
X12324892Y17840756D01*
X12318644Y17826329D01*
X12314123Y17811191D01*
X12311380Y17795697D01*
X12310465Y17779949D01*
X12311380Y17764252D01*
X12312294Y17759222D01*
X12312345Y17755971D01*
X12311380Y17752872D01*
X12309449Y17750282D01*
X11989460Y17430140D01*
X11983770Y17423333D01*
X11977827Y17413782D01*
X11976709Y17411598D01*
X11973306Y17403419D01*
X11972544Y17401082D01*
X11970410Y17392497D01*
X11970004Y17390110D01*
X11969191Y17381270D01*
X11969140Y17272457D01*
X11968734Y17269663D01*
X11967616Y17267072D01*
X11964771Y17262500D01*
X11959640Y17250968D01*
X11956135Y17238827D01*
X11954408Y17226330D01*
X11954408Y17213732D01*
X11956135Y17201235D01*
X11959640Y17189094D01*
X11964771Y17177562D01*
X11971477Y17166844D01*
X11979554Y17157192D01*
X11988952Y17148759D01*
X11999417Y17141698D01*
X12010745Y17136160D01*
X12022785Y17132249D01*
X12035180Y17130064D01*
X12047829Y17129607D01*
X12060377Y17130928D01*
X12072620Y17133976D01*
X12084304Y17138700D01*
X12095276Y17145000D01*
X12105182Y17152772D01*
X12113971Y17161865D01*
X12121388Y17172076D01*
X12127331Y17183252D01*
X12131649Y17195088D01*
X12134240Y17207433D01*
X12135154Y17220031D01*
X12134240Y17232630D01*
X12131649Y17244974D01*
X12127331Y17256861D01*
X12121337Y17268037D01*
X12120473Y17270374D01*
X12120168Y17272812D01*
X12120168Y17343170D01*
X12120930Y17347082D01*
X12123115Y17350384D01*
X12293803Y17521072D01*
X12297054Y17523206D01*
X12300813Y17524018D01*
X12304623Y17523358D01*
X12307925Y17521326D01*
X12310211Y17518227D01*
X12311176Y17514468D01*
X12311380Y17510252D01*
X12314123Y17494707D01*
X12318644Y17479619D01*
X12324892Y17465141D01*
X12332766Y17451527D01*
X12342164Y17438878D01*
X12352985Y17427397D01*
X12365075Y17417288D01*
X12378232Y17408601D01*
X12382855Y17405197D01*
X12384735Y17401184D01*
X12384735Y17396714D01*
X12382855Y17392700D01*
X12378232Y17389297D01*
X12365075Y17380661D01*
X12352985Y17370501D01*
X12342164Y17359071D01*
X12332766Y17346422D01*
X12324892Y17332756D01*
X12318644Y17318329D01*
X12314123Y17303191D01*
X12311380Y17287697D01*
X12310465Y17271949D01*
X12311380Y17256252D01*
X12312294Y17251222D01*
X12312345Y17247971D01*
X12311380Y17244872D01*
X12309449Y17242282D01*
X11868810Y16801592D01*
X11865508Y16799407D01*
X11861596Y16798645D01*
X11411153Y16798645D01*
X11406733Y16799610D01*
X11403228Y16802404D01*
X11401247Y16806468D01*
X11401196Y16810990D01*
X11403126Y16815054D01*
X11406581Y16819473D01*
X11414455Y16832478D01*
X11420703Y16846346D01*
X11425224Y16860824D01*
X11427968Y16875810D01*
X11428882Y16890949D01*
X11427968Y16906138D01*
X11425224Y16921073D01*
X11420703Y16935602D01*
X11414455Y16949470D01*
X11406581Y16962475D01*
X11397234Y16974464D01*
X11386464Y16985183D01*
X11374475Y16994581D01*
X11361470Y17002455D01*
X11347551Y17008703D01*
X11344402Y17010938D01*
X11342319Y17014190D01*
X11341557Y17017949D01*
X11342319Y17021759D01*
X11344402Y17025010D01*
X11347551Y17027245D01*
X11361470Y17033494D01*
X11374475Y17041368D01*
X11386464Y17050715D01*
X11397234Y17061484D01*
X11406581Y17073473D01*
X11414455Y17086478D01*
X11420703Y17100346D01*
X11425224Y17114824D01*
X11427968Y17129810D01*
X11428882Y17144949D01*
X11427968Y17160138D01*
X11425224Y17175073D01*
X11420703Y17189602D01*
X11414455Y17203470D01*
X11406581Y17216475D01*
X11397234Y17228464D01*
X11386464Y17239183D01*
X11374475Y17248581D01*
X11361470Y17256455D01*
X11347551Y17262703D01*
X11344402Y17264938D01*
X11342319Y17268190D01*
X11341557Y17271949D01*
X11342319Y17275759D01*
X11344402Y17279010D01*
X11347551Y17281245D01*
X11361470Y17287494D01*
X11374475Y17295368D01*
X11386464Y17304715D01*
X11397234Y17315484D01*
X11406581Y17327473D01*
X11414455Y17340478D01*
X11420703Y17354346D01*
X11425224Y17368824D01*
X11427968Y17383810D01*
X11428882Y17398949D01*
X11427968Y17414138D01*
X11425224Y17429073D01*
X11420703Y17443602D01*
X11414455Y17457470D01*
X11406581Y17470475D01*
X11397234Y17482464D01*
X11386464Y17493183D01*
X11374475Y17502581D01*
X11361470Y17510455D01*
X11347551Y17516703D01*
X11344402Y17518938D01*
X11342319Y17522190D01*
X11341557Y17525949D01*
X11342319Y17529759D01*
X11344402Y17533010D01*
X11347551Y17535245D01*
X11361470Y17541494D01*
X11374475Y17549368D01*
X11386464Y17558715D01*
X11397234Y17569484D01*
X11406581Y17581473D01*
X11414455Y17594478D01*
X11420703Y17608346D01*
X11425224Y17622824D01*
X11427968Y17637810D01*
X11428882Y17652949D01*
X11427968Y17668138D01*
X11425224Y17683073D01*
X11420703Y17697602D01*
X11414455Y17711470D01*
X11406581Y17724475D01*
X11397234Y17736464D01*
X11386464Y17747183D01*
X11374475Y17756581D01*
X11361470Y17764455D01*
X11347551Y17770703D01*
X11344402Y17772938D01*
X11342319Y17776190D01*
X11341557Y17779949D01*
X11342319Y17783759D01*
X11344402Y17787010D01*
X11347551Y17789245D01*
X11361470Y17795494D01*
X11374475Y17803368D01*
X11386464Y17812715D01*
X11397234Y17823484D01*
X11406581Y17835473D01*
X11414455Y17848478D01*
X11420703Y17862346D01*
X11425224Y17876824D01*
X11427968Y17891810D01*
X11428882Y17906949D01*
X11427968Y17922138D01*
X11425224Y17937073D01*
X11420703Y17951602D01*
X11414455Y17965470D01*
X11406581Y17978475D01*
X11397234Y17990464D01*
X11386464Y18001183D01*
X11374475Y18010581D01*
X11361470Y18018455D01*
X11347551Y18024703D01*
X11344402Y18026938D01*
X11342319Y18030190D01*
X11341557Y18033949D01*
X11342319Y18037759D01*
X11344402Y18041010D01*
X11347551Y18043245D01*
X11361470Y18049494D01*
X11374475Y18057368D01*
X11386464Y18066715D01*
X11397234Y18077484D01*
X11406581Y18089473D01*
X11414455Y18102478D01*
X11420703Y18116346D01*
X11425224Y18130824D01*
X11427968Y18145810D01*
X11428882Y18160949D01*
X11427968Y18176138D01*
X11425224Y18191073D01*
X11420703Y18205602D01*
X11414455Y18219470D01*
X11406581Y18232475D01*
X11397234Y18244464D01*
X11386464Y18255183D01*
X11374475Y18264581D01*
X11361470Y18272455D01*
X11347551Y18278703D01*
X11344402Y18280938D01*
X11342319Y18284190D01*
X11341557Y18287949D01*
X11342319Y18291759D01*
X11344402Y18295010D01*
X11347551Y18297245D01*
X11361470Y18303494D01*
X11374475Y18311368D01*
X11386464Y18320715D01*
X11397234Y18331484D01*
X11406581Y18343473D01*
X11414455Y18356478D01*
X11420703Y18370346D01*
X11425224Y18384824D01*
X11427968Y18399810D01*
X11428882Y18414949D01*
X11427968Y18430138D01*
X11425224Y18445073D01*
X11420703Y18459602D01*
X11414455Y18473470D01*
X11406581Y18486475D01*
X11397234Y18498464D01*
X11386464Y18509183D01*
X11374475Y18518581D01*
X11361470Y18526455D01*
X11347551Y18532703D01*
X11344402Y18534938D01*
X11342319Y18538190D01*
X11341557Y18541949D01*
X11342319Y18545759D01*
X11344402Y18549010D01*
X11347551Y18551245D01*
X11361470Y18557494D01*
X11374475Y18565368D01*
X11386464Y18574715D01*
X11397234Y18585484D01*
X11406581Y18597473D01*
X11414455Y18610478D01*
X11420703Y18624346D01*
X11425224Y18638824D01*
X11427968Y18653810D01*
X11428882Y18668949D01*
X11427968Y18684138D01*
X11425224Y18699073D01*
X11420703Y18713602D01*
X11414455Y18727470D01*
X11412372Y18730925D01*
X11410950Y18734989D01*
X11411356Y18739205D01*
X11413439Y18742914D01*
X11416893Y18745454D01*
X11421059Y18746368D01*
X11955424Y18746368D01*
X11966092Y18747181D01*
X11976049Y18749568D01*
X11985548Y18753531D01*
X11994337Y18758865D01*
X12002414Y18765824D01*
X12170968Y18934379D01*
X12174677Y18936716D01*
X12179046Y18937274D01*
X12183211Y18935954D01*
X12186462Y18933007D01*
X12190323Y18927521D01*
X12196521Y18921323D01*
X12203734Y18916243D01*
X12211710Y18912535D01*
X12220194Y18910249D01*
X12229439Y18909436D01*
X12408509Y18909436D01*
X12417755Y18910249D01*
X12426238Y18912535D01*
X12434214Y18916243D01*
X12441428Y18921323D01*
X12447625Y18927521D01*
X12452705Y18934734D01*
X12456414Y18942710D01*
X12457226Y18945809D01*
X12459106Y18949517D01*
X12462357Y18952159D01*
X12466421Y18953276D01*
X12470587Y18952667D01*
X12474143Y18950432D01*
X12480950Y18943777D01*
X12493650Y18933972D01*
X12507417Y18925692D01*
X12521996Y18919037D01*
X12537236Y18914110D01*
X12552984Y18910909D01*
X12568986Y18909538D01*
X12584988Y18909995D01*
X12600889Y18912281D01*
X12616383Y18916345D01*
X12631318Y18922187D01*
X12645542Y18929654D01*
X12658750Y18938697D01*
X12670891Y18949212D01*
X12681712Y18961049D01*
X12691160Y18974003D01*
X12699034Y18987973D01*
X12705283Y19002756D01*
X12709804Y19018148D01*
X12712547Y19033947D01*
X12713462Y19049949D01*
X12712547Y19065951D01*
X12709804Y19081800D01*
X12705283Y19097193D01*
X12699034Y19111925D01*
X12691160Y19125895D01*
X12681712Y19138900D01*
X12670891Y19150736D01*
X12658750Y19161201D01*
X12647980Y19168567D01*
X12645237Y19171361D01*
X12643764Y19175018D01*
X12643764Y19178930D01*
X12645237Y19182537D01*
X12647980Y19185331D01*
X12658750Y19192697D01*
X12670891Y19203212D01*
X12681712Y19215049D01*
X12691160Y19228003D01*
X12699034Y19241973D01*
X12705283Y19256756D01*
X12709804Y19272148D01*
X12712547Y19287947D01*
X12713462Y19303949D01*
X12712547Y19319951D01*
X12709804Y19335800D01*
X12705283Y19351193D01*
X12699034Y19365925D01*
X12691160Y19379895D01*
X12681712Y19392900D01*
X12670891Y19404736D01*
X12658750Y19415201D01*
X12645542Y19424294D01*
X12631318Y19431762D01*
X12616383Y19437553D01*
X12600889Y19441668D01*
X12584988Y19443954D01*
X12568986Y19444411D01*
X12552984Y19443039D01*
X12537236Y19439839D01*
X12521996Y19434860D01*
X12507417Y19428206D01*
X12493650Y19419925D01*
X12480950Y19410121D01*
X12474143Y19403466D01*
X12470587Y19401231D01*
X12466421Y19400621D01*
X12462357Y19401739D01*
X12459106Y19404380D01*
X12457226Y19408140D01*
X12456414Y19411238D01*
X12452705Y19419214D01*
X12447625Y19426377D01*
X12441428Y19432625D01*
X12434214Y19437654D01*
X12426238Y19441363D01*
X12417755Y19443649D01*
X12408509Y19444462D01*
X12229439Y19444462D01*
X12220194Y19443649D01*
X12211710Y19441363D01*
X12203734Y19437654D01*
X12196521Y19432625D01*
X12190323Y19426377D01*
X12185243Y19419214D01*
X12181535Y19411238D01*
X12179249Y19402704D01*
X12178487Y19393509D01*
X12178487Y19374967D01*
X12177674Y19371106D01*
X12175490Y19367804D01*
X12172188Y19365620D01*
X12164212Y19362318D01*
X12155424Y19356933D01*
X12147346Y19349974D01*
X11899392Y19102070D01*
X11896090Y19099834D01*
X11892229Y19099072D01*
X11420754Y19099072D01*
X11416588Y19099987D01*
X11413134Y19102527D01*
X11411051Y19106235D01*
X11410645Y19110452D01*
X11412067Y19114516D01*
X11414455Y19118478D01*
X11420856Y19132905D01*
X11347043Y19132905D01*
X11347043Y19109232D01*
X11346281Y19105372D01*
X11344046Y19102070D01*
X11340744Y19099834D01*
X11336883Y19099072D01*
X11269065Y19099072D01*
X11265204Y19099834D01*
X11261902Y19102070D01*
X11259718Y19105372D01*
X11258905Y19109232D01*
X11258905Y19132905D01*
X11189868Y19132905D01*
X11186007Y19133667D01*
X11182705Y19135902D01*
X11175085Y19143522D01*
X11173155Y19146164D01*
X11172190Y19149314D01*
X11172240Y19152565D01*
X11173968Y19161810D01*
X11174882Y19176949D01*
X11173968Y19192138D01*
X11171224Y19207073D01*
X11170564Y19211594D01*
X11171529Y19215252D01*
X11172190Y19216268D01*
X11168938Y19218402D01*
X11166703Y19221551D01*
X11160455Y19235470D01*
X11152581Y19248475D01*
X11143234Y19260464D01*
X11132464Y19271183D01*
X11120475Y19280581D01*
X11107470Y19288455D01*
X11093602Y19294652D01*
X11079124Y19299174D01*
X11064138Y19301917D01*
X11049000Y19302831D01*
X11033810Y19301917D01*
X11018875Y19299174D01*
X11004346Y19294652D01*
X10990478Y19288455D01*
X10977473Y19280581D01*
X10965484Y19271183D01*
X10954766Y19260464D01*
X10945368Y19248475D01*
X10937494Y19235470D01*
X10931296Y19221602D01*
X10926724Y19207073D01*
X10924032Y19192138D01*
X10923066Y19176949D01*
X10924032Y19161810D01*
X10926724Y19146824D01*
X10931296Y19132346D01*
X10937494Y19118478D01*
X10945368Y19105473D01*
X10954766Y19093484D01*
X10965484Y19082715D01*
X10977473Y19073368D01*
X10990478Y19065494D01*
X11004397Y19059245D01*
X11007547Y19057010D01*
X11009630Y19053759D01*
X11010392Y19049949D01*
X11009630Y19046190D01*
X11007547Y19042938D01*
X11004397Y19040703D01*
X10990478Y19034455D01*
X10977473Y19026581D01*
X10965484Y19017183D01*
X10954766Y19006464D01*
X10945368Y18994475D01*
X10937494Y18981470D01*
X10931296Y18967602D01*
X10926724Y18953073D01*
X10924032Y18938138D01*
X10923066Y18922949D01*
X10924032Y18907810D01*
X10926724Y18892824D01*
X10931296Y18878346D01*
X10937494Y18864478D01*
X10945368Y18851473D01*
X10954766Y18839484D01*
X10965484Y18828715D01*
X10977473Y18819368D01*
X10990478Y18811494D01*
X11004397Y18805245D01*
X11007547Y18803010D01*
X11009630Y18799759D01*
X11010392Y18795949D01*
X11009630Y18792190D01*
X11007547Y18788938D01*
X11004397Y18786703D01*
X10990478Y18780455D01*
X10977473Y18772581D01*
X10965484Y18763183D01*
X10954766Y18752464D01*
X10945368Y18740475D01*
X10937494Y18727470D01*
X10931296Y18713602D01*
X10926724Y18699073D01*
X10924032Y18684138D01*
X10923066Y18668949D01*
X10924032Y18653810D01*
X10926724Y18638824D01*
X10931296Y18624346D01*
X10932414Y18621806D01*
X10933277Y18617895D01*
X10932566Y18613932D01*
X10930382Y18610529D01*
X10927080Y18608294D01*
X10923117Y18607481D01*
X9543643Y18607481D01*
X9532975Y18606668D01*
X9523018Y18604230D01*
X9513519Y18600318D01*
X9504730Y18594933D01*
X9496653Y18588024D01*
X9011056Y18102478D01*
X9007805Y18100243D01*
X9003893Y18099481D01*
X8888831Y18099481D01*
X8884869Y18100294D01*
X8881567Y18102529D01*
X8879382Y18105932D01*
X8878671Y18109895D01*
X8879586Y18113806D01*
X8880703Y18116346D01*
X8885224Y18130824D01*
X8887968Y18145810D01*
X8888882Y18160949D01*
X8887968Y18176138D01*
X8885224Y18191073D01*
X8880703Y18205602D01*
X8874455Y18219470D01*
X8866581Y18232475D01*
X8857234Y18244464D01*
X8846464Y18255183D01*
X8834475Y18264581D01*
X8821470Y18272455D01*
X8807551Y18278703D01*
X8804402Y18280938D01*
X8802319Y18284190D01*
X8801557Y18287949D01*
X8802319Y18291759D01*
X8804402Y18295010D01*
X8807551Y18297245D01*
X8821470Y18303494D01*
X8834475Y18311368D01*
X8846464Y18320715D01*
X8857234Y18331484D01*
X8866581Y18343473D01*
X8874455Y18356478D01*
X8880703Y18370346D01*
X8885224Y18384824D01*
X8887968Y18399810D01*
X8888882Y18414949D01*
X8887968Y18430138D01*
X8885224Y18445073D01*
X8880703Y18459602D01*
X8874455Y18473470D01*
X8866581Y18486475D01*
X8857234Y18498464D01*
X8846464Y18509183D01*
X8834475Y18518581D01*
X8821470Y18526455D01*
X8807551Y18532703D01*
X8804402Y18534938D01*
X8802319Y18538190D01*
X8801557Y18541949D01*
X8802319Y18545759D01*
X8804402Y18549010D01*
X8807551Y18551245D01*
X8821470Y18557494D01*
X8834475Y18565368D01*
X8846464Y18574715D01*
X8857234Y18585484D01*
X8866581Y18597473D01*
X8874455Y18610478D01*
X8880703Y18624346D01*
X8885224Y18638824D01*
X8887968Y18653810D01*
X8888882Y18668949D01*
X8887968Y18684138D01*
X8885224Y18699073D01*
X8880703Y18713602D01*
X8874455Y18727470D01*
X8866581Y18740475D01*
X8857234Y18752464D01*
X8846464Y18763183D01*
X8834475Y18772581D01*
X8821470Y18780455D01*
X8807551Y18786703D01*
X8804402Y18788938D01*
X8802319Y18792190D01*
X8801557Y18795949D01*
X8802319Y18799759D01*
X8804402Y18803010D01*
X8807551Y18805245D01*
X8821470Y18811494D01*
X8834475Y18819368D01*
X8846464Y18828715D01*
X8857234Y18839484D01*
X8866581Y18851473D01*
X8874455Y18864478D01*
X8880703Y18878346D01*
X8885224Y18892824D01*
X8887968Y18907810D01*
X8888882Y18922949D01*
X8887968Y18938138D01*
X8885224Y18953073D01*
X8880703Y18967602D01*
X8874455Y18981470D01*
X8866581Y18994475D01*
X8857234Y19006464D01*
X8846464Y19017183D01*
X8834475Y19026581D01*
X8821470Y19034455D01*
X8807551Y19040703D01*
X8804402Y19042938D01*
X8802319Y19046190D01*
X8801557Y19049949D01*
X8802319Y19053759D01*
X8804402Y19057010D01*
X8807551Y19059245D01*
X8821470Y19065494D01*
X8834475Y19073368D01*
X8846464Y19082715D01*
X8857234Y19093484D01*
X8866581Y19105473D01*
X8874455Y19118478D01*
X8880703Y19132346D01*
X8885224Y19146824D01*
X8887968Y19161810D01*
X8888882Y19176949D01*
X8887968Y19192138D01*
X8885224Y19207073D01*
X8880703Y19221602D01*
X8874455Y19235470D01*
X8866581Y19248475D01*
X8857234Y19260464D01*
X8846464Y19271183D01*
X8834475Y19280581D01*
X8821470Y19288455D01*
X8807602Y19294652D01*
X8793124Y19299174D01*
X8778138Y19301917D01*
X8763000Y19302831D01*
X8747810Y19301917D01*
X8732875Y19299174D01*
X8718346Y19294652D01*
X8704478Y19288455D01*
X8691473Y19280581D01*
X8679484Y19271183D01*
X8668766Y19260464D01*
X8659368Y19248475D01*
X8651494Y19235470D01*
X8645245Y19221551D01*
X8643010Y19218402D01*
X8639708Y19216268D01*
X8640419Y19215252D01*
X8641435Y19211594D01*
X8638032Y19192138D01*
X8637066Y19176949D01*
X8638032Y19161810D01*
X8641435Y19142354D01*
X8640419Y19138696D01*
X8639759Y19137630D01*
X8643010Y19135547D01*
X8645245Y19132397D01*
X8651494Y19118478D01*
X8659368Y19105473D01*
X8668766Y19093484D01*
X8679484Y19082715D01*
X8691473Y19073368D01*
X8704478Y19065494D01*
X8718397Y19059245D01*
X8721547Y19057010D01*
X8723630Y19053759D01*
X8724392Y19049949D01*
X8723630Y19046190D01*
X8721547Y19042938D01*
X8718397Y19040703D01*
X8704478Y19034455D01*
X8691473Y19026581D01*
X8679484Y19017183D01*
X8668766Y19006464D01*
X8659368Y18994475D01*
X8651494Y18981470D01*
X8645245Y18967551D01*
X8643010Y18964402D01*
X8639759Y18962268D01*
X8636000Y18961557D01*
X8632190Y18962268D01*
X8628938Y18964402D01*
X8626703Y18967551D01*
X8620455Y18981470D01*
X8612581Y18994475D01*
X8603234Y19006464D01*
X8592464Y19017183D01*
X8580475Y19026581D01*
X8567470Y19034455D01*
X8553551Y19040703D01*
X8550402Y19042938D01*
X8548268Y19046240D01*
X8547252Y19045478D01*
X8543594Y19044513D01*
X8524138Y19047917D01*
X8509000Y19048831D01*
X8493810Y19047917D01*
X8478875Y19045174D01*
X8474354Y19044513D01*
X8470696Y19045478D01*
X8469630Y19046190D01*
X8467547Y19042938D01*
X8464397Y19040703D01*
X8450478Y19034455D01*
X8437473Y19026581D01*
X8425484Y19017183D01*
X8414766Y19006464D01*
X8405368Y18994475D01*
X8397494Y18981470D01*
X8391296Y18967602D01*
X8386724Y18953073D01*
X8384031Y18938138D01*
X8383066Y18922949D01*
X8384031Y18907810D01*
X8386724Y18892824D01*
X8391296Y18878346D01*
X8397494Y18864478D01*
X8405368Y18851473D01*
X8414766Y18839484D01*
X8425484Y18828715D01*
X8437473Y18819368D01*
X8450478Y18811494D01*
X8464397Y18805245D01*
X8467547Y18803010D01*
X8469630Y18799759D01*
X8470392Y18795949D01*
X8469630Y18792190D01*
X8467547Y18788938D01*
X8464397Y18786703D01*
X8450478Y18780455D01*
X8437473Y18772581D01*
X8425484Y18763183D01*
X8414766Y18752464D01*
X8405368Y18740475D01*
X8397494Y18727470D01*
X8391296Y18713602D01*
X8386724Y18699073D01*
X8384031Y18684138D01*
X8383066Y18668949D01*
X8384031Y18653810D01*
X8386724Y18638824D01*
X8391296Y18624346D01*
X8397494Y18610478D01*
X8405368Y18597473D01*
X8414766Y18585484D01*
X8425484Y18574715D01*
X8437473Y18565368D01*
X8450478Y18557494D01*
X8464397Y18551245D01*
X8467547Y18549010D01*
X8469630Y18545759D01*
X8470392Y18541949D01*
X8469630Y18538190D01*
X8467547Y18534938D01*
X8464397Y18532703D01*
X8450478Y18526455D01*
X8437473Y18518581D01*
X8425484Y18509183D01*
X8414766Y18498464D01*
X8405368Y18486475D01*
X8397494Y18473470D01*
X8391296Y18459602D01*
X8386724Y18445073D01*
X8384031Y18430138D01*
X8383066Y18414949D01*
X8384031Y18399810D01*
X8386724Y18384824D01*
X8391296Y18370346D01*
X8397494Y18356478D01*
X8405368Y18343473D01*
X8414766Y18331484D01*
X8425484Y18320715D01*
X8437473Y18311368D01*
X8450478Y18303494D01*
X8464397Y18297245D01*
X8467547Y18295010D01*
X8469630Y18291759D01*
X8470392Y18287949D01*
X8469630Y18284190D01*
X8467547Y18280938D01*
X8464397Y18278703D01*
X8450478Y18272455D01*
X8437473Y18264581D01*
X8425484Y18255183D01*
X8414766Y18244464D01*
X8405368Y18232475D01*
X8397951Y18220182D01*
X8395665Y18217591D01*
X8392668Y18215864D01*
X8389264Y18215305D01*
X7124903Y18215305D01*
X7114235Y18214441D01*
X7104278Y18212054D01*
X7094778Y18208142D01*
X7085990Y18202757D01*
X7077913Y18195798D01*
X7006691Y18124627D01*
X7003237Y18122341D01*
X6999224Y18121630D01*
X6995210Y18122595D01*
X6990892Y18124576D01*
X6982409Y18126862D01*
X6973214Y18127675D01*
X6893407Y18127675D01*
X6884212Y18126862D01*
X6875729Y18124576D01*
X6867753Y18120868D01*
X6863791Y18118124D01*
X6860031Y18116499D01*
X6855917Y18116499D01*
X6852158Y18118124D01*
X6848195Y18121680D01*
X6846722Y18125033D01*
X6844944Y18132450D01*
X6840981Y18141950D01*
X6835648Y18150687D01*
X6830923Y18156174D01*
X6829145Y18159272D01*
X6828536Y18162778D01*
X6828536Y18325185D01*
X6829298Y18329097D01*
X6836714Y18339765D01*
X6840423Y18347740D01*
X6842709Y18356224D01*
X6843471Y18365419D01*
X6843471Y18463768D01*
X6844284Y18467679D01*
X6846468Y18470981D01*
X6849770Y18473166D01*
X6853631Y18473928D01*
X6862318Y18473928D01*
X6866229Y18473166D01*
X6869480Y18470981D01*
X6871716Y18467679D01*
X6872478Y18463768D01*
X6872478Y18451576D01*
X6931659Y18451576D01*
X6931659Y18463768D01*
X6932422Y18467679D01*
X6934606Y18470981D01*
X6937908Y18473166D01*
X6941820Y18473928D01*
X6964172Y18473928D01*
X6968083Y18473166D01*
X6971385Y18470981D01*
X6973570Y18467679D01*
X6974331Y18463768D01*
X6974331Y18451576D01*
X7033514Y18451576D01*
X7033514Y18463768D01*
X7034275Y18467679D01*
X7036460Y18470981D01*
X7039762Y18473166D01*
X7043674Y18473928D01*
X7434325Y18473928D01*
X7438186Y18473166D01*
X7441488Y18470981D01*
X7443724Y18467679D01*
X7444486Y18463768D01*
X7444486Y18365419D01*
X7445298Y18356224D01*
X7447584Y18347740D01*
X7451293Y18339765D01*
X7456322Y18332551D01*
X7462570Y18326303D01*
X7469733Y18321274D01*
X7477709Y18317565D01*
X7486243Y18315279D01*
X7495438Y18314466D01*
X7554518Y18314466D01*
X7563764Y18315279D01*
X7572248Y18317565D01*
X7580223Y18321274D01*
X7587437Y18326303D01*
X7593634Y18332551D01*
X7598714Y18339765D01*
X7602423Y18347740D01*
X7604709Y18356224D01*
X7605471Y18365419D01*
X7605471Y18471540D01*
X7604709Y18480735D01*
X7602423Y18489218D01*
X7598714Y18497194D01*
X7591044Y18507913D01*
X7590129Y18511367D01*
X7589672Y18517260D01*
X7587284Y18527268D01*
X7583373Y18536767D01*
X7577429Y18546318D01*
X7576007Y18550534D01*
X7576515Y18554954D01*
X7578852Y18558764D01*
X7582560Y18561151D01*
X7586980Y18561761D01*
X7590434Y18561456D01*
X7649565Y18561456D01*
X7658760Y18562269D01*
X7667244Y18564555D01*
X7675219Y18568263D01*
X7682433Y18573292D01*
X7688630Y18579541D01*
X7693710Y18586754D01*
X7697419Y18594730D01*
X7699705Y18603214D01*
X7700518Y18612408D01*
X7700518Y18718530D01*
X7699705Y18727724D01*
X7697419Y18736259D01*
X7693710Y18744234D01*
X7686294Y18754902D01*
X7685531Y18758763D01*
X7685531Y18883274D01*
X7686040Y18886474D01*
X7687513Y18889319D01*
X7689850Y18891605D01*
X7695641Y18895669D01*
X7701838Y18901867D01*
X7706918Y18909080D01*
X7710627Y18917056D01*
X7712913Y18925540D01*
X7713675Y18934734D01*
X7713675Y19014541D01*
X7712913Y19023736D01*
X7710627Y19032220D01*
X7706918Y19040195D01*
X7704124Y19044158D01*
X7702499Y19047917D01*
X7702499Y19052032D01*
X7704124Y19055791D01*
X7706918Y19059702D01*
X7710627Y19067678D01*
X7712913Y19076212D01*
X7713675Y19085407D01*
X7713675Y19165163D01*
X7712913Y19174358D01*
X7710627Y19182892D01*
X7706918Y19190868D01*
X7701838Y19198031D01*
X7695641Y19204279D01*
X7689850Y19208343D01*
X7687513Y19210578D01*
X7686040Y19213474D01*
X7685531Y19216624D01*
X7685531Y19324777D01*
X7686040Y19327977D01*
X7687513Y19330822D01*
X7689799Y19333057D01*
X7695539Y19337121D01*
X7706512Y19347129D01*
X7716164Y19358406D01*
X7724343Y19370751D01*
X7730947Y19384010D01*
X7735874Y19398030D01*
X7739075Y19412508D01*
X7740446Y19427291D01*
X7739989Y19442125D01*
X7737703Y19456755D01*
X7733639Y19471030D01*
X7727848Y19484695D01*
X7720431Y19497548D01*
X7711490Y19509384D01*
X7701178Y19520052D01*
X7689596Y19529348D01*
X7676997Y19537172D01*
X7663535Y19543369D01*
X7644536Y19549516D01*
X7641691Y19552208D01*
X7640116Y19555815D01*
X7640015Y19559727D01*
X7641336Y19563384D01*
X7643977Y19566280D01*
X7647533Y19567906D01*
X7656525Y19570192D01*
X7670342Y19575526D01*
X7683449Y19582536D01*
X7695539Y19591121D01*
X7706512Y19601129D01*
X7716164Y19612406D01*
X7724343Y19624751D01*
X7730947Y19638010D01*
X7735874Y19652030D01*
X7739075Y19666508D01*
X7740446Y19681291D01*
X7739989Y19696125D01*
X7737703Y19710755D01*
X7733639Y19725030D01*
X7727848Y19738695D01*
X7720431Y19751548D01*
X7711490Y19763384D01*
X7701178Y19774052D01*
X7689596Y19783348D01*
X7676997Y19791172D01*
X7663535Y19797369D01*
X7649413Y19801840D01*
X7634782Y19804583D01*
X7620000Y19805497D01*
X7605217Y19804583D01*
X7590586Y19801840D01*
X7576464Y19797369D01*
X7563002Y19791172D01*
X7550403Y19783348D01*
X7538821Y19774052D01*
X7528712Y19763587D01*
X7525359Y19761301D01*
X7521397Y19760539D01*
X6956602Y19760539D01*
X6952640Y19761301D01*
X6949287Y19763587D01*
X6939178Y19774052D01*
X6927596Y19783348D01*
X6914997Y19791172D01*
X6901535Y19797369D01*
X6887413Y19801840D01*
X6872782Y19804583D01*
X6858000Y19805497D01*
X6843217Y19804583D01*
X6828586Y19801840D01*
X6814464Y19797369D01*
X6801002Y19791172D01*
X6788403Y19783348D01*
X6776821Y19774052D01*
X6766509Y19763384D01*
X6757568Y19751548D01*
X6750151Y19738695D01*
X6744360Y19725030D01*
X6740296Y19710755D01*
X6738010Y19696125D01*
X6737553Y19681291D01*
X6737959Y19676973D01*
X6737400Y19672554D01*
X6735013Y19668845D01*
X6539687Y19473519D01*
X6536435Y19471284D01*
X6532524Y19470522D01*
X6133185Y19470522D01*
X6127343Y19470319D01*
X6121704Y19469658D01*
X6116167Y19468642D01*
X6110732Y19467169D01*
X6105398Y19465290D01*
X6100216Y19463054D01*
X6095238Y19460413D01*
X6090462Y19457416D01*
X6085890Y19454063D01*
X6081623Y19450354D01*
X6077661Y19446392D01*
X6073952Y19442074D01*
X6070600Y19437553D01*
X6067602Y19432778D01*
X6064961Y19427799D01*
X6062726Y19422618D01*
X6060846Y19417284D01*
X6059373Y19411797D01*
X6058306Y19406260D01*
X6057696Y19400672D01*
X6057493Y19394830D01*
X6057493Y19380606D01*
X6056680Y19376745D01*
X6054496Y19373443D01*
X6051194Y19371259D01*
X6047333Y19370446D01*
X5988405Y19370446D01*
X5979210Y19369684D01*
X5970727Y19367398D01*
X5962751Y19363690D01*
X5955538Y19358610D01*
X5949340Y19352412D01*
X5944260Y19345198D01*
X5940552Y19337223D01*
X5938266Y19328739D01*
X5937453Y19319494D01*
X5937453Y18780404D01*
X5938266Y18771209D01*
X5940552Y18762726D01*
X5944260Y18754750D01*
X5949340Y18747536D01*
X5955538Y18741288D01*
X5962751Y18736259D01*
X5970727Y18732550D01*
X5979210Y18730264D01*
X5988405Y18729452D01*
X6026200Y18729452D01*
X6030112Y18728690D01*
X6033363Y18726454D01*
X6035598Y18723203D01*
X6036360Y18719292D01*
X6035598Y18715431D01*
X6033363Y18712129D01*
X5929985Y18608751D01*
X5926734Y18606516D01*
X5922822Y18605754D01*
X5133035Y18605754D01*
X5128818Y18606668D01*
X5125313Y18609310D01*
X5123281Y18613170D01*
X5123027Y18617488D01*
X5124602Y18621552D01*
X5130038Y18629680D01*
X5135829Y18641466D01*
X5140045Y18653912D01*
X5142636Y18666764D01*
X5143500Y18680226D01*
X5143500Y18719292D01*
X5144262Y18723203D01*
X5146497Y18726454D01*
X5149748Y18728690D01*
X5153660Y18729452D01*
X5187543Y18729452D01*
X5196738Y18730264D01*
X5205222Y18732550D01*
X5213197Y18736259D01*
X5220411Y18741288D01*
X5226608Y18747536D01*
X5231688Y18754750D01*
X5235397Y18762726D01*
X5237683Y18771209D01*
X5238496Y18780404D01*
X5238496Y19319494D01*
X5237683Y19328739D01*
X5235397Y19337223D01*
X5231688Y19345198D01*
X5226608Y19352412D01*
X5220411Y19358610D01*
X5213197Y19363690D01*
X5205222Y19367398D01*
X5196738Y19369684D01*
X5187543Y19370446D01*
X4898440Y19370446D01*
X4889195Y19369684D01*
X4880711Y19367398D01*
X4872736Y19363690D01*
X4865522Y19358610D01*
X4859324Y19352412D01*
X4854244Y19345198D01*
X4850536Y19337223D01*
X4848250Y19328739D01*
X4847488Y19319494D01*
X4847488Y18790564D01*
X4846675Y18786703D01*
X4844491Y18783401D01*
X4841189Y18781166D01*
X4837328Y18780404D01*
X3764787Y18780404D01*
X3751326Y18779540D01*
X3738473Y18776950D01*
X3726027Y18772733D01*
X3714191Y18766942D01*
X3703269Y18759627D01*
X3693160Y18750737D01*
X3601161Y18658738D01*
X3597859Y18656554D01*
X3593998Y18655792D01*
X2973730Y18655792D01*
X2960268Y18654877D01*
X2947365Y18652337D01*
X2934919Y18648121D01*
X2925622Y18643498D01*
X2921101Y18642482D01*
X2919730Y18642482D01*
X2915412Y18643396D01*
X2911906Y18646089D01*
X2909874Y18650000D01*
X2907436Y18659246D01*
X2903728Y18667171D01*
X2898648Y18674384D01*
X2892450Y18680633D01*
X2885236Y18685662D01*
X2877261Y18689370D01*
X2868777Y18691656D01*
X2859582Y18692469D01*
X2660446Y18692469D01*
X2651252Y18691656D01*
X2642717Y18689370D01*
X2634792Y18685662D01*
X2627579Y18680633D01*
X2621330Y18674384D01*
X2616301Y18667171D01*
X2612593Y18659246D01*
X2610307Y18650712D01*
X2609494Y18641517D01*
X2609494Y18442381D01*
X2610307Y18433186D01*
X2612593Y18424702D01*
X2616301Y18416727D01*
X2621330Y18409513D01*
X2627579Y18403316D01*
X2634792Y18398236D01*
X2642717Y18394527D01*
X2651252Y18392241D01*
X2660446Y18391428D01*
X2859582Y18391428D01*
X2868777Y18392241D01*
X2877261Y18394527D01*
X2885236Y18398236D01*
X2892450Y18403316D01*
X2898648Y18409513D01*
X2903728Y18416727D01*
X2907436Y18424702D01*
X2909874Y18433897D01*
X2911906Y18437809D01*
X2915412Y18440501D01*
X2919730Y18441466D01*
X2959709Y18441466D01*
X2973171Y18442330D01*
X2986074Y18444870D01*
X2998520Y18449137D01*
X3007817Y18453709D01*
X3012338Y18454776D01*
X3351479Y18454776D01*
X3355340Y18453963D01*
X3358642Y18451779D01*
X3360877Y18448477D01*
X3361639Y18444616D01*
X3361639Y18135650D01*
X3362451Y18126405D01*
X3364687Y18117921D01*
X3368192Y18110504D01*
X3369157Y18106186D01*
X3369157Y18080990D01*
X3368344Y18077078D01*
X3366160Y18073776D01*
X2534056Y17241672D01*
X2530754Y17239488D01*
X2526842Y17238675D01*
X2522982Y17239488D01*
X2519680Y17241672D01*
X2355037Y17406315D01*
X2344877Y17415205D01*
X2333955Y17422520D01*
X2322169Y17428311D01*
X2309723Y17432578D01*
X2296820Y17435118D01*
X2283358Y17435982D01*
X2054707Y17435982D01*
X2041245Y17435118D01*
X2028342Y17432578D01*
X2015896Y17428311D01*
X2004110Y17422520D01*
X1993188Y17415205D01*
X1983028Y17406315D01*
X1639620Y17062907D01*
X1630730Y17052747D01*
X1623415Y17041825D01*
X1617624Y17030039D01*
X1613357Y17017593D01*
X1610817Y17004690D01*
X1609953Y16991228D01*
X1609953Y16905325D01*
X1609140Y16901414D01*
X1606956Y16898112D01*
X1603654Y16895927D01*
X1599793Y16895165D01*
X1521917Y16895165D01*
X1521917Y16814241D01*
X1521104Y16810380D01*
X1518920Y16807078D01*
X1490421Y16778579D01*
X1487119Y16776395D01*
X1483258Y16775582D01*
X1444345Y16775582D01*
X1440484Y16776395D01*
X1437182Y16778579D01*
X1434947Y16781881D01*
X1434185Y16785742D01*
X1434185Y16895165D01*
X1380693Y16895165D01*
X1376781Y16895927D01*
X1373479Y16898112D01*
X1371295Y16901414D01*
X1370533Y16905325D01*
X1370533Y17087697D01*
X1371295Y17091558D01*
X1373479Y17094860D01*
X1376781Y17097095D01*
X1380693Y17097857D01*
X1434185Y17097857D01*
X1434185Y17229023D01*
X1419707Y17222622D01*
X1406753Y17214799D01*
X1394815Y17205452D01*
X1387856Y17198441D01*
X1384554Y17196257D01*
X1380693Y17195495D01*
X1376781Y17196257D01*
X1373479Y17198441D01*
X1371295Y17201743D01*
X1370533Y17205655D01*
X1370533Y17226178D01*
X1371295Y17230039D01*
X1373479Y17233341D01*
X1614627Y17474488D01*
X1623517Y17484648D01*
X1630832Y17495570D01*
X1636674Y17507356D01*
X1640890Y17519802D01*
X1643430Y17532705D01*
X1644345Y17546167D01*
X1644345Y18127319D01*
X1645107Y18131180D01*
X1647291Y18134482D01*
X1650593Y18136666D01*
X1654505Y18137479D01*
X1687677Y18137479D01*
X1687677Y18231612D01*
X1654505Y18231612D01*
X1650593Y18232374D01*
X1647291Y18234609D01*
X1645107Y18237911D01*
X1644345Y18241772D01*
X1644345Y18334177D01*
X1645107Y18338038D01*
X1647291Y18341340D01*
X1650593Y18343524D01*
X1654505Y18344337D01*
X1687677Y18344337D01*
X1687677Y18443244D01*
X1688439Y18447105D01*
X1690624Y18450407D01*
X2748584Y19508368D01*
X2751886Y19510552D01*
X2755747Y19511314D01*
X2759608Y19511314D01*
X2773070Y19512229D01*
X2785973Y19514769D01*
X2798419Y19518985D01*
X2810205Y19524827D01*
X2821127Y19532142D01*
X2831033Y19540778D01*
X2839669Y19550684D01*
X2847035Y19561657D01*
X2852826Y19573443D01*
X2857042Y19585889D01*
X2859633Y19598741D01*
X2860497Y19612203D01*
X2860497Y19652234D01*
X2861462Y19656552D01*
X2864104Y19660006D01*
X2868015Y19662038D01*
X2877261Y19664527D01*
X2885236Y19668236D01*
X2892450Y19673316D01*
X2898648Y19679513D01*
X2903728Y19686727D01*
X2907436Y19694702D01*
X2909722Y19703186D01*
X2910535Y19712381D01*
X2910535Y19904303D01*
X2911297Y19908215D01*
X2913481Y19911517D01*
X2916783Y19913701D01*
X2920695Y19914463D01*
X12355322Y19914463D01*
X12368530Y19915327D01*
X12381331Y19917816D01*
X12394031Y19922134D01*
X12405817Y19927976D01*
X12416739Y19935240D01*
X12426645Y19943927D01*
X12435332Y19953833D01*
X12442037Y19963739D01*
X12448082Y19975728D01*
X12452502Y19988428D01*
X12455144Y20001585D01*
X12456058Y20014996D01*
X12455194Y20028103D01*
X12452654Y20041006D01*
X12448438Y20053452D01*
X12442596Y20065187D01*
X12434417Y20077277D01*
X12425426Y20087234D01*
X12415164Y20095870D01*
X12403836Y20103134D01*
X12391898Y20108672D01*
X12381382Y20112126D01*
X12368530Y20114666D01*
X12365786Y20114971D01*
X12355322Y20115479D01*
X2014982Y20115479D01*
X2001520Y20114615D01*
X1988667Y20112024D01*
X1976221Y20107808D01*
X1964385Y20102017D01*
X1953463Y20094702D01*
X1943354Y20085812D01*
X1772970Y19915428D01*
X1769668Y19913244D01*
X1765807Y19912482D01*
X1303578Y19912482D01*
X1290116Y19911568D01*
X1277264Y19909028D01*
X1264818Y19904811D01*
X1252982Y19898969D01*
X1242060Y19891654D01*
X1231950Y19882815D01*
X1199184Y19849998D01*
X1190294Y19839889D01*
X1182979Y19828967D01*
X1177188Y19817181D01*
X1172921Y19804735D01*
X1170381Y19791832D01*
X1169517Y19778370D01*
X1169517Y19739254D01*
X1168704Y19735393D01*
X1166520Y19732091D01*
X1163218Y19729907D01*
X1159357Y19729094D01*
X1095451Y19729094D01*
X1086256Y19728332D01*
X1077722Y19726046D01*
X1069746Y19722338D01*
X1062532Y19717258D01*
X1056335Y19711060D01*
X1051306Y19703846D01*
X1047597Y19695871D01*
X1045311Y19687387D01*
X1044498Y19678192D01*
X1044498Y19437756D01*
X1045311Y19428561D01*
X1047597Y19420027D01*
X1051306Y19412102D01*
X1056335Y19404888D01*
X1062532Y19398640D01*
X1069746Y19393611D01*
X1077722Y19389902D01*
X1086256Y19387616D01*
X1095451Y19386804D01*
X1149807Y19386804D01*
X1153718Y19385991D01*
X1157071Y19383756D01*
X1159256Y19380403D01*
X1159967Y19376491D01*
X1159103Y19372580D01*
X1156817Y19369278D01*
X1153464Y19367144D01*
X1146048Y19364299D01*
X1130096Y19356171D01*
X1115060Y19346418D01*
X1101140Y19335140D01*
X1088440Y19322491D01*
X1077214Y19308572D01*
X1067409Y19293535D01*
X1059281Y19277584D01*
X1052880Y19260870D01*
X1048258Y19243548D01*
X1045464Y19225869D01*
X1044498Y19207988D01*
X1045464Y19190055D01*
X1048258Y19172377D01*
X1052880Y19155054D01*
X1059281Y19138341D01*
X1067409Y19122390D01*
X1077214Y19107353D01*
X1088440Y19093434D01*
X1101140Y19080784D01*
X1115060Y19069507D01*
X1130096Y19059753D01*
X1146048Y19051625D01*
X1162761Y19045174D01*
X1171803Y19042786D01*
X1175664Y19040754D01*
X1178356Y19037249D01*
X1179322Y19032982D01*
X1178356Y19028664D01*
X1175664Y19025158D01*
X1171803Y19023126D01*
X1162761Y19020739D01*
X1146048Y19014338D01*
X1130096Y19006159D01*
X1115060Y18996406D01*
X1101140Y18985128D01*
X1088440Y18972479D01*
X1077214Y18958560D01*
X1067409Y18943523D01*
X1059281Y18927572D01*
X1052880Y18910858D01*
X1048258Y18893536D01*
X1045464Y18875857D01*
X1044498Y18857976D01*
X1045464Y18840094D01*
X1048258Y18822365D01*
X1052880Y18805093D01*
X1059281Y18788380D01*
X1067409Y18772378D01*
X1077214Y18757392D01*
X1088440Y18743472D01*
X1101140Y18730772D01*
X1115060Y18719495D01*
X1130096Y18709741D01*
X1146048Y18701613D01*
X1162761Y18695212D01*
X1180084Y18690539D01*
X1194917Y18688202D01*
X1198321Y18687034D01*
X1201064Y18684748D01*
X1202893Y18681700D01*
X1203502Y18678194D01*
X1203502Y18447664D01*
X1202537Y18443397D01*
X1199896Y18439892D01*
X1195984Y18437860D01*
X1186738Y18435370D01*
X1178763Y18431662D01*
X1171549Y18426633D01*
X1165352Y18420384D01*
X1160272Y18413222D01*
X1156563Y18405246D01*
X1154277Y18396712D01*
X1153464Y18387517D01*
X1153464Y18188432D01*
X1154277Y18179186D01*
X1156563Y18170702D01*
X1160272Y18162727D01*
X1165352Y18155513D01*
X1171549Y18149316D01*
X1178763Y18144236D01*
X1186738Y18140527D01*
X1195222Y18138241D01*
X1204417Y18137479D01*
X1403553Y18137479D01*
X1412748Y18138241D01*
X1421231Y18140527D01*
X1428851Y18144083D01*
X1432814Y18145048D01*
X1436776Y18144337D01*
X1440180Y18142204D01*
X1442516Y18138851D01*
X1443329Y18134888D01*
X1443329Y17591633D01*
X1442516Y17587772D01*
X1440332Y17584470D01*
X1199184Y17343323D01*
X1190294Y17333163D01*
X1182979Y17322241D01*
X1177188Y17310455D01*
X1172921Y17298009D01*
X1170381Y17285106D01*
X1169517Y17271644D01*
X1169517Y16751655D01*
X1170381Y16738193D01*
X1172921Y16725290D01*
X1177188Y16712844D01*
X1182979Y16701058D01*
X1190294Y16690136D01*
X1199184Y16679976D01*
X1274876Y16604284D01*
X1285036Y16595394D01*
X1295958Y16588079D01*
X1307744Y16582237D01*
X1320190Y16578021D01*
X1333093Y16575481D01*
X1346555Y16574566D01*
X1528724Y16574566D01*
X1542186Y16575481D01*
X1555089Y16578021D01*
X1567535Y16582237D01*
X1579321Y16588079D01*
X1588211Y16594023D01*
X1592275Y16595598D01*
X1596593Y16595344D01*
X1600454Y16593312D01*
X1603044Y16589908D01*
X1604010Y16585641D01*
X1603146Y16581424D01*
X1600504Y16575379D01*
X1729181Y16575379D01*
X1729181Y16657015D01*
X1718360Y16657015D01*
X1702917Y16656100D01*
X1687982Y16653357D01*
X1668221Y16647312D01*
X1664258Y16648023D01*
X1660906Y16650157D01*
X1658620Y16653459D01*
X1657807Y16657370D01*
X1658569Y16661333D01*
X1660753Y16664635D01*
X1781251Y16785132D01*
X1790141Y16795292D01*
X1797456Y16806214D01*
X1803298Y16818000D01*
X1807514Y16830446D01*
X1810054Y16843349D01*
X1810969Y16856811D01*
X1810969Y16945762D01*
X1811731Y16949623D01*
X1813915Y16952925D01*
X1935175Y17074184D01*
X1938477Y17076420D01*
X1942388Y17077182D01*
X1946249Y17076420D01*
X1949551Y17074184D01*
X1951786Y17070882D01*
X1952548Y17067022D01*
X1952548Y16881805D01*
X1953463Y16866362D01*
X1956206Y16851477D01*
X1960727Y16836999D01*
X1966925Y16823182D01*
X1974748Y16810228D01*
X1984095Y16798290D01*
X1994814Y16787571D01*
X2006752Y16778224D01*
X2019706Y16770400D01*
X2033524Y16764152D01*
X2048002Y16759682D01*
X2062937Y16756938D01*
X2078024Y16756024D01*
X2093163Y16756938D01*
X2108098Y16759682D01*
X2122525Y16764152D01*
X2136343Y16770400D01*
X2149348Y16778224D01*
X2161286Y16787571D01*
X2171954Y16798290D01*
X2181301Y16810228D01*
X2189175Y16823182D01*
X2195372Y16836999D01*
X2199894Y16851477D01*
X2202637Y16866362D01*
X2203551Y16881805D01*
X2203551Y17111218D01*
X2202637Y17126610D01*
X2199894Y17141545D01*
X2195372Y17156023D01*
X2189175Y17169841D01*
X2181301Y17182795D01*
X2171954Y17194733D01*
X2161286Y17205452D01*
X2149348Y17214799D01*
X2147062Y17216120D01*
X2143912Y17219168D01*
X2142337Y17223181D01*
X2142540Y17227550D01*
X2144623Y17231410D01*
X2148078Y17234052D01*
X2152345Y17234966D01*
X2237892Y17234966D01*
X2241753Y17234204D01*
X2245055Y17232020D01*
X2456586Y17020590D01*
X2585872Y16889984D01*
X2587904Y16887088D01*
X2588768Y16883684D01*
X2588463Y16880179D01*
X2586990Y16876979D01*
X2583281Y16871696D01*
X2579573Y16863720D01*
X2577287Y16855236D01*
X2576474Y16846042D01*
X2576474Y16681907D01*
X2577287Y16672712D01*
X2579573Y16664228D01*
X2583281Y16656253D01*
X2588310Y16649039D01*
X2594559Y16642791D01*
X2601772Y16637762D01*
X2609748Y16634053D01*
X2618232Y16631767D01*
X2627426Y16630954D01*
X3076549Y16630954D01*
X3085744Y16631767D01*
X3094278Y16634053D01*
X3102203Y16637762D01*
X3109417Y16642791D01*
X3115665Y16649039D01*
X3120694Y16656253D01*
X3124403Y16664228D01*
X3126689Y16672712D01*
X3127502Y16681907D01*
X3127502Y16846042D01*
X3126689Y16855236D01*
X3124403Y16863720D01*
X3120694Y16871696D01*
X3115665Y16878909D01*
X3109417Y16885107D01*
X3102203Y16890187D01*
X3094278Y16893895D01*
X3085744Y16896181D01*
X3076549Y16896994D01*
X2866034Y16896994D01*
X2862122Y16897756D01*
X2858820Y16899991D01*
X2675788Y17084852D01*
X2673604Y17088154D01*
X2672892Y17092015D01*
X2673654Y17095927D01*
X2675839Y17099178D01*
X3540455Y17963845D01*
X3549345Y17973954D01*
X3556660Y17984876D01*
X3562502Y17996662D01*
X3566718Y18009108D01*
X3569258Y18022011D01*
X3570173Y18035473D01*
X3570173Y18074690D01*
X3570986Y18078805D01*
X3573424Y18082209D01*
X3577031Y18084292D01*
X3581196Y18084800D01*
X3696868Y18084698D01*
X3706063Y18085511D01*
X3714597Y18087746D01*
X3720592Y18090591D01*
X3724910Y18091505D01*
X3729177Y18090591D01*
X3735222Y18087746D01*
X3743706Y18085511D01*
X3752951Y18084698D01*
X3774897Y18084698D01*
X3774897Y18208853D01*
X3757980Y18208853D01*
X3754120Y18209615D01*
X3750818Y18211800D01*
X3748582Y18215102D01*
X3747820Y18219013D01*
X3747820Y18371362D01*
X3748582Y18375274D01*
X3750818Y18378576D01*
X3754120Y18380760D01*
X3757980Y18381522D01*
X3774897Y18381522D01*
X3774897Y18505678D01*
X3756914Y18505678D01*
X3753053Y18506490D01*
X3749751Y18508675D01*
X3747515Y18511977D01*
X3746754Y18515838D01*
X3747515Y18519749D01*
X3749751Y18523051D01*
X3803091Y18576442D01*
X3806393Y18578626D01*
X3810304Y18579388D01*
X3903979Y18579388D01*
X3907891Y18578576D01*
X3911244Y18576290D01*
X3913428Y18572937D01*
X3914089Y18568924D01*
X3913174Y18565012D01*
X3909872Y18557748D01*
X3908044Y18552515D01*
X3906570Y18547029D01*
X3905504Y18541492D01*
X3904894Y18535904D01*
X3904691Y18530062D01*
X3904691Y18509284D01*
X3903878Y18505322D01*
X3901592Y18501969D01*
X3898137Y18499785D01*
X3894175Y18499124D01*
X3890213Y18500090D01*
X3884777Y18502630D01*
X3876243Y18504865D01*
X3867048Y18505678D01*
X3845102Y18505678D01*
X3845102Y18381522D01*
X3862019Y18381522D01*
X3865879Y18380760D01*
X3869182Y18378576D01*
X3871417Y18375274D01*
X3872179Y18371362D01*
X3872179Y18219013D01*
X3871417Y18215102D01*
X3869182Y18211800D01*
X3865879Y18209615D01*
X3862019Y18208853D01*
X3845102Y18208853D01*
X3845102Y18084698D01*
X3867048Y18084698D01*
X3876243Y18085511D01*
X3884777Y18087746D01*
X3890772Y18090591D01*
X3895090Y18091505D01*
X3899357Y18090591D01*
X3905402Y18087746D01*
X3913886Y18085511D01*
X3923131Y18084698D01*
X4037228Y18084698D01*
X4046423Y18085511D01*
X4054957Y18087746D01*
X4060951Y18090591D01*
X4065270Y18091505D01*
X4069537Y18090591D01*
X4075582Y18087746D01*
X4084065Y18085511D01*
X4093311Y18084698D01*
X4115257Y18084698D01*
X4115257Y18208853D01*
X4098340Y18208853D01*
X4094479Y18209615D01*
X4091178Y18211800D01*
X4088942Y18215102D01*
X4088180Y18219013D01*
X4088180Y18371362D01*
X4088942Y18375274D01*
X4091178Y18378576D01*
X4094479Y18380760D01*
X4098340Y18381522D01*
X4115257Y18381522D01*
X4115257Y18444565D01*
X4116019Y18448477D01*
X4118254Y18451779D01*
X4121505Y18453963D01*
X4125417Y18454725D01*
X4175302Y18454725D01*
X4179163Y18453963D01*
X4182465Y18451779D01*
X4184700Y18448477D01*
X4185462Y18444565D01*
X4185462Y18381522D01*
X4258360Y18381522D01*
X4258360Y18444565D01*
X4259122Y18448477D01*
X4261358Y18451779D01*
X4264660Y18453963D01*
X4268520Y18454725D01*
X5392420Y18454725D01*
X5396280Y18453963D01*
X5399582Y18451779D01*
X5401767Y18448477D01*
X5402580Y18444565D01*
X5402580Y17193615D01*
X5401767Y17189754D01*
X5399582Y17186452D01*
X5396280Y17184268D01*
X5392420Y17183455D01*
X4753457Y17183455D01*
X4744212Y17182693D01*
X4735728Y17180407D01*
X4727752Y17176699D01*
X4720539Y17171619D01*
X4714341Y17165421D01*
X4709261Y17158208D01*
X4705553Y17150232D01*
X4703267Y17141748D01*
X4702505Y17132503D01*
X4702505Y16903395D01*
X4703267Y16894200D01*
X4705553Y16885716D01*
X4709261Y16877741D01*
X4714341Y16870527D01*
X4720539Y16864330D01*
X4727752Y16859250D01*
X4735728Y16855541D01*
X4744212Y16853255D01*
X4753457Y16852442D01*
X5402529Y16852442D01*
X5411774Y16853255D01*
X5420258Y16855541D01*
X5428234Y16859250D01*
X5435447Y16864330D01*
X5441645Y16870527D01*
X5446674Y16877741D01*
X5450433Y16885716D01*
X5452668Y16894200D01*
X5453481Y16903395D01*
X5453481Y16932300D01*
X5454294Y16936212D01*
X5456478Y16939514D01*
X5459780Y16941698D01*
X5463641Y16942460D01*
X5477865Y16942460D01*
X5483707Y16942714D01*
X5489346Y16943324D01*
X5494883Y16944390D01*
X5500319Y16945813D01*
X5505653Y16947692D01*
X5510834Y16949978D01*
X5515813Y16952620D01*
X5520588Y16955617D01*
X5525160Y16958970D01*
X5529427Y16962628D01*
X5533390Y16966641D01*
X5537098Y16970908D01*
X5540451Y16975429D01*
X5543448Y16980255D01*
X5546090Y16985234D01*
X5548325Y16990415D01*
X5550204Y16995749D01*
X5551678Y17001185D01*
X5552744Y17006722D01*
X5553354Y17012361D01*
X5553557Y17018152D01*
X5553557Y18444565D01*
X5554370Y18448477D01*
X5556554Y18451779D01*
X5559856Y18453963D01*
X5563717Y18454725D01*
X5960922Y18454776D01*
X5969762Y18455640D01*
X5972149Y18456046D01*
X5980734Y18458180D01*
X5983071Y18458942D01*
X5991250Y18462294D01*
X5993434Y18463412D01*
X6001004Y18467984D01*
X6002985Y18469406D01*
X6009792Y18475045D01*
X6188202Y18653404D01*
X6195263Y18662243D01*
X6199835Y18669812D01*
X6204305Y18680176D01*
X6205067Y18682462D01*
X6207201Y18691098D01*
X6207607Y18693485D01*
X6208420Y18702223D01*
X6208471Y18719342D01*
X6209284Y18723203D01*
X6211468Y18726505D01*
X6214770Y18728690D01*
X6218631Y18729452D01*
X6277559Y18729452D01*
X6286754Y18730264D01*
X6295237Y18732550D01*
X6303213Y18736259D01*
X6310426Y18741288D01*
X6316624Y18747536D01*
X6321704Y18754750D01*
X6325412Y18762726D01*
X6327698Y18771209D01*
X6328511Y18780404D01*
X6328511Y19309334D01*
X6329273Y19313245D01*
X6331458Y19316547D01*
X6334760Y19318732D01*
X6338671Y19319494D01*
X6570624Y19319544D01*
X6579463Y19320408D01*
X6581851Y19320814D01*
X6590436Y19322948D01*
X6592773Y19323710D01*
X6600952Y19327063D01*
X6603136Y19328180D01*
X6610705Y19332752D01*
X6612686Y19334175D01*
X6619494Y19339814D01*
X6720433Y19440652D01*
X6723735Y19442836D01*
X6727698Y19443598D01*
X6731609Y19442785D01*
X6734911Y19440499D01*
X6737096Y19437096D01*
X6737756Y19433133D01*
X6737553Y19427291D01*
X6738924Y19412508D01*
X6742125Y19398030D01*
X6747052Y19384010D01*
X6753656Y19370751D01*
X6761835Y19358406D01*
X6771487Y19347129D01*
X6782460Y19337121D01*
X6788200Y19333057D01*
X6790486Y19330822D01*
X6791959Y19327977D01*
X6792468Y19324777D01*
X6792468Y19216674D01*
X6791959Y19213474D01*
X6790486Y19210578D01*
X6788150Y19208343D01*
X6782358Y19204279D01*
X6776110Y19198031D01*
X6771081Y19190868D01*
X6767372Y19182892D01*
X6765086Y19174358D01*
X6764274Y19165163D01*
X6764274Y19085407D01*
X6765086Y19076212D01*
X6767372Y19067678D01*
X6771081Y19059702D01*
X6773824Y19055791D01*
X6775450Y19052032D01*
X6775450Y19047917D01*
X6773824Y19044158D01*
X6771081Y19040195D01*
X6767372Y19032220D01*
X6765086Y19023736D01*
X6764274Y19014541D01*
X6764274Y18934734D01*
X6765086Y18925540D01*
X6767372Y18917056D01*
X6771081Y18909080D01*
X6776110Y18901867D01*
X6782358Y18895669D01*
X6788150Y18891605D01*
X6790486Y18889319D01*
X6791959Y18886474D01*
X6792468Y18883274D01*
X6792468Y18758814D01*
X6791706Y18754902D01*
X6784289Y18744234D01*
X6780580Y18736259D01*
X6778294Y18727724D01*
X6777481Y18718530D01*
X6777481Y18615152D01*
X6776720Y18611240D01*
X6774484Y18607938D01*
X6771182Y18605754D01*
X6767322Y18604992D01*
X6604406Y18604992D01*
X6593738Y18604128D01*
X6583781Y18601740D01*
X6574281Y18597778D01*
X6565493Y18592444D01*
X6557721Y18585738D01*
X6551015Y18577966D01*
X6545681Y18569178D01*
X6541719Y18559678D01*
X6539331Y18549721D01*
X6538468Y18539053D01*
X6538468Y17780406D01*
X6539331Y17769738D01*
X6541719Y17759781D01*
X6545681Y17750282D01*
X6551015Y17741493D01*
X6557721Y17733721D01*
X6565493Y17727015D01*
X6574281Y17721681D01*
X6583781Y17717719D01*
X6593738Y17715331D01*
X6604406Y17714468D01*
X7214971Y17714468D01*
X7225639Y17715331D01*
X7235596Y17717719D01*
X7245096Y17721681D01*
X7253884Y17727015D01*
X7261961Y17733975D01*
X7471308Y17943322D01*
X7474762Y17945557D01*
X7478826Y17946268D01*
X7482789Y17945354D01*
X7487056Y17943322D01*
X7495590Y17941086D01*
X7504785Y17940274D01*
X7584541Y17940274D01*
X7593736Y17941086D01*
X7602270Y17943322D01*
X7610246Y17947081D01*
X7614158Y17949824D01*
X7617917Y17951450D01*
X7622031Y17951450D01*
X7625791Y17949824D01*
X7629753Y17947081D01*
X7637729Y17943322D01*
X7646212Y17941086D01*
X7655407Y17940274D01*
X7735214Y17940274D01*
X7744409Y17941086D01*
X7752892Y17943322D01*
X7760868Y17947081D01*
X7768081Y17952110D01*
X7774279Y17958308D01*
X7778394Y17964150D01*
X7780629Y17966486D01*
X7783474Y17967960D01*
X7786674Y17968468D01*
X8383168Y17968468D01*
X8387080Y17967655D01*
X8390432Y17965420D01*
X8392617Y17962016D01*
X8393328Y17958054D01*
X8392414Y17954142D01*
X8391296Y17951602D01*
X8386724Y17937073D01*
X8384031Y17922138D01*
X8383066Y17906949D01*
X8384031Y17891810D01*
X8386724Y17876824D01*
X8388400Y17871592D01*
X8388807Y17867833D01*
X8387842Y17864175D01*
X8385606Y17861127D01*
X8382406Y17859146D01*
X8378698Y17858435D01*
X8175498Y17858435D01*
X8164830Y17857571D01*
X8154873Y17855184D01*
X8145373Y17851272D01*
X8136585Y17845887D01*
X8128508Y17838928D01*
X6999478Y16709948D01*
X6996175Y16707713D01*
X6992315Y16706951D01*
X4258208Y16706951D01*
X4247591Y16706138D01*
X4237583Y16703700D01*
X4228084Y16699788D01*
X4219346Y16694404D01*
X4211218Y16687495D01*
X3415487Y15891763D01*
X3412236Y15889579D01*
X3408324Y15888817D01*
X2124202Y15888817D01*
X2121052Y15889325D01*
X2118156Y15890798D01*
X2115921Y15893135D01*
X2113838Y15896082D01*
X2107641Y15902279D01*
X2100427Y15907308D01*
X2092452Y15911017D01*
X2083968Y15913303D01*
X2074773Y15914116D01*
X1989226Y15914116D01*
X1980031Y15913303D01*
X1971548Y15911017D01*
X1963572Y15907308D01*
X1956358Y15902279D01*
X1950110Y15896082D01*
X1945081Y15888868D01*
X1941372Y15880892D01*
X1939086Y15872358D01*
X1938274Y15863163D01*
X1938274Y15783407D01*
X1939086Y15774212D01*
X1941372Y15765729D01*
X1945081Y15757753D01*
X1947824Y15753791D01*
X1949450Y15750032D01*
X1949450Y15745917D01*
X1947824Y15742157D01*
X1945081Y15738195D01*
X1941372Y15730219D01*
X1939086Y15721736D01*
X1938274Y15712541D01*
X1938274Y15632785D01*
X1939086Y15623540D01*
X1941372Y15615056D01*
X1945081Y15607080D01*
X1950110Y15599867D01*
X1956358Y15593669D01*
X1964283Y15588081D01*
X1966772Y15585592D01*
X1968296Y15582392D01*
X1969668Y15577159D01*
X1973681Y15567558D01*
X1979015Y15558820D01*
X1985975Y15550692D01*
X2058517Y15478150D01*
X2060702Y15474848D01*
X2061464Y15470936D01*
X2061464Y15456763D01*
X2060702Y15452851D01*
X2053285Y15442184D01*
X2049576Y15434208D01*
X2047290Y15425724D01*
X2046478Y15416530D01*
X2046478Y15310408D01*
X2047290Y15301213D01*
X2049576Y15292679D01*
X2053285Y15284704D01*
X2058314Y15277490D01*
X2064562Y15271292D01*
X2071776Y15266263D01*
X2079752Y15262555D01*
X2088235Y15260269D01*
X2097430Y15259456D01*
X2156561Y15259456D01*
X2165756Y15260269D01*
X2174240Y15262555D01*
X2182215Y15266263D01*
X2189429Y15271292D01*
X2195677Y15277490D01*
X2200706Y15284704D01*
X2204415Y15292679D01*
X2206701Y15301213D01*
X2207514Y15310408D01*
X2207514Y15416530D01*
X2206701Y15425724D01*
X2204415Y15434208D01*
X2200706Y15442184D01*
X2193290Y15452851D01*
X2192528Y15456763D01*
X2192528Y15501874D01*
X2191664Y15512542D01*
X2189276Y15522498D01*
X2185314Y15531998D01*
X2179980Y15540786D01*
X2173020Y15548914D01*
X2122627Y15599308D01*
X2120392Y15602712D01*
X2119680Y15606776D01*
X2120595Y15610738D01*
X2122627Y15615056D01*
X2124913Y15623540D01*
X2125726Y15632785D01*
X2125726Y15712541D01*
X2124913Y15721736D01*
X2122627Y15730219D01*
X2118918Y15738195D01*
X2116378Y15741802D01*
X2114702Y15745866D01*
X2114905Y15750235D01*
X2116937Y15754146D01*
X2120392Y15756839D01*
X2124710Y15757804D01*
X3439261Y15757804D01*
X3449929Y15758617D01*
X3459886Y15761004D01*
X3469386Y15764967D01*
X3478174Y15770301D01*
X3486251Y15777260D01*
X4281982Y16572992D01*
X4285284Y16575176D01*
X4289145Y16575938D01*
X7023252Y16575938D01*
X7033869Y16576801D01*
X7043877Y16579189D01*
X7053376Y16583101D01*
X7062114Y16588486D01*
X7070242Y16595394D01*
X8199272Y17724424D01*
X8202523Y17726609D01*
X8206435Y17727422D01*
X8389112Y17727422D01*
X8393277Y17726507D01*
X8396732Y17723967D01*
X8398814Y17720259D01*
X8399221Y17716042D01*
X8397494Y17711470D01*
X8391296Y17697602D01*
X8386724Y17683073D01*
X8384031Y17668138D01*
X8383066Y17652949D01*
X8384031Y17637810D01*
X8386724Y17622824D01*
X8387740Y17619624D01*
X8388197Y17615865D01*
X8387232Y17612207D01*
X8384946Y17609159D01*
X8381746Y17607178D01*
X8378037Y17606467D01*
X8211667Y17606467D01*
X8200999Y17605603D01*
X8191042Y17603216D01*
X8181543Y17599304D01*
X8172754Y17593919D01*
X8164677Y17586960D01*
X6817868Y16240201D01*
X6814566Y16237966D01*
X6810705Y16237204D01*
X4083405Y16237204D01*
X4072788Y16236391D01*
X4062780Y16233952D01*
X4053281Y16230041D01*
X4044543Y16224656D01*
X4036415Y16217747D01*
X3763975Y15945307D01*
X3757015Y15937179D01*
X3751681Y15928390D01*
X3747719Y15918891D01*
X3746500Y15913862D01*
X3745026Y15910509D01*
X3742436Y15907918D01*
X3734358Y15902279D01*
X3728110Y15896082D01*
X3723081Y15888868D01*
X3719372Y15880892D01*
X3717086Y15872358D01*
X3716274Y15863163D01*
X3716274Y15783407D01*
X3717086Y15774212D01*
X3719372Y15765729D01*
X3723081Y15757753D01*
X3725824Y15753791D01*
X3727450Y15750032D01*
X3727450Y15745917D01*
X3725824Y15742157D01*
X3723081Y15738195D01*
X3719372Y15730219D01*
X3717086Y15721736D01*
X3716274Y15712541D01*
X3716274Y15632785D01*
X3717086Y15623540D01*
X3719372Y15615056D01*
X3723081Y15607080D01*
X3728110Y15599867D01*
X3734358Y15593669D01*
X3742283Y15588081D01*
X3744772Y15585592D01*
X3746246Y15582392D01*
X3747668Y15577159D01*
X3751681Y15567558D01*
X3757015Y15558820D01*
X3763975Y15550692D01*
X3836517Y15478150D01*
X3838701Y15474848D01*
X3839464Y15470936D01*
X3839464Y15456763D01*
X3838701Y15452851D01*
X3831285Y15442184D01*
X3827576Y15434208D01*
X3825290Y15425724D01*
X3824478Y15416530D01*
X3824478Y15310408D01*
X3825290Y15301213D01*
X3827576Y15292679D01*
X3831183Y15285008D01*
X3832098Y15281046D01*
X3831437Y15277033D01*
X3829253Y15273629D01*
X3825900Y15271343D01*
X3821937Y15270530D01*
X3798011Y15270530D01*
X3794048Y15271343D01*
X3790746Y15273629D01*
X3788562Y15277033D01*
X3787901Y15281046D01*
X3788816Y15285008D01*
X3792423Y15292679D01*
X3794709Y15301213D01*
X3795522Y15310408D01*
X3795522Y15330373D01*
X3736340Y15330373D01*
X3736340Y15305176D01*
X3735476Y15301010D01*
X3732987Y15297607D01*
X3729329Y15295473D01*
X3725113Y15295067D01*
X3721201Y15295473D01*
X3708603Y15295016D01*
X3705555Y15294508D01*
X3701186Y15294660D01*
X3697274Y15296692D01*
X3694582Y15300198D01*
X3693617Y15304516D01*
X3693617Y15330373D01*
X3634486Y15330373D01*
X3634486Y15310408D01*
X3635298Y15301213D01*
X3637584Y15292679D01*
X3641293Y15284704D01*
X3646322Y15277490D01*
X3647744Y15276118D01*
X3649878Y15273019D01*
X3650691Y15269362D01*
X3650183Y15265654D01*
X3648354Y15262402D01*
X3644849Y15258237D01*
X3638143Y15247518D01*
X3633012Y15235986D01*
X3629558Y15223845D01*
X3628847Y15218867D01*
X3627272Y15214701D01*
X3624072Y15211602D01*
X3619804Y15210180D01*
X3615385Y15210739D01*
X3611626Y15213126D01*
X3284677Y15540024D01*
X3276600Y15546933D01*
X3267811Y15552318D01*
X3259683Y15555671D01*
X3256635Y15557703D01*
X3254451Y15560649D01*
X3253486Y15564205D01*
X3252724Y15572689D01*
X3250438Y15581223D01*
X3246729Y15589199D01*
X3241700Y15596362D01*
X3235452Y15602610D01*
X3228238Y15607639D01*
X3220262Y15611348D01*
X3211779Y15613634D01*
X3202584Y15614446D01*
X3103473Y15614446D01*
X3094278Y15613634D01*
X3085744Y15611348D01*
X3077768Y15607639D01*
X3070606Y15602610D01*
X3064357Y15596362D01*
X3059328Y15589199D01*
X3057194Y15584627D01*
X3054959Y15581528D01*
X3051759Y15579496D01*
X3048000Y15578785D01*
X3044240Y15579496D01*
X3041040Y15581528D01*
X3038805Y15584627D01*
X3036671Y15589199D01*
X3031642Y15596362D01*
X3025394Y15602610D01*
X3018180Y15607639D01*
X3010204Y15611348D01*
X3001721Y15613634D01*
X2992526Y15614446D01*
X2893415Y15614446D01*
X2884220Y15613634D01*
X2875686Y15611348D01*
X2867710Y15607639D01*
X2860548Y15602610D01*
X2854299Y15596362D01*
X2849270Y15589199D01*
X2845562Y15581223D01*
X2843276Y15572689D01*
X2842463Y15563494D01*
X2842463Y15424454D01*
X2843276Y15415209D01*
X2845562Y15406725D01*
X2849270Y15398750D01*
X2854299Y15391536D01*
X2860548Y15385338D01*
X2863138Y15383510D01*
X2865475Y15381274D01*
X2866948Y15378379D01*
X2867456Y15375178D01*
X2867507Y15346324D01*
X2868320Y15337485D01*
X2868726Y15335097D01*
X2870860Y15326512D01*
X2871622Y15324175D01*
X2875026Y15315996D01*
X2876143Y15313812D01*
X2882087Y15304262D01*
X2887776Y15297454D01*
X3079394Y15105837D01*
X3086201Y15100198D01*
X3088182Y15098776D01*
X3095752Y15094204D01*
X3097936Y15093086D01*
X3106115Y15089733D01*
X3108452Y15088971D01*
X3122218Y15085415D01*
X3125012Y15083129D01*
X3126841Y15080030D01*
X3127502Y15076525D01*
X3127502Y14886432D01*
X3128314Y14877186D01*
X3130550Y14868702D01*
X3134309Y14860727D01*
X3139338Y14853513D01*
X3145536Y14847316D01*
X3152749Y14842286D01*
X3160725Y14838527D01*
X3169208Y14836292D01*
X3178454Y14835479D01*
X3367379Y14835479D01*
X3371240Y14834717D01*
X3374542Y14832482D01*
X3376777Y14829231D01*
X3377539Y14825319D01*
X3377590Y14811095D01*
X3378403Y14802357D01*
X3378809Y14799970D01*
X3380943Y14791385D01*
X3381705Y14789048D01*
X3385108Y14780869D01*
X3386226Y14778685D01*
X3392170Y14769134D01*
X3397859Y14762327D01*
X3571748Y14588337D01*
X3573983Y14584934D01*
X3574745Y14580971D01*
X3573830Y14577009D01*
X3571494Y14573707D01*
X3568039Y14571573D01*
X3564026Y14571014D01*
X3556000Y14571472D01*
X3539388Y14570506D01*
X3523030Y14567662D01*
X3507079Y14562988D01*
X3491788Y14556536D01*
X3477310Y14548357D01*
X3463899Y14538604D01*
X3451656Y14527377D01*
X3440785Y14514830D01*
X3431387Y14501113D01*
X3423665Y14486432D01*
X3417620Y14470938D01*
X3413404Y14454886D01*
X3411016Y14438426D01*
X3410559Y14421815D01*
X3411982Y14405254D01*
X3415284Y14388998D01*
X3420414Y14373199D01*
X3427323Y14358061D01*
X3435908Y14343837D01*
X3446018Y14330680D01*
X3457600Y14318792D01*
X3470452Y14308277D01*
X3484422Y14299285D01*
X3499358Y14291970D01*
X3515004Y14286382D01*
X3531158Y14282623D01*
X3537305Y14281912D01*
X3540912Y14280794D01*
X3543858Y14278457D01*
X3545738Y14275155D01*
X3546297Y14271447D01*
X3545433Y14267738D01*
X3543300Y14264640D01*
X3402888Y14124228D01*
X3399637Y14122044D01*
X3395726Y14121282D01*
X3079343Y14121282D01*
X3074924Y14122247D01*
X3071418Y14125041D01*
X3069437Y14129054D01*
X3069386Y14133525D01*
X3071266Y14137640D01*
X3076092Y14143837D01*
X3084677Y14158061D01*
X3091586Y14173200D01*
X3096717Y14188998D01*
X3100019Y14205254D01*
X3101441Y14221815D01*
X3100933Y14238427D01*
X3098596Y14254886D01*
X3094380Y14270939D01*
X3088335Y14286433D01*
X3080562Y14301114D01*
X3071215Y14314830D01*
X3060344Y14327378D01*
X3048101Y14338604D01*
X3034639Y14348358D01*
X3020161Y14356537D01*
X3004870Y14362988D01*
X2988919Y14367662D01*
X2972562Y14370507D01*
X2956001Y14371472D01*
X2939389Y14370507D01*
X2923032Y14367662D01*
X2916377Y14365732D01*
X2912770Y14365325D01*
X2909316Y14366240D01*
X2906318Y14368272D01*
X2886456Y14388185D01*
X2884271Y14391487D01*
X2883509Y14395348D01*
X2883509Y14825319D01*
X2884271Y14829180D01*
X2886456Y14832482D01*
X2889758Y14834666D01*
X2893669Y14835479D01*
X2917545Y14835479D01*
X2926740Y14836292D01*
X2935274Y14838527D01*
X2943199Y14842286D01*
X2950413Y14847316D01*
X2956661Y14853513D01*
X2961690Y14860727D01*
X2965399Y14868702D01*
X2967685Y14877186D01*
X2968498Y14886432D01*
X2968498Y15085517D01*
X2967685Y15094712D01*
X2965399Y15103246D01*
X2961690Y15111222D01*
X2956661Y15118384D01*
X2950413Y15124633D01*
X2943199Y15129662D01*
X2935274Y15133370D01*
X2926740Y15135656D01*
X2917545Y15136469D01*
X2738678Y15136469D01*
X2734767Y15137231D01*
X2731516Y15139466D01*
X2729280Y15142768D01*
X2728518Y15146629D01*
X2728518Y15270175D01*
X2727706Y15280843D01*
X2725267Y15290800D01*
X2721356Y15300299D01*
X2715971Y15309088D01*
X2709062Y15317216D01*
X2664866Y15361361D01*
X2656738Y15368320D01*
X2648000Y15373705D01*
X2638501Y15377617D01*
X2631084Y15379395D01*
X2627731Y15380868D01*
X2625090Y15383459D01*
X2621838Y15388082D01*
X2615641Y15394330D01*
X2608427Y15399359D01*
X2600452Y15403068D01*
X2591968Y15405354D01*
X2582773Y15406166D01*
X2497226Y15406166D01*
X2488031Y15405354D01*
X2479548Y15403068D01*
X2471572Y15399359D01*
X2464358Y15394330D01*
X2458161Y15388082D01*
X2453081Y15380868D01*
X2449372Y15372892D01*
X2447086Y15364409D01*
X2446274Y15355214D01*
X2446274Y15275356D01*
X2445512Y15271445D01*
X2443327Y15268143D01*
X2440025Y15265958D01*
X2436114Y15265196D01*
X2397048Y15265196D01*
X2383586Y15264282D01*
X2370734Y15261742D01*
X2358288Y15257526D01*
X2346452Y15251684D01*
X2335530Y15244368D01*
X2325420Y15235529D01*
X2309876Y15219984D01*
X2306574Y15217749D01*
X2302713Y15216987D01*
X2082038Y15216987D01*
X2079396Y15217343D01*
X2070760Y15219680D01*
X2061565Y15220442D01*
X2002434Y15220442D01*
X2000707Y15220289D01*
X1996338Y15220899D01*
X1992630Y15223236D01*
X1972310Y15243556D01*
X1970024Y15247112D01*
X1969363Y15251277D01*
X1970430Y15255341D01*
X1973122Y15258643D01*
X1976882Y15260574D01*
X1984248Y15262555D01*
X1992223Y15266263D01*
X1999437Y15271292D01*
X2005634Y15277490D01*
X2010714Y15284704D01*
X2014423Y15292679D01*
X2016709Y15301213D01*
X2017522Y15310408D01*
X2017522Y15330373D01*
X1958339Y15330373D01*
X1958339Y15282062D01*
X1957578Y15278150D01*
X1955342Y15274899D01*
X1952091Y15272664D01*
X1948180Y15271902D01*
X1944319Y15272664D01*
X1941017Y15274899D01*
X1918614Y15297251D01*
X1916430Y15300553D01*
X1915668Y15304414D01*
X1915668Y15330373D01*
X1889709Y15330373D01*
X1885848Y15331135D01*
X1882546Y15333319D01*
X1868627Y15347238D01*
X1866442Y15350540D01*
X1865680Y15354452D01*
X1865680Y15367507D01*
X1864766Y15380969D01*
X1864106Y15384424D01*
X1864207Y15388844D01*
X1866188Y15392857D01*
X1869693Y15395600D01*
X1874062Y15396565D01*
X1915668Y15396565D01*
X1915668Y15467482D01*
X1907438Y15467482D01*
X1898243Y15466669D01*
X1889709Y15464383D01*
X1881784Y15460675D01*
X1874570Y15455595D01*
X1868322Y15449397D01*
X1863293Y15442184D01*
X1859483Y15434005D01*
X1857095Y15430754D01*
X1853641Y15428722D01*
X1849678Y15428163D01*
X1845818Y15429128D01*
X1842617Y15431566D01*
X1835962Y15439136D01*
X1540256Y15734893D01*
X1530096Y15743783D01*
X1519174Y15751098D01*
X1507388Y15756890D01*
X1494942Y15761106D01*
X1482039Y15763697D01*
X1468577Y15764560D01*
X1072946Y15764560D01*
X1059484Y15763697D01*
X1046581Y15761106D01*
X1034135Y15756890D01*
X1022350Y15751098D01*
X1011428Y15743783D01*
X1001268Y15734893D01*
X944067Y15677642D01*
X935177Y15667532D01*
X927862Y15656610D01*
X922070Y15644825D01*
X917803Y15632379D01*
X915263Y15619476D01*
X914400Y15606013D01*
X914400Y15211501D01*
X915263Y15198039D01*
X917803Y15185186D01*
X922070Y15172740D01*
X927862Y15160955D01*
X934821Y15150541D01*
X936294Y15146985D01*
X936396Y15143175D01*
X935024Y15139568D01*
X932434Y15136723D01*
X928979Y15135047D01*
X922731Y15133370D01*
X914755Y15129662D01*
X907542Y15124633D01*
X901344Y15118384D01*
X896264Y15111222D01*
X892556Y15103246D01*
X890269Y15094712D01*
X889508Y15085517D01*
X889508Y14886432D01*
X890269Y14877186D01*
X892556Y14868702D01*
X896264Y14860727D01*
X901344Y14853513D01*
X907542Y14847316D01*
X914755Y14842286D01*
X922731Y14838527D01*
X931976Y14836089D01*
X935888Y14834057D01*
X938530Y14830551D01*
X939495Y14826234D01*
X939495Y14364309D01*
X940358Y14350847D01*
X942949Y14337995D01*
X947166Y14325549D01*
X952957Y14313763D01*
X960272Y14302790D01*
X969162Y14292681D01*
X1029665Y14232178D01*
X1031951Y14228724D01*
X1032662Y14224711D01*
X1032560Y14221815D01*
X1033983Y14205254D01*
X1037285Y14188998D01*
X1042416Y14173200D01*
X1049324Y14158061D01*
X1057910Y14143837D01*
X1068019Y14130680D01*
X1079601Y14118793D01*
X1092454Y14108277D01*
X1106474Y14099286D01*
X1121359Y14091970D01*
X1137005Y14086382D01*
X1153160Y14082623D01*
X1169670Y14080744D01*
X1186281Y14080744D01*
X1202791Y14082623D01*
X1218996Y14086382D01*
X1234643Y14091970D01*
X1249527Y14099286D01*
X1263497Y14108277D01*
X1276350Y14118793D01*
X1287932Y14130680D01*
X1298092Y14143837D01*
X1306677Y14158061D01*
X1313586Y14173200D01*
X1318717Y14188998D01*
X1322019Y14205254D01*
X1323441Y14221815D01*
X1322933Y14238427D01*
X1320596Y14254886D01*
X1316380Y14270939D01*
X1310335Y14286433D01*
X1302562Y14301114D01*
X1293215Y14314830D01*
X1282344Y14327378D01*
X1270101Y14338604D01*
X1256639Y14348358D01*
X1242212Y14356537D01*
X1226870Y14362988D01*
X1210970Y14367662D01*
X1194562Y14370507D01*
X1178306Y14371472D01*
X1174750Y14372336D01*
X1171702Y14374418D01*
X1143508Y14402663D01*
X1141272Y14405914D01*
X1140510Y14409826D01*
X1140510Y14826284D01*
X1141476Y14830551D01*
X1144117Y14834057D01*
X1148029Y14836089D01*
X1157274Y14838527D01*
X1165250Y14842286D01*
X1172413Y14847316D01*
X1178661Y14853513D01*
X1183690Y14860727D01*
X1187399Y14868702D01*
X1189685Y14877186D01*
X1190498Y14886432D01*
X1190498Y15085517D01*
X1189685Y15094712D01*
X1187399Y15103246D01*
X1183690Y15111222D01*
X1178661Y15118384D01*
X1172413Y15124633D01*
X1165250Y15129662D01*
X1157274Y15133370D01*
X1148029Y15135860D01*
X1144117Y15137892D01*
X1141476Y15141397D01*
X1140510Y15145664D01*
X1140510Y15185745D01*
X1139647Y15199156D01*
X1137056Y15212060D01*
X1132840Y15224506D01*
X1127048Y15236291D01*
X1119733Y15247213D01*
X1117904Y15249296D01*
X1116025Y15252395D01*
X1115415Y15256001D01*
X1115415Y15272969D01*
X1116177Y15276931D01*
X1118463Y15280233D01*
X1121867Y15282418D01*
X1125880Y15283129D01*
X1129792Y15282163D01*
X1137513Y15278607D01*
X1142695Y15276779D01*
X1148181Y15275356D01*
X1153718Y15274290D01*
X1159306Y15273680D01*
X1165148Y15273426D01*
X1189075Y15273426D01*
X1192987Y15272664D01*
X1196238Y15270480D01*
X1351026Y15115692D01*
X1353261Y15112288D01*
X1353972Y15108224D01*
X1350314Y15094712D01*
X1349502Y15085517D01*
X1349502Y14886432D01*
X1350314Y14877186D01*
X1352550Y14868702D01*
X1356309Y14860727D01*
X1361338Y14853513D01*
X1367536Y14847316D01*
X1374749Y14842286D01*
X1382725Y14838527D01*
X1391208Y14836292D01*
X1400454Y14835479D01*
X1599539Y14835479D01*
X1608734Y14836292D01*
X1617268Y14838527D01*
X1625244Y14842286D01*
X1632457Y14847316D01*
X1633982Y14848840D01*
X1637283Y14851075D01*
X1641144Y14851837D01*
X1645056Y14851075D01*
X1648358Y14848840D01*
X2232710Y14264487D01*
X2234590Y14261947D01*
X2235555Y14258950D01*
X2235606Y14255851D01*
X2233015Y14238427D01*
X2232558Y14221815D01*
X2233980Y14205254D01*
X2237282Y14188998D01*
X2242413Y14173200D01*
X2249322Y14158061D01*
X2257907Y14143837D01*
X2268016Y14130680D01*
X2279599Y14118793D01*
X2292451Y14108277D01*
X2306472Y14099286D01*
X2321356Y14091970D01*
X2337003Y14086382D01*
X2353208Y14082623D01*
X2369667Y14080744D01*
X2386279Y14080744D01*
X2402789Y14082623D01*
X2406853Y14083538D01*
X2410256Y14083741D01*
X2413558Y14082826D01*
X2416352Y14080845D01*
X2506726Y13990523D01*
X2513533Y13984884D01*
X2515565Y13983462D01*
X2523134Y13978890D01*
X2533497Y13974419D01*
X2535783Y13973657D01*
X2544368Y13971524D01*
X2546807Y13971117D01*
X2555595Y13970304D01*
G37*
G36*
X1769668Y14280743D02*
G01*
X1786280Y14280743D01*
X1802790Y14282623D01*
X1818995Y14286382D01*
X1834642Y14291970D01*
X1849526Y14299285D01*
X1863496Y14308277D01*
X1876348Y14318792D01*
X1887931Y14330680D01*
X1898091Y14343837D01*
X1906676Y14358061D01*
X1913585Y14373199D01*
X1918716Y14388998D01*
X1922018Y14405254D01*
X1923440Y14421815D01*
X1922932Y14438426D01*
X1920595Y14454886D01*
X1916379Y14470938D01*
X1910334Y14486432D01*
X1902561Y14501113D01*
X1893214Y14514830D01*
X1882343Y14527377D01*
X1870100Y14538604D01*
X1856638Y14548357D01*
X1842211Y14556536D01*
X1826869Y14562988D01*
X1810969Y14567662D01*
X1794560Y14570506D01*
X1778000Y14571472D01*
X1761388Y14570506D01*
X1745030Y14567662D01*
X1729079Y14562988D01*
X1713788Y14556536D01*
X1699361Y14548357D01*
X1685899Y14538604D01*
X1673656Y14527377D01*
X1662785Y14514830D01*
X1653387Y14501113D01*
X1645666Y14486432D01*
X1639620Y14470938D01*
X1635404Y14454886D01*
X1633016Y14438426D01*
X1632559Y14421815D01*
X1633982Y14405254D01*
X1637283Y14388998D01*
X1642414Y14373199D01*
X1649323Y14358061D01*
X1657908Y14343837D01*
X1668018Y14330680D01*
X1679600Y14318792D01*
X1692452Y14308277D01*
X1706473Y14299285D01*
X1721357Y14291970D01*
X1737004Y14286382D01*
X1753209Y14282623D01*
G37*
G36*
X5325668Y14280743D02*
G01*
X5342280Y14280743D01*
X5358790Y14282623D01*
X5374995Y14286382D01*
X5390642Y14291970D01*
X5405526Y14299285D01*
X5419496Y14308277D01*
X5432348Y14318792D01*
X5443931Y14330680D01*
X5454091Y14343837D01*
X5462676Y14358061D01*
X5469585Y14373199D01*
X5474716Y14388998D01*
X5478018Y14405254D01*
X5479440Y14421815D01*
X5478932Y14438426D01*
X5476595Y14454886D01*
X5472379Y14470938D01*
X5466334Y14486432D01*
X5458561Y14501113D01*
X5449214Y14514830D01*
X5438343Y14527377D01*
X5426100Y14538604D01*
X5412638Y14548357D01*
X5398160Y14556536D01*
X5382869Y14562988D01*
X5366918Y14567662D01*
X5350560Y14570506D01*
X5334000Y14571472D01*
X5317388Y14570506D01*
X5301030Y14567662D01*
X5285079Y14562988D01*
X5269788Y14556536D01*
X5255310Y14548357D01*
X5241899Y14538604D01*
X5229656Y14527377D01*
X5218785Y14514830D01*
X5209387Y14501113D01*
X5201666Y14486432D01*
X5195620Y14470938D01*
X5191404Y14454886D01*
X5189016Y14438426D01*
X5188559Y14421815D01*
X5189982Y14405254D01*
X5193284Y14388998D01*
X5198414Y14373199D01*
X5205323Y14358061D01*
X5213908Y14343837D01*
X5224018Y14330680D01*
X5235600Y14318792D01*
X5248452Y14308277D01*
X5262422Y14299285D01*
X5277358Y14291970D01*
X5293004Y14286382D01*
X5309158Y14282623D01*
G37*
G36*
X1958339Y15396565D02*
G01*
X2017522Y15396565D01*
X2017522Y15416530D01*
X2016709Y15425724D01*
X2014423Y15434208D01*
X2010714Y15442184D01*
X2005634Y15449397D01*
X1999437Y15455595D01*
X1992223Y15460675D01*
X1984248Y15464383D01*
X1975764Y15466669D01*
X1966569Y15467482D01*
X1958339Y15467482D01*
G37*
G36*
X3634486Y15396565D02*
G01*
X3693617Y15396565D01*
X3693617Y15467482D01*
X3685438Y15467482D01*
X3676243Y15466669D01*
X3667709Y15464383D01*
X3659733Y15460675D01*
X3652570Y15455595D01*
X3646322Y15449397D01*
X3641293Y15442184D01*
X3637584Y15434208D01*
X3635298Y15425724D01*
X3634486Y15416530D01*
G37*
G36*
X3736340Y15396565D02*
G01*
X3795522Y15396565D01*
X3795522Y15416530D01*
X3794709Y15425724D01*
X3792423Y15434208D01*
X3788714Y15442184D01*
X3783634Y15449397D01*
X3777437Y15455595D01*
X3770223Y15460675D01*
X3762248Y15464383D01*
X3753764Y15466669D01*
X3744569Y15467482D01*
X3736340Y15467482D01*
G37*
G36*
X1718360Y16406012D02*
G01*
X1729181Y16406012D01*
X1729181Y16487648D01*
X1600504Y16487648D01*
X1606905Y16473169D01*
X1614779Y16460216D01*
X1624126Y16448278D01*
X1634845Y16437559D01*
X1646732Y16428212D01*
X1659737Y16420388D01*
X1673555Y16414191D01*
X1687982Y16409669D01*
X1702917Y16406926D01*
G37*
G36*
X1926894Y16406012D02*
G01*
X1937715Y16406012D01*
X1953158Y16406926D01*
X1968042Y16409669D01*
X1982520Y16414191D01*
X1996338Y16420388D01*
X2009343Y16428212D01*
X2021230Y16437559D01*
X2031949Y16448278D01*
X2041296Y16460216D01*
X2049170Y16473169D01*
X2055571Y16487648D01*
X1926894Y16487648D01*
G37*
G36*
X1926894Y16575379D02*
G01*
X2055571Y16575379D01*
X2049170Y16589806D01*
X2041296Y16602811D01*
X2031949Y16614698D01*
X2021230Y16625417D01*
X2009343Y16634764D01*
X1996338Y16642638D01*
X1982520Y16648836D01*
X1968042Y16653357D01*
X1953158Y16656100D01*
X1937715Y16657015D01*
X1926894Y16657015D01*
G37*
G36*
X3527450Y16630954D02*
G01*
X3633165Y16630954D01*
X3633165Y16716349D01*
X3476498Y16716349D01*
X3476498Y16681907D01*
X3477310Y16672712D01*
X3479546Y16664228D01*
X3483305Y16656253D01*
X3488334Y16649039D01*
X3494532Y16642791D01*
X3501745Y16637762D01*
X3509721Y16634053D01*
X3518204Y16631767D01*
G37*
G36*
X3870858Y16630954D02*
G01*
X3976522Y16630954D01*
X3985768Y16631767D01*
X3994251Y16634053D01*
X4002227Y16637762D01*
X4009440Y16642791D01*
X4015638Y16649039D01*
X4020718Y16656253D01*
X4024426Y16664228D01*
X4026712Y16672712D01*
X4027474Y16681907D01*
X4027474Y16716349D01*
X3870858Y16716349D01*
G37*
G36*
X12494818Y16637812D02*
G01*
X12499644Y16639540D01*
X12513716Y16646601D01*
X12526873Y16655288D01*
X12538964Y16665397D01*
X12549784Y16676878D01*
X12559182Y16689527D01*
X12567056Y16703141D01*
X12572187Y16715130D01*
X12494818Y16715130D01*
G37*
G36*
X12397130Y16637812D02*
G01*
X12397130Y16715130D01*
X12319762Y16715130D01*
X12324892Y16703141D01*
X12332766Y16689527D01*
X12342164Y16676878D01*
X12352985Y16665397D01*
X12365075Y16655288D01*
X12378232Y16646601D01*
X12392304Y16639540D01*
G37*
G36*
X3476498Y16811548D02*
G01*
X3633165Y16811548D01*
X3633165Y16896994D01*
X3527450Y16896994D01*
X3518204Y16896181D01*
X3509721Y16893895D01*
X3501745Y16890187D01*
X3494532Y16885107D01*
X3488334Y16878909D01*
X3483305Y16871696D01*
X3479546Y16863720D01*
X3477310Y16855236D01*
X3476498Y16846042D01*
G37*
G36*
X3870858Y16811548D02*
G01*
X4027474Y16811548D01*
X4027474Y16846042D01*
X4026712Y16855236D01*
X4024426Y16863720D01*
X4020718Y16871696D01*
X4015638Y16878909D01*
X4009440Y16885107D01*
X4002227Y16890187D01*
X3994251Y16893895D01*
X3985768Y16896181D01*
X3976522Y16896994D01*
X3870858Y16896994D01*
G37*
G36*
X12319762Y16812818D02*
G01*
X12397130Y16812818D01*
X12397130Y16969130D01*
X12319762Y16969130D01*
X12324892Y16957141D01*
X12332766Y16943527D01*
X12342164Y16930878D01*
X12352985Y16919397D01*
X12365075Y16909288D01*
X12378232Y16900601D01*
X12382855Y16897197D01*
X12384735Y16893184D01*
X12384735Y16888714D01*
X12382855Y16884700D01*
X12378232Y16881297D01*
X12365075Y16872661D01*
X12352985Y16862501D01*
X12342164Y16851071D01*
X12332766Y16838422D01*
X12324892Y16824756D01*
G37*
G36*
X12494818Y16812818D02*
G01*
X12572187Y16812818D01*
X12567056Y16824756D01*
X12559182Y16838422D01*
X12549784Y16851071D01*
X12538964Y16862501D01*
X12526873Y16872661D01*
X12513716Y16881297D01*
X12509093Y16884700D01*
X12507214Y16888714D01*
X12507214Y16893184D01*
X12509093Y16897197D01*
X12513716Y16900601D01*
X12526873Y16909288D01*
X12538964Y16919397D01*
X12549784Y16930878D01*
X12559182Y16943527D01*
X12567056Y16957141D01*
X12572187Y16969130D01*
X12494818Y16969130D01*
G37*
G36*
X5773420Y16852442D02*
G01*
X5929122Y16852442D01*
X5929122Y16954093D01*
X5722467Y16954093D01*
X5722467Y16903395D01*
X5723280Y16894200D01*
X5725566Y16885716D01*
X5729274Y16877741D01*
X5734304Y16870527D01*
X5740552Y16864330D01*
X5747766Y16859250D01*
X5755741Y16855541D01*
X5764225Y16853255D01*
G37*
G36*
X6266840Y16852442D02*
G01*
X6422542Y16852442D01*
X6431737Y16853255D01*
X6440271Y16855541D01*
X6448247Y16859250D01*
X6455410Y16864330D01*
X6461658Y16870527D01*
X6466687Y16877741D01*
X6470396Y16885716D01*
X6472682Y16894200D01*
X6473494Y16903395D01*
X6473494Y16954093D01*
X6266840Y16954093D01*
G37*
G36*
X6266840Y17081804D02*
G01*
X6473494Y17081804D01*
X6473494Y17132503D01*
X6472682Y17141748D01*
X6470396Y17150232D01*
X6466687Y17158208D01*
X6461658Y17165421D01*
X6455410Y17171619D01*
X6448247Y17176699D01*
X6440271Y17180407D01*
X6431737Y17182693D01*
X6422542Y17183455D01*
X6266840Y17183455D01*
G37*
G36*
X5722467Y17081804D02*
G01*
X5929122Y17081804D01*
X5929122Y17183455D01*
X5773420Y17183455D01*
X5764225Y17182693D01*
X5755741Y17180407D01*
X5747766Y17176699D01*
X5740552Y17171619D01*
X5734304Y17165421D01*
X5729274Y17158208D01*
X5725566Y17150232D01*
X5723280Y17141748D01*
X5722467Y17132503D01*
G37*
G36*
X1521917Y17097857D02*
G01*
X1603552Y17097857D01*
X1603552Y17111218D01*
X1602638Y17126610D01*
X1599895Y17141545D01*
X1595374Y17156023D01*
X1589176Y17169841D01*
X1581302Y17182795D01*
X1571955Y17194733D01*
X1561287Y17205452D01*
X1549349Y17214799D01*
X1536344Y17222622D01*
X1521917Y17229023D01*
G37*
G36*
X4185462Y18084698D02*
G01*
X4207408Y18084698D01*
X4216603Y18085511D01*
X4225137Y18087746D01*
X4233113Y18091505D01*
X4240276Y18096534D01*
X4246524Y18102732D01*
X4251553Y18109946D01*
X4255262Y18117921D01*
X4257548Y18126405D01*
X4258360Y18135650D01*
X4258360Y18208853D01*
X4185462Y18208853D01*
G37*
G36*
X1800352Y18137479D02*
G01*
X1843582Y18137479D01*
X1852777Y18138241D01*
X1861261Y18140527D01*
X1869236Y18144236D01*
X1876450Y18149316D01*
X1882648Y18155513D01*
X1887728Y18162727D01*
X1891436Y18170702D01*
X1893722Y18179186D01*
X1894535Y18188432D01*
X1894535Y18231612D01*
X1800352Y18231612D01*
G37*
G36*
X6974331Y18314466D02*
G01*
X6982561Y18314466D01*
X6991756Y18315279D01*
X7000240Y18317565D01*
X7008215Y18321274D01*
X7015429Y18326303D01*
X7021626Y18332551D01*
X7026706Y18339765D01*
X7030415Y18347740D01*
X7032701Y18356224D01*
X7033514Y18365419D01*
X7033514Y18385383D01*
X6974331Y18385383D01*
G37*
G36*
X7736331Y18314466D02*
G01*
X7744561Y18314466D01*
X7753756Y18315279D01*
X7762240Y18317565D01*
X7770215Y18321274D01*
X7777429Y18326303D01*
X7783626Y18332551D01*
X7788706Y18339765D01*
X7792415Y18347740D01*
X7794701Y18356224D01*
X7795514Y18365419D01*
X7795514Y18385383D01*
X7736331Y18385383D01*
G37*
G36*
X7685430Y18314466D02*
G01*
X7693659Y18314466D01*
X7693659Y18385383D01*
X7634478Y18385383D01*
X7634478Y18365419D01*
X7635290Y18356224D01*
X7637576Y18347740D01*
X7641285Y18339765D01*
X7646314Y18332551D01*
X7652562Y18326303D01*
X7659776Y18321274D01*
X7667752Y18317565D01*
X7676235Y18315279D01*
G37*
G36*
X6923430Y18314466D02*
G01*
X6931659Y18314466D01*
X6931659Y18385383D01*
X6872478Y18385383D01*
X6872478Y18365419D01*
X6873290Y18356224D01*
X6875576Y18347740D01*
X6879285Y18339765D01*
X6884314Y18332551D01*
X6890562Y18326303D01*
X6897776Y18321274D01*
X6905752Y18317565D01*
X6914235Y18315279D01*
G37*
G36*
X1800352Y18344337D02*
G01*
X1894535Y18344337D01*
X1894535Y18387517D01*
X1893722Y18396712D01*
X1891436Y18405246D01*
X1887728Y18413222D01*
X1882648Y18420384D01*
X1876450Y18426633D01*
X1869236Y18431662D01*
X1861261Y18435370D01*
X1852777Y18437656D01*
X1843582Y18438469D01*
X1800352Y18438469D01*
G37*
G36*
X2376322Y18391428D02*
G01*
X2419553Y18391428D01*
X2428748Y18392241D01*
X2437231Y18394527D01*
X2445207Y18398236D01*
X2452420Y18403316D01*
X2458669Y18409513D01*
X2463698Y18416727D01*
X2467406Y18424702D01*
X2469692Y18433186D01*
X2470505Y18442381D01*
X2470505Y18485612D01*
X2376322Y18485612D01*
G37*
G36*
X2220417Y18391428D02*
G01*
X2263648Y18391428D01*
X2263648Y18485612D01*
X2169464Y18485612D01*
X2169464Y18442381D01*
X2170277Y18433186D01*
X2172563Y18424702D01*
X2176272Y18416727D01*
X2181301Y18409513D01*
X2187549Y18403316D01*
X2194763Y18398236D01*
X2202738Y18394527D01*
X2211222Y18392241D01*
G37*
G36*
X7736331Y18451576D02*
G01*
X7795514Y18451576D01*
X7795514Y18471540D01*
X7794701Y18480735D01*
X7792415Y18489218D01*
X7788706Y18497194D01*
X7783626Y18504408D01*
X7777429Y18510656D01*
X7770215Y18515685D01*
X7762240Y18519394D01*
X7753756Y18521680D01*
X7744561Y18522492D01*
X7736331Y18522492D01*
G37*
G36*
X7634478Y18451576D02*
G01*
X7693659Y18451576D01*
X7693659Y18522492D01*
X7685430Y18522492D01*
X7676235Y18521680D01*
X7667752Y18519394D01*
X7659776Y18515685D01*
X7652562Y18510656D01*
X7646314Y18504408D01*
X7641285Y18497194D01*
X7637576Y18489218D01*
X7635290Y18480735D01*
X7634478Y18471540D01*
G37*
G36*
X2376322Y18598286D02*
G01*
X2470505Y18598286D01*
X2470505Y18641517D01*
X2469692Y18650712D01*
X2467406Y18659246D01*
X2463698Y18667171D01*
X2458669Y18674384D01*
X2452420Y18680633D01*
X2445207Y18685662D01*
X2437231Y18689370D01*
X2428748Y18691656D01*
X2419553Y18692469D01*
X2376322Y18692469D01*
G37*
G36*
X2169464Y18598286D02*
G01*
X2263648Y18598286D01*
X2263648Y18692469D01*
X2220417Y18692469D01*
X2211222Y18691656D01*
X2202738Y18689370D01*
X2194763Y18685662D01*
X2187549Y18680633D01*
X2181301Y18674384D01*
X2176272Y18667171D01*
X2172563Y18659246D01*
X2170277Y18650712D01*
X2169464Y18641517D01*
G37*
G36*
X4051300Y18839840D02*
G01*
X4241292Y18839840D01*
X4250486Y18840653D01*
X4259021Y18842888D01*
X4266996Y18846647D01*
X4274159Y18851676D01*
X4280408Y18857874D01*
X4285437Y18865088D01*
X4289145Y18873063D01*
X4291431Y18881547D01*
X4292244Y18890792D01*
X4292244Y19017335D01*
X4051300Y19017335D01*
G37*
G36*
X3442157Y18839840D02*
G01*
X3632200Y18839840D01*
X3632200Y19017335D01*
X3391204Y19017335D01*
X3391204Y18890792D01*
X3391966Y18881547D01*
X3394252Y18873063D01*
X3397961Y18865088D01*
X3403041Y18857874D01*
X3409238Y18851676D01*
X3416452Y18846647D01*
X3424428Y18842888D01*
X3432911Y18840653D01*
G37*
G36*
X8464905Y19058839D02*
G01*
X8464905Y19132905D01*
X8391093Y19132905D01*
X8397494Y19118478D01*
X8405368Y19105473D01*
X8414766Y19093484D01*
X8425484Y19082715D01*
X8437473Y19073368D01*
X8450478Y19065494D01*
X8464397Y19059245D01*
G37*
G36*
X8553043Y19058839D02*
G01*
X8553551Y19059245D01*
X8567470Y19065494D01*
X8580475Y19073368D01*
X8592464Y19082715D01*
X8603234Y19093484D01*
X8612581Y19105473D01*
X8620455Y19118478D01*
X8626703Y19132397D01*
X8627110Y19132905D01*
X8553043Y19132905D01*
G37*
G36*
X8391093Y19220992D02*
G01*
X8464905Y19220992D01*
X8464905Y19294856D01*
X8450478Y19288455D01*
X8437473Y19280581D01*
X8425484Y19271183D01*
X8414766Y19260464D01*
X8405368Y19248475D01*
X8397494Y19235470D01*
G37*
G36*
X11347043Y19220992D02*
G01*
X11420856Y19220992D01*
X11414455Y19235470D01*
X11406581Y19248475D01*
X11397234Y19260464D01*
X11386464Y19271183D01*
X11374475Y19280581D01*
X11361470Y19288455D01*
X11347043Y19294856D01*
G37*
G36*
X11184890Y19220992D02*
G01*
X11258905Y19220992D01*
X11258905Y19294856D01*
X11244478Y19288455D01*
X11231473Y19280581D01*
X11219484Y19271183D01*
X11208766Y19260464D01*
X11199368Y19248475D01*
X11191494Y19235470D01*
G37*
G36*
X8553043Y19220992D02*
G01*
X8627110Y19220992D01*
X8626703Y19221551D01*
X8620455Y19235470D01*
X8612581Y19248475D01*
X8603234Y19260464D01*
X8592464Y19271183D01*
X8580475Y19280581D01*
X8567470Y19288455D01*
X8553043Y19294856D01*
G37*
G36*
X4051300Y19576135D02*
G01*
X4406595Y19576135D01*
X4406595Y19702678D01*
X4405782Y19711924D01*
X4403496Y19720407D01*
X4399788Y19728383D01*
X4394758Y19735596D01*
X4388510Y19741794D01*
X4381347Y19746823D01*
X4373372Y19750582D01*
X4364837Y19752818D01*
X4355642Y19753630D01*
X4051300Y19753630D01*
G37*
G36*
X3213404Y19576135D02*
G01*
X3632200Y19576135D01*
X3632200Y19753630D01*
X3264357Y19753630D01*
X3255111Y19752818D01*
X3246628Y19750582D01*
X3238652Y19746823D01*
X3231438Y19741794D01*
X3225241Y19735596D01*
X3220161Y19728383D01*
X3216452Y19720407D01*
X3214166Y19711924D01*
X3213404Y19702678D01*
G37*
G36*
X1020165Y19913904D02*
G01*
X1036878Y19915276D01*
X1053338Y19918527D01*
X1069340Y19923506D01*
X1084681Y19930262D01*
X1099210Y19938644D01*
X1112672Y19948550D01*
X1125016Y19959878D01*
X1136040Y19972528D01*
X1145590Y19986294D01*
X1153566Y20001026D01*
X1159865Y20016571D01*
X1164386Y20032675D01*
X1167180Y20049236D01*
X1168095Y20065949D01*
X1167180Y20082662D01*
X1164386Y20099223D01*
X1159865Y20115326D01*
X1153566Y20130871D01*
X1145590Y20145603D01*
X1136040Y20159370D01*
X1125016Y20172019D01*
X1112672Y20183348D01*
X1099210Y20193254D01*
X1084681Y20201636D01*
X1069340Y20208392D01*
X1053338Y20213370D01*
X1036878Y20216622D01*
X1020165Y20217993D01*
X1003452Y20217536D01*
X986840Y20215199D01*
X970584Y20211084D01*
X954887Y20205242D01*
X939952Y20197673D01*
X925931Y20188478D01*
X912977Y20177861D01*
X901293Y20165822D01*
X891032Y20152614D01*
X882243Y20138339D01*
X875080Y20123200D01*
X869645Y20107351D01*
X865987Y20090993D01*
X864158Y20074331D01*
X864158Y20057567D01*
X865987Y20040904D01*
X869645Y20024547D01*
X875080Y20008697D01*
X882243Y19993559D01*
X891032Y19979284D01*
X901293Y19966076D01*
X912977Y19954036D01*
X925931Y19943419D01*
X939952Y19934224D01*
X954887Y19926655D01*
X970584Y19920813D01*
X986840Y19916698D01*
X1003452Y19914362D01*
G37*
G36*
X12958165Y19913904D02*
G01*
X12974878Y19915276D01*
X12991287Y19918527D01*
X13007289Y19923506D01*
X13022630Y19930262D01*
X13037159Y19938644D01*
X13050672Y19948550D01*
X13063016Y19959878D01*
X13073989Y19972528D01*
X13083540Y19986294D01*
X13091515Y20001026D01*
X13097814Y20016571D01*
X13102386Y20032675D01*
X13105130Y20049236D01*
X13106044Y20065949D01*
X13105130Y20082662D01*
X13102386Y20099223D01*
X13097814Y20115326D01*
X13091515Y20130871D01*
X13083540Y20145603D01*
X13073989Y20159370D01*
X13063016Y20172019D01*
X13050672Y20183348D01*
X13037159Y20193254D01*
X13022630Y20201636D01*
X13007289Y20208392D01*
X12991287Y20213370D01*
X12974878Y20216622D01*
X12958165Y20217993D01*
X12941401Y20217536D01*
X12924840Y20215199D01*
X12908584Y20211084D01*
X12892887Y20205242D01*
X12877952Y20197673D01*
X12863880Y20188478D01*
X12850977Y20177861D01*
X12839293Y20165822D01*
X12828981Y20152614D01*
X12820192Y20138339D01*
X12813080Y20123200D01*
X12807645Y20107351D01*
X12803936Y20090993D01*
X12802108Y20074331D01*
X12802108Y20057567D01*
X12803936Y20040904D01*
X12807645Y20024547D01*
X12813080Y20008697D01*
X12820192Y19993559D01*
X12828981Y19979284D01*
X12839293Y19966076D01*
X12850977Y19954036D01*
X12863880Y19943419D01*
X12877952Y19934224D01*
X12892887Y19926655D01*
X12908584Y19920813D01*
X12924840Y19916698D01*
X12941401Y19914362D01*
G37*

%LPD*%
G36*
X6637985Y15292933D02*
G01*
X6633972Y15293746D01*
X6630619Y15296083D01*
X6628434Y15299537D01*
X6627825Y15303601D01*
X6628841Y15307563D01*
X6631381Y15310815D01*
X6633768Y15312847D01*
X6660134Y15339212D01*
X6667042Y15347340D01*
X6672427Y15356078D01*
X6676390Y15365679D01*
X6678371Y15369743D01*
X6681876Y15372486D01*
X6686245Y15373502D01*
X6758584Y15373502D01*
X6767779Y15374315D01*
X6776262Y15376550D01*
X6784238Y15380309D01*
X6791452Y15385338D01*
X6797700Y15391536D01*
X6802729Y15398750D01*
X6806438Y15406725D01*
X6808724Y15415209D01*
X6809384Y15422829D01*
X6810400Y15426436D01*
X6812635Y15429433D01*
X6815836Y15431414D01*
X6819493Y15432125D01*
X7180732Y15432125D01*
X7184847Y15431262D01*
X7188250Y15428823D01*
X7190384Y15425216D01*
X7190892Y15421051D01*
X7190486Y15416530D01*
X7190486Y15396565D01*
X7249617Y15396565D01*
X7249617Y15421965D01*
X7250430Y15425826D01*
X7252614Y15429128D01*
X7255916Y15431312D01*
X7259777Y15432125D01*
X7282180Y15432125D01*
X7286040Y15431312D01*
X7289342Y15429128D01*
X7291578Y15425826D01*
X7292340Y15421965D01*
X7292340Y15396565D01*
X7320127Y15396565D01*
X7324039Y15395803D01*
X7327290Y15393568D01*
X7329525Y15390266D01*
X7330287Y15386405D01*
X7330287Y15340533D01*
X7329525Y15336621D01*
X7327290Y15333319D01*
X7324039Y15331135D01*
X7320127Y15330373D01*
X7292340Y15330373D01*
X7292340Y15303093D01*
X7291578Y15299182D01*
X7289342Y15295880D01*
X7286040Y15293695D01*
X7282180Y15292933D01*
X7259777Y15292933D01*
X7255916Y15293695D01*
X7252614Y15295880D01*
X7250430Y15299182D01*
X7249617Y15303093D01*
X7249617Y15330373D01*
X7190486Y15330373D01*
X7190486Y15310408D01*
X7191044Y15303957D01*
X7190536Y15299791D01*
X7188403Y15296235D01*
X7184999Y15293797D01*
X7180935Y15292933D01*
G37*

%LPD*%
G36*
X9075420Y15226436D02*
G01*
X9071508Y15227249D01*
X9068206Y15229433D01*
X9055557Y15242082D01*
X9054541Y15243657D01*
X9052966Y15244673D01*
X9030614Y15267025D01*
X9028430Y15270327D01*
X9027617Y15274239D01*
X9027617Y15330373D01*
X8971483Y15330373D01*
X8967622Y15331135D01*
X8964320Y15333319D01*
X8927693Y15369946D01*
X8919616Y15376855D01*
X8910828Y15382240D01*
X8901328Y15386151D01*
X8891371Y15388590D01*
X8880703Y15389402D01*
X8592312Y15389402D01*
X8588349Y15390215D01*
X8584996Y15392501D01*
X8582812Y15395905D01*
X8582152Y15399918D01*
X8583117Y15403880D01*
X8584438Y15406725D01*
X8586724Y15415209D01*
X8587486Y15423794D01*
X8588451Y15427350D01*
X8590635Y15430296D01*
X8593683Y15432278D01*
X8601811Y15435630D01*
X8610549Y15441015D01*
X8618677Y15447924D01*
X8656320Y15485618D01*
X8659622Y15487802D01*
X8663482Y15488564D01*
X9020302Y15488564D01*
X9024213Y15487802D01*
X9028277Y15484805D01*
X9030462Y15481503D01*
X9031224Y15477642D01*
X9030462Y15473730D01*
X9028277Y15470428D01*
X9024975Y15468244D01*
X9019438Y15467482D01*
X9010192Y15466669D01*
X9001709Y15464383D01*
X8993733Y15460675D01*
X8986520Y15455595D01*
X8980322Y15449397D01*
X8975293Y15442184D01*
X8971534Y15434208D01*
X8969298Y15425724D01*
X8968486Y15416530D01*
X8968486Y15396565D01*
X9027617Y15396565D01*
X9027617Y15460929D01*
X9028430Y15464790D01*
X9030614Y15468092D01*
X9033916Y15470327D01*
X9037777Y15471089D01*
X9041688Y15470327D01*
X9044990Y15468092D01*
X9067342Y15445740D01*
X9069578Y15442438D01*
X9070340Y15438526D01*
X9070340Y15396565D01*
X9098127Y15396565D01*
X9102039Y15395803D01*
X9105290Y15393568D01*
X9107525Y15390266D01*
X9108287Y15386405D01*
X9108287Y15340533D01*
X9107525Y15336621D01*
X9105290Y15333319D01*
X9102039Y15331135D01*
X9098127Y15330373D01*
X9070340Y15330373D01*
X9070340Y15259456D01*
X9078671Y15259456D01*
X9082176Y15259659D01*
X9086494Y15258948D01*
X9090152Y15256510D01*
X9092387Y15252700D01*
X9092844Y15248331D01*
X9091422Y15244216D01*
X9085630Y15234767D01*
X9084818Y15232735D01*
X9082582Y15229433D01*
X9079280Y15227249D01*
G37*

%LPD*%
G36*
X4478223Y15133929D02*
G01*
X4474667Y15134996D01*
X4471720Y15137282D01*
X4469790Y15140432D01*
X4469130Y15144038D01*
X4469130Y15229332D01*
X4468266Y15240000D01*
X4465878Y15249956D01*
X4461916Y15259456D01*
X4456582Y15268244D01*
X4449622Y15276372D01*
X4414672Y15311323D01*
X4412488Y15314574D01*
X4411726Y15318486D01*
X4411726Y15355214D01*
X4410913Y15364409D01*
X4408627Y15372892D01*
X4404918Y15380868D01*
X4399838Y15388082D01*
X4393641Y15394330D01*
X4386427Y15399359D01*
X4378452Y15403068D01*
X4369968Y15405354D01*
X4360773Y15406166D01*
X4275226Y15406166D01*
X4266031Y15405354D01*
X4257548Y15403068D01*
X4249572Y15399359D01*
X4242358Y15394330D01*
X4236161Y15388082D01*
X4231081Y15380868D01*
X4227372Y15372892D01*
X4225086Y15364409D01*
X4224274Y15355214D01*
X4224274Y15279065D01*
X4223613Y15275458D01*
X4221734Y15272359D01*
X4218889Y15270073D01*
X4215384Y15269006D01*
X4211777Y15269210D01*
X4209643Y15269718D01*
X4198975Y15270530D01*
X3988054Y15270530D01*
X3984040Y15271343D01*
X3980738Y15273629D01*
X3978554Y15277033D01*
X3977894Y15281046D01*
X3978808Y15285008D01*
X3982415Y15292679D01*
X3984701Y15301213D01*
X3985514Y15310408D01*
X3985514Y15416530D01*
X3984701Y15425724D01*
X3982415Y15434208D01*
X3978706Y15442184D01*
X3971290Y15452851D01*
X3970528Y15456763D01*
X3970528Y15501874D01*
X3969664Y15512542D01*
X3967276Y15522498D01*
X3963314Y15531998D01*
X3957980Y15540786D01*
X3951020Y15548914D01*
X3900627Y15599308D01*
X3898392Y15602712D01*
X3897680Y15606776D01*
X3898595Y15610789D01*
X3900627Y15615056D01*
X3902913Y15623540D01*
X3903726Y15632785D01*
X3903726Y15712541D01*
X3902913Y15721736D01*
X3900627Y15730219D01*
X3896918Y15738195D01*
X3894124Y15742157D01*
X3892499Y15745917D01*
X3892499Y15750032D01*
X3894124Y15753791D01*
X3896918Y15757753D01*
X3900627Y15765729D01*
X3902913Y15774212D01*
X3903726Y15783407D01*
X3903726Y15863163D01*
X3902913Y15872358D01*
X3900627Y15880892D01*
X3898595Y15885210D01*
X3897680Y15889173D01*
X3898392Y15893237D01*
X3900627Y15896691D01*
X4107179Y16103244D01*
X4110482Y16105428D01*
X4114342Y16106190D01*
X6841642Y16106190D01*
X6852259Y16107054D01*
X6862267Y16109442D01*
X6871766Y16113353D01*
X6880504Y16118738D01*
X6888632Y16125647D01*
X8235442Y17472456D01*
X8238693Y17474641D01*
X8242604Y17475454D01*
X8390382Y17475454D01*
X8394547Y17474539D01*
X8397951Y17471999D01*
X8400034Y17468291D01*
X8400440Y17464074D01*
X8399068Y17460010D01*
X8397494Y17457470D01*
X8391296Y17443602D01*
X8386724Y17429073D01*
X8384031Y17414138D01*
X8383066Y17398949D01*
X8384031Y17383810D01*
X8386724Y17368824D01*
X8391296Y17354346D01*
X8397494Y17340478D01*
X8405368Y17327473D01*
X8414766Y17315484D01*
X8425484Y17304715D01*
X8437473Y17295368D01*
X8450478Y17287494D01*
X8464397Y17281245D01*
X8467547Y17279010D01*
X8469630Y17275759D01*
X8470392Y17271949D01*
X8469630Y17268190D01*
X8467547Y17264938D01*
X8464397Y17262703D01*
X8450478Y17256455D01*
X8437473Y17248581D01*
X8425484Y17239183D01*
X8414766Y17228464D01*
X8405368Y17216475D01*
X8397494Y17203470D01*
X8391296Y17189602D01*
X8386724Y17175073D01*
X8384031Y17160138D01*
X8383066Y17144949D01*
X8384031Y17129810D01*
X8386724Y17114824D01*
X8391296Y17100346D01*
X8397494Y17086478D01*
X8405368Y17073473D01*
X8414766Y17061484D01*
X8425484Y17050715D01*
X8437473Y17041368D01*
X8450478Y17033494D01*
X8464397Y17027245D01*
X8467547Y17025010D01*
X8469630Y17021759D01*
X8470392Y17017949D01*
X8469630Y17014190D01*
X8467547Y17010938D01*
X8464397Y17008703D01*
X8450478Y17002455D01*
X8437473Y16994581D01*
X8425484Y16985183D01*
X8414766Y16974464D01*
X8405368Y16962475D01*
X8397494Y16949470D01*
X8391296Y16935602D01*
X8386724Y16921073D01*
X8384031Y16906138D01*
X8383066Y16890949D01*
X8384031Y16875810D01*
X8386724Y16860824D01*
X8391296Y16846346D01*
X8397494Y16832478D01*
X8405368Y16819473D01*
X8414766Y16807484D01*
X8417610Y16803522D01*
X8418423Y16799610D01*
X8417610Y16795750D01*
X8415426Y16792448D01*
X8412124Y16790212D01*
X8408263Y16789450D01*
X7759903Y16789450D01*
X7749286Y16788638D01*
X7739278Y16786199D01*
X7729778Y16782288D01*
X7721041Y16776903D01*
X7712913Y16769994D01*
X6568033Y15625114D01*
X6561632Y15617596D01*
X6559194Y15615513D01*
X6556197Y15614294D01*
X6552996Y15614040D01*
X6548526Y15614446D01*
X6449415Y15614446D01*
X6440170Y15613634D01*
X6431686Y15611348D01*
X6423710Y15607639D01*
X6416497Y15602610D01*
X6410299Y15596362D01*
X6402832Y15585744D01*
X6399530Y15583662D01*
X6395720Y15583001D01*
X6391910Y15583814D01*
X6388709Y15585998D01*
X6036767Y15937941D01*
X6034430Y15941598D01*
X6033770Y15945866D01*
X6034176Y15951098D01*
X6033262Y15963696D01*
X6030671Y15976041D01*
X6026353Y15987877D01*
X6020409Y15999053D01*
X6012992Y16009264D01*
X6004204Y16018306D01*
X5994298Y16026079D01*
X5983325Y16032429D01*
X5971641Y16037153D01*
X5959398Y16040201D01*
X5946851Y16041522D01*
X5934202Y16041065D01*
X5921806Y16038880D01*
X5909767Y16034969D01*
X5898438Y16029432D01*
X5894070Y16027044D01*
X5891123Y16026587D01*
X5030419Y16026536D01*
X5021580Y16025723D01*
X5019192Y16025317D01*
X5010607Y16023183D01*
X5008270Y16022421D01*
X5000091Y16019018D01*
X4990338Y16013379D01*
X4988356Y16011956D01*
X4981549Y16006318D01*
X4665776Y15690494D01*
X4660087Y15683687D01*
X4654143Y15674136D01*
X4653026Y15671952D01*
X4649622Y15663773D01*
X4648860Y15661436D01*
X4646726Y15652851D01*
X4646320Y15650463D01*
X4645507Y15641624D01*
X4645456Y15612770D01*
X4644948Y15609569D01*
X4643475Y15606674D01*
X4641138Y15604439D01*
X4638497Y15602610D01*
X4632299Y15596362D01*
X4627270Y15589199D01*
X4623511Y15581223D01*
X4622393Y15577007D01*
X4620412Y15573146D01*
X4616907Y15570454D01*
X4612640Y15569488D01*
X4593234Y15569438D01*
X4584496Y15568625D01*
X4582058Y15568218D01*
X4573473Y15566085D01*
X4571187Y15565323D01*
X4563008Y15561919D01*
X4553254Y15556280D01*
X4551222Y15554858D01*
X4544415Y15549219D01*
X4488688Y15493441D01*
X4482998Y15486634D01*
X4477054Y15477032D01*
X4475937Y15474848D01*
X4472533Y15466669D01*
X4471771Y15464383D01*
X4469638Y15455798D01*
X4469231Y15453360D01*
X4468418Y15444571D01*
X4468368Y15415666D01*
X4467961Y15412872D01*
X4466844Y15410281D01*
X4463999Y15405709D01*
X4458868Y15394178D01*
X4455363Y15382036D01*
X4453636Y15369540D01*
X4453636Y15356941D01*
X4455363Y15344444D01*
X4458868Y15332303D01*
X4463999Y15320772D01*
X4470704Y15310053D01*
X4478782Y15300401D01*
X4488180Y15291968D01*
X4498644Y15284907D01*
X4509973Y15279369D01*
X4522012Y15275458D01*
X4534408Y15273274D01*
X4547057Y15272816D01*
X4559604Y15274137D01*
X4571847Y15277185D01*
X4583531Y15281910D01*
X4594504Y15288209D01*
X4604410Y15295981D01*
X4613198Y15305074D01*
X4620615Y15315285D01*
X4626559Y15326461D01*
X4630877Y15338298D01*
X4633468Y15350642D01*
X4634382Y15363240D01*
X4633976Y15369133D01*
X4634534Y15373299D01*
X4636719Y15376855D01*
X4640173Y15379242D01*
X4644288Y15380004D01*
X4648403Y15379039D01*
X4653686Y15376550D01*
X4662220Y15374315D01*
X4671415Y15373502D01*
X4770526Y15373502D01*
X4779721Y15374315D01*
X4788204Y15376550D01*
X4796180Y15380309D01*
X4803394Y15385338D01*
X4809642Y15391536D01*
X4814671Y15398750D01*
X4816805Y15403271D01*
X4819040Y15406369D01*
X4822240Y15408452D01*
X4826000Y15409163D01*
X4829759Y15408452D01*
X4832959Y15406369D01*
X4835194Y15403271D01*
X4837328Y15398750D01*
X4842357Y15391536D01*
X4848555Y15385338D01*
X4855768Y15380309D01*
X4863744Y15376550D01*
X4872278Y15374315D01*
X4881473Y15373502D01*
X4980584Y15373502D01*
X4989779Y15374315D01*
X4998262Y15376550D01*
X5006238Y15380309D01*
X5013452Y15385338D01*
X5019700Y15391536D01*
X5024729Y15398750D01*
X5028438Y15406725D01*
X5030724Y15415209D01*
X5031232Y15421051D01*
X5032248Y15424657D01*
X5034483Y15427655D01*
X5037683Y15429636D01*
X5041341Y15430296D01*
X5402580Y15430296D01*
X5406694Y15429433D01*
X5410098Y15426994D01*
X5412232Y15423388D01*
X5412740Y15419273D01*
X5412486Y15416530D01*
X5412486Y15396565D01*
X5471617Y15396565D01*
X5471617Y15420136D01*
X5472430Y15424048D01*
X5474614Y15427350D01*
X5477916Y15429534D01*
X5481777Y15430296D01*
X5504180Y15430296D01*
X5508091Y15429534D01*
X5511342Y15427350D01*
X5513578Y15424048D01*
X5514340Y15420136D01*
X5514340Y15396565D01*
X5542127Y15396565D01*
X5546039Y15395803D01*
X5549341Y15393568D01*
X5551525Y15390266D01*
X5552287Y15386405D01*
X5552287Y15340533D01*
X5551525Y15336621D01*
X5549341Y15333319D01*
X5546039Y15331135D01*
X5542127Y15330373D01*
X5514340Y15330373D01*
X5514340Y15303093D01*
X5513578Y15299182D01*
X5511342Y15295880D01*
X5508091Y15293695D01*
X5504180Y15292933D01*
X5481777Y15292933D01*
X5477916Y15293695D01*
X5474614Y15295880D01*
X5472430Y15299182D01*
X5471617Y15303093D01*
X5471617Y15330373D01*
X5412486Y15330373D01*
X5412486Y15310408D01*
X5413044Y15303957D01*
X5412536Y15299791D01*
X5410403Y15296235D01*
X5406999Y15293797D01*
X5402935Y15292933D01*
X4902809Y15292933D01*
X4889347Y15292019D01*
X4876444Y15289479D01*
X4863998Y15285262D01*
X4852212Y15279420D01*
X4841290Y15272105D01*
X4831130Y15263266D01*
X4725212Y15157297D01*
X4716322Y15147188D01*
X4711750Y15140330D01*
X4709261Y15137739D01*
X4706010Y15136215D01*
X4702454Y15135860D01*
X4695545Y15136469D01*
X4496409Y15136469D01*
X4487214Y15135656D01*
X4481880Y15134234D01*
G37*

%LPD*%
G36*
X9616084Y14124838D02*
G01*
X9611715Y14125854D01*
X9608159Y14128597D01*
X9606178Y14132661D01*
X9606127Y14137132D01*
X9608058Y14141196D01*
X9610090Y14143837D01*
X9618675Y14158061D01*
X9625533Y14173200D01*
X9630714Y14188998D01*
X9633966Y14205254D01*
X9635388Y14221815D01*
X9634931Y14238427D01*
X9632594Y14254886D01*
X9628327Y14270939D01*
X9622332Y14286433D01*
X9614560Y14301114D01*
X9605213Y14314830D01*
X9594291Y14327378D01*
X9582099Y14338604D01*
X9568637Y14348358D01*
X9554159Y14356537D01*
X9538868Y14362988D01*
X9522917Y14367662D01*
X9506559Y14370507D01*
X9489998Y14371472D01*
X9473387Y14370507D01*
X9460534Y14368272D01*
X9457334Y14368272D01*
X9454235Y14369237D01*
X9451644Y14371116D01*
X8865514Y14957247D01*
X8863330Y14960549D01*
X8862517Y14964410D01*
X8862517Y14985796D01*
X8862314Y14991638D01*
X8861704Y14997226D01*
X8860637Y15002763D01*
X8859164Y15008250D01*
X8857284Y15013584D01*
X8855049Y15018766D01*
X8852408Y15023744D01*
X8849410Y15028519D01*
X8846058Y15033040D01*
X8842349Y15037358D01*
X8838387Y15041321D01*
X8834120Y15045029D01*
X8829548Y15048382D01*
X8824772Y15051379D01*
X8819794Y15054021D01*
X8814612Y15056256D01*
X8809278Y15058136D01*
X8803843Y15059609D01*
X8798306Y15060625D01*
X8792667Y15061285D01*
X8786825Y15061488D01*
X8772652Y15061488D01*
X8768740Y15062250D01*
X8765438Y15064486D01*
X8763254Y15067737D01*
X8762492Y15071648D01*
X8762492Y15085517D01*
X8761679Y15094712D01*
X8759393Y15103246D01*
X8755684Y15111222D01*
X8750655Y15118384D01*
X8744407Y15124633D01*
X8737193Y15129662D01*
X8729218Y15133370D01*
X8720734Y15135656D01*
X8711539Y15136469D01*
X8697620Y15136469D01*
X8693759Y15137231D01*
X8690457Y15139466D01*
X8688273Y15142768D01*
X8687460Y15146629D01*
X8687460Y15160853D01*
X8687257Y15166695D01*
X8686647Y15172283D01*
X8685580Y15177820D01*
X8684107Y15183307D01*
X8682228Y15188641D01*
X8679992Y15193822D01*
X8677351Y15198801D01*
X8674354Y15203576D01*
X8671001Y15208097D01*
X8667292Y15212415D01*
X8663330Y15216378D01*
X8659063Y15220086D01*
X8654491Y15223439D01*
X8649716Y15226436D01*
X8644737Y15229078D01*
X8639556Y15231313D01*
X8634222Y15233192D01*
X8628786Y15234666D01*
X8623249Y15235682D01*
X8617610Y15236342D01*
X8611768Y15236545D01*
X8500364Y15236545D01*
X8496452Y15237307D01*
X8493150Y15239542D01*
X8491626Y15241066D01*
X8489442Y15244368D01*
X8488629Y15248229D01*
X8489442Y15252141D01*
X8491626Y15255443D01*
X8494928Y15257627D01*
X8498789Y15258389D01*
X8849766Y15258389D01*
X8853678Y15257627D01*
X8856929Y15255443D01*
X8997645Y15114727D01*
X9005773Y15107767D01*
X9014510Y15102433D01*
X9024010Y15098471D01*
X9034018Y15096083D01*
X9044635Y15095270D01*
X9053322Y15095270D01*
X9057182Y15094457D01*
X9060484Y15092273D01*
X9062720Y15088971D01*
X9063482Y15085110D01*
X9063482Y15063419D01*
X9064294Y15054173D01*
X9066580Y15045690D01*
X9070289Y15037714D01*
X9075318Y15030500D01*
X9081566Y15024303D01*
X9088729Y15019274D01*
X9096705Y15015514D01*
X9105239Y15013279D01*
X9114434Y15012466D01*
X9173514Y15012466D01*
X9182760Y15013279D01*
X9191244Y15015514D01*
X9199219Y15019274D01*
X9206433Y15024303D01*
X9212630Y15030500D01*
X9217710Y15037714D01*
X9221419Y15045690D01*
X9223705Y15054173D01*
X9224467Y15063419D01*
X9224467Y15129357D01*
X9225280Y15133269D01*
X9227464Y15136571D01*
X9230766Y15138755D01*
X9234627Y15139517D01*
X9502038Y15139517D01*
X9505950Y15138755D01*
X9509201Y15136571D01*
X9527133Y15118638D01*
X9535261Y15111679D01*
X9543999Y15106345D01*
X9553498Y15102382D01*
X9560915Y15100604D01*
X9564268Y15099131D01*
X9566859Y15096591D01*
X9570161Y15091918D01*
X9576358Y15085669D01*
X9583572Y15080640D01*
X9591548Y15076932D01*
X9600031Y15074646D01*
X9609226Y15073833D01*
X9694773Y15073833D01*
X9703968Y15074646D01*
X9712452Y15076932D01*
X9720427Y15080640D01*
X9727641Y15085669D01*
X9733838Y15091918D01*
X9738918Y15099131D01*
X9742627Y15107107D01*
X9744913Y15115590D01*
X9745726Y15124785D01*
X9745726Y15204541D01*
X9744913Y15213787D01*
X9742627Y15222270D01*
X9738918Y15230246D01*
X9736175Y15234157D01*
X9734499Y15237968D01*
X9734499Y15242032D01*
X9736175Y15245842D01*
X9738918Y15249753D01*
X9742627Y15257729D01*
X9744913Y15266212D01*
X9745726Y15275458D01*
X9745726Y15355214D01*
X9744913Y15364409D01*
X9742627Y15372892D01*
X9738918Y15380868D01*
X9733838Y15388082D01*
X9727641Y15394330D01*
X9720427Y15399359D01*
X9712452Y15403068D01*
X9703968Y15405354D01*
X9694773Y15406166D01*
X9609226Y15406166D01*
X9600031Y15405354D01*
X9591548Y15403068D01*
X9583572Y15399359D01*
X9576358Y15394330D01*
X9570161Y15388082D01*
X9566910Y15383459D01*
X9564268Y15380868D01*
X9560915Y15379395D01*
X9553498Y15377617D01*
X9543999Y15373705D01*
X9535261Y15368320D01*
X9527133Y15361361D01*
X9489440Y15323718D01*
X9486188Y15321483D01*
X9482277Y15320721D01*
X9329674Y15320721D01*
X9325762Y15321483D01*
X9322460Y15323718D01*
X9320276Y15327020D01*
X9319514Y15330881D01*
X9319514Y15416530D01*
X9318701Y15425724D01*
X9316415Y15434208D01*
X9312706Y15442184D01*
X9305239Y15452902D01*
X9304477Y15456763D01*
X9304477Y15501874D01*
X9303664Y15512542D01*
X9301226Y15522498D01*
X9297314Y15531998D01*
X9291929Y15540786D01*
X9285020Y15548914D01*
X9234627Y15599257D01*
X9232341Y15602712D01*
X9231630Y15606776D01*
X9232595Y15610738D01*
X9234627Y15615056D01*
X9236862Y15623540D01*
X9237675Y15632785D01*
X9237675Y15712541D01*
X9236862Y15721736D01*
X9235135Y15728188D01*
X9234881Y15732251D01*
X9236252Y15736062D01*
X9238996Y15739059D01*
X9242704Y15740735D01*
X9260840Y15740126D01*
X9273387Y15741446D01*
X9285630Y15744494D01*
X9297314Y15749219D01*
X9308287Y15755518D01*
X9318193Y15763290D01*
X9326981Y15772384D01*
X9334398Y15782594D01*
X9340342Y15793770D01*
X9344660Y15805607D01*
X9347250Y15817951D01*
X9348165Y15830550D01*
X9347250Y15843148D01*
X9344660Y15855492D01*
X9340342Y15867380D01*
X9334398Y15878505D01*
X9326981Y15888716D01*
X9318193Y15897809D01*
X9308287Y15905581D01*
X9297314Y15911880D01*
X9285630Y15916605D01*
X9273387Y15919653D01*
X9260840Y15920974D01*
X9248190Y15920567D01*
X9235795Y15918332D01*
X9223756Y15914471D01*
X9215120Y15910204D01*
X9210751Y15909188D01*
X9206382Y15910153D01*
X9204452Y15911017D01*
X9195968Y15913303D01*
X9186722Y15914116D01*
X9173311Y15914116D01*
X9169400Y15914878D01*
X9166098Y15917113D01*
X9163913Y15920415D01*
X9163151Y15924276D01*
X9163913Y15928187D01*
X9166098Y15931489D01*
X10928654Y17694046D01*
X10931956Y17696230D01*
X10935868Y17696992D01*
X11004905Y17696992D01*
X11004905Y17766080D01*
X11005718Y17769992D01*
X11007902Y17773294D01*
X11015522Y17780863D01*
X11018164Y17782794D01*
X11021263Y17783759D01*
X11024514Y17783708D01*
X11033810Y17781981D01*
X11049000Y17781066D01*
X11064138Y17781981D01*
X11083594Y17785384D01*
X11087252Y17784419D01*
X11088319Y17783759D01*
X11090402Y17787010D01*
X11093551Y17789245D01*
X11107470Y17795494D01*
X11120475Y17803368D01*
X11132464Y17812715D01*
X11143234Y17823484D01*
X11152581Y17835473D01*
X11160455Y17848478D01*
X11166703Y17862397D01*
X11168938Y17865547D01*
X11172190Y17867630D01*
X11176000Y17868392D01*
X11179759Y17867630D01*
X11183010Y17865547D01*
X11185245Y17862397D01*
X11191494Y17848478D01*
X11199368Y17835473D01*
X11208766Y17823484D01*
X11219484Y17812715D01*
X11231473Y17803368D01*
X11244478Y17795494D01*
X11258397Y17789245D01*
X11261547Y17787010D01*
X11263630Y17783759D01*
X11264392Y17779949D01*
X11263630Y17776190D01*
X11261547Y17772938D01*
X11258397Y17770703D01*
X11244478Y17764455D01*
X11231473Y17756581D01*
X11219484Y17747183D01*
X11208766Y17736464D01*
X11199368Y17724475D01*
X11191494Y17711470D01*
X11185245Y17697551D01*
X11183010Y17694402D01*
X11179708Y17692268D01*
X11180419Y17691252D01*
X11181435Y17687594D01*
X11178032Y17668138D01*
X11177066Y17652949D01*
X11178032Y17637810D01*
X11181435Y17618354D01*
X11180419Y17614696D01*
X11179759Y17613630D01*
X11183010Y17611547D01*
X11185245Y17608397D01*
X11191494Y17594478D01*
X11199368Y17581473D01*
X11208766Y17569484D01*
X11219484Y17558715D01*
X11231473Y17549368D01*
X11244478Y17541494D01*
X11258397Y17535245D01*
X11261547Y17533010D01*
X11263630Y17529759D01*
X11264392Y17525949D01*
X11263630Y17522190D01*
X11261547Y17518938D01*
X11258397Y17516703D01*
X11244478Y17510455D01*
X11231473Y17502581D01*
X11219484Y17493183D01*
X11208766Y17482464D01*
X11199368Y17470475D01*
X11191494Y17457470D01*
X11185245Y17443551D01*
X11183010Y17440402D01*
X11179759Y17438268D01*
X11176000Y17437557D01*
X11172190Y17438268D01*
X11168938Y17440402D01*
X11166703Y17443551D01*
X11160455Y17457470D01*
X11152581Y17470475D01*
X11143234Y17482464D01*
X11132464Y17493183D01*
X11120475Y17502581D01*
X11107470Y17510455D01*
X11093551Y17516703D01*
X11090402Y17518938D01*
X11088268Y17522240D01*
X11087252Y17521478D01*
X11083594Y17520513D01*
X11064138Y17523917D01*
X11049000Y17524831D01*
X11033810Y17523917D01*
X11018875Y17521174D01*
X11014354Y17520513D01*
X11010696Y17521478D01*
X11009630Y17522190D01*
X11007547Y17518938D01*
X11004397Y17516703D01*
X10990478Y17510455D01*
X10977473Y17502581D01*
X10965484Y17493183D01*
X10954766Y17482464D01*
X10945368Y17470475D01*
X10937494Y17457470D01*
X10931296Y17443602D01*
X10926724Y17429073D01*
X10924032Y17414138D01*
X10923066Y17398949D01*
X10923879Y17385538D01*
X10923270Y17381321D01*
X10920933Y17377714D01*
X10842294Y17299025D01*
X10836656Y17292218D01*
X10835233Y17290186D01*
X10830661Y17282617D01*
X10826191Y17272254D01*
X10825429Y17269968D01*
X10823295Y17261382D01*
X10822889Y17258944D01*
X10822076Y17250156D01*
X10822076Y16821556D01*
X10822889Y16812768D01*
X10823295Y16810380D01*
X10825429Y16801744D01*
X10826191Y16799458D01*
X10830661Y16789095D01*
X10835233Y16781526D01*
X10842294Y16772686D01*
X10884662Y16730319D01*
X10886846Y16727017D01*
X10887608Y16723106D01*
X10886846Y16719245D01*
X10884662Y16715943D01*
X9999726Y15830956D01*
X9994087Y15824149D01*
X9992664Y15822117D01*
X9988092Y15814548D01*
X9983622Y15804184D01*
X9982860Y15801898D01*
X9980726Y15793313D01*
X9980320Y15790875D01*
X9979507Y15782086D01*
X9979456Y15612770D01*
X9978898Y15609569D01*
X9977424Y15606674D01*
X9975088Y15604439D01*
X9972497Y15602610D01*
X9966299Y15596362D01*
X9961219Y15589199D01*
X9957511Y15581223D01*
X9955225Y15572689D01*
X9954463Y15563494D01*
X9954463Y15424454D01*
X9955225Y15415209D01*
X9957511Y15406725D01*
X9961219Y15398750D01*
X9966299Y15391536D01*
X9972497Y15385338D01*
X9979710Y15380309D01*
X9987686Y15376550D01*
X9996170Y15374315D01*
X10005415Y15373502D01*
X10104526Y15373502D01*
X10113721Y15374315D01*
X10122204Y15376550D01*
X10130180Y15380309D01*
X10137394Y15385338D01*
X10143591Y15391536D01*
X10148671Y15398750D01*
X10150754Y15403271D01*
X10152989Y15406369D01*
X10156240Y15408452D01*
X10160000Y15409163D01*
X10163708Y15408452D01*
X10166959Y15406369D01*
X10169194Y15403271D01*
X10171277Y15398750D01*
X10176357Y15391536D01*
X10182555Y15385338D01*
X10189768Y15380309D01*
X10197744Y15376550D01*
X10206228Y15374315D01*
X10215473Y15373502D01*
X10314584Y15373502D01*
X10323779Y15374315D01*
X10332262Y15376550D01*
X10340238Y15380309D01*
X10347452Y15385338D01*
X10353649Y15391536D01*
X10358729Y15398750D01*
X10362438Y15406725D01*
X10364724Y15415209D01*
X10365079Y15419222D01*
X10366044Y15422829D01*
X10368330Y15425826D01*
X10371480Y15427807D01*
X10375188Y15428468D01*
X10736427Y15428468D01*
X10740542Y15427604D01*
X10743895Y15425166D01*
X10746028Y15421559D01*
X10746486Y15416530D01*
X10746486Y15396565D01*
X10805617Y15396565D01*
X10805617Y15418307D01*
X10806379Y15422219D01*
X10808614Y15425521D01*
X10811916Y15427706D01*
X10815777Y15428468D01*
X10838180Y15428468D01*
X10842040Y15427706D01*
X10845342Y15425521D01*
X10847578Y15422219D01*
X10848340Y15418307D01*
X10848340Y15396565D01*
X10866424Y15396565D01*
X10870336Y15395803D01*
X10873587Y15393568D01*
X10875822Y15390266D01*
X10876584Y15386405D01*
X10876584Y15340533D01*
X10875822Y15336621D01*
X10873587Y15333319D01*
X10870336Y15331135D01*
X10866424Y15330373D01*
X10848340Y15330373D01*
X10848340Y15303093D01*
X10847578Y15299182D01*
X10845342Y15295880D01*
X10842040Y15293695D01*
X10838180Y15292933D01*
X10815777Y15292933D01*
X10811916Y15293695D01*
X10808614Y15295880D01*
X10806379Y15299182D01*
X10805617Y15303093D01*
X10805617Y15330373D01*
X10746486Y15330373D01*
X10746486Y15310408D01*
X10747044Y15303957D01*
X10746536Y15299791D01*
X10744403Y15296235D01*
X10740999Y15293797D01*
X10736935Y15292933D01*
X10236809Y15292933D01*
X10223347Y15292019D01*
X10210444Y15289479D01*
X10197998Y15285262D01*
X10186212Y15279420D01*
X10175290Y15272105D01*
X10165130Y15263266D01*
X10059212Y15157297D01*
X10050322Y15147188D01*
X10045750Y15140330D01*
X10043261Y15137739D01*
X10040010Y15136215D01*
X10036454Y15135860D01*
X10029545Y15136469D01*
X9830409Y15136469D01*
X9821214Y15135656D01*
X9812731Y15133370D01*
X9804755Y15129662D01*
X9797542Y15124633D01*
X9791293Y15118384D01*
X9786264Y15111222D01*
X9782556Y15103246D01*
X9780270Y15094712D01*
X9779457Y15085517D01*
X9779457Y14886432D01*
X9780270Y14877186D01*
X9782556Y14868702D01*
X9786264Y14860727D01*
X9791293Y14853513D01*
X9797542Y14847316D01*
X9804755Y14842286D01*
X9812731Y14838527D01*
X9821926Y14836089D01*
X9825837Y14834057D01*
X9828530Y14830551D01*
X9829495Y14826234D01*
X9829495Y14364309D01*
X9830358Y14350847D01*
X9832898Y14337995D01*
X9837166Y14325549D01*
X9842957Y14313763D01*
X9850272Y14302790D01*
X9859162Y14292681D01*
X9919665Y14232178D01*
X9921900Y14228724D01*
X9922611Y14224711D01*
X9922560Y14221815D01*
X9923983Y14205254D01*
X9927285Y14188998D01*
X9932416Y14173200D01*
X9939274Y14158061D01*
X9947859Y14143837D01*
X9949942Y14141196D01*
X9951821Y14137132D01*
X9951770Y14132661D01*
X9949789Y14128597D01*
X9946233Y14125854D01*
X9941864Y14124838D01*
G37*

%LPC*%
G36*
X11004905Y17534839D02*
G01*
X11004905Y17608905D01*
X10931093Y17608905D01*
X10937494Y17594478D01*
X10945368Y17581473D01*
X10954766Y17569484D01*
X10965484Y17558715D01*
X10977473Y17549368D01*
X10990478Y17541494D01*
X11004397Y17535245D01*
G37*
G36*
X11093043Y17534839D02*
G01*
X11093551Y17535245D01*
X11107470Y17541494D01*
X11120475Y17549368D01*
X11132464Y17558715D01*
X11143234Y17569484D01*
X11152581Y17581473D01*
X11160455Y17594478D01*
X11166703Y17608397D01*
X11167110Y17608905D01*
X11093043Y17608905D01*
G37*
G36*
X11093043Y17696992D02*
G01*
X11167110Y17696992D01*
X11166703Y17697551D01*
X11160455Y17711470D01*
X11152581Y17724475D01*
X11143234Y17736464D01*
X11132464Y17747183D01*
X11120475Y17756581D01*
X11107470Y17764455D01*
X11093043Y17771059D01*
G37*

%LPD*%
D10*
X3810000Y15205031D02*
G01*
X3718052Y15205031D01*
X3810000Y15116487D02*
G01*
X3810000Y15205031D01*
X2817977Y14985982D02*
G01*
X2817977Y14364012D01*
X2956001Y14225988D01*
X4318000Y15164671D02*
G01*
X4239742Y15164671D01*
X3810000Y15116487D02*
G01*
X3810000Y15205031D01*
X3810000Y15205031D02*
G01*
X4199381Y15205031D01*
X4239742Y15164671D01*
D11*
X1811629Y19811956D02*
G01*
X2014651Y20014979D01*
X12355575Y20014979D01*
X1811629Y19811956D02*
G01*
X1303248Y19811956D01*
X1270000Y19778708D01*
X2319985Y19811956D02*
G01*
X1811629Y19811956D01*
X1270000Y19557956D02*
G01*
X1270000Y19778708D01*
D10*
X11026190Y15797334D02*
G01*
X11000231Y15823293D01*
X10921974Y15823293D02*
G01*
X11000231Y15823293D01*
X9143974Y15823293D02*
G01*
X9222231Y15823293D01*
X9257665Y15830557D02*
G01*
X9229496Y15830557D01*
X9222231Y15823293D01*
X11302974Y17906982D02*
G01*
X11159566Y18050390D01*
X11159566Y18474189D01*
X11091773Y18541982D01*
X9543237Y18541982D01*
X9035237Y18033982D01*
X7695311Y18033982D01*
D11*
X10826978Y15363477D02*
G01*
X10824209Y15360708D01*
X10407370Y15360708D01*
X3715004Y15363477D02*
G01*
X3715004Y15517045D01*
X2325852Y15678310D02*
G01*
X3553739Y15678310D01*
X3715004Y15517045D01*
X1882520Y16476936D02*
G01*
X1828037Y16531419D01*
X1937004Y15517045D02*
G01*
X1882520Y15571528D01*
X1882520Y16476936D01*
X3426917Y16763982D02*
G01*
X3139871Y16476936D01*
X1882520Y16476936D01*
X5227650Y16763982D02*
G01*
X4077055Y16763982D01*
X5672912Y17017982D02*
G01*
X5418912Y16763982D01*
X5227650Y16763982D01*
X3751986Y16763982D02*
G01*
X3426917Y16763982D01*
X5493004Y15363477D02*
G01*
X5244896Y15363477D01*
X5227650Y15380723D01*
X7270978Y15363477D02*
G01*
X7132040Y15363477D01*
X7112990Y15382527D01*
X9048978Y15363477D02*
G01*
X8973464Y15438991D01*
X8871838Y15438991D01*
X7714995Y18344751D02*
G01*
X7714995Y18383003D01*
X8508974Y19176982D01*
X7714995Y18344751D02*
G01*
X7714995Y18264893D01*
X7714995Y18418462D02*
G01*
X7714995Y18344751D01*
X4077055Y18035125D02*
G01*
X4150359Y18035125D01*
X3810000Y18072666D02*
G01*
X3847541Y18035125D01*
X4077055Y18035125D01*
X4077055Y18035125D02*
G01*
X4077055Y16763982D01*
X3751986Y16763982D02*
G01*
X4077055Y16763982D01*
X3810000Y18295195D02*
G01*
X3810000Y18072666D01*
X4150359Y18295195D02*
G01*
X4150359Y18035125D01*
X2319985Y18541956D02*
G01*
X2520061Y18541956D01*
X3841750Y19296743D02*
G01*
X3149803Y19296743D01*
X2520061Y18667001D01*
X2520061Y18541956D01*
X1844039Y18287982D02*
G01*
X1844039Y17362507D01*
X1478026Y16996493D01*
X6097981Y17017982D02*
G01*
X5672912Y17017982D01*
X1844039Y18287982D02*
G01*
X1944065Y18287982D01*
X1743989Y18287982D02*
G01*
X1844039Y18287982D01*
X2319985Y18541956D02*
G01*
X2119909Y18541956D01*
X2119909Y18541956D02*
G01*
X2119909Y18463826D01*
X1944065Y18287982D01*
X11302974Y19176982D02*
G01*
X11115446Y19364510D01*
X8696502Y19364510D01*
X8508974Y19176982D01*
X1937004Y15363477D02*
G01*
X1937004Y15517045D01*
X6952995Y18418462D02*
G01*
X6952995Y18264893D01*
X6952995Y18264893D02*
G01*
X7714995Y18264893D01*
X5042992Y19049956D02*
G01*
X5042992Y18679904D01*
X5042992Y18679904D02*
G01*
X3764457Y18679904D01*
X3639820Y18555266D01*
X3639820Y18295195D02*
G01*
X3639820Y18555266D01*
X2759989Y18541956D02*
G01*
X2960065Y18541956D01*
X2960065Y18541956D02*
G01*
X2973374Y18555266D01*
X3639820Y18555266D01*
D10*
X3810000Y15823293D02*
G01*
X3810000Y15898680D01*
X3810000Y15898680D02*
G01*
X4083024Y16171705D01*
X6842023Y16171705D01*
X8211261Y17540942D01*
X10174935Y17540942D01*
X11048974Y18414982D01*
X2032000Y15823293D02*
G01*
X3439668Y15823293D01*
X4257827Y16641452D01*
X7023633Y16641452D01*
X8175091Y17792910D01*
X10263098Y17792910D01*
D11*
X9905974Y12064982D02*
G01*
X10308081Y11662874D01*
X11470868Y11662874D01*
X11745975Y11937982D01*
X9905974Y12064982D02*
G01*
X9779228Y12064982D01*
X9618573Y12225637D01*
X8573973Y12225637D01*
X8413318Y12064982D01*
X8127974Y12064982D01*
X2794000Y12064982D02*
G01*
X2667254Y12064982D01*
X2506599Y12225637D01*
X1461998Y12225637D01*
X1301343Y12064982D01*
X1016000Y12064982D01*
X4572000Y12064982D02*
G01*
X4445254Y12064982D01*
X4284599Y12225637D01*
X3239998Y12225637D01*
X3079343Y12064982D01*
X2794000Y12064982D01*
X6350000Y12064982D02*
G01*
X6223254Y12064982D01*
X6062599Y12225637D01*
X5017998Y12225637D01*
X4857343Y12064982D01*
X4572000Y12064982D01*
X8127974Y12064982D02*
G01*
X8001228Y12064982D01*
X7840573Y12225637D01*
X6795973Y12225637D01*
X6635318Y12064982D01*
X6350000Y12064982D01*
D12*
X12445974Y17779982D02*
G01*
X12044654Y17378662D01*
X12044654Y17220039D01*
D11*
X9905974Y12318982D02*
G01*
X10478211Y12318982D01*
X10825962Y11971230D01*
X10825962Y11937982D01*
X1304010Y18287982D02*
G01*
X1304010Y18823947D01*
X1270000Y18857958D01*
D12*
X4543882Y15363248D02*
G01*
X4543882Y15441937D01*
X4595926Y15493982D01*
X4720970Y15493982D02*
G01*
X4595926Y15493982D01*
X3826179Y14440720D02*
G01*
X3453053Y14813821D01*
X3453053Y14985982D01*
X4155998Y14225988D02*
G01*
X4040886Y14225988D01*
X3826179Y14440720D01*
X3826179Y14440720D02*
G01*
X3431209Y14045750D01*
X2558237Y14045750D01*
X2377998Y14225988D01*
X3277997Y14985982D02*
G01*
X3453053Y14985982D01*
X7711973Y14049331D02*
G01*
X6110655Y14049331D01*
X5933998Y14225988D01*
X9489973Y14049331D02*
G01*
X7711973Y14049331D01*
X7711973Y14049331D02*
G01*
X7711973Y14225988D01*
X5943676Y15951080D02*
G01*
X5033035Y15951080D01*
X4720970Y15639016D01*
X6373926Y15493982D02*
G01*
X5943676Y15924232D01*
X5943676Y15951080D01*
X5933998Y14225988D02*
G01*
X5231053Y14928933D01*
X5231053Y14985982D01*
X8611971Y14985982D02*
G01*
X8787028Y14985982D01*
X9489973Y14225988D02*
G01*
X8787028Y14928933D01*
X8787028Y14985982D01*
X9489973Y14049331D02*
G01*
X9489973Y14225988D01*
X11267973Y14225988D02*
G01*
X11091316Y14049331D01*
X9489973Y14049331D01*
X2377998Y14225988D02*
G01*
X1675053Y14928933D01*
X1675053Y14985982D01*
X4720970Y15493982D02*
G01*
X4720970Y15639016D01*
X6498970Y15493982D02*
G01*
X6373926Y15493982D01*
X8611971Y15011966D02*
G01*
X8611971Y14985982D01*
X8611971Y15011966D02*
G01*
X8611971Y15161039D01*
X10998606Y16723113D02*
G01*
X11897106Y16723113D01*
X12445974Y17271982D01*
X11048974Y17398982D02*
G01*
X10897514Y17247522D01*
X10897514Y16824205D01*
X10998606Y16723113D01*
X10054945Y15493982D02*
G01*
X10054945Y15779452D01*
X10998606Y16723113D01*
X5478068Y18530247D02*
G01*
X3980179Y18530247D01*
X6132982Y18704923D02*
G01*
X5958306Y18530247D01*
X5478068Y18530247D01*
X5478068Y18530247D02*
G01*
X5478068Y17017982D01*
X5077993Y17017982D02*
G01*
X5478068Y17017982D01*
X3980179Y18295195D02*
G01*
X3980179Y18530247D01*
X6132982Y19049956D02*
G01*
X6132982Y18704923D01*
X6132982Y19222499D02*
G01*
X6132982Y19049956D01*
X6132982Y19222499D02*
G01*
X6132982Y19395015D01*
X7620000Y19685007D02*
G01*
X6858000Y19685007D01*
X6132982Y19395015D02*
G01*
X6568008Y19395015D01*
X6858000Y19685007D01*
X1164970Y15493982D02*
G01*
X1164970Y15348948D01*
X1587525Y14985982D02*
G01*
X1224559Y15348948D01*
X1164970Y15348948D01*
X1587525Y14985982D02*
G01*
X1675053Y14985982D01*
X1499996Y14985982D02*
G01*
X1587525Y14985982D01*
X3277997Y14985982D02*
G01*
X3277997Y15161039D01*
X2942970Y15493982D02*
G01*
X2942970Y15348948D01*
X3277997Y15161039D02*
G01*
X3130880Y15161039D01*
X2942970Y15348948D01*
X5055997Y14985982D02*
G01*
X5231053Y14985982D01*
X6833997Y14985982D02*
G01*
X7009053Y14985982D01*
X8276945Y15493982D02*
G01*
X8276945Y15348948D01*
X8611971Y15161039D02*
G01*
X8464854Y15161039D01*
X8276945Y15348948D01*
X10389971Y14985982D02*
G01*
X10565028Y14985982D01*
X7711973Y14225988D02*
G01*
X7009053Y14928908D01*
X7009053Y14985982D01*
X11267973Y14225988D02*
G01*
X10565028Y14928933D01*
X10565028Y14985982D01*
D10*
X7525004Y18418462D02*
G01*
X7525004Y18507031D01*
X7544663Y18033982D02*
G01*
X7469276Y18033982D01*
X6782663Y18112214D02*
G01*
X6763004Y18131873D01*
X6763004Y18418462D01*
X6782663Y18033982D02*
G01*
X6782663Y18112214D01*
X10921974Y15672645D02*
G01*
X10921974Y15597284D01*
X10921974Y15597284D02*
G01*
X11016970Y15502288D01*
X11016970Y15363477D01*
X9143974Y15672645D02*
G01*
X9143974Y15597284D01*
X9143974Y15597284D02*
G01*
X9238970Y15502288D01*
X9238970Y15363477D01*
X7365974Y15672645D02*
G01*
X7365974Y15597284D01*
X7365974Y15597284D02*
G01*
X7460970Y15502288D01*
X7460970Y15363477D01*
X5588000Y15672645D02*
G01*
X5588000Y15597284D01*
X5588000Y15597284D02*
G01*
X5682995Y15502288D01*
X5682995Y15363477D01*
X3810000Y15672645D02*
G01*
X3810000Y15597284D01*
X3810000Y15597284D02*
G01*
X3904995Y15502288D01*
X3904995Y15363477D01*
X2032000Y15672645D02*
G01*
X2032000Y15597284D01*
X2032000Y15597284D02*
G01*
X2126995Y15502288D01*
X2126995Y15363477D01*
X12318974Y19303956D02*
G01*
X12193930Y19303956D01*
X12193930Y19303956D02*
G01*
X11923547Y19033573D01*
X11192383Y19033573D01*
X11048974Y19176982D01*
X12318974Y19049956D02*
G01*
X12193930Y19049956D01*
X12193930Y19049956D02*
G01*
X11955830Y18811857D01*
X11160099Y18811857D01*
X11048974Y18922982D01*
X5588000Y15823293D02*
G01*
X5727242Y15823293D01*
X6191631Y15358905D01*
X6587185Y15358905D01*
X6614083Y15385803D01*
X6614083Y15578513D01*
X7759522Y16723951D01*
X9611944Y16723951D01*
X11048974Y18160982D01*
X7365974Y15823293D02*
G01*
X8965285Y15823293D01*
X11048974Y17906982D01*
X6933311Y18033982D02*
G01*
X7008698Y18033982D01*
X8508974Y18160982D02*
G01*
X8497773Y18149780D01*
X7124496Y18149780D01*
X7008698Y18033982D01*
X7620000Y18665477D02*
G01*
X7620000Y18974645D01*
X7620000Y19125293D02*
G01*
X7620000Y19431007D01*
X6858000Y18665477D02*
G01*
X6858000Y18974645D01*
X6858000Y19125293D02*
G01*
X6858000Y19431007D01*
D11*
X9929977Y14985982D02*
G01*
X10130053Y14985982D01*
X10130053Y14985982D02*
G01*
X10130053Y15086007D01*
X10236454Y15192408D01*
X10846054Y15192408D01*
X10921974Y15116487D01*
X10067975Y14225988D02*
G01*
X9929977Y14363987D01*
X9929977Y14985982D01*
X11430000Y15164671D02*
G01*
X11286718Y15164671D01*
X10921974Y15116487D02*
G01*
X11238534Y15116487D01*
X11286718Y15164671D01*
D10*
X11430000Y15315344D02*
G01*
X11143488Y15315344D01*
X11102949Y15274805D01*
X10970895Y15274805D01*
X10942091Y15303609D01*
X10942091Y15443918D01*
X10892027Y15493982D01*
X10265003Y15493982D01*
X8151977Y14985982D02*
G01*
X8151977Y15596649D01*
X8184388Y15629059D01*
X8376615Y15629059D01*
X8401862Y15603811D01*
X8401862Y15409019D01*
X8486978Y15323903D01*
X8881109Y15323903D01*
X9044254Y15160759D01*
X9143974Y15160759D01*
X9143974Y15160759D02*
G01*
X9143974Y15205031D01*
X9143974Y15116487D02*
G01*
X9143974Y15160759D01*
X8151977Y14985982D02*
G01*
X8151977Y14363987D01*
X8289975Y14225988D01*
X9652000Y15164671D02*
G01*
X9573742Y15164671D01*
X9143974Y15205031D02*
G01*
X9533381Y15205031D01*
X9573742Y15164671D01*
X8487003Y15493982D02*
G01*
X8572068Y15493982D01*
X9573742Y15315344D02*
G01*
X9513620Y15255222D01*
X9195282Y15255222D01*
X9173794Y15276710D01*
X9173794Y15431930D01*
X9051645Y15554078D01*
X8632164Y15554078D01*
X8572068Y15493982D01*
X9652000Y15315344D02*
G01*
X9573742Y15315344D01*
D11*
X6437172Y14785906D02*
G01*
X6437172Y15156822D01*
X6472758Y15192408D01*
X7290054Y15192408D01*
X7365974Y15116487D01*
X6511975Y14225988D02*
G01*
X6437172Y14300791D01*
X6437172Y14785906D01*
X6373977Y14785906D02*
G01*
X6437172Y14785906D01*
X6373977Y14985982D02*
G01*
X6373977Y14785906D01*
X7874000Y15164671D02*
G01*
X7730718Y15164671D01*
X7365974Y15116487D02*
G01*
X7682534Y15116487D01*
X7730718Y15164671D01*
D10*
X6709029Y15493982D02*
G01*
X6794093Y15493982D01*
X7874000Y15315344D02*
G01*
X7617434Y15315344D01*
X7572044Y15269954D01*
X7420863Y15269954D01*
X7395794Y15295024D01*
X7395794Y15427129D01*
X7325309Y15497614D01*
X6797725Y15497614D01*
X6794093Y15493982D01*
D11*
X4595977Y14985982D02*
G01*
X4796053Y14985982D01*
X4796053Y14985982D02*
G01*
X4796053Y15086007D01*
X4902454Y15192408D01*
X5512079Y15192408D01*
X5588000Y15116487D01*
X4734001Y14225988D02*
G01*
X4595977Y14364012D01*
X4595977Y14985982D01*
X6096000Y15164671D02*
G01*
X5952718Y15164671D01*
X5588000Y15116487D02*
G01*
X5904534Y15116487D01*
X5952718Y15164671D01*
D10*
X4931029Y15493982D02*
G01*
X5016093Y15493982D01*
X6096000Y15315344D02*
G01*
X5839434Y15315344D01*
X5794044Y15269954D01*
X5642889Y15269954D01*
X5617819Y15295024D01*
X5617819Y15427129D01*
X5549138Y15495811D01*
X5017922Y15495811D01*
X5016093Y15493982D01*
X3153029Y15493982D02*
G01*
X3238093Y15493982D01*
X4318000Y15315344D02*
G01*
X4403597Y15229746D01*
X4403597Y15100891D01*
X4321911Y15019205D01*
X3712870Y15019205D01*
X3238093Y15493982D01*
X1375029Y15493982D02*
G01*
X1460093Y15493982D01*
X2540000Y15315344D02*
G01*
X2618257Y15315344D01*
X2618257Y15315344D02*
G01*
X2663012Y15270589D01*
X2663012Y15107800D01*
X2540152Y14984940D01*
X1905330Y14984940D01*
X1460093Y15430177D01*
X1460093Y15493982D01*
D11*
X2526918Y17092404D02*
G01*
X3469640Y18035125D01*
X2759989Y19811956D02*
G01*
X2759989Y19611881D01*
X3469640Y18295195D02*
G01*
X3469640Y18035125D01*
X1178001Y14225988D02*
G01*
X1040003Y14363987D01*
X1040003Y14985982D01*
X1040003Y14985982D02*
G01*
X1040003Y15186058D01*
X1040003Y15186058D02*
G01*
X1014882Y15211178D01*
X1014882Y15606351D01*
X1072591Y15664060D01*
X1468932Y15664060D01*
X1765147Y15367845D01*
X1765147Y15308587D01*
X1957247Y15116487D01*
X2032000Y15116487D01*
X2540000Y15164671D02*
G01*
X2396718Y15164671D01*
X2032000Y15116487D02*
G01*
X2348534Y15116487D01*
X2396718Y15164671D01*
D10*
X7469377Y18034000D02*
G01*
X7215377Y17780000D01*
X6604000Y17780000D01*
X6604000Y18539460D01*
X7492491Y18539460D01*
X7525004Y18506948D01*
D11*
X2851988Y16764000D02*
G01*
X2526918Y17092404D01*
X2526791Y17092421D02*
G01*
X2283713Y17335500D01*
X2054352Y17335500D01*
X1710436Y16991584D01*
X1710436Y16856455D01*
X1529079Y16675100D01*
X1346200Y16675100D01*
X1270000Y16751300D01*
X1270000Y17272000D01*
X1543812Y17545812D01*
X1543812Y18445734D01*
X2709925Y19611848D01*
X2759963Y19611848D01*
D13*
G01*
X1375026Y15493969D03*
D14*
G01*
X1164970Y15493974D03*
D13*
G01*
X3153023Y15493969D03*
D14*
G01*
X2942970Y15493974D03*
D13*
G01*
X4931018Y15493969D03*
D14*
G01*
X4720970Y15493974D03*
D13*
G01*
X6709016Y15493969D03*
D14*
G01*
X6498970Y15493974D03*
D13*
G01*
X8487011Y15493969D03*
D14*
G01*
X8276945Y15493974D03*
D13*
G01*
X10265008Y15493969D03*
D14*
G01*
X10054945Y15493974D03*
D15*
G01*
X4150359Y18295188D03*
G01*
X3980179Y18295188D03*
G01*
X3639820Y18295188D03*
G01*
X3810000Y18295188D03*
G01*
X3469640Y18295188D03*
D16*
G01*
X3809992Y19296735D03*
D17*
G01*
X3751986Y16763974D03*
G01*
X2851988Y16763974D03*
D18*
G01*
X5042992Y19049949D03*
G01*
X6132982Y19049949D03*
D19*
G01*
X5077993Y17017974D03*
G01*
X6097981Y17017974D03*
D20*
G01*
X2540000Y15315324D03*
D21*
G01*
X2540000Y15164663D03*
D20*
G01*
X4318000Y15315324D03*
D21*
G01*
X4318000Y15164663D03*
D20*
G01*
X6096000Y15315324D03*
D21*
G01*
X6096000Y15164663D03*
D20*
G01*
X7874000Y15315324D03*
D21*
G01*
X7874000Y15164663D03*
D20*
G01*
X9652000Y15315324D03*
D21*
G01*
X9652000Y15164663D03*
D20*
G01*
X11430000Y15315324D03*
D21*
G01*
X11430000Y15164663D03*
D20*
G01*
X6857987Y19125286D03*
D21*
G01*
X6858000Y18974638D03*
D20*
G01*
X7619987Y19125286D03*
D21*
G01*
X7620000Y18974638D03*
D22*
G01*
X1743989Y18287974D03*
G01*
X1304010Y18287974D03*
G01*
X2319985Y19811949D03*
G01*
X2759989Y19811949D03*
G01*
X2319985Y18541949D03*
G01*
X2759989Y18541949D03*
G01*
X1040003Y14985974D03*
G01*
X1499996Y14985974D03*
G01*
X2817977Y14985974D03*
G01*
X3277997Y14985974D03*
G01*
X4595977Y14985974D03*
G01*
X5055997Y14985974D03*
G01*
X6373977Y14985974D03*
G01*
X6833997Y14985974D03*
G01*
X8151977Y14985974D03*
G01*
X8611971Y14985974D03*
G01*
X9929977Y14985974D03*
G01*
X10389971Y14985974D03*
D23*
G01*
X2126995Y15363469D03*
G01*
X1937004Y15363469D03*
G01*
X2032000Y15116479D03*
G01*
X3904995Y15363469D03*
G01*
X3715004Y15363469D03*
G01*
X3810000Y15116479D03*
G01*
X5682995Y15363469D03*
G01*
X5493004Y15363469D03*
G01*
X5588000Y15116479D03*
G01*
X7460970Y15363469D03*
G01*
X7270978Y15363469D03*
G01*
X7365974Y15116479D03*
G01*
X9238970Y15363469D03*
G01*
X9048978Y15363469D03*
G01*
X9143974Y15116479D03*
G01*
X11016970Y15363469D03*
G01*
X10826978Y15363469D03*
G01*
X10921974Y15116479D03*
G01*
X6763004Y18418454D03*
G01*
X6952995Y18418454D03*
G01*
X6858000Y18665469D03*
G01*
X7525004Y18418454D03*
G01*
X7714995Y18418454D03*
G01*
X7620000Y18665469D03*
D20*
G01*
X2031994Y15823294D03*
D21*
G01*
X2032000Y15672638D03*
D20*
G01*
X3809992Y15823294D03*
D21*
G01*
X3810000Y15672638D03*
D20*
G01*
X5587989Y15823294D03*
D21*
G01*
X5588000Y15672638D03*
D20*
G01*
X7365984Y15823294D03*
D21*
G01*
X7365974Y15672638D03*
D20*
G01*
X9143982Y15823294D03*
D21*
G01*
X9143974Y15672638D03*
D20*
G01*
X10921977Y15823294D03*
D21*
G01*
X10921974Y15672638D03*
D24*
G01*
X6782662Y18033964D03*
G01*
X6933312Y18033964D03*
G01*
X7544662Y18033964D03*
G01*
X7695312Y18033964D03*
D25*
G01*
X1828037Y16531437D03*
D26*
G01*
X1478026Y16996511D03*
G01*
X2077974Y16996511D03*
D27*
G01*
X6858000Y19685000D03*
G01*
X6858000Y19431000D03*
G01*
X7620000Y19685000D03*
G01*
X7620000Y19431000D03*
D28*
G01*
X12445974Y11937974D03*
D29*
G01*
X12095962Y11937974D03*
G01*
X11745975Y11937974D03*
D30*
G01*
X1270000Y19557949D03*
D31*
G01*
X1270000Y19207937D03*
G01*
X1270000Y18857950D03*
D32*
G01*
X12064974Y13207974D03*
D33*
G01*
X12318974Y13207974D03*
D32*
G01*
X12064974Y13461974D03*
D33*
G01*
X12318974Y13461974D03*
D28*
G01*
X2286000Y11937974D03*
D29*
G01*
X1935988Y11937974D03*
G01*
X1586001Y11937974D03*
D28*
G01*
X4064000Y11937974D03*
D29*
G01*
X3713988Y11937974D03*
G01*
X3364001Y11937974D03*
D28*
G01*
X5842000Y11937974D03*
D29*
G01*
X5491988Y11937974D03*
G01*
X5142001Y11937974D03*
D28*
G01*
X7619974Y11937974D03*
D29*
G01*
X7269962Y11937974D03*
G01*
X6919975Y11937974D03*
D28*
G01*
X9397974Y11937974D03*
D29*
G01*
X9047962Y11937974D03*
G01*
X8697975Y11937974D03*
D28*
G01*
X11175974Y11937974D03*
D29*
G01*
X10825962Y11937974D03*
G01*
X10475975Y11937974D03*
D34*
G01*
X8508974Y16890974D03*
G01*
X8762974Y16890974D03*
G01*
X8508974Y17144974D03*
G01*
X8762974Y17144974D03*
G01*
X8508974Y17398974D03*
G01*
X8762974Y17398974D03*
G01*
X8508974Y17652974D03*
G01*
X8762974Y17652974D03*
G01*
X8508974Y17906974D03*
G01*
X8762974Y17906974D03*
G01*
X8508974Y18160974D03*
G01*
X8762974Y18160974D03*
G01*
X8508974Y18414974D03*
G01*
X8762974Y18414974D03*
G01*
X8508974Y18668974D03*
G01*
X8762974Y18668974D03*
G01*
X8508974Y18922974D03*
G01*
X8762974Y18922974D03*
G01*
X8508974Y19176974D03*
G01*
X8762974Y19176974D03*
G01*
X11302974Y16890974D03*
G01*
X11048974Y16890974D03*
G01*
X11048974Y17144974D03*
G01*
X11048974Y17398974D03*
G01*
X11048974Y17652974D03*
G01*
X11048974Y17906974D03*
G01*
X11048974Y18160974D03*
G01*
X11048974Y18414974D03*
G01*
X11048974Y18668974D03*
G01*
X11048974Y18922974D03*
G01*
X11048974Y19176974D03*
G01*
X11302974Y19176974D03*
G01*
X11302974Y18922974D03*
G01*
X11302974Y18668974D03*
G01*
X11302974Y18414974D03*
G01*
X11302974Y18160974D03*
G01*
X11302974Y17906974D03*
G01*
X11302974Y17652974D03*
G01*
X11302974Y17398974D03*
G01*
X11302974Y17144974D03*
D32*
G01*
X1016000Y12064974D03*
D33*
G01*
X1016000Y12318974D03*
D32*
G01*
X2794000Y12064974D03*
D33*
G01*
X2794000Y12318974D03*
D32*
G01*
X4572000Y12064974D03*
D33*
G01*
X4572000Y12318974D03*
D32*
G01*
X6350000Y12064974D03*
D33*
G01*
X6350000Y12318974D03*
D32*
G01*
X8127974Y12064974D03*
D33*
G01*
X8127974Y12318974D03*
D32*
G01*
X9905974Y12064974D03*
D33*
G01*
X9905974Y12318974D03*
D32*
G01*
X12572974Y19049949D03*
D33*
G01*
X12318974Y19049949D03*
D32*
G01*
X12572974Y19303949D03*
D33*
G01*
X12318974Y19303949D03*
D35*
G01*
X12445974Y18033974D03*
D36*
G01*
X12445974Y17779974D03*
G01*
X12445974Y17525974D03*
G01*
X12445974Y17271974D03*
G01*
X12445974Y17017974D03*
G01*
X12445974Y16763974D03*
D37*
G01*
X1178001Y14225981D03*
G01*
X1778000Y14425980D03*
G01*
X2377998Y14225981D03*
G01*
X2377998Y13005968D03*
G01*
X1178001Y13005968D03*
G01*
X2956001Y14225981D03*
G01*
X3556000Y14425980D03*
G01*
X4155998Y14225981D03*
G01*
X4155998Y13005968D03*
G01*
X2956001Y13005968D03*
G01*
X4734001Y14225981D03*
G01*
X5334000Y14425980D03*
G01*
X5933998Y14225981D03*
G01*
X5933998Y13005968D03*
G01*
X4734001Y13005968D03*
G01*
X6511975Y14225981D03*
G01*
X7111974Y14425980D03*
G01*
X7711973Y14225981D03*
G01*
X7711973Y13005968D03*
G01*
X6511975Y13005968D03*
G01*
X8289975Y14225981D03*
G01*
X8889974Y14425980D03*
G01*
X9489973Y14225981D03*
G01*
X9489973Y13005968D03*
G01*
X8289975Y13005968D03*
G01*
X10067975Y14225981D03*
G01*
X10667974Y14425980D03*
G01*
X11267973Y14225981D03*
G01*
X11267973Y13005968D03*
G01*
X10067975Y13005968D03*
D38*
G01*
X3718052Y15205024D03*
D11*
G01*
X12355575Y20014971D03*
D38*
G01*
X11026190Y15797326D03*
G01*
X9257665Y15830550D03*
G01*
X10407370Y15360700D03*
G01*
X2325852Y15678302D03*
G01*
X5227650Y16763974D03*
G01*
X5227650Y15380716D03*
G01*
X7112990Y15382519D03*
G01*
X8871838Y15438983D03*
G01*
X10263098Y17792903D03*
G01*
X12044654Y17220031D03*
G01*
X4543882Y15363240D03*
G01*
X5943676Y15951072D03*
M02*
