G04 Layer: BottomSilkscreenLayer*
G04 EasyEDA v6.5.37, 2023-10-28 10:51:11*
G04 4880e8b44b5e4911aa04234489c2fc7f,3a0c9916c2a341a084dc3cb5dc78798d,10*
G04 Gerber Generator version 0.2*
G04 Scale: 100 percent, Rotated: No, Reflected: No *
G04 Dimensions in millimeters *
G04 leading zeros omitted , absolute positions ,4 integer and 5 decimal *
%FSLAX45Y45*%
%MOMM*%

%ADD10C,0.2032*%

%LPD*%
D10*
X12445974Y20166868D02*
G01*
X12445974Y20071412D01*
X12445974Y20166868D02*
G01*
X12386884Y20166868D01*
X12445974Y20121412D02*
G01*
X12409611Y20121412D01*
X12445974Y20071412D02*
G01*
X12386884Y20071412D01*
X12293246Y20153231D02*
G01*
X12302337Y20162321D01*
X12315974Y20166868D01*
X12334156Y20166868D01*
X12347793Y20162321D01*
X12356884Y20153231D01*
X12356884Y20144140D01*
X12352337Y20135049D01*
X12347793Y20130505D01*
X12338702Y20125959D01*
X12311428Y20116868D01*
X12302337Y20112321D01*
X12297793Y20107777D01*
X12293246Y20098687D01*
X12293246Y20085050D01*
X12302337Y20075959D01*
X12315974Y20071412D01*
X12334156Y20071412D01*
X12347793Y20075959D01*
X12356884Y20085050D01*
X12263247Y20166868D02*
G01*
X12263247Y20071412D01*
X12263247Y20166868D02*
G01*
X12222337Y20166868D01*
X12208703Y20162321D01*
X12204156Y20157777D01*
X12199612Y20148687D01*
X12199612Y20135049D01*
X12204156Y20125959D01*
X12208703Y20121412D01*
X12222337Y20116868D01*
X12263247Y20116868D01*
X12099612Y20166868D02*
G01*
X12099612Y20071412D01*
X12099612Y20166868D02*
G01*
X12058703Y20166868D01*
X12045066Y20162321D01*
X12040522Y20157777D01*
X12035975Y20148687D01*
X12035975Y20139596D01*
X12040522Y20130505D01*
X12045066Y20125959D01*
X12058703Y20121412D01*
X12099612Y20121412D01*
X12067793Y20121412D02*
G01*
X12035975Y20071412D01*
X12005975Y20107777D02*
G01*
X11951428Y20107777D01*
X11951428Y20116868D01*
X11955975Y20125959D01*
X11960522Y20130505D01*
X11969612Y20135049D01*
X11983247Y20135049D01*
X11992338Y20130505D01*
X12001428Y20121412D01*
X12005975Y20107777D01*
X12005975Y20098687D01*
X12001428Y20085050D01*
X11992338Y20075959D01*
X11983247Y20071412D01*
X11969612Y20071412D01*
X11960522Y20075959D01*
X11951428Y20085050D01*
X11921429Y20166868D02*
G01*
X11921429Y20071412D01*
X11836885Y20135049D02*
G01*
X11836885Y20071412D01*
X11836885Y20121412D02*
G01*
X11845975Y20130505D01*
X11855066Y20135049D01*
X11868703Y20135049D01*
X11877794Y20130505D01*
X11886885Y20121412D01*
X11891429Y20107777D01*
X11891429Y20098687D01*
X11886885Y20085050D01*
X11877794Y20075959D01*
X11868703Y20071412D01*
X11855066Y20071412D01*
X11845975Y20075959D01*
X11836885Y20085050D01*
X11802338Y20135049D02*
G01*
X11775066Y20071412D01*
X11747794Y20135049D02*
G01*
X11775066Y20071412D01*
X11784157Y20053231D01*
X11793247Y20044140D01*
X11802338Y20039596D01*
X11806885Y20039596D01*
X11647794Y20166868D02*
G01*
X11647794Y20071412D01*
X11647794Y20166868D02*
G01*
X11606885Y20166868D01*
X11593248Y20162321D01*
X11588704Y20157777D01*
X11584157Y20148687D01*
X11584157Y20139596D01*
X11588704Y20130505D01*
X11593248Y20125959D01*
X11606885Y20121412D01*
X11647794Y20121412D02*
G01*
X11606885Y20121412D01*
X11593248Y20116868D01*
X11588704Y20112321D01*
X11584157Y20103231D01*
X11584157Y20089596D01*
X11588704Y20080505D01*
X11593248Y20075959D01*
X11606885Y20071412D01*
X11647794Y20071412D01*
X11531429Y20135049D02*
G01*
X11540523Y20130505D01*
X11549613Y20121412D01*
X11554157Y20107777D01*
X11554157Y20098687D01*
X11549613Y20085050D01*
X11540523Y20075959D01*
X11531429Y20071412D01*
X11517795Y20071412D01*
X11508704Y20075959D01*
X11499613Y20085050D01*
X11495067Y20098687D01*
X11495067Y20107777D01*
X11499613Y20121412D01*
X11508704Y20130505D01*
X11517795Y20135049D01*
X11531429Y20135049D01*
X11410523Y20135049D02*
G01*
X11410523Y20071412D01*
X11410523Y20121412D02*
G01*
X11419613Y20130505D01*
X11428704Y20135049D01*
X11442339Y20135049D01*
X11451429Y20130505D01*
X11460523Y20121412D01*
X11465067Y20107777D01*
X11465067Y20098687D01*
X11460523Y20085050D01*
X11451429Y20075959D01*
X11442339Y20071412D01*
X11428704Y20071412D01*
X11419613Y20075959D01*
X11410523Y20085050D01*
X11380523Y20135049D02*
G01*
X11380523Y20071412D01*
X11380523Y20107777D02*
G01*
X11375976Y20121412D01*
X11366886Y20130505D01*
X11357795Y20135049D01*
X11344158Y20135049D01*
X11259614Y20166868D02*
G01*
X11259614Y20071412D01*
X11259614Y20121412D02*
G01*
X11268704Y20130505D01*
X11277795Y20135049D01*
X11291430Y20135049D01*
X11300523Y20130505D01*
X11309614Y20121412D01*
X11314158Y20107777D01*
X11314158Y20098687D01*
X11309614Y20085050D01*
X11300523Y20075959D01*
X11291430Y20071412D01*
X11277795Y20071412D01*
X11268704Y20075959D01*
X11259614Y20085050D01*
X11159614Y20166868D02*
G01*
X11123249Y20071412D01*
X11086886Y20166868D02*
G01*
X11123249Y20071412D01*
X11056886Y20148687D02*
G01*
X11047796Y20153231D01*
X11034158Y20166868D01*
X11034158Y20071412D01*
X12445974Y19912868D02*
G01*
X12445974Y19817412D01*
X12445974Y19912868D02*
G01*
X12386884Y19912868D01*
X12445974Y19867412D02*
G01*
X12409611Y19867412D01*
X12445974Y19817412D02*
G01*
X12386884Y19817412D01*
X12356884Y19881049D02*
G01*
X12356884Y19817412D01*
X12356884Y19853777D02*
G01*
X12352337Y19867412D01*
X12343246Y19876505D01*
X12334156Y19881049D01*
X12320521Y19881049D01*
X12254156Y19912868D02*
G01*
X12263247Y19912868D01*
X12272337Y19908321D01*
X12276884Y19894687D01*
X12276884Y19817412D01*
X12290521Y19881049D02*
G01*
X12258702Y19881049D01*
X12169612Y19881049D02*
G01*
X12169612Y19817412D01*
X12169612Y19867412D02*
G01*
X12178703Y19876505D01*
X12187793Y19881049D01*
X12201428Y19881049D01*
X12210521Y19876505D01*
X12219612Y19867412D01*
X12224156Y19853777D01*
X12224156Y19844687D01*
X12219612Y19831050D01*
X12210521Y19821959D01*
X12201428Y19817412D01*
X12187793Y19817412D01*
X12178703Y19821959D01*
X12169612Y19831050D01*
X12139612Y19881049D02*
G01*
X12139612Y19817412D01*
X12139612Y19862868D02*
G01*
X12125975Y19876505D01*
X12116884Y19881049D01*
X12103247Y19881049D01*
X12094156Y19876505D01*
X12089612Y19862868D01*
X12089612Y19817412D01*
X11989612Y19912868D02*
G01*
X11989612Y19817412D01*
X11989612Y19912868D02*
G01*
X11948703Y19912868D01*
X11935066Y19908321D01*
X11930522Y19903777D01*
X11925975Y19894687D01*
X11925975Y19885596D01*
X11930522Y19876505D01*
X11935066Y19871959D01*
X11948703Y19867412D01*
X11989612Y19867412D01*
X11957794Y19867412D02*
G01*
X11925975Y19817412D01*
X11895975Y19853777D02*
G01*
X11841429Y19853777D01*
X11841429Y19862868D01*
X11845975Y19871959D01*
X11850522Y19876505D01*
X11859613Y19881049D01*
X11873247Y19881049D01*
X11882338Y19876505D01*
X11891429Y19867412D01*
X11895975Y19853777D01*
X11895975Y19844687D01*
X11891429Y19831050D01*
X11882338Y19821959D01*
X11873247Y19817412D01*
X11859613Y19817412D01*
X11850522Y19821959D01*
X11841429Y19831050D01*
X11811429Y19853777D02*
G01*
X11756885Y19853777D01*
X11756885Y19862868D01*
X11761429Y19871959D01*
X11765975Y19876505D01*
X11775066Y19881049D01*
X11788703Y19881049D01*
X11797794Y19876505D01*
X11806885Y19867412D01*
X11811429Y19853777D01*
X11811429Y19844687D01*
X11806885Y19831050D01*
X11797794Y19821959D01*
X11788703Y19817412D01*
X11775066Y19817412D01*
X11765975Y19821959D01*
X11756885Y19831050D01*
X11672338Y19912868D02*
G01*
X11672338Y19817412D01*
X11672338Y19867412D02*
G01*
X11681429Y19876505D01*
X11690522Y19881049D01*
X11704157Y19881049D01*
X11713248Y19876505D01*
X11722338Y19867412D01*
X11726885Y19853777D01*
X11726885Y19844687D01*
X11722338Y19831050D01*
X11713248Y19821959D01*
X11704157Y19817412D01*
X11690522Y19817412D01*
X11681429Y19821959D01*
X11672338Y19831050D01*
M02*
